DBRep_DrawableShape

CASCADE Topology V1, (c) Matra-Datavision
Locations 50
1
              1               0               0               0 
              0               1               0               0 
              0               0               1               0 
1
              1               0               0               0 
              0               1               0 -3772.74993896484 
              0               0               1               0 
1
              1               0               0               0 
              0               1               0               0 
              0               0               1 -1326.00002288818 
1
              1               0               0               0 
              0               1               0               0 
              0               0               1               0 
1
              1               0               0               0 
              0               1               0               0 
              0               0               1 -884.000015258789 
1
              1               0               0               0 
              0               1               0               0 
              0               0               1               0 
1
              1               0               0               0 
              0               1               0               0 
              0               0               1 -442.000007629395 
1
              1               0               0               0 
              0               1               0               0 
              0               0               1               0 
1
              1               0               0               0 
              0               1               0               0 
              0               0               1               0 
1
              1               0               0               0 
              0               1               0               0 
              0               0               1               0 
1
              1               0               0               0 
              0               1               0               0 
              0               0               1 442.000007629395 
1
              1               0               0               0 
              0               1               0               0 
              0               0               1               0 
1
              1               0               0               0 
              0               1               0               0 
              0               0               1 884.000015258789 
1
              1               0               0               0 
              0               1               0               0 
              0               0               1               0 
1
              1               0               0               0 
              0               1               0               0 
              0               0               1 1326.00002288818 
1
              1               0               0               0 
              0               1               0               0 
              0               0               1               0 
1
              1               0               0               0 
              0               1               0               0 
              0               0               1               0 
1
              1               0               0               0 
              0               1               0 3772.74993896484 
              0               0               1               0 
2  17 1 18 1 0
1
              1               0               0 2459.74997520447 
              0               1               0               0 
              0               0               1               0 
1
              1               0               0 -244.499959945679 
              0               1               0               0 
              0               0               1 -1326.00002288818 
1
              1               0               0               0 
              0               1               0               0 
              0               0               1               0 
1
              1               0               0               0 
              0               1               0               0 
              0               0               1               0 
1
              1               0               0 -162.999973297119 
              0               1               0               0 
              0               0               1 -884.000015258789 
2  23 1 24 1 0
1
              1               0               0               0 
              0               1               0               0 
              0               0               1               0 
1
              1               0               0 -81.4999866485596 
              0               1               0               0 
              0               0               1 -442.000007629395 
2  26 1 27 1 0
1
              1               0               0               0 
              0               1               0               0 
              0               0               1               0 
1
              1               0               0               0 
              0               1               0               0 
              0               0               1               0 
2  29 1 30 1 0
1
              1               0               0               0 
              0               1               0               0 
              0               0               1               0 
1
              1               0               0 81.4999866485596 
              0               1               0               0 
              0               0               1 442.000007629395 
2  32 1 33 1 0
1
              1               0               0               0 
              0               1               0               0 
              0               0               1               0 
1
              1               0               0 162.999973297119 
              0               1               0               0 
              0               0               1 884.000015258789 
2  35 1 36 1 0
1
              1               0               0               0 
              0               1               0               0 
              0               0               1               0 
1
              1               0               0 244.499959945679 
              0               1               0               0 
              0               0               1 1326.00002288818 
2  38 1 39 1 0
1
              1               0               0               0 
              0               1               0               0 
              0               0               1               0 
1
              1               0               0 -2459.74997520447 
              0               1               0               0 
              0               0               1               0 
2  41 1 42 1 0
2  21 -1 22 -1 0
2  24 -1 23 -1 22 -1 0
2  27 -1 26 -1 22 -1 0
2  30 -1 29 -1 22 -1 0
2  33 -1 32 -1 22 -1 0
2  36 -1 35 -1 22 -1 0
2  39 -1 38 -1 22 -1 0
Curve2ds 0
Curves 180
1 -2942.5 -727.24998474121094 -221.00000381469727 0 0 1 
1 -2942.5 -727.24998474121094 221.00000381469727 0 1 0 
1 -2942.5 727.24998474121094 -221.00000381469727 0 0 1 
1 -2942.5 -727.24998474121094 -221.00000381469727 0 1 0 
1 2942.5 -727.24998474121094 -221.00000381469727 0 0 1 
1 2942.5 -727.24998474121094 221.00000381469727 0 1 0 
1 2942.5 727.24998474121094 -221.00000381469727 0 0 1 
1 2942.5 -727.24998474121094 -221.00000381469727 0 1 0 
1 -2942.5 -727.24998474121094 -221.00000381469727 1 0 0 
1 -2942.5 -727.24998474121094 221.00000381469727 1 0 0 
1 -2942.5 727.24998474121094 -221.00000381469727 1 0 0 
1 -2942.5 727.24998474121094 221.00000381469727 1 0 0 
1 -3023.9999389648438 -727.24998474121094 -221.00000381469727 0 0 1 
1 -3023.9999389648438 -727.24998474121094 221.00000381469727 0 1 0 
1 -3023.9999389648438 727.24998474121094 -221.00000381469727 0 0 1 
1 -3023.9999389648438 -727.24998474121094 -221.00000381469727 0 1 0 
1 3023.9999389648438 -727.24998474121094 -221.00000381469727 0 0 1 
1 3023.9999389648438 -727.24998474121094 221.00000381469727 0 1 0 
1 3023.9999389648438 727.24998474121094 -221.00000381469727 0 0 1 
1 3023.9999389648438 -727.24998474121094 -221.00000381469727 0 1 0 
1 -3023.9999389648438 -727.24998474121094 -221.00000381469727 1 0 0 
1 -3023.9999389648438 -727.24998474121094 221.00000381469727 1 0 0 
1 -3023.9999389648438 727.24998474121094 -221.00000381469727 1 0 0 
1 -3023.9999389648438 727.24998474121094 221.00000381469727 1 0 0 
1 -3105.4998779296875 -727.24998474121094 -221.00000381469727 0 0 1 
1 -3105.4998779296875 -727.24998474121094 221.00000381469727 0 1 0 
1 -3105.4998779296875 727.24998474121094 -221.00000381469727 0 0 1 
1 -3105.4998779296875 -727.24998474121094 -221.00000381469727 0 1 0 
1 3105.4998779296875 -727.24998474121094 -221.00000381469727 0 0 1 
1 3105.4998779296875 -727.24998474121094 221.00000381469727 0 1 0 
1 3105.4998779296875 727.24998474121094 -221.00000381469727 0 0 1 
1 3105.4998779296875 -727.24998474121094 -221.00000381469727 0 1 0 
1 -3105.4998779296875 -727.24998474121094 -221.00000381469727 1 0 0 
1 -3105.4998779296875 -727.24998474121094 221.00000381469727 1 0 0 
1 -3105.4998779296875 727.24998474121094 -221.00000381469727 1 0 0 
1 -3105.4998779296875 727.24998474121094 221.00000381469727 1 0 0 
1 -3186.9998168945312 -727.24998474121094 -221.00000381469727 0 0 1 
1 -3186.9998168945312 -727.24998474121094 221.00000381469727 0 1 0 
1 -3186.9998168945312 727.24998474121094 -221.00000381469727 0 0 1 
1 -3186.9998168945312 -727.24998474121094 -221.00000381469727 0 1 0 
1 3186.9998168945312 -727.24998474121094 -221.00000381469727 0 0 1 
1 3186.9998168945312 -727.24998474121094 221.00000381469727 0 1 0 
1 3186.9998168945312 727.24998474121094 -221.00000381469727 0 0 1 
1 3186.9998168945312 -727.24998474121094 -221.00000381469727 0 1 0 
1 -3186.9998168945312 -727.24998474121094 -221.00000381469727 1 0 0 
1 -3186.9998168945312 -727.24998474121094 221.00000381469727 1 0 0 
1 -3186.9998168945312 727.24998474121094 -221.00000381469727 1 0 0 
1 -3186.9998168945312 727.24998474121094 221.00000381469727 1 0 0 
1 -3268.499755859375 -727.24998474121094 -221.00000381469727 0 0 1 
1 -3268.499755859375 -727.24998474121094 221.00000381469727 0 1 0 
1 -3268.499755859375 727.24998474121094 -221.00000381469727 0 0 1 
1 -3268.499755859375 -727.24998474121094 -221.00000381469727 0 1 0 
1 3268.499755859375 -727.24998474121094 -221.00000381469727 0 0 1 
1 3268.499755859375 -727.24998474121094 221.00000381469727 0 1 0 
1 3268.499755859375 727.24998474121094 -221.00000381469727 0 0 1 
1 3268.499755859375 -727.24998474121094 -221.00000381469727 0 1 0 
1 -3268.499755859375 -727.24998474121094 -221.00000381469727 1 0 0 
1 -3268.499755859375 -727.24998474121094 221.00000381469727 1 0 0 
1 -3268.499755859375 727.24998474121094 -221.00000381469727 1 0 0 
1 -3268.499755859375 727.24998474121094 221.00000381469727 1 0 0 
1 -3349.9996948242188 -727.24998474121094 -221.00000381469727 0 0 1 
1 -3349.9996948242188 -727.24998474121094 221.00000381469727 0 1 0 
1 -3349.9996948242188 727.24998474121094 -221.00000381469727 0 0 1 
1 -3349.9996948242188 -727.24998474121094 -221.00000381469727 0 1 0 
1 3349.9996948242188 -727.24998474121094 -221.00000381469727 0 0 1 
1 3349.9996948242188 -727.24998474121094 221.00000381469727 0 1 0 
1 3349.9996948242188 727.24998474121094 -221.00000381469727 0 0 1 
1 3349.9996948242188 -727.24998474121094 -221.00000381469727 0 1 0 
1 -3349.9996948242188 -727.24998474121094 -221.00000381469727 1 0 0 
1 -3349.9996948242188 -727.24998474121094 221.00000381469727 1 0 0 
1 -3349.9996948242188 727.24998474121094 -221.00000381469727 1 0 0 
1 -3349.9996948242188 727.24998474121094 221.00000381469727 1 0 0 
1 -3431.4996337890625 -727.24998474121094 -221.00000381469727 0 0 1 
1 -3431.4996337890625 -727.24998474121094 221.00000381469727 0 1 0 
1 -3431.4996337890625 727.24998474121094 -221.00000381469727 0 0 1 
1 -3431.4996337890625 -727.24998474121094 -221.00000381469727 0 1 0 
1 3431.4996337890625 -727.24998474121094 -221.00000381469727 0 0 1 
1 3431.4996337890625 -727.24998474121094 221.00000381469727 0 1 0 
1 3431.4996337890625 727.24998474121094 -221.00000381469727 0 0 1 
1 3431.4996337890625 -727.24998474121094 -221.00000381469727 0 1 0 
1 -3431.4996337890625 -727.24998474121094 -221.00000381469727 1 0 0 
1 -3431.4996337890625 -727.24998474121094 221.00000381469727 1 0 0 
1 -3431.4996337890625 727.24998474121094 -221.00000381469727 1 0 0 
1 -3431.4996337890625 727.24998474121094 221.00000381469727 1 0 0 
1 -727.24998474121094 -3045.4998779296875 -221.00000381469727 0 0 1 
1 -727.24998474121094 -3045.4998779296875 221.00000381469727 0 1 0 
1 -727.24998474121094 3045.4998779296875 -221.00000381469727 0 0 1 
1 -727.24998474121094 -3045.4998779296875 -221.00000381469727 0 1 0 
1 727.24998474121094 -3045.4998779296875 -221.00000381469727 0 0 1 
1 727.24998474121094 -3045.4998779296875 221.00000381469727 0 1 0 
1 727.24998474121094 3045.4998779296875 -221.00000381469727 0 0 1 
1 727.24998474121094 -3045.4998779296875 -221.00000381469727 0 1 0 
1 -727.24998474121094 -3045.4998779296875 -221.00000381469727 1 0 0 
1 -727.24998474121094 -3045.4998779296875 221.00000381469727 1 0 0 
1 -727.24998474121094 3045.4998779296875 -221.00000381469727 1 0 0 
1 -727.24998474121094 3045.4998779296875 221.00000381469727 1 0 0 
1 -727.24998474121094 -3045.4998779296875 2873.0000495910645 -0 -0 -1 
1 -727.24998474121094 -3045.4998779296875 2431.0000419616699 -0 1 -0 
1 -727.24998474121094 3045.4998779296875 2873.0000495910645 -0 -0 -1 
1 -727.24998474121094 -3045.4998779296875 2873.0000495910645 -0 1 -0 
1 727.24998474121094 -3045.4998779296875 2873.0000495910645 -0 -0 -1 
1 727.24998474121094 -3045.4998779296875 2431.0000419616699 -0 1 -0 
1 727.24998474121094 3045.4998779296875 2873.0000495910645 -0 -0 -1 
1 727.24998474121094 -3045.4998779296875 2873.0000495910645 -0 1 -0 
1 -727.24998474121094 -3045.4998779296875 2873.0000495910645 1 -0 -0 
1 -727.24998474121094 -3045.4998779296875 2431.0000419616699 1 -0 -0 
1 -727.24998474121094 3045.4998779296875 2873.0000495910645 1 -0 -0 
1 -727.24998474121094 3045.4998779296875 2431.0000419616699 1 -0 -0 
1 -727.24998474121094 -3045.4998779296875 1989.0000343322754 -0 -0 -1 
1 -727.24998474121094 -3045.4998779296875 1547.0000267028809 -0 1 -0 
1 -727.24998474121094 3045.4998779296875 1989.0000343322754 -0 -0 -1 
1 -727.24998474121094 -3045.4998779296875 1989.0000343322754 -0 1 -0 
1 727.24998474121094 -3045.4998779296875 1989.0000343322754 -0 -0 -1 
1 727.24998474121094 -3045.4998779296875 1547.0000267028809 -0 1 -0 
1 727.24998474121094 3045.4998779296875 1989.0000343322754 -0 -0 -1 
1 727.24998474121094 -3045.4998779296875 1989.0000343322754 -0 1 -0 
1 -727.24998474121094 -3045.4998779296875 1989.0000343322754 1 -0 -0 
1 -727.24998474121094 -3045.4998779296875 1547.0000267028809 1 -0 -0 
1 -727.24998474121094 3045.4998779296875 1989.0000343322754 1 -0 -0 
1 -727.24998474121094 3045.4998779296875 1547.0000267028809 1 -0 -0 
1 -727.24998474121094 -3045.4998779296875 1105.0000190734863 -0 -0 -1 
1 -727.24998474121094 -3045.4998779296875 663.0000114440918 -0 1 -0 
1 -727.24998474121094 3045.4998779296875 1105.0000190734863 -0 -0 -1 
1 -727.24998474121094 -3045.4998779296875 1105.0000190734863 -0 1 -0 
1 727.24998474121094 -3045.4998779296875 1105.0000190734863 -0 -0 -1 
1 727.24998474121094 -3045.4998779296875 663.0000114440918 -0 1 -0 
1 727.24998474121094 3045.4998779296875 1105.0000190734863 -0 -0 -1 
1 727.24998474121094 -3045.4998779296875 1105.0000190734863 -0 1 -0 
1 -727.24998474121094 -3045.4998779296875 1105.0000190734863 1 -0 -0 
1 -727.24998474121094 -3045.4998779296875 663.0000114440918 1 -0 -0 
1 -727.24998474121094 3045.4998779296875 1105.0000190734863 1 -0 -0 
1 -727.24998474121094 3045.4998779296875 663.0000114440918 1 -0 -0 
1 -727.24998474121094 -3045.4998779296875 221.00000381469727 -0 -0 -1 
1 -727.24998474121094 -3045.4998779296875 -221.00000381469727 -0 1 -0 
1 -727.24998474121094 3045.4998779296875 221.00000381469727 -0 -0 -1 
1 -727.24998474121094 -3045.4998779296875 221.00000381469727 -0 1 -0 
1 727.24998474121094 -3045.4998779296875 221.00000381469727 -0 -0 -1 
1 727.24998474121094 -3045.4998779296875 -221.00000381469727 -0 1 -0 
1 727.24998474121094 3045.4998779296875 221.00000381469727 -0 -0 -1 
1 727.24998474121094 -3045.4998779296875 221.00000381469727 -0 1 -0 
1 -727.24998474121094 -3045.4998779296875 221.00000381469727 1 -0 -0 
1 -727.24998474121094 -3045.4998779296875 -221.00000381469727 1 -0 -0 
1 -727.24998474121094 3045.4998779296875 221.00000381469727 1 -0 -0 
1 -727.24998474121094 3045.4998779296875 -221.00000381469727 1 -0 -0 
1 -727.24998474121094 -3045.4998779296875 -663.0000114440918 -0 -0 -1 
1 -727.24998474121094 -3045.4998779296875 -1105.0000190734863 -0 1 -0 
1 -727.24998474121094 3045.4998779296875 -663.0000114440918 -0 -0 -1 
1 -727.24998474121094 -3045.4998779296875 -663.0000114440918 -0 1 -0 
1 727.24998474121094 -3045.4998779296875 -663.0000114440918 -0 -0 -1 
1 727.24998474121094 -3045.4998779296875 -1105.0000190734863 -0 1 -0 
1 727.24998474121094 3045.4998779296875 -663.0000114440918 -0 -0 -1 
1 727.24998474121094 -3045.4998779296875 -663.0000114440918 -0 1 -0 
1 -727.24998474121094 -3045.4998779296875 -663.0000114440918 1 -0 -0 
1 -727.24998474121094 -3045.4998779296875 -1105.0000190734863 1 -0 -0 
1 -727.24998474121094 3045.4998779296875 -663.0000114440918 1 -0 -0 
1 -727.24998474121094 3045.4998779296875 -1105.0000190734863 1 -0 -0 
1 -727.24998474121094 -3045.4998779296875 -1547.0000267028809 -0 -0 -1 
1 -727.24998474121094 -3045.4998779296875 -1989.0000343322754 -0 1 -0 
1 -727.24998474121094 3045.4998779296875 -1547.0000267028809 -0 -0 -1 
1 -727.24998474121094 -3045.4998779296875 -1547.0000267028809 -0 1 -0 
1 727.24998474121094 -3045.4998779296875 -1547.0000267028809 -0 -0 -1 
1 727.24998474121094 -3045.4998779296875 -1989.0000343322754 -0 1 -0 
1 727.24998474121094 3045.4998779296875 -1547.0000267028809 -0 -0 -1 
1 727.24998474121094 -3045.4998779296875 -1547.0000267028809 -0 1 -0 
1 -727.24998474121094 -3045.4998779296875 -1547.0000267028809 1 -0 -0 
1 -727.24998474121094 -3045.4998779296875 -1989.0000343322754 1 -0 -0 
1 -727.24998474121094 3045.4998779296875 -1547.0000267028809 1 -0 -0 
1 -727.24998474121094 3045.4998779296875 -1989.0000343322754 1 -0 -0 
1 -727.24998474121094 -3045.4998779296875 -2431.0000419616699 -0 -0 -1 
1 -727.24998474121094 -3045.4998779296875 -2873.0000495910645 -0 1 -0 
1 -727.24998474121094 3045.4998779296875 -2431.0000419616699 -0 -0 -1 
1 -727.24998474121094 -3045.4998779296875 -2431.0000419616699 -0 1 -0 
1 727.24998474121094 -3045.4998779296875 -2431.0000419616699 -0 -0 -1 
1 727.24998474121094 -3045.4998779296875 -2873.0000495910645 -0 1 -0 
1 727.24998474121094 3045.4998779296875 -2431.0000419616699 -0 -0 -1 
1 727.24998474121094 -3045.4998779296875 -2431.0000419616699 -0 1 -0 
1 -727.24998474121094 -3045.4998779296875 -2431.0000419616699 1 -0 -0 
1 -727.24998474121094 -3045.4998779296875 -2873.0000495910645 1 -0 -0 
1 -727.24998474121094 3045.4998779296875 -2431.0000419616699 1 -0 -0 
1 -727.24998474121094 3045.4998779296875 -2873.0000495910645 1 -0 -0 
Polygon3D 0
PolygonOnTriangulations 0
Surfaces 90
1 -2942.5 -727.24998474121094 -221.00000381469727 1 0 0 0 0 1 0 -1 0 
1 2942.5 -727.24998474121094 -221.00000381469727 1 0 0 0 0 1 0 -1 0 
1 -2942.5 -727.24998474121094 -221.00000381469727 0 1 0 0 0 1 1 0 0 
1 -2942.5 727.24998474121094 -221.00000381469727 0 1 0 0 0 1 1 0 0 
1 -2942.5 -727.24998474121094 -221.00000381469727 0 0 1 1 0 0 0 1 0 
1 -2942.5 -727.24998474121094 221.00000381469727 0 0 1 1 0 0 0 1 0 
1 -3023.9999389648438 -727.24998474121094 -221.00000381469727 1 0 0 0 0 1 0 -1 0 
1 3023.9999389648438 -727.24998474121094 -221.00000381469727 1 0 0 0 0 1 0 -1 0 
1 -3023.9999389648438 -727.24998474121094 -221.00000381469727 0 1 0 0 0 1 1 0 0 
1 -3023.9999389648438 727.24998474121094 -221.00000381469727 0 1 0 0 0 1 1 0 0 
1 -3023.9999389648438 -727.24998474121094 -221.00000381469727 0 0 1 1 0 0 0 1 0 
1 -3023.9999389648438 -727.24998474121094 221.00000381469727 0 0 1 1 0 0 0 1 0 
1 -3105.4998779296875 -727.24998474121094 -221.00000381469727 1 0 0 0 0 1 0 -1 0 
1 3105.4998779296875 -727.24998474121094 -221.00000381469727 1 0 0 0 0 1 0 -1 0 
1 -3105.4998779296875 -727.24998474121094 -221.00000381469727 0 1 0 0 0 1 1 0 0 
1 -3105.4998779296875 727.24998474121094 -221.00000381469727 0 1 0 0 0 1 1 0 0 
1 -3105.4998779296875 -727.24998474121094 -221.00000381469727 0 0 1 1 0 0 0 1 0 
1 -3105.4998779296875 -727.24998474121094 221.00000381469727 0 0 1 1 0 0 0 1 0 
1 -3186.9998168945312 -727.24998474121094 -221.00000381469727 1 0 0 0 0 1 0 -1 0 
1 3186.9998168945312 -727.24998474121094 -221.00000381469727 1 0 0 0 0 1 0 -1 0 
1 -3186.9998168945312 -727.24998474121094 -221.00000381469727 0 1 0 0 0 1 1 0 0 
1 -3186.9998168945312 727.24998474121094 -221.00000381469727 0 1 0 0 0 1 1 0 0 
1 -3186.9998168945312 -727.24998474121094 -221.00000381469727 0 0 1 1 0 0 0 1 0 
1 -3186.9998168945312 -727.24998474121094 221.00000381469727 0 0 1 1 0 0 0 1 0 
1 -3268.499755859375 -727.24998474121094 -221.00000381469727 1 0 0 0 0 1 0 -1 0 
1 3268.499755859375 -727.24998474121094 -221.00000381469727 1 0 0 0 0 1 0 -1 0 
1 -3268.499755859375 -727.24998474121094 -221.00000381469727 0 1 0 0 0 1 1 0 0 
1 -3268.499755859375 727.24998474121094 -221.00000381469727 0 1 0 0 0 1 1 0 0 
1 -3268.499755859375 -727.24998474121094 -221.00000381469727 0 0 1 1 0 0 0 1 0 
1 -3268.499755859375 -727.24998474121094 221.00000381469727 0 0 1 1 0 0 0 1 0 
1 -3349.9996948242188 -727.24998474121094 -221.00000381469727 1 0 0 0 0 1 0 -1 0 
1 3349.9996948242188 -727.24998474121094 -221.00000381469727 1 0 0 0 0 1 0 -1 0 
1 -3349.9996948242188 -727.24998474121094 -221.00000381469727 0 1 0 0 0 1 1 0 0 
1 -3349.9996948242188 727.24998474121094 -221.00000381469727 0 1 0 0 0 1 1 0 0 
1 -3349.9996948242188 -727.24998474121094 -221.00000381469727 0 0 1 1 0 0 0 1 0 
1 -3349.9996948242188 -727.24998474121094 221.00000381469727 0 0 1 1 0 0 0 1 0 
1 -3431.4996337890625 -727.24998474121094 -221.00000381469727 1 0 0 0 0 1 0 -1 0 
1 3431.4996337890625 -727.24998474121094 -221.00000381469727 1 0 0 0 0 1 0 -1 0 
1 -3431.4996337890625 -727.24998474121094 -221.00000381469727 0 1 0 0 0 1 1 0 0 
1 -3431.4996337890625 727.24998474121094 -221.00000381469727 0 1 0 0 0 1 1 0 0 
1 -3431.4996337890625 -727.24998474121094 -221.00000381469727 0 0 1 1 0 0 0 1 0 
1 -3431.4996337890625 -727.24998474121094 221.00000381469727 0 0 1 1 0 0 0 1 0 
1 -727.24998474121094 -3045.4998779296875 -221.00000381469727 1 0 0 0 0 1 0 -1 0 
1 727.24998474121094 -3045.4998779296875 -221.00000381469727 1 0 0 0 0 1 0 -1 0 
1 -727.24998474121094 -3045.4998779296875 -221.00000381469727 0 1 0 0 0 1 1 0 0 
1 -727.24998474121094 3045.4998779296875 -221.00000381469727 0 1 0 0 0 1 1 0 0 
1 -727.24998474121094 -3045.4998779296875 -221.00000381469727 0 0 1 1 0 0 0 1 0 
1 -727.24998474121094 -3045.4998779296875 221.00000381469727 0 0 1 1 0 0 0 1 0 
1 -727.24998474121094 -3045.4998779296875 2873.0000495910645 1 -0 -0 -0 -0 -1 -0 -1 -0 
1 727.24998474121094 -3045.4998779296875 2873.0000495910645 1 -0 -0 -0 -0 -1 -0 -1 -0 
1 -727.24998474121094 -3045.4998779296875 2873.0000495910645 -0 1 -0 -0 -0 -1 1 -0 -0 
1 -727.24998474121094 3045.4998779296875 2873.0000495910645 -0 1 -0 -0 -0 -1 1 -0 -0 
1 -727.24998474121094 -3045.4998779296875 2873.0000495910645 -0 -0 -1 1 -0 -0 -0 1 -0 
1 -727.24998474121094 -3045.4998779296875 2431.0000419616699 -0 -0 -1 1 -0 -0 -0 1 -0 
1 -727.24998474121094 -3045.4998779296875 1989.0000343322754 1 -0 -0 -0 -0 -1 -0 -1 -0 
1 727.24998474121094 -3045.4998779296875 1989.0000343322754 1 -0 -0 -0 -0 -1 -0 -1 -0 
1 -727.24998474121094 -3045.4998779296875 1989.0000343322754 -0 1 -0 -0 -0 -1 1 -0 -0 
1 -727.24998474121094 3045.4998779296875 1989.0000343322754 -0 1 -0 -0 -0 -1 1 -0 -0 
1 -727.24998474121094 -3045.4998779296875 1989.0000343322754 -0 -0 -1 1 -0 -0 -0 1 -0 
1 -727.24998474121094 -3045.4998779296875 1547.0000267028809 -0 -0 -1 1 -0 -0 -0 1 -0 
1 -727.24998474121094 -3045.4998779296875 1105.0000190734863 1 -0 -0 -0 -0 -1 -0 -1 -0 
1 727.24998474121094 -3045.4998779296875 1105.0000190734863 1 -0 -0 -0 -0 -1 -0 -1 -0 
1 -727.24998474121094 -3045.4998779296875 1105.0000190734863 -0 1 -0 -0 -0 -1 1 -0 -0 
1 -727.24998474121094 3045.4998779296875 1105.0000190734863 -0 1 -0 -0 -0 -1 1 -0 -0 
1 -727.24998474121094 -3045.4998779296875 1105.0000190734863 -0 -0 -1 1 -0 -0 -0 1 -0 
1 -727.24998474121094 -3045.4998779296875 663.0000114440918 -0 -0 -1 1 -0 -0 -0 1 -0 
1 -727.24998474121094 -3045.4998779296875 221.00000381469727 1 -0 -0 -0 -0 -1 -0 -1 -0 
1 727.24998474121094 -3045.4998779296875 221.00000381469727 1 -0 -0 -0 -0 -1 -0 -1 -0 
1 -727.24998474121094 -3045.4998779296875 221.00000381469727 -0 1 -0 -0 -0 -1 1 -0 -0 
1 -727.24998474121094 3045.4998779296875 221.00000381469727 -0 1 -0 -0 -0 -1 1 -0 -0 
1 -727.24998474121094 -3045.4998779296875 221.00000381469727 -0 -0 -1 1 -0 -0 -0 1 -0 
1 -727.24998474121094 -3045.4998779296875 -221.00000381469727 -0 -0 -1 1 -0 -0 -0 1 -0 
1 -727.24998474121094 -3045.4998779296875 -663.0000114440918 1 -0 -0 -0 -0 -1 -0 -1 -0 
1 727.24998474121094 -3045.4998779296875 -663.0000114440918 1 -0 -0 -0 -0 -1 -0 -1 -0 
1 -727.24998474121094 -3045.4998779296875 -663.0000114440918 -0 1 -0 -0 -0 -1 1 -0 -0 
1 -727.24998474121094 3045.4998779296875 -663.0000114440918 -0 1 -0 -0 -0 -1 1 -0 -0 
1 -727.24998474121094 -3045.4998779296875 -663.0000114440918 -0 -0 -1 1 -0 -0 -0 1 -0 
1 -727.24998474121094 -3045.4998779296875 -1105.0000190734863 -0 -0 -1 1 -0 -0 -0 1 -0 
1 -727.24998474121094 -3045.4998779296875 -1547.0000267028809 1 -0 -0 -0 -0 -1 -0 -1 -0 
1 727.24998474121094 -3045.4998779296875 -1547.0000267028809 1 -0 -0 -0 -0 -1 -0 -1 -0 
1 -727.24998474121094 -3045.4998779296875 -1547.0000267028809 -0 1 -0 -0 -0 -1 1 -0 -0 
1 -727.24998474121094 3045.4998779296875 -1547.0000267028809 -0 1 -0 -0 -0 -1 1 -0 -0 
1 -727.24998474121094 -3045.4998779296875 -1547.0000267028809 -0 -0 -1 1 -0 -0 -0 1 -0 
1 -727.24998474121094 -3045.4998779296875 -1989.0000343322754 -0 -0 -1 1 -0 -0 -0 1 -0 
1 -727.24998474121094 -3045.4998779296875 -2431.0000419616699 1 -0 -0 -0 -0 -1 -0 -1 -0 
1 727.24998474121094 -3045.4998779296875 -2431.0000419616699 1 -0 -0 -0 -0 -1 -0 -1 -0 
1 -727.24998474121094 -3045.4998779296875 -2431.0000419616699 -0 1 -0 -0 -0 -1 1 -0 -0 
1 -727.24998474121094 3045.4998779296875 -2431.0000419616699 -0 1 -0 -0 -0 -1 1 -0 -0 
1 -727.24998474121094 -3045.4998779296875 -2431.0000419616699 -0 -0 -1 1 -0 -0 -0 1 -0 
1 -727.24998474121094 -3045.4998779296875 -2873.0000495910645 -0 -0 -1 1 -0 -0 -0 1 -0 
Triangulations 0

TShapes 530
Ve
1e-07
-2942.5 -727.249984741211 221.000003814697
0 0

0101101
*
Ve
1e-07
-2942.5 -727.249984741211 -221.000003814697
0 0

0101101
*
Ed
 1e-07 1 1 0
1  1 0 0 442.000007629395
0

0101000
-530 0 +529 0 *
Ve
1e-07
-2942.5 727.249984741211 221.000003814697
0 0

0101101
*
Ed
 1e-07 1 1 0
1  2 0 0 1454.49996948242
0

0101000
-527 0 +530 0 *
Ve
1e-07
-2942.5 727.249984741211 -221.000003814697
0 0

0101101
*
Ed
 1e-07 1 1 0
1  3 0 0 442.000007629395
0

0101000
-527 0 +525 0 *
Ed
 1e-07 1 1 0
1  4 0 0 1454.49996948242
0

0101000
-525 0 +529 0 *
Wi

0101100
-528 0 -526 0 +524 0 +523 0 *
Fa
0  1e-07 1 0

0111000
+522 0 *
Ve
1e-07
2942.5 -727.249984741211 221.000003814697
0 0

0101101
*
Ve
1e-07
2942.5 -727.249984741211 -221.000003814697
0 0

0101101
*
Ed
 1e-07 1 1 0
1  5 0 0 442.000007629395
0

0101000
-520 0 +519 0 *
Ve
1e-07
2942.5 727.249984741211 221.000003814697
0 0

0101101
*
Ed
 1e-07 1 1 0
1  6 0 0 1454.49996948242
0

0101000
-517 0 +520 0 *
Ve
1e-07
2942.5 727.249984741211 -221.000003814697
0 0

0101101
*
Ed
 1e-07 1 1 0
1  7 0 0 442.000007629395
0

0101000
-517 0 +515 0 *
Ed
 1e-07 1 1 0
1  8 0 0 1454.49996948242
0

0101000
-515 0 +519 0 *
Wi

0101100
-518 0 -516 0 +514 0 +513 0 *
Fa
0  1e-07 2 0

0111000
+512 0 *
Ed
 1e-07 1 1 0
1  9 0 0 5885
0

0101000
-519 0 +529 0 *
Ed
 1e-07 1 1 0
1  10 0 0 5885
0

0101000
-520 0 +530 0 *
Wi

0101100
-510 0 -518 0 +509 0 +528 0 *
Fa
0  1e-07 3 0

0111000
+508 0 *
Ed
 1e-07 1 1 0
1  11 0 0 5885
0

0101000
-515 0 +525 0 *
Ed
 1e-07 1 1 0
1  12 0 0 5885
0

0101000
-517 0 +527 0 *
Wi

0101100
-506 0 -514 0 +505 0 +524 0 *
Fa
0  1e-07 4 0

0111000
+504 0 *
Wi

0101100
-523 0 -506 0 +513 0 +510 0 *
Fa
0  1e-07 5 0

0111000
+502 0 *
Wi

0101100
-526 0 -505 0 +516 0 +509 0 *
Fa
0  1e-07 6 0

0111000
+500 0 *
Sh

0101100
-521 0 +511 0 -507 0 +503 0 -501 0 +499 0 *
So

0100000
+498 0 *
Co

0100000
+497 4 *
Ve
1e-07
-3023.99993896484 -727.249984741211 221.000003814697
0 0

0101101
*
Ve
1e-07
-3023.99993896484 -727.249984741211 -221.000003814697
0 0

0101101
*
Ed
 1e-07 1 1 0
1  13 0 0 442.000007629395
0

0101000
-495 0 +494 0 *
Ve
1e-07
-3023.99993896484 727.249984741211 221.000003814697
0 0

0101101
*
Ed
 1e-07 1 1 0
1  14 0 0 1454.49996948242
0

0101000
-492 0 +495 0 *
Ve
1e-07
-3023.99993896484 727.249984741211 -221.000003814697
0 0

0101101
*
Ed
 1e-07 1 1 0
1  15 0 0 442.000007629395
0

0101000
-492 0 +490 0 *
Ed
 1e-07 1 1 0
1  16 0 0 1454.49996948242
0

0101000
-490 0 +494 0 *
Wi

0101100
-493 0 -491 0 +489 0 +488 0 *
Fa
0  1e-07 7 0

0111000
+487 0 *
Ve
1e-07
3023.99993896484 -727.249984741211 221.000003814697
0 0

0101101
*
Ve
1e-07
3023.99993896484 -727.249984741211 -221.000003814697
0 0

0101101
*
Ed
 1e-07 1 1 0
1  17 0 0 442.000007629395
0

0101000
-485 0 +484 0 *
Ve
1e-07
3023.99993896484 727.249984741211 221.000003814697
0 0

0101101
*
Ed
 1e-07 1 1 0
1  18 0 0 1454.49996948242
0

0101000
-482 0 +485 0 *
Ve
1e-07
3023.99993896484 727.249984741211 -221.000003814697
0 0

0101101
*
Ed
 1e-07 1 1 0
1  19 0 0 442.000007629395
0

0101000
-482 0 +480 0 *
Ed
 1e-07 1 1 0
1  20 0 0 1454.49996948242
0

0101000
-480 0 +484 0 *
Wi

0101100
-483 0 -481 0 +479 0 +478 0 *
Fa
0  1e-07 8 0

0111000
+477 0 *
Ed
 1e-07 1 1 0
1  21 0 0 6047.99987792969
0

0101000
-484 0 +494 0 *
Ed
 1e-07 1 1 0
1  22 0 0 6047.99987792969
0

0101000
-485 0 +495 0 *
Wi

0101100
-475 0 -483 0 +474 0 +493 0 *
Fa
0  1e-07 9 0

0111000
+473 0 *
Ed
 1e-07 1 1 0
1  23 0 0 6047.99987792969
0

0101000
-480 0 +490 0 *
Ed
 1e-07 1 1 0
1  24 0 0 6047.99987792969
0

0101000
-482 0 +492 0 *
Wi

0101100
-471 0 -479 0 +470 0 +489 0 *
Fa
0  1e-07 10 0

0111000
+469 0 *
Wi

0101100
-488 0 -471 0 +478 0 +475 0 *
Fa
0  1e-07 11 0

0111000
+467 0 *
Wi

0101100
-491 0 -470 0 +481 0 +474 0 *
Fa
0  1e-07 12 0

0111000
+465 0 *
Sh

0101100
-486 0 +476 0 -472 0 +468 0 -466 0 +464 0 *
So

0100000
+463 0 *
Co

0100000
+462 6 *
Ve
1e-07
-3105.49987792969 -727.249984741211 221.000003814697
0 0

0101101
*
Ve
1e-07
-3105.49987792969 -727.249984741211 -221.000003814697
0 0

0101101
*
Ed
 1e-07 1 1 0
1  25 0 0 442.000007629395
0

0101000
-460 0 +459 0 *
Ve
1e-07
-3105.49987792969 727.249984741211 221.000003814697
0 0

0101101
*
Ed
 1e-07 1 1 0
1  26 0 0 1454.49996948242
0

0101000
-457 0 +460 0 *
Ve
1e-07
-3105.49987792969 727.249984741211 -221.000003814697
0 0

0101101
*
Ed
 1e-07 1 1 0
1  27 0 0 442.000007629395
0

0101000
-457 0 +455 0 *
Ed
 1e-07 1 1 0
1  28 0 0 1454.49996948242
0

0101000
-455 0 +459 0 *
Wi

0101100
-458 0 -456 0 +454 0 +453 0 *
Fa
0  1e-07 13 0

0111000
+452 0 *
Ve
1e-07
3105.49987792969 -727.249984741211 221.000003814697
0 0

0101101
*
Ve
1e-07
3105.49987792969 -727.249984741211 -221.000003814697
0 0

0101101
*
Ed
 1e-07 1 1 0
1  29 0 0 442.000007629395
0

0101000
-450 0 +449 0 *
Ve
1e-07
3105.49987792969 727.249984741211 221.000003814697
0 0

0101101
*
Ed
 1e-07 1 1 0
1  30 0 0 1454.49996948242
0

0101000
-447 0 +450 0 *
Ve
1e-07
3105.49987792969 727.249984741211 -221.000003814697
0 0

0101101
*
Ed
 1e-07 1 1 0
1  31 0 0 442.000007629395
0

0101000
-447 0 +445 0 *
Ed
 1e-07 1 1 0
1  32 0 0 1454.49996948242
0

0101000
-445 0 +449 0 *
Wi

0101100
-448 0 -446 0 +444 0 +443 0 *
Fa
0  1e-07 14 0

0111000
+442 0 *
Ed
 1e-07 1 1 0
1  33 0 0 6210.99975585938
0

0101000
-449 0 +459 0 *
Ed
 1e-07 1 1 0
1  34 0 0 6210.99975585938
0

0101000
-450 0 +460 0 *
Wi

0101100
-440 0 -448 0 +439 0 +458 0 *
Fa
0  1e-07 15 0

0111000
+438 0 *
Ed
 1e-07 1 1 0
1  35 0 0 6210.99975585938
0

0101000
-445 0 +455 0 *
Ed
 1e-07 1 1 0
1  36 0 0 6210.99975585938
0

0101000
-447 0 +457 0 *
Wi

0101100
-436 0 -444 0 +435 0 +454 0 *
Fa
0  1e-07 16 0

0111000
+434 0 *
Wi

0101100
-453 0 -436 0 +443 0 +440 0 *
Fa
0  1e-07 17 0

0111000
+432 0 *
Wi

0101100
-456 0 -435 0 +446 0 +439 0 *
Fa
0  1e-07 18 0

0111000
+430 0 *
Sh

0101100
-451 0 +441 0 -437 0 +433 0 -431 0 +429 0 *
So

0100000
+428 0 *
Co

0100000
+427 8 *
Ve
1e-07
-3186.99981689453 -727.249984741211 221.000003814697
0 0

0101101
*
Ve
1e-07
-3186.99981689453 -727.249984741211 -221.000003814697
0 0

0101101
*
Ed
 1e-07 1 1 0
1  37 0 0 442.000007629395
0

0101000
-425 0 +424 0 *
Ve
1e-07
-3186.99981689453 727.249984741211 221.000003814697
0 0

0101101
*
Ed
 1e-07 1 1 0
1  38 0 0 1454.49996948242
0

0101000
-422 0 +425 0 *
Ve
1e-07
-3186.99981689453 727.249984741211 -221.000003814697
0 0

0101101
*
Ed
 1e-07 1 1 0
1  39 0 0 442.000007629395
0

0101000
-422 0 +420 0 *
Ed
 1e-07 1 1 0
1  40 0 0 1454.49996948242
0

0101000
-420 0 +424 0 *
Wi

0101100
-423 0 -421 0 +419 0 +418 0 *
Fa
0  1e-07 19 0

0111000
+417 0 *
Ve
1e-07
3186.99981689453 -727.249984741211 221.000003814697
0 0

0101101
*
Ve
1e-07
3186.99981689453 -727.249984741211 -221.000003814697
0 0

0101101
*
Ed
 1e-07 1 1 0
1  41 0 0 442.000007629395
0

0101000
-415 0 +414 0 *
Ve
1e-07
3186.99981689453 727.249984741211 221.000003814697
0 0

0101101
*
Ed
 1e-07 1 1 0
1  42 0 0 1454.49996948242
0

0101000
-412 0 +415 0 *
Ve
1e-07
3186.99981689453 727.249984741211 -221.000003814697
0 0

0101101
*
Ed
 1e-07 1 1 0
1  43 0 0 442.000007629395
0

0101000
-412 0 +410 0 *
Ed
 1e-07 1 1 0
1  44 0 0 1454.49996948242
0

0101000
-410 0 +414 0 *
Wi

0101100
-413 0 -411 0 +409 0 +408 0 *
Fa
0  1e-07 20 0

0111000
+407 0 *
Ed
 1e-07 1 1 0
1  45 0 0 6373.99963378906
0

0101000
-414 0 +424 0 *
Ed
 1e-07 1 1 0
1  46 0 0 6373.99963378906
0

0101000
-415 0 +425 0 *
Wi

0101100
-405 0 -413 0 +404 0 +423 0 *
Fa
0  1e-07 21 0

0111000
+403 0 *
Ed
 1e-07 1 1 0
1  47 0 0 6373.99963378906
0

0101000
-410 0 +420 0 *
Ed
 1e-07 1 1 0
1  48 0 0 6373.99963378906
0

0101000
-412 0 +422 0 *
Wi

0101100
-401 0 -409 0 +400 0 +419 0 *
Fa
0  1e-07 22 0

0111000
+399 0 *
Wi

0101100
-418 0 -401 0 +408 0 +405 0 *
Fa
0  1e-07 23 0

0111000
+397 0 *
Wi

0101100
-421 0 -400 0 +411 0 +404 0 *
Fa
0  1e-07 24 0

0111000
+395 0 *
Sh

0101100
-416 0 +406 0 -402 0 +398 0 -396 0 +394 0 *
So

0100000
+393 0 *
Co

0100000
+392 10 *
Ve
1e-07
-3268.49975585938 -727.249984741211 221.000003814697
0 0

0101101
*
Ve
1e-07
-3268.49975585938 -727.249984741211 -221.000003814697
0 0

0101101
*
Ed
 1e-07 1 1 0
1  49 0 0 442.000007629395
0

0101000
-390 0 +389 0 *
Ve
1e-07
-3268.49975585938 727.249984741211 221.000003814697
0 0

0101101
*
Ed
 1e-07 1 1 0
1  50 0 0 1454.49996948242
0

0101000
-387 0 +390 0 *
Ve
1e-07
-3268.49975585938 727.249984741211 -221.000003814697
0 0

0101101
*
Ed
 1e-07 1 1 0
1  51 0 0 442.000007629395
0

0101000
-387 0 +385 0 *
Ed
 1e-07 1 1 0
1  52 0 0 1454.49996948242
0

0101000
-385 0 +389 0 *
Wi

0101100
-388 0 -386 0 +384 0 +383 0 *
Fa
0  1e-07 25 0

0111000
+382 0 *
Ve
1e-07
3268.49975585938 -727.249984741211 221.000003814697
0 0

0101101
*
Ve
1e-07
3268.49975585938 -727.249984741211 -221.000003814697
0 0

0101101
*
Ed
 1e-07 1 1 0
1  53 0 0 442.000007629395
0

0101000
-380 0 +379 0 *
Ve
1e-07
3268.49975585938 727.249984741211 221.000003814697
0 0

0101101
*
Ed
 1e-07 1 1 0
1  54 0 0 1454.49996948242
0

0101000
-377 0 +380 0 *
Ve
1e-07
3268.49975585938 727.249984741211 -221.000003814697
0 0

0101101
*
Ed
 1e-07 1 1 0
1  55 0 0 442.000007629395
0

0101000
-377 0 +375 0 *
Ed
 1e-07 1 1 0
1  56 0 0 1454.49996948242
0

0101000
-375 0 +379 0 *
Wi

0101100
-378 0 -376 0 +374 0 +373 0 *
Fa
0  1e-07 26 0

0111000
+372 0 *
Ed
 1e-07 1 1 0
1  57 0 0 6536.99951171875
0

0101000
-379 0 +389 0 *
Ed
 1e-07 1 1 0
1  58 0 0 6536.99951171875
0

0101000
-380 0 +390 0 *
Wi

0101100
-370 0 -378 0 +369 0 +388 0 *
Fa
0  1e-07 27 0

0111000
+368 0 *
Ed
 1e-07 1 1 0
1  59 0 0 6536.99951171875
0

0101000
-375 0 +385 0 *
Ed
 1e-07 1 1 0
1  60 0 0 6536.99951171875
0

0101000
-377 0 +387 0 *
Wi

0101100
-366 0 -374 0 +365 0 +384 0 *
Fa
0  1e-07 28 0

0111000
+364 0 *
Wi

0101100
-383 0 -366 0 +373 0 +370 0 *
Fa
0  1e-07 29 0

0111000
+362 0 *
Wi

0101100
-386 0 -365 0 +376 0 +369 0 *
Fa
0  1e-07 30 0

0111000
+360 0 *
Sh

0101100
-381 0 +371 0 -367 0 +363 0 -361 0 +359 0 *
So

0100000
+358 0 *
Co

0100000
+357 12 *
Ve
1e-07
-3349.99969482422 -727.249984741211 221.000003814697
0 0

0101101
*
Ve
1e-07
-3349.99969482422 -727.249984741211 -221.000003814697
0 0

0101101
*
Ed
 1e-07 1 1 0
1  61 0 0 442.000007629395
0

0101000
-355 0 +354 0 *
Ve
1e-07
-3349.99969482422 727.249984741211 221.000003814697
0 0

0101101
*
Ed
 1e-07 1 1 0
1  62 0 0 1454.49996948242
0

0101000
-352 0 +355 0 *
Ve
1e-07
-3349.99969482422 727.249984741211 -221.000003814697
0 0

0101101
*
Ed
 1e-07 1 1 0
1  63 0 0 442.000007629395
0

0101000
-352 0 +350 0 *
Ed
 1e-07 1 1 0
1  64 0 0 1454.49996948242
0

0101000
-350 0 +354 0 *
Wi

0101100
-353 0 -351 0 +349 0 +348 0 *
Fa
0  1e-07 31 0

0111000
+347 0 *
Ve
1e-07
3349.99969482422 -727.249984741211 221.000003814697
0 0

0101101
*
Ve
1e-07
3349.99969482422 -727.249984741211 -221.000003814697
0 0

0101101
*
Ed
 1e-07 1 1 0
1  65 0 0 442.000007629395
0

0101000
-345 0 +344 0 *
Ve
1e-07
3349.99969482422 727.249984741211 221.000003814697
0 0

0101101
*
Ed
 1e-07 1 1 0
1  66 0 0 1454.49996948242
0

0101000
-342 0 +345 0 *
Ve
1e-07
3349.99969482422 727.249984741211 -221.000003814697
0 0

0101101
*
Ed
 1e-07 1 1 0
1  67 0 0 442.000007629395
0

0101000
-342 0 +340 0 *
Ed
 1e-07 1 1 0
1  68 0 0 1454.49996948242
0

0101000
-340 0 +344 0 *
Wi

0101100
-343 0 -341 0 +339 0 +338 0 *
Fa
0  1e-07 32 0

0111000
+337 0 *
Ed
 1e-07 1 1 0
1  69 0 0 6699.99938964844
0

0101000
-344 0 +354 0 *
Ed
 1e-07 1 1 0
1  70 0 0 6699.99938964844
0

0101000
-345 0 +355 0 *
Wi

0101100
-335 0 -343 0 +334 0 +353 0 *
Fa
0  1e-07 33 0

0111000
+333 0 *
Ed
 1e-07 1 1 0
1  71 0 0 6699.99938964844
0

0101000
-340 0 +350 0 *
Ed
 1e-07 1 1 0
1  72 0 0 6699.99938964844
0

0101000
-342 0 +352 0 *
Wi

0101100
-331 0 -339 0 +330 0 +349 0 *
Fa
0  1e-07 34 0

0111000
+329 0 *
Wi

0101100
-348 0 -331 0 +338 0 +335 0 *
Fa
0  1e-07 35 0

0111000
+327 0 *
Wi

0101100
-351 0 -330 0 +341 0 +334 0 *
Fa
0  1e-07 36 0

0111000
+325 0 *
Sh

0101100
-346 0 +336 0 -332 0 +328 0 -326 0 +324 0 *
So

0100000
+323 0 *
Co

0100000
+322 14 *
Ve
1e-07
-3431.49963378906 -727.249984741211 221.000003814697
0 0

0101101
*
Ve
1e-07
-3431.49963378906 -727.249984741211 -221.000003814697
0 0

0101101
*
Ed
 1e-07 1 1 0
1  73 0 0 442.000007629395
0

0101000
-320 0 +319 0 *
Ve
1e-07
-3431.49963378906 727.249984741211 221.000003814697
0 0

0101101
*
Ed
 1e-07 1 1 0
1  74 0 0 1454.49996948242
0

0101000
-317 0 +320 0 *
Ve
1e-07
-3431.49963378906 727.249984741211 -221.000003814697
0 0

0101101
*
Ed
 1e-07 1 1 0
1  75 0 0 442.000007629395
0

0101000
-317 0 +315 0 *
Ed
 1e-07 1 1 0
1  76 0 0 1454.49996948242
0

0101000
-315 0 +319 0 *
Wi

0101100
-318 0 -316 0 +314 0 +313 0 *
Fa
0  1e-07 37 0

0111000
+312 0 *
Ve
1e-07
3431.49963378906 -727.249984741211 221.000003814697
0 0

0101101
*
Ve
1e-07
3431.49963378906 -727.249984741211 -221.000003814697
0 0

0101101
*
Ed
 1e-07 1 1 0
1  77 0 0 442.000007629395
0

0101000
-310 0 +309 0 *
Ve
1e-07
3431.49963378906 727.249984741211 221.000003814697
0 0

0101101
*
Ed
 1e-07 1 1 0
1  78 0 0 1454.49996948242
0

0101000
-307 0 +310 0 *
Ve
1e-07
3431.49963378906 727.249984741211 -221.000003814697
0 0

0101101
*
Ed
 1e-07 1 1 0
1  79 0 0 442.000007629395
0

0101000
-307 0 +305 0 *
Ed
 1e-07 1 1 0
1  80 0 0 1454.49996948242
0

0101000
-305 0 +309 0 *
Wi

0101100
-308 0 -306 0 +304 0 +303 0 *
Fa
0  1e-07 38 0

0111000
+302 0 *
Ed
 1e-07 1 1 0
1  81 0 0 6862.99926757812
0

0101000
-309 0 +319 0 *
Ed
 1e-07 1 1 0
1  82 0 0 6862.99926757812
0

0101000
-310 0 +320 0 *
Wi

0101100
-300 0 -308 0 +299 0 +318 0 *
Fa
0  1e-07 39 0

0111000
+298 0 *
Ed
 1e-07 1 1 0
1  83 0 0 6862.99926757812
0

0101000
-305 0 +315 0 *
Ed
 1e-07 1 1 0
1  84 0 0 6862.99926757812
0

0101000
-307 0 +317 0 *
Wi

0101100
-296 0 -304 0 +295 0 +314 0 *
Fa
0  1e-07 40 0

0111000
+294 0 *
Wi

0101100
-313 0 -296 0 +303 0 +300 0 *
Fa
0  1e-07 41 0

0111000
+292 0 *
Wi

0101100
-316 0 -295 0 +306 0 +299 0 *
Fa
0  1e-07 42 0

0111000
+290 0 *
Sh

0101100
-311 0 +301 0 -297 0 +293 0 -291 0 +289 0 *
So

0100000
+288 0 *
Co

0100000
+287 16 *
Co

0100000
+496 3 +461 5 +426 7 +391 9 +356 11 +321 13 +286 15 *
Ve
1e-07
-727.249984741211 -3045.49987792969 221.000003814697
0 0

0101101
*
Ve
1e-07
-727.249984741211 -3045.49987792969 -221.000003814697
0 0

0101101
*
Ed
 1e-07 1 1 0
1  85 0 0 442.000007629395
0

0101000
-284 0 +283 0 *
Ve
1e-07
-727.249984741211 3045.49987792969 221.000003814697
0 0

0101101
*
Ed
 1e-07 1 1 0
1  86 0 0 6090.99975585938
0

0101000
-281 0 +284 0 *
Ve
1e-07
-727.249984741211 3045.49987792969 -221.000003814697
0 0

0101101
*
Ed
 1e-07 1 1 0
1  87 0 0 442.000007629395
0

0101000
-281 0 +279 0 *
Ed
 1e-07 1 1 0
1  88 0 0 6090.99975585938
0

0101000
-279 0 +283 0 *
Wi

0101100
-282 0 -280 0 +278 0 +277 0 *
Fa
0  1e-07 43 0

0111000
+276 0 *
Ve
1e-07
727.249984741211 -3045.49987792969 221.000003814697
0 0

0101101
*
Ve
1e-07
727.249984741211 -3045.49987792969 -221.000003814697
0 0

0101101
*
Ed
 1e-07 1 1 0
1  89 0 0 442.000007629395
0

0101000
-274 0 +273 0 *
Ve
1e-07
727.249984741211 3045.49987792969 221.000003814697
0 0

0101101
*
Ed
 1e-07 1 1 0
1  90 0 0 6090.99975585938
0

0101000
-271 0 +274 0 *
Ve
1e-07
727.249984741211 3045.49987792969 -221.000003814697
0 0

0101101
*
Ed
 1e-07 1 1 0
1  91 0 0 442.000007629395
0

0101000
-271 0 +269 0 *
Ed
 1e-07 1 1 0
1  92 0 0 6090.99975585938
0

0101000
-269 0 +273 0 *
Wi

0101100
-272 0 -270 0 +268 0 +267 0 *
Fa
0  1e-07 44 0

0111000
+266 0 *
Ed
 1e-07 1 1 0
1  93 0 0 1454.49996948242
0

0101000
-273 0 +283 0 *
Ed
 1e-07 1 1 0
1  94 0 0 1454.49996948242
0

0101000
-274 0 +284 0 *
Wi

0101100
-264 0 -272 0 +263 0 +282 0 *
Fa
0  1e-07 45 0

0111000
+262 0 *
Ed
 1e-07 1 1 0
1  95 0 0 1454.49996948242
0

0101000
-269 0 +279 0 *
Ed
 1e-07 1 1 0
1  96 0 0 1454.49996948242
0

0101000
-271 0 +281 0 *
Wi

0101100
-260 0 -268 0 +259 0 +278 0 *
Fa
0  1e-07 46 0

0111000
+258 0 *
Wi

0101100
-277 0 -260 0 +267 0 +264 0 *
Fa
0  1e-07 47 0

0111000
+256 0 *
Wi

0101100
-280 0 -259 0 +270 0 +263 0 *
Fa
0  1e-07 48 0

0111000
+254 0 *
Sh

0101100
-275 0 +265 0 -261 0 +257 0 -255 0 +253 0 *
So

0100000
+252 0 *
Co

0100000
+251 22 *
Co

0100000
+250 21 +250 25 +250 28 +250 31 +250 34 +250 37 +250 40 *
Ve
1e-07
-971.74994468689 -3045.49987792969 1105.00001907349
0 0

0101101
*
Ve
1e-07
-971.74994468689 -3045.49987792969 1547.00002670288
0 0

0101101
*
Ed
 1e-07 1 1 0
1  97 0 0 442.000007629395
0

0101000
-248 44 +247 44 *
Ve
1e-07
-971.74994468689 3045.49987792969 1105.00001907349
0 0

0101101
*
Ed
 1e-07 1 1 0
1  98 0 0 6090.99975585938
0

0101000
-245 44 +248 44 *
Ve
1e-07
-971.74994468689 3045.49987792969 1547.00002670288
0 0

0101101
*
Ed
 1e-07 1 1 0
1  99 0 0 442.000007629395
0

0101000
-245 44 +243 44 *
Ed
 1e-07 1 1 0
1  100 0 0 6090.99975585938
0

0101000
-243 44 +247 44 *
Wi

0101100
-246 0 -244 0 +242 0 +241 0 *
Fa
0  1e-07 49 0

0101000
+240 0 *
Ve
1e-07
482.750024795532 -3045.49987792969 1105.00001907349
0 0

0101101
*
Ve
1e-07
482.750024795532 -3045.49987792969 1547.00002670288
0 0

0101101
*
Ed
 1e-07 1 1 0
1  101 0 0 442.000007629395
0

0101000
-238 44 +237 44 *
Ve
1e-07
482.750024795532 3045.49987792969 1105.00001907349
0 0

0101101
*
Ed
 1e-07 1 1 0
1  102 0 0 6090.99975585938
0

0101000
-235 44 +238 44 *
Ve
1e-07
482.750024795532 3045.49987792969 1547.00002670288
0 0

0101101
*
Ed
 1e-07 1 1 0
1  103 0 0 442.000007629395
0

0101000
-235 44 +233 44 *
Ed
 1e-07 1 1 0
1  104 0 0 6090.99975585938
0

0101000
-233 44 +237 44 *
Wi

0101100
-236 0 -234 0 +232 0 +231 0 *
Fa
0  1e-07 50 0

0101000
+230 0 *
Ed
 1e-07 1 1 0
1  105 0 0 1454.49996948242
0

0101000
-237 44 +247 44 *
Ed
 1e-07 1 1 0
1  106 0 0 1454.49996948242
0

0101000
-238 44 +248 44 *
Wi

0101100
-228 0 -236 0 +227 0 +246 0 *
Fa
0  1e-07 51 0

0101000
+226 0 *
Ed
 1e-07 1 1 0
1  107 0 0 1454.49996948242
0

0101000
-233 44 +243 44 *
Ed
 1e-07 1 1 0
1  108 0 0 1454.49996948242
0

0101000
-235 44 +245 44 *
Wi

0101100
-224 0 -232 0 +223 0 +242 0 *
Fa
0  1e-07 52 0

0101000
+222 0 *
Wi

0101100
-241 0 -224 0 +231 0 +228 0 *
Fa
0  1e-07 53 0

0101000
+220 0 *
Wi

0101100
-244 0 -223 0 +234 0 +227 0 *
Fa
0  1e-07 54 0

0101000
+218 0 *
Sh

0101100
+239 0 -229 0 +225 0 -221 0 +219 0 -217 0 *
So

0100000
+216 0 *
Co

0100000
+215 22 *
Ve
1e-07
-890.24995803833 -3045.49987792969 663.000011444092
0 0

0101101
*
Ve
1e-07
-890.24995803833 -3045.49987792969 1105.00001907349
0 0

0101101
*
Ed
 1e-07 1 1 0
1  109 0 0 442.000007629395
0

0101000
-213 45 +212 45 *
Ve
1e-07
-890.24995803833 3045.49987792969 663.000011444092
0 0

0101101
*
Ed
 1e-07 1 1 0
1  110 0 0 6090.99975585938
0

0101000
-210 45 +213 45 *
Ve
1e-07
-890.24995803833 3045.49987792969 1105.00001907349
0 0

0101101
*
Ed
 1e-07 1 1 0
1  111 0 0 442.000007629395
0

0101000
-210 45 +208 45 *
Ed
 1e-07 1 1 0
1  112 0 0 6090.99975585938
0

0101000
-208 45 +212 45 *
Wi

0101100
-211 0 -209 0 +207 0 +206 0 *
Fa
0  1e-07 55 0

0101000
+205 0 *
Ve
1e-07
564.250011444092 -3045.49987792969 663.000011444092
0 0

0101101
*
Ve
1e-07
564.250011444092 -3045.49987792969 1105.00001907349
0 0

0101101
*
Ed
 1e-07 1 1 0
1  113 0 0 442.000007629395
0

0101000
-203 45 +202 45 *
Ve
1e-07
564.250011444092 3045.49987792969 663.000011444092
0 0

0101101
*
Ed
 1e-07 1 1 0
1  114 0 0 6090.99975585938
0

0101000
-200 45 +203 45 *
Ve
1e-07
564.250011444092 3045.49987792969 1105.00001907349
0 0

0101101
*
Ed
 1e-07 1 1 0
1  115 0 0 442.000007629395
0

0101000
-200 45 +198 45 *
Ed
 1e-07 1 1 0
1  116 0 0 6090.99975585938
0

0101000
-198 45 +202 45 *
Wi

0101100
-201 0 -199 0 +197 0 +196 0 *
Fa
0  1e-07 56 0

0101000
+195 0 *
Ed
 1e-07 1 1 0
1  117 0 0 1454.49996948242
0

0101000
-202 45 +212 45 *
Ed
 1e-07 1 1 0
1  118 0 0 1454.49996948242
0

0101000
-203 45 +213 45 *
Wi

0101100
-193 0 -201 0 +192 0 +211 0 *
Fa
0  1e-07 57 0

0101000
+191 0 *
Ed
 1e-07 1 1 0
1  119 0 0 1454.49996948242
0

0101000
-198 45 +208 45 *
Ed
 1e-07 1 1 0
1  120 0 0 1454.49996948242
0

0101000
-200 45 +210 45 *
Wi

0101100
-189 0 -197 0 +188 0 +207 0 *
Fa
0  1e-07 58 0

0101000
+187 0 *
Wi

0101100
-206 0 -189 0 +196 0 +193 0 *
Fa
0  1e-07 59 0

0101000
+185 0 *
Wi

0101100
-209 0 -188 0 +199 0 +192 0 *
Fa
0  1e-07 60 0

0101000
+183 0 *
Sh

0101100
+204 0 -194 0 +190 0 -186 0 +184 0 -182 0 *
So

0100000
+181 0 *
Co

0100000
+180 22 *
Ve
1e-07
-808.749971389771 -3045.49987792969 221.000003814697
0 0

0101101
*
Ve
1e-07
-808.749971389771 -3045.49987792969 663.000011444092
0 0

0101101
*
Ed
 1e-07 1 1 0
1  121 0 0 442.000007629395
0

0101000
-178 46 +177 46 *
Ve
1e-07
-808.749971389771 3045.49987792969 221.000003814697
0 0

0101101
*
Ed
 1e-07 1 1 0
1  122 0 0 6090.99975585938
0

0101000
-175 46 +178 46 *
Ve
1e-07
-808.749971389771 3045.49987792969 663.000011444092
0 0

0101101
*
Ed
 1e-07 1 1 0
1  123 0 0 442.000007629395
0

0101000
-175 46 +173 46 *
Ed
 1e-07 1 1 0
1  124 0 0 6090.99975585938
0

0101000
-173 46 +177 46 *
Wi

0101100
-176 0 -174 0 +172 0 +171 0 *
Fa
0  1e-07 61 0

0101000
+170 0 *
Ve
1e-07
645.749998092651 -3045.49987792969 221.000003814697
0 0

0101101
*
Ve
1e-07
645.749998092651 -3045.49987792969 663.000011444092
0 0

0101101
*
Ed
 1e-07 1 1 0
1  125 0 0 442.000007629395
0

0101000
-168 46 +167 46 *
Ve
1e-07
645.749998092651 3045.49987792969 221.000003814697
0 0

0101101
*
Ed
 1e-07 1 1 0
1  126 0 0 6090.99975585938
0

0101000
-165 46 +168 46 *
Ve
1e-07
645.749998092651 3045.49987792969 663.000011444092
0 0

0101101
*
Ed
 1e-07 1 1 0
1  127 0 0 442.000007629395
0

0101000
-165 46 +163 46 *
Ed
 1e-07 1 1 0
1  128 0 0 6090.99975585938
0

0101000
-163 46 +167 46 *
Wi

0101100
-166 0 -164 0 +162 0 +161 0 *
Fa
0  1e-07 62 0

0101000
+160 0 *
Ed
 1e-07 1 1 0
1  129 0 0 1454.49996948242
0

0101000
-167 46 +177 46 *
Ed
 1e-07 1 1 0
1  130 0 0 1454.49996948242
0

0101000
-168 46 +178 46 *
Wi

0101100
-158 0 -166 0 +157 0 +176 0 *
Fa
0  1e-07 63 0

0101000
+156 0 *
Ed
 1e-07 1 1 0
1  131 0 0 1454.49996948242
0

0101000
-163 46 +173 46 *
Ed
 1e-07 1 1 0
1  132 0 0 1454.49996948242
0

0101000
-165 46 +175 46 *
Wi

0101100
-154 0 -162 0 +153 0 +172 0 *
Fa
0  1e-07 64 0

0101000
+152 0 *
Wi

0101100
-171 0 -154 0 +161 0 +158 0 *
Fa
0  1e-07 65 0

0101000
+150 0 *
Wi

0101100
-174 0 -153 0 +164 0 +157 0 *
Fa
0  1e-07 66 0

0101000
+148 0 *
Sh

0101100
+169 0 -159 0 +155 0 -151 0 +149 0 -147 0 *
So

0100000
+146 0 *
Co

0100000
+145 22 *
Ve
1e-07
-727.249984741211 -3045.49987792969 -221.000003814697
0 0

0101101
*
Ve
1e-07
-727.249984741211 -3045.49987792969 221.000003814697
0 0

0101101
*
Ed
 1e-07 1 1 0
1  133 0 0 442.000007629395
0

0101000
-143 47 +142 47 *
Ve
1e-07
-727.249984741211 3045.49987792969 -221.000003814697
0 0

0101101
*
Ed
 1e-07 1 1 0
1  134 0 0 6090.99975585938
0

0101000
-140 47 +143 47 *
Ve
1e-07
-727.249984741211 3045.49987792969 221.000003814697
0 0

0101101
*
Ed
 1e-07 1 1 0
1  135 0 0 442.000007629395
0

0101000
-140 47 +138 47 *
Ed
 1e-07 1 1 0
1  136 0 0 6090.99975585938
0

0101000
-138 47 +142 47 *
Wi

0101100
-141 0 -139 0 +137 0 +136 0 *
Fa
0  1e-07 67 0

0101000
+135 0 *
Ve
1e-07
727.249984741211 -3045.49987792969 -221.000003814697
0 0

0101101
*
Ve
1e-07
727.249984741211 -3045.49987792969 221.000003814697
0 0

0101101
*
Ed
 1e-07 1 1 0
1  137 0 0 442.000007629395
0

0101000
-133 47 +132 47 *
Ve
1e-07
727.249984741211 3045.49987792969 -221.000003814697
0 0

0101101
*
Ed
 1e-07 1 1 0
1  138 0 0 6090.99975585938
0

0101000
-130 47 +133 47 *
Ve
1e-07
727.249984741211 3045.49987792969 221.000003814697
0 0

0101101
*
Ed
 1e-07 1 1 0
1  139 0 0 442.000007629395
0

0101000
-130 47 +128 47 *
Ed
 1e-07 1 1 0
1  140 0 0 6090.99975585938
0

0101000
-128 47 +132 47 *
Wi

0101100
-131 0 -129 0 +127 0 +126 0 *
Fa
0  1e-07 68 0

0101000
+125 0 *
Ed
 1e-07 1 1 0
1  141 0 0 1454.49996948242
0

0101000
-132 47 +142 47 *
Ed
 1e-07 1 1 0
1  142 0 0 1454.49996948242
0

0101000
-133 47 +143 47 *
Wi

0101100
-123 0 -131 0 +122 0 +141 0 *
Fa
0  1e-07 69 0

0101000
+121 0 *
Ed
 1e-07 1 1 0
1  143 0 0 1454.49996948242
0

0101000
-128 47 +138 47 *
Ed
 1e-07 1 1 0
1  144 0 0 1454.49996948242
0

0101000
-130 47 +140 47 *
Wi

0101100
-119 0 -127 0 +118 0 +137 0 *
Fa
0  1e-07 70 0

0101000
+117 0 *
Wi

0101100
-136 0 -119 0 +126 0 +123 0 *
Fa
0  1e-07 71 0

0101000
+115 0 *
Wi

0101100
-139 0 -118 0 +129 0 +122 0 *
Fa
0  1e-07 72 0

0101000
+113 0 *
Sh

0101100
+134 0 -124 0 +120 0 -116 0 +114 0 -112 0 *
So

0100000
+111 0 *
Co

0100000
+110 22 *
Ve
1e-07
-645.749998092651 -3045.49987792969 -663.000011444092
0 0

0101101
*
Ve
1e-07
-645.749998092651 -3045.49987792969 -221.000003814697
0 0

0101101
*
Ed
 1e-07 1 1 0
1  145 0 0 442.000007629395
0

0101000
-108 48 +107 48 *
Ve
1e-07
-645.749998092651 3045.49987792969 -663.000011444092
0 0

0101101
*
Ed
 1e-07 1 1 0
1  146 0 0 6090.99975585938
0

0101000
-105 48 +108 48 *
Ve
1e-07
-645.749998092651 3045.49987792969 -221.000003814697
0 0

0101101
*
Ed
 1e-07 1 1 0
1  147 0 0 442.000007629395
0

0101000
-105 48 +103 48 *
Ed
 1e-07 1 1 0
1  148 0 0 6090.99975585938
0

0101000
-103 48 +107 48 *
Wi

0101100
-106 0 -104 0 +102 0 +101 0 *
Fa
0  1e-07 73 0

0101000
+100 0 *
Ve
1e-07
808.749971389771 -3045.49987792969 -663.000011444092
0 0

0101101
*
Ve
1e-07
808.749971389771 -3045.49987792969 -221.000003814697
0 0

0101101
*
Ed
 1e-07 1 1 0
1  149 0 0 442.000007629395
0

0101000
-98 48 +97 48 *
Ve
1e-07
808.749971389771 3045.49987792969 -663.000011444092
0 0

0101101
*
Ed
 1e-07 1 1 0
1  150 0 0 6090.99975585938
0

0101000
-95 48 +98 48 *
Ve
1e-07
808.749971389771 3045.49987792969 -221.000003814697
0 0

0101101
*
Ed
 1e-07 1 1 0
1  151 0 0 442.000007629395
0

0101000
-95 48 +93 48 *
Ed
 1e-07 1 1 0
1  152 0 0 6090.99975585938
0

0101000
-93 48 +97 48 *
Wi

0101100
-96 0 -94 0 +92 0 +91 0 *
Fa
0  1e-07 74 0

0101000
+90 0 *
Ed
 1e-07 1 1 0
1  153 0 0 1454.49996948242
0

0101000
-97 48 +107 48 *
Ed
 1e-07 1 1 0
1  154 0 0 1454.49996948242
0

0101000
-98 48 +108 48 *
Wi

0101100
-88 0 -96 0 +87 0 +106 0 *
Fa
0  1e-07 75 0

0101000
+86 0 *
Ed
 1e-07 1 1 0
1  155 0 0 1454.49996948242
0

0101000
-93 48 +103 48 *
Ed
 1e-07 1 1 0
1  156 0 0 1454.49996948242
0

0101000
-95 48 +105 48 *
Wi

0101100
-84 0 -92 0 +83 0 +102 0 *
Fa
0  1e-07 76 0

0101000
+82 0 *
Wi

0101100
-101 0 -84 0 +91 0 +88 0 *
Fa
0  1e-07 77 0

0101000
+80 0 *
Wi

0101100
-104 0 -83 0 +94 0 +87 0 *
Fa
0  1e-07 78 0

0101000
+78 0 *
Sh

0101100
+99 0 -89 0 +85 0 -81 0 +79 0 -77 0 *
So

0100000
+76 0 *
Co

0100000
+75 22 *
Ve
1e-07
-564.250011444092 -3045.49987792969 -1105.00001907349
0 0

0101101
*
Ve
1e-07
-564.250011444092 -3045.49987792969 -663.000011444092
0 0

0101101
*
Ed
 1e-07 1 1 0
1  157 0 0 442.000007629395
0

0101000
-73 49 +72 49 *
Ve
1e-07
-564.250011444092 3045.49987792969 -1105.00001907349
0 0

0101101
*
Ed
 1e-07 1 1 0
1  158 0 0 6090.99975585938
0

0101000
-70 49 +73 49 *
Ve
1e-07
-564.250011444092 3045.49987792969 -663.000011444092
0 0

0101101
*
Ed
 1e-07 1 1 0
1  159 0 0 442.000007629395
0

0101000
-70 49 +68 49 *
Ed
 1e-07 1 1 0
1  160 0 0 6090.99975585938
0

0101000
-68 49 +72 49 *
Wi

0101100
-71 0 -69 0 +67 0 +66 0 *
Fa
0  1e-07 79 0

0101000
+65 0 *
Ve
1e-07
890.24995803833 -3045.49987792969 -1105.00001907349
0 0

0101101
*
Ve
1e-07
890.24995803833 -3045.49987792969 -663.000011444092
0 0

0101101
*
Ed
 1e-07 1 1 0
1  161 0 0 442.000007629395
0

0101000
-63 49 +62 49 *
Ve
1e-07
890.24995803833 3045.49987792969 -1105.00001907349
0 0

0101101
*
Ed
 1e-07 1 1 0
1  162 0 0 6090.99975585938
0

0101000
-60 49 +63 49 *
Ve
1e-07
890.24995803833 3045.49987792969 -663.000011444092
0 0

0101101
*
Ed
 1e-07 1 1 0
1  163 0 0 442.000007629395
0

0101000
-60 49 +58 49 *
Ed
 1e-07 1 1 0
1  164 0 0 6090.99975585938
0

0101000
-58 49 +62 49 *
Wi

0101100
-61 0 -59 0 +57 0 +56 0 *
Fa
0  1e-07 80 0

0101000
+55 0 *
Ed
 1e-07 1 1 0
1  165 0 0 1454.49996948242
0

0101000
-62 49 +72 49 *
Ed
 1e-07 1 1 0
1  166 0 0 1454.49996948242
0

0101000
-63 49 +73 49 *
Wi

0101100
-53 0 -61 0 +52 0 +71 0 *
Fa
0  1e-07 81 0

0101000
+51 0 *
Ed
 1e-07 1 1 0
1  167 0 0 1454.49996948242
0

0101000
-58 49 +68 49 *
Ed
 1e-07 1 1 0
1  168 0 0 1454.49996948242
0

0101000
-60 49 +70 49 *
Wi

0101100
-49 0 -57 0 +48 0 +67 0 *
Fa
0  1e-07 82 0

0101000
+47 0 *
Wi

0101100
-66 0 -49 0 +56 0 +53 0 *
Fa
0  1e-07 83 0

0101000
+45 0 *
Wi

0101100
-69 0 -48 0 +59 0 +52 0 *
Fa
0  1e-07 84 0

0101000
+43 0 *
Sh

0101100
+64 0 -54 0 +50 0 -46 0 +44 0 -42 0 *
So

0100000
+41 0 *
Co

0100000
+40 22 *
Ve
1e-07
-482.750024795532 -3045.49987792969 -1547.00002670288
0 0

0101101
*
Ve
1e-07
-482.750024795532 -3045.49987792969 -1105.00001907349
0 0

0101101
*
Ed
 1e-07 1 1 0
1  169 0 0 442.000007629395
0

0101000
-38 50 +37 50 *
Ve
1e-07
-482.750024795532 3045.49987792969 -1547.00002670288
0 0

0101101
*
Ed
 1e-07 1 1 0
1  170 0 0 6090.99975585938
0

0101000
-35 50 +38 50 *
Ve
1e-07
-482.750024795532 3045.49987792969 -1105.00001907349
0 0

0101101
*
Ed
 1e-07 1 1 0
1  171 0 0 442.000007629395
0

0101000
-35 50 +33 50 *
Ed
 1e-07 1 1 0
1  172 0 0 6090.99975585938
0

0101000
-33 50 +37 50 *
Wi

0101100
-36 0 -34 0 +32 0 +31 0 *
Fa
0  1e-07 85 0

0101000
+30 0 *
Ve
1e-07
971.74994468689 -3045.49987792969 -1547.00002670288
0 0

0101101
*
Ve
1e-07
971.74994468689 -3045.49987792969 -1105.00001907349
0 0

0101101
*
Ed
 1e-07 1 1 0
1  173 0 0 442.000007629395
0

0101000
-28 50 +27 50 *
Ve
1e-07
971.74994468689 3045.49987792969 -1547.00002670288
0 0

0101101
*
Ed
 1e-07 1 1 0
1  174 0 0 6090.99975585938
0

0101000
-25 50 +28 50 *
Ve
1e-07
971.74994468689 3045.49987792969 -1105.00001907349
0 0

0101101
*
Ed
 1e-07 1 1 0
1  175 0 0 442.000007629395
0

0101000
-25 50 +23 50 *
Ed
 1e-07 1 1 0
1  176 0 0 6090.99975585938
0

0101000
-23 50 +27 50 *
Wi

0101100
-26 0 -24 0 +22 0 +21 0 *
Fa
0  1e-07 86 0

0101000
+20 0 *
Ed
 1e-07 1 1 0
1  177 0 0 1454.49996948242
0

0101000
-27 50 +37 50 *
Ed
 1e-07 1 1 0
1  178 0 0 1454.49996948242
0

0101000
-28 50 +38 50 *
Wi

0101100
-18 0 -26 0 +17 0 +36 0 *
Fa
0  1e-07 87 0

0101000
+16 0 *
Ed
 1e-07 1 1 0
1  179 0 0 1454.49996948242
0

0101000
-23 50 +33 50 *
Ed
 1e-07 1 1 0
1  180 0 0 1454.49996948242
0

0101000
-25 50 +35 50 *
Wi

0101100
-14 0 -22 0 +13 0 +32 0 *
Fa
0  1e-07 88 0

0101000
+12 0 *
Wi

0101100
-31 0 -14 0 +21 0 +18 0 *
Fa
0  1e-07 89 0

0101000
+10 0 *
Wi

0101100
-34 0 -13 0 +24 0 +17 0 *
Fa
0  1e-07 90 0

0101000
+8 0 *
Sh

0101100
+29 0 -19 0 +15 0 -11 0 +9 0 -7 0 *
So

0100000
+6 0 *
Co

0100000
+5 22 *
Co

0100000
+214 21 +179 25 +144 28 +109 31 +74 34 +39 37 +4 40 *
Co

0100000
+285 2 +285 19 +249 20 +3 43 *
Co

1100000
+2 1 *

+1 0 