DBRep_DrawableShape

CASCADE Topology V1, (c) Matra-Datavision
Locations 12
1
              1               0               0               0 
              0               1               0               0 
              0               0               1               0 
1
              1               0               0               0 
              0               1               0               0 
              0               0               1               0 
1
              1               0               0               0 
              0               1               0               0 
              0               0               1               0 
1
              1               0               0               0 
              0               1               0               0 
              0               0               1               0 
1
              1               0               0               0 
              0               1               0               0 
              0               0               1               0 
1
              1               0               0               0 
              0               1               0               0 
              0               0               1               0 
1
              1               0               0               0 
              0               1               0               0 
              0               0               1               0 
1
              1               0               0               0 
              0               1               0               0 
              0               0               1               0 
1
              1               0               0               0 
              0               1               0               0 
              0               0               1               0 
1
              1               0               0               0 
              0               1               0               0 
              0               0               1               0 
1
              1               0               0               0 
              0               1               0               0 
              0               0               1               0 
2  2 1 3 1 4 1 5 1 6 1 7 1 8 1 9 1 10 1 11 1 0
Curve2ds 8
1 0 700 1 0 
1 1.5707963267948966 -0 0 1 
1 0 0 1 0 
1 0 -0 0 1 
1 0 700 1 0 
1 1.5707963267948966 0 0 1 
1 0 0 1 0 
1 0 -0 0 1 
Curves 12
2 0 0 350 0 0 1 1 0 -0 -0 1 0 1085
1 1.2045919817182948e-13 1085 -350 0 0 1 
2 0 0 -350 0 0 1 1 0 -0 -0 1 0 1085
1 1085 0 -350 0 0 1 
1 0 0 350 1 0 0 
2 0 0 350 0 0 1 1 0 -0 -0 1 0 315
1 0 0 350 1.1102230246251565e-16 1 0 
1 0 0 -350 1.1102230246251565e-16 1 0 
1 3.4972025275692431e-14 315 -350 0 0 1 
1 0 0 -350 1 0 0 
2 0 0 -350 0 0 1 1 0 -0 -0 1 0 315
1 315 -7.7152748346283257e-14 -350 0 0 1 
Polygon3D 0
PolygonOnTriangulations 0
Surfaces 6
2 0 0 -350 0 0 1 1 0 -0 -0 1 0 1085
1 0 0 350 0 0 1 1 0 -0 -0 1 0 
2 0 0 -350 0 0 1 1 0 -0 -0 1 0 315
1 0 0 -350 1 -1.1102230246251565e-16 0 1.1102230246251565e-16 1 0 -0 0 1 
1 0 0 -350 0 0 1 1 0 -0 -0 1 0 
1 0 0 -350 0 -1 0 1 0 0 -0 0 1 
Triangulations 0

TShapes 36
Ve
1e-07
1.20459198171829e-13 1085 350
0 0

0101101
*
Ve
1e-07
1085 0 350
0 0

0101101
*
Ed
 1e-07 1 1 0
1  1 0 0 1.5707963267949
2  1 1 0 0 1.5707963267949
0

0101000
-36 0 +35 0 *
Ve
1e-07
1.20459198171829e-13 1085 -350
0 0

0101101
*
Ed
 1e-07 1 1 0
1  2 0 0 700
2  2 1 0 0 700
0

0101000
-36 0 +33 0 *
Ve
1e-07
1085 0 -350
0 0

0101101
*
Ed
 1e-07 1 1 0
1  3 0 0 1.5707963267949
2  3 1 0 0 1.5707963267949
0

0101000
-33 0 +31 0 *
Ed
 1e-07 1 1 0
1  4 0 0 700
2  4 1 0 0 700
0

0101000
-35 0 +31 0 *
Wi

0101100
-34 0 +32 0 +30 0 -29 0 *
Fa
0  1e-07 1 0

0111000
+28 0 *
Ve
1.00000077152748e-07
315 -7.71527483462833e-14 350
0 0

0101101
*
Ed
 1e-07 1 1 0
1  5 0 315 1085
0

0101000
+26 0 -35 0 *
Ve
1.00006077290479e-07
6.11226250415161e-12 315 350
0 0

0101101
*
Ed
 1e-07 1 1 0
1  6 0 0 1.57079632679488
2  5 3 0 0 1.57079632679488
0

0101000
+26 0 -24 0 *
Ed
 1e-07 1 1 0
1  7 0 315 1085
0

0101000
+24 0 -36 0 *
Wi

0101100
+34 0 +25 0 -23 0 -22 0 *
Fa
0  1e-07 2 0

0111000
+21 0 *
Ve
1.00006077290479e-07
6.11226250415161e-12 315 -350
0 0

0101101
*
Ed
 1e-07 1 1 0
1  8 0 315 1085
0

0101000
+19 0 -33 0 *
Ed
 1e-07 1 1 0
1  9 0 0 700
2  6 3 0 0 700
0

0101000
+19 0 -24 0 *
Wi

0101100
-22 0 +32 0 +18 0 -17 0 *
Fa
0  1e-07 4 0

0111000
+16 0 *
Ve
1.00000077152748e-07
315 -7.71527483462833e-14 -350
0 0

0101101
*
Ed
 1e-07 1 1 0
1  10 0 315 1085
0

0101000
+14 0 -31 0 *
Ed
 1e-07 1 1 0
1  11 0 0 1.57079632679488
2  7 3 0 0 1.57079632679488
0

0101000
+14 0 -19 0 *
Wi

0101100
+30 0 +13 0 -12 0 -18 0 *
Fa
0  1e-07 5 0

0111000
+11 0 *
Ed
 1.00000077152748e-07 1 1 0
1  12 0 0 700
2  8 3 0 0 700
0

0101000
-26 0 +14 0 *
Wi

0101100
-9 0 -25 0 +29 0 +13 0 *
Fa
0  1e-07 6 0

0111000
+8 0 *
Wi

0101100
-23 0 +17 0 +12 0 -9 0 *
Fa
0  1e-07 3 0

0111000
+6 0 *
Sh

0101100
+27 12 +20 12 -15 12 -10 12 +7 12 -5 12 *
So

0100000
+4 0 *
Co

0100000
+3 0 *
Co

1100000
+2 1 *

+1 0 