DBRep_DrawableShape

CASCADE Topology V1, (c) Matra-Datavision
Locations 7
1
              1               0               0               0 
              0               1               0               0 
              0               0               1               0 
1
0.484809620246337 0.874619707139396               0               0 
-0.874619707139396 0.484809620246337               0               0 
              0               0               1               0 
1
              1               0               0               0 
              0               1               0               0 
              0               0               1               0 
1
              1               0               0               0 
              0               1               0               0 
              0               0               1               0 
2  2 1 3 1 4 1 0
2  2 -1 0
2  3 1 4 1 0
Curve2ds 30
1 0 770 1 0 
2 0 0 1 0 -0 1 2760
1 2.1293016874330819 -0 0 1 
1 2760 0 0 1 
1 0 0 1 0 
2 0 0 1 0 -0 1 2760
1 0 -0 0 1 
1 2760 0 0 1 
1 0 0 1 0 
1 0 770 1 0 
1 0 770 1 0 
2 0 0 0.48480962024633723 0.87461970713939563 -0.87461970713939563 0.48480962024633723 2060
1 0 770 1 0 
2 0 0 0.48480962024633723 0.87461970713939563 -0.87461970713939563 0.48480962024633723 2060
1 0 0 -0.52991926423320468 0.84804809615642607 
1 0 770 1 0 
1 0 0 1 0 
1 0 0 -0.52991926423320468 0.84804809615642607 
1 1.0646508437165412 0 0 1 
1 2060 0 0 1 
1 0 0 1 0 
1 0 0 1 0 
1 0 0 1 0 
2 0 0 0.48480962024633723 0.87461970713939563 -0.87461970713939563 0.48480962024633723 2060
1 0 0 1 0 
2 0 0 0.48480962024633723 0.87461970713939563 -0.87461970713939563 0.48480962024633723 2060
1 5.2185344634630457 0 0 1 
1 2060 0 0 1 
1 6.2831853071795862 -0 0 1 
1 0 -0 0 1 
Curves 15
2 0 0 385 0 0 1 1 0 0 0 1 0 2760
1 -1462.5771692836449 2340.6127453917361 -385 0 0 1 
2 0 0 -385 0 0 1 1 0 0 0 1 0 2760
1 2760 0 -385 0 0 1 
1 0 0 385 1 0 0 
2 0 0 385 0 0 1 1 0 0 0 1 0 2060
2 0 0 385 0 0 1 1 0 0 0 1 0 2060
1 0 0 385 -0.52991926423320468 0.84804809615642607 0 
1 0 0 -385 -0.52991926423320468 0.84804809615642607 0 
1 998.70781770745418 1801.7165967071555 -385 0 0 1 
1 0 0 -385 1 0 0 
2 0 0 -385 0 0 1 1 0 0 0 1 0 2060
2 0 0 -385 0 0 1 1 0 0 0 1 0 2060
1 998.70781770745464 -1801.7165967071551 -385 0 0 1 
1 2060 -5.0455448124870952e-13 -385 0 0 1 
Polygon3D 0
PolygonOnTriangulations 0
Surfaces 7
2 0 0 -385 0 0 1 1 0 0 0 1 0 2760
1 0 0 385 0 0 1 1 0 0 0 1 0 
1 0 0 -385 0.84804809615642607 0.52991926423320468 0 -0.52991926423320468 0.84804809615642607 0 0 0 1 
1 0 0 -385 0 0 1 1 0 0 0 1 0 
1 0 0 -385 0 -1 0 1 0 0 0 0 1 
2 0 0 -385 0 0 1 1 0 0 0 1 0 2060
2 0 0 -385 0 0 1 1 0 0 0 1 0 2060
Triangulations 0

TShapes 43
Ve
1e-07
1338.07455187989 2413.95039170473 385
0 0

0101101
*
Ve
1e-07
1338.07455187989 -2413.95039170473 385
0 0

0101101
*
Ed
 1e-07 1 1 0
1  1 0 0 2.12930168743308
2  1 1 0 0 2.12930168743308
2  2 2 0 0 2.12930168743308
0

0101000
-43 6 +42 6 *
Ve
1e-07
1338.07455187989 2413.95039170473 -385
0 0

0101101
*
Ed
 1e-07 1 1 0
1  2 0 0 770
2  3 1 0 0 770
2  4 3 0 0 770
0

0101000
-43 6 +40 6 *
Ve
1e-07
1338.07455187989 -2413.95039170473 -385
0 0

0101101
*
Ed
 1e-07 1 1 0
1  3 0 0 2.12930168743308
2  5 1 0 0 2.12930168743308
2  6 4 0 0 2.12930168743308
0

0101000
-40 6 +38 6 *
Ed
 1e-07 1 1 0
1  4 0 0 770
2  7 1 0 0 770
2  8 5 0 0 770
0

0101000
-42 6 +38 6 *
Wi

0101100
-41 0 +39 0 +37 0 -36 0 *
Fa
0  1e-07 1 0

0111000
+35 0 *
Ve
1.00008364292274e-07
998.707817707462 -1801.71659670715 385
0 0

0101101
*
Ed
 1e-07 1 1 0
1  5 0 2060 2760
2  9 2 0 2060 2760
2  10 5 0 2060 2760
0

0101000
+33 6 -42 6 *
Ve
1e-07
2060 -5.0455448124871e-13 385
0 0

0101101
*
Ed
 1e-07 1 1 0
1  6 0 5.21853446346305 6.28318530717959
2  11 6 0 5.21853446346305 6.28318530717959
2  12 2 2 5.21853446346305 6.28318530717959
0

0101000
+33 0 -31 0 *
Ve
1.00009067193506e-07
998.707817707462 1801.71659670715 385
0 0

0101101
*
Ed
 1e-07 1 1 0
1  7 0 0 1.06465084371654
2  13 7 0 0 1.06465084371654
2  14 2 2 0 1.06465084371654
0

0101000
+31 0 -29 0 *
Ed
 1e-07 1 1 0
1  8 0 2060 2760
2  15 2 0 2060 2760
2  16 3 0 2060 2760
0

0101000
+29 6 -43 6 *
Wi

0101100
+41 2 +32 2 -30 0 -28 0 -27 2 *
Fa
0  1e-07 2 2

0111000
+26 0 *
Ve
1.00009067193506e-07
998.707817707462 1801.71659670715 -385
0 0

0101101
*
Ed
 1e-07 1 1 0
1  9 0 2060 2760
2  17 3 0 2060 2760
2  18 4 0 2060 2760
0

0101000
+24 6 -40 6 *
Ed
 1e-07 1 1 0
1  10 0 0 770
2  19 7 0 0 770
2  20 3 2 0 770
0

0101000
+24 0 -29 0 *
Wi

0101100
-27 2 +39 2 +23 2 -22 0 *
Fa
0  1e-07 3 2

0111000
+21 0 *
Ve
1.00008364292274e-07
998.707817707462 -1801.71659670715 -385
0 0

0101101
*
Ed
 1e-07 1 1 0
1  11 0 2060 2760
2  21 4 0 2060 2760
2  22 5 0 2060 2760
0

0101000
+19 6 -38 6 *
Ve
1e-07
2060 -5.0455448124871e-13 -385
0 0

0101101
*
Ed
 1e-07 1 1 0
1  12 0 5.21853446346305 6.28318530717959
2  23 6 0 5.21853446346305 6.28318530717959
2  24 4 2 5.21853446346305 6.28318530717959
0

0101000
+19 0 -17 0 *
Ed
 1e-07 1 1 0
1  13 0 0 1.06465084371654
2  25 7 0 0 1.06465084371654
2  26 4 2 0 1.06465084371654
0

0101000
+17 0 -24 0 *
Wi

0101100
+37 2 +18 2 -16 0 -15 0 -23 2 *
Fa
0  1e-07 4 2

0111000
+14 0 *
Ed
 1e-07 1 1 0
1  14 0 0 770
2  27 6 0 0 770
2  28 5 2 0 770
0

0101000
+19 0 -33 0 *
Wi

0101100
-12 0 -32 2 +36 2 +18 2 *
Fa
0  1e-07 5 2

0111000
+11 0 *
Ed
 1e-07 1 1 0
1  15 0 0 770
2  29 6 0 0 770
2  30 7 0 0 770
4 CN 6 0 7 0
0

0101000
-31 0 +17 0 *
Wi

0101100
+9 0 +16 0 -12 0 -30 0 *
Fa
0  1e-07 6 0

0111000
+8 0 *
Wi

0101100
-28 0 +22 0 +15 0 -9 0 *
Fa
0  1e-07 7 0

0111000
+6 0 *
Sh

0101100
+34 5 +25 7 -20 7 -13 7 +10 7 -7 7 -5 7 *
So

0100000
+4 0 *
Co

0100000
+3 0 *
Co

1100000
+2 1 *

+1 0 