DBRep_DrawableShape

CASCADE Topology V1, (c) Matra-Datavision
Locations 8
1
              1               0               0               0 
              0               1               0               0 
              0               0               1               0 
1
              1               0               0               0 
              0               1               0             -50 
              0               0               1               0 
1
              1               0               0               0 
              0               1               0               0 
              0               0               1               0 
1
              1               0               0               0 
              0               1               0               0 
              0               0               1               0 
1
              1               0               0               0 
              0               1               0            -200 
              0               0               1               0 
2  4 1 5 1 0
1
              1               0               0               0 
              0               1               0            -125 
              0               0               1               0 
1
              1               0               0               0 
              0               1               0               0 
              0               0               1               0 
Curve2ds 0
Curves 24
1 -100 -5 -5000 0 0 1 
1 -100 -5 5000 0 1 0 
1 -100 5 -5000 0 0 1 
1 -100 -5 -5000 0 1 0 
1 100 -5 -5000 0 0 1 
1 100 -5 5000 0 1 0 
1 100 5 -5000 0 0 1 
1 100 -5 -5000 0 1 0 
1 -100 -5 -5000 1 0 0 
1 -100 -5 5000 1 0 0 
1 -100 5 -5000 1 0 0 
1 -100 5 5000 1 0 0 
1 -10 -70 -5000 0 0 1 
1 -10 -70 5000 0 1 0 
1 -10 70 -5000 0 0 1 
1 -10 -70 -5000 0 1 0 
1 10 -70 -5000 0 0 1 
1 10 -70 5000 0 1 0 
1 10 70 -5000 0 0 1 
1 10 -70 -5000 0 1 0 
1 -10 -70 -5000 1 0 0 
1 -10 -70 5000 1 0 0 
1 -10 70 -5000 1 0 0 
1 -10 70 5000 1 0 0 
Polygon3D 0
PolygonOnTriangulations 0
Surfaces 12
1 -100 -5 -5000 1 0 0 0 0 1 0 -1 0 
1 100 -5 -5000 1 0 0 0 0 1 0 -1 0 
1 -100 -5 -5000 0 1 0 0 0 1 1 0 0 
1 -100 5 -5000 0 1 0 0 0 1 1 0 0 
1 -100 -5 -5000 0 0 1 1 0 0 0 1 0 
1 -100 -5 5000 0 0 1 1 0 0 0 1 0 
1 -10 -70 -5000 1 0 0 0 0 1 0 -1 0 
1 10 -70 -5000 1 0 0 0 0 1 0 -1 0 
1 -10 -70 -5000 0 1 0 0 0 1 1 0 0 
1 -10 70 -5000 0 1 0 0 0 1 1 0 0 
1 -10 -70 -5000 0 0 1 1 0 0 0 1 0 
1 -10 -70 5000 0 0 1 1 0 0 0 1 0 
Triangulations 0

TShapes 72
Ve
1e-07
-100 -5 5000
0 0

0101101
*
Ve
1e-07
-100 -5 -5000
0 0

0101101
*
Ed
 1e-07 1 1 0
1  1 0 0 10000
0

0101000
-72 0 +71 0 *
Ve
1e-07
-100 5 5000
0 0

0101101
*
Ed
 1e-07 1 1 0
1  2 0 0 10
0

0101000
-69 0 +72 0 *
Ve
1e-07
-100 5 -5000
0 0

0101101
*
Ed
 1e-07 1 1 0
1  3 0 0 10000
0

0101000
-69 0 +67 0 *
Ed
 1e-07 1 1 0
1  4 0 0 10
0

0101000
-67 0 +71 0 *
Wi

0101100
-70 0 -68 0 +66 0 +65 0 *
Fa
0  1e-07 1 0

0111000
+64 0 *
Ve
1e-07
100 -5 5000
0 0

0101101
*
Ve
1e-07
100 -5 -5000
0 0

0101101
*
Ed
 1e-07 1 1 0
1  5 0 0 10000
0

0101000
-62 0 +61 0 *
Ve
1e-07
100 5 5000
0 0

0101101
*
Ed
 1e-07 1 1 0
1  6 0 0 10
0

0101000
-59 0 +62 0 *
Ve
1e-07
100 5 -5000
0 0

0101101
*
Ed
 1e-07 1 1 0
1  7 0 0 10000
0

0101000
-59 0 +57 0 *
Ed
 1e-07 1 1 0
1  8 0 0 10
0

0101000
-57 0 +61 0 *
Wi

0101100
-60 0 -58 0 +56 0 +55 0 *
Fa
0  1e-07 2 0

0111000
+54 0 *
Ed
 1e-07 1 1 0
1  9 0 0 200
0

0101000
-61 0 +71 0 *
Ed
 1e-07 1 1 0
1  10 0 0 200
0

0101000
-62 0 +72 0 *
Wi

0101100
-52 0 -60 0 +51 0 +70 0 *
Fa
0  1e-07 3 0

0111000
+50 0 *
Ed
 1e-07 1 1 0
1  11 0 0 200
0

0101000
-57 0 +67 0 *
Ed
 1e-07 1 1 0
1  12 0 0 200
0

0101000
-59 0 +69 0 *
Wi

0101100
-48 0 -56 0 +47 0 +66 0 *
Fa
0  1e-07 4 0

0111000
+46 0 *
Wi

0101100
-65 0 -48 0 +55 0 +52 0 *
Fa
0  1e-07 5 0

0111000
+44 0 *
Wi

0101100
-68 0 -47 0 +58 0 +51 0 *
Fa
0  1e-07 6 0

0111000
+42 0 *
Sh

0101100
-63 0 +53 0 -49 0 +45 0 -43 0 +41 0 *
So

0100000
+40 0 *
Co

0100000
+39 3 *
Ve
1e-07
-10 -70 5000
0 0

0101101
*
Ve
1e-07
-10 -70 -5000
0 0

0101101
*
Ed
 1e-07 1 1 0
1  13 0 0 10000
0

0101000
-37 0 +36 0 *
Ve
1e-07
-10 70 5000
0 0

0101101
*
Ed
 1e-07 1 1 0
1  14 0 0 140
0

0101000
-34 0 +37 0 *
Ve
1e-07
-10 70 -5000
0 0

0101101
*
Ed
 1e-07 1 1 0
1  15 0 0 10000
0

0101000
-34 0 +32 0 *
Ed
 1e-07 1 1 0
1  16 0 0 140
0

0101000
-32 0 +36 0 *
Wi

0101100
-35 0 -33 0 +31 0 +30 0 *
Fa
0  1e-07 7 0

0111000
+29 0 *
Ve
1e-07
10 -70 5000
0 0

0101101
*
Ve
1e-07
10 -70 -5000
0 0

0101101
*
Ed
 1e-07 1 1 0
1  17 0 0 10000
0

0101000
-27 0 +26 0 *
Ve
1e-07
10 70 5000
0 0

0101101
*
Ed
 1e-07 1 1 0
1  18 0 0 140
0

0101000
-24 0 +27 0 *
Ve
1e-07
10 70 -5000
0 0

0101101
*
Ed
 1e-07 1 1 0
1  19 0 0 10000
0

0101000
-24 0 +22 0 *
Ed
 1e-07 1 1 0
1  20 0 0 140
0

0101000
-22 0 +26 0 *
Wi

0101100
-25 0 -23 0 +21 0 +20 0 *
Fa
0  1e-07 8 0

0111000
+19 0 *
Ed
 1e-07 1 1 0
1  21 0 0 20
0

0101000
-26 0 +36 0 *
Ed
 1e-07 1 1 0
1  22 0 0 20
0

0101000
-27 0 +37 0 *
Wi

0101100
-17 0 -25 0 +16 0 +35 0 *
Fa
0  1e-07 9 0

0111000
+15 0 *
Ed
 1e-07 1 1 0
1  23 0 0 20
0

0101000
-22 0 +32 0 *
Ed
 1e-07 1 1 0
1  24 0 0 20
0

0101000
-24 0 +34 0 *
Wi

0101100
-13 0 -21 0 +12 0 +31 0 *
Fa
0  1e-07 10 0

0111000
+11 0 *
Wi

0101100
-30 0 -13 0 +20 0 +17 0 *
Fa
0  1e-07 11 0

0111000
+9 0 *
Wi

0101100
-33 0 -12 0 +23 0 +16 0 *
Fa
0  1e-07 12 0

0111000
+7 0 *
Sh

0101100
-28 0 +18 0 -14 0 +10 0 -8 0 +6 0 *
So

0100000
+5 0 *
Co

0100000
+4 8 *
Co

0100000
+38 2 +38 6 +3 7 *
Co

1100000
+2 1 *

+1 0 