DBRep_DrawableShape

CASCADE Topology V1, (c) Matra-Datavision
Locations 194
1
              1               0               0               0 
              0               1               0               0 
              0               0               1               0 
1
0.707106781186547 0.707106781186548               0            6410 
-0.707106781186548 0.707106781186547               0            5740 
              0               0               1            3500 
1
              1               0               0               0 
              0               1               0               0 
              0               0               1             130 
1
              1               0               0               0 
              0               1               0               0 
              0               0               1               0 
1
              1               0               0               0 
              0               1               0               0 
              0               0               1               0 
1
              1               0               0               0 
              0               1               0               0 
              0               0               1            -130 
2  5 1 6 1 0
1
              1               0               0            1510 
              0               1               0               0 
              0               0               1               0 
1
              1               0               0               0 
              0               1               0               0 
              0               0               1               0 
1
              1               0               0               0 
              0               1               0               0 
              0               0               1               0 
1
              1               0               0           -1510 
              0               1               0               0 
              0               0               1               0 
2  10 1 11 1 0
1
              1               0               0 -41.5000009536743 
              0               1               0               0 
              0               0               1               0 
1
              1               0               0               0 
              0               1               0               0 
              0               0               1               0 
1
              1               0               0               0 
              0               1               0               0 
              0               0               1               0 
1
              1               0               0 -31.0000014305115 
              0               1               0             -10 
              0               0               1               0 
2  15 1 16 1 0
1
              1               0               0               0 
              0               1               0               0 
              0               0               1               0 
1
0.707106781186547 0.707106781186548               0            6410 
-0.707106781186548 0.707106781186547               0            5740 
              0               0               1            2500 
2  18 1 19 1 0
1
              1               0               0               0 
              0               1               0               0 
              0               0               1               0 
1
0.707106781186547 0.707106781186548               0            6410 
-0.707106781186548 0.707106781186547               0            5740 
              0               0               1            1500 
2  21 1 22 1 0
1
              1               0               0               0 
              0               1               0               0 
              0               0               1               0 
1
0.707106781186547 0.707106781186548               0            6410 
-0.707106781186548 0.707106781186547               0            5740 
              0               0               1             500 
2  24 1 25 1 0
1
              1               0               0               0 
              0               1               0               0 
              0               0               1               0 
1
0.707106781186547 0.707106781186548               0            6410 
-0.707106781186548 0.707106781186547               0            5740 
              0               0               1            -500 
2  27 1 28 1 0
1
              1               0               0               0 
              0               1               0               0 
              0               0               1               0 
1
0.707106781186547 0.707106781186548               0            6410 
-0.707106781186548 0.707106781186547               0            5740 
              0               0               1           -1200 
2  30 1 31 1 0
1
              1               0               0               0 
              0               1               0               0 
              0               0               1               0 
1
0.707106781186547 0.707106781186548               0            6410 
-0.707106781186548 0.707106781186547               0            5740 
              0               0               1           -2800 
2  33 1 34 1 0
1
              1               0               0               0 
              0               1               0               0 
              0               0               1               0 
1
0.707106781186547 0.707106781186548               0            6410 
-0.707106781186548 0.707106781186547               0            5740 
              0               0               1           -3500 
2  36 1 37 1 0
1
              1               0               0               0 
              0               1               0               0 
              0               0               1               0 
1
0.707106781186547 0.707106781186548               0            4260 
-0.707106781186548 0.707106781186547               0            7890 
              0               0               1            4500 
2  39 1 40 1 0
1
              1               0               0               0 
              0               1               0               0 
              0               0               1               0 
1
0.707106781186547 0.707106781186548               0            4260 
-0.707106781186548 0.707106781186547               0            7890 
              0               0               1            3500 
2  42 1 43 1 0
1
              1               0               0               0 
              0               1               0               0 
              0               0               1               0 
1
0.707106781186547 0.707106781186548               0            4260 
-0.707106781186548 0.707106781186547               0            7890 
              0               0               1            2500 
2  45 1 46 1 0
1
              1               0               0               0 
              0               1               0               0 
              0               0               1               0 
1
0.707106781186547 0.707106781186548               0            4260 
-0.707106781186548 0.707106781186547               0            7890 
              0               0               1            1500 
2  48 1 49 1 0
1
              1               0               0               0 
              0               1               0               0 
              0               0               1               0 
1
0.707106781186547 0.707106781186548               0            4260 
-0.707106781186548 0.707106781186547               0            7890 
              0               0               1             500 
2  51 1 52 1 0
1
              1               0               0               0 
              0               1               0               0 
              0               0               1               0 
1
0.707106781186547 0.707106781186548               0            4260 
-0.707106781186548 0.707106781186547               0            7890 
              0               0               1            -500 
2  54 1 55 1 0
1
              1               0               0               0 
              0               1               0               0 
              0               0               1               0 
1
0.707106781186547 0.707106781186548               0            4260 
-0.707106781186548 0.707106781186547               0            7890 
              0               0               1           -1500 
2  57 1 58 1 0
1
              1               0               0               0 
              0               1               0               0 
              0               0               1               0 
1
0.707106781186547 0.707106781186548               0            4260 
-0.707106781186548 0.707106781186547               0            7890 
              0               0               1           -2500 
2  60 1 61 1 0
1
              1               0               0               0 
              0               1               0               0 
              0               0               1               0 
1
0.707106781186547 0.707106781186548               0            4260 
-0.707106781186548 0.707106781186547               0            7890 
              0               0               1           -3500 
2  63 1 64 1 0
1
              1               0               0               0 
              0               1               0               0 
              0               0               1               0 
1
0.707106781186547 0.707106781186548               0            4260 
-0.707106781186548 0.707106781186547               0            7890 
              0               0               1           -4500 
2  66 1 67 1 0
1
              1               0               0               0 
              0               1               0               0 
              0               0               1               0 
1
              1               0               0            1530 
              0               1               0            8500 
              0               0               1            4500 
2  69 1 70 1 0
1
              1               0               0               0 
              0               1               0               0 
              0               0               1               0 
1
              1               0               0            1530 
              0               1               0            8500 
              0               0               1            3500 
2  72 1 73 1 0
1
              1               0               0               0 
              0               1               0               0 
              0               0               1               0 
1
              1               0               0            1530 
              0               1               0            8500 
              0               0               1            2500 
2  75 1 76 1 0
1
              1               0               0               0 
              0               1               0               0 
              0               0               1               0 
1
              1               0               0            1530 
              0               1               0            8500 
              0               0               1            1500 
2  78 1 79 1 0
1
              1               0               0               0 
              0               1               0               0 
              0               0               1               0 
1
              1               0               0            1530 
              0               1               0            8500 
              0               0               1             500 
2  81 1 82 1 0
1
              1               0               0               0 
              0               1               0               0 
              0               0               1               0 
1
              1               0               0            1530 
              0               1               0            8500 
              0               0               1            -500 
2  84 1 85 1 0
1
              1               0               0               0 
              0               1               0               0 
              0               0               1               0 
1
              1               0               0            1530 
              0               1               0            8500 
              0               0               1           -1500 
2  87 1 88 1 0
1
              1               0               0               0 
              0               1               0               0 
              0               0               1               0 
1
              1               0               0            1530 
              0               1               0            8500 
              0               0               1           -2500 
2  90 1 91 1 0
1
              1               0               0               0 
              0               1               0               0 
              0               0               1               0 
1
              1               0               0            1530 
              0               1               0            8500 
              0               0               1           -3500 
2  93 1 94 1 0
1
              1               0               0               0 
              0               1               0               0 
              0               0               1               0 
1
              1               0               0            1530 
              0               1               0            8500 
              0               0               1           -4500 
2  96 1 97 1 0
1
              1               0               0               0 
              0               1               0               0 
              0               0               1               0 
1
              1               0               0           -1530 
              0               1               0            8500 
              0               0               1            4500 
2  99 1 100 1 0
1
              1               0               0               0 
              0               1               0               0 
              0               0               1               0 
1
              1               0               0           -1530 
              0               1               0            8500 
              0               0               1            3500 
2  102 1 103 1 0
1
              1               0               0               0 
              0               1               0               0 
              0               0               1               0 
1
              1               0               0           -1530 
              0               1               0            8500 
              0               0               1            2500 
2  105 1 106 1 0
1
              1               0               0               0 
              0               1               0               0 
              0               0               1               0 
1
              1               0               0           -1530 
              0               1               0            8500 
              0               0               1            1500 
2  108 1 109 1 0
1
              1               0               0               0 
              0               1               0               0 
              0               0               1               0 
1
              1               0               0           -1530 
              0               1               0            8500 
              0               0               1             500 
2  111 1 112 1 0
1
              1               0               0               0 
              0               1               0               0 
              0               0               1               0 
1
              1               0               0           -1530 
              0               1               0            8500 
              0               0               1            -500 
2  114 1 115 1 0
1
              1               0               0               0 
              0               1               0               0 
              0               0               1               0 
1
              1               0               0           -1530 
              0               1               0            8500 
              0               0               1           -1500 
2  117 1 118 1 0
1
              1               0               0               0 
              0               1               0               0 
              0               0               1               0 
1
              1               0               0           -1530 
              0               1               0            8500 
              0               0               1           -2500 
2  120 1 121 1 0
1
              1               0               0               0 
              0               1               0               0 
              0               0               1               0 
1
              1               0               0           -1530 
              0               1               0            8500 
              0               0               1           -3500 
2  123 1 124 1 0
1
              1               0               0               0 
              0               1               0               0 
              0               0               1               0 
1
              1               0               0           -1530 
              0               1               0            8500 
              0               0               1           -4500 
2  126 1 127 1 0
1
              1               0               0               0 
              0               1               0               0 
              0               0               1               0 
1
0.707106781186548 -0.707106781186547               0           -4260 
0.707106781186547 0.707106781186548               0            7890 
              0               0               1            4500 
2  129 1 130 1 0
1
              1               0               0               0 
              0               1               0               0 
              0               0               1               0 
1
0.707106781186548 -0.707106781186547               0           -4260 
0.707106781186547 0.707106781186548               0            7890 
              0               0               1            3500 
2  132 1 133 1 0
1
              1               0               0               0 
              0               1               0               0 
              0               0               1               0 
1
0.707106781186548 -0.707106781186547               0           -4260 
0.707106781186547 0.707106781186548               0            7890 
              0               0               1            2500 
2  135 1 136 1 0
1
              1               0               0               0 
              0               1               0               0 
              0               0               1               0 
1
0.707106781186548 -0.707106781186547               0           -4260 
0.707106781186547 0.707106781186548               0            7890 
              0               0               1            1500 
2  138 1 139 1 0
1
              1               0               0               0 
              0               1               0               0 
              0               0               1               0 
1
0.707106781186548 -0.707106781186547               0           -4260 
0.707106781186547 0.707106781186548               0            7890 
              0               0               1             500 
2  141 1 142 1 0
1
              1               0               0               0 
              0               1               0               0 
              0               0               1               0 
1
0.707106781186548 -0.707106781186547               0           -4260 
0.707106781186547 0.707106781186548               0            7890 
              0               0               1            -500 
2  144 1 145 1 0
1
              1               0               0               0 
              0               1               0               0 
              0               0               1               0 
1
0.707106781186548 -0.707106781186547               0           -4260 
0.707106781186547 0.707106781186548               0            7890 
              0               0               1           -1500 
2  147 1 148 1 0
1
              1               0               0               0 
              0               1               0               0 
              0               0               1               0 
1
0.707106781186548 -0.707106781186547               0           -4260 
0.707106781186547 0.707106781186548               0            7890 
              0               0               1           -2500 
2  150 1 151 1 0
1
              1               0               0               0 
              0               1               0               0 
              0               0               1               0 
1
0.707106781186548 -0.707106781186547               0           -4260 
0.707106781186547 0.707106781186548               0            7890 
              0               0               1           -3500 
2  153 1 154 1 0
1
              1               0               0               0 
              0               1               0               0 
              0               0               1               0 
1
0.707106781186548 -0.707106781186547               0           -4260 
0.707106781186547 0.707106781186548               0            7890 
              0               0               1           -4500 
2  156 1 157 1 0
1
              1               0               0               0 
              0               1               0               0 
              0               0               1               0 
1
0.707106781186548 -0.707106781186547               0           -6440 
0.707106781186547 0.707106781186548               0            5740 
              0               0               1            3500 
2  159 1 160 1 0
1
              1               0               0               0 
              0               1               0               0 
              0               0               1               0 
1
0.707106781186548 -0.707106781186547               0           -6440 
0.707106781186547 0.707106781186548               0            5740 
              0               0               1            2500 
2  162 1 163 1 0
1
              1               0               0               0 
              0               1               0               0 
              0               0               1               0 
1
0.707106781186548 -0.707106781186547               0           -6440 
0.707106781186547 0.707106781186548               0            5740 
              0               0               1            1040 
2  165 1 166 1 0
1
              1               0               0               0 
              0               1               0               0 
              0               0               1               0 
1
0.707106781186548 -0.707106781186547               0           -6440 
0.707106781186547 0.707106781186548               0            5740 
              0               0               1             500 
2  168 1 169 1 0
1
              1               0               0               0 
              0               1               0               0 
              0               0               1               0 
1
0.707106781186548 -0.707106781186547               0           -6190 
0.707106781186547 0.707106781186548               0            6010 
              0               0               1            -850 
2  171 1 172 1 0
1
              1               0               0               0 
              0               1               0               0 
              0               0               1               0 
1
0.707106781186548 -0.707106781186547               0           -6230 
0.707106781186547 0.707106781186548               0            5970 
              0               0               1           -1840 
2  174 1 175 1 0
1
              1               0               0               0 
              0               1               0               0 
              0               0               1               0 
1
0.707106781186548 -0.707106781186547               0           -6410 
0.707106781186547 0.707106781186548               0            5740 
              0               0               1           -2580 
2  177 1 178 1 0
1
              1               0               0               0 
              0               1               0               0 
              0               0               1               0 
1
0.707106781186548 -0.707106781186547               0           -6410 
0.707106781186547 0.707106781186548               0            5740 
              0               0               1           -3500 
2  180 1 181 1 0
1
              1               0               0               0 
              0               1               0               0 
              0               0               1               0 
1
              1               0               0               0 
              0               1               0            8500 
              0               0               1             930 
2  183 1 184 1 0
1
              1               0               0               0 
              0               1               0               0 
              0               0               1               0 
1
              1               0               0               0 
              0               1               0            8500 
              0               0               1             180 
2  186 1 187 1 0
1
              1               0               0               0 
              0               1               0               0 
              0               0               1               0 
1
              1               0               0               0 
              0               1               0            8500 
              0               0               1            -180 
2  189 1 190 1 0
1
              1               0               0               0 
              0               1               0               0 
              0               0               1               0 
1
              1               0               0               0 
              0               1               0            8500 
              0               0               1            -930 
2  192 1 193 1 0
Curve2ds 0
Curves 36
1 -1500 -50 -30 0 0 1 
1 -1500 -50 30 0 1 0 
1 -1500 50 -30 0 0 1 
1 -1500 -50 -30 0 1 0 
1 1500 -50 -30 0 0 1 
1 1500 -50 30 0 1 0 
1 1500 50 -30 0 0 1 
1 1500 -50 -30 0 1 0 
1 -1500 -50 -30 1 0 0 
1 -1500 -50 30 1 0 0 
1 -1500 50 -30 1 0 0 
1 -1500 50 30 1 0 0 
1 -10 -50 -160 0 0 1 
1 -10 -50 160 0 1 0 
1 -10 50 -160 0 0 1 
1 -10 -50 -160 0 1 0 
1 10 -50 -160 0 0 1 
1 10 -50 160 0 1 0 
1 10 50 -160 0 0 1 
1 10 -50 -160 0 1 0 
1 -10 -50 -160 1 0 0 
1 -10 -50 160 1 0 0 
1 -10 50 -160 1 0 0 
1 -10 50 160 1 0 0 
1 -950 -5 -100 0 0 1 
1 -950 -5 100 0 1 0 
1 -950 5 -100 0 0 1 
1 -950 -5 -100 0 1 0 
1 950 -5 -100 0 0 1 
1 950 -5 100 0 1 0 
1 950 5 -100 0 0 1 
1 950 -5 -100 0 1 0 
1 -950 -5 -100 1 0 0 
1 -950 -5 100 1 0 0 
1 -950 5 -100 1 0 0 
1 -950 5 100 1 0 0 
Polygon3D 0
PolygonOnTriangulations 0
Surfaces 18
1 -1500 -50 -30 1 0 0 0 0 1 0 -1 0 
1 1500 -50 -30 1 0 0 0 0 1 0 -1 0 
1 -1500 -50 -30 0 1 0 0 0 1 1 0 0 
1 -1500 50 -30 0 1 0 0 0 1 1 0 0 
1 -1500 -50 -30 0 0 1 1 0 0 0 1 0 
1 -1500 -50 30 0 0 1 1 0 0 0 1 0 
1 -10 -50 -160 1 0 0 0 0 1 0 -1 0 
1 10 -50 -160 1 0 0 0 0 1 0 -1 0 
1 -10 -50 -160 0 1 0 0 0 1 1 0 0 
1 -10 50 -160 0 1 0 0 0 1 1 0 0 
1 -10 -50 -160 0 0 1 1 0 0 0 1 0 
1 -10 -50 160 0 0 1 1 0 0 0 1 0 
1 -950 -5 -100 1 0 0 0 0 1 0 -1 0 
1 950 -5 -100 1 0 0 0 0 1 0 -1 0 
1 -950 -5 -100 0 1 0 0 0 1 1 0 0 
1 -950 5 -100 0 1 0 0 0 1 1 0 0 
1 -950 -5 -100 0 0 1 1 0 0 0 1 0 
1 -950 -5 100 0 0 1 1 0 0 0 1 0 
Triangulations 0

TShapes 108
Ve
1e-07
-1500 -50 30
0 0

0101101
*
Ve
1e-07
-1500 -50 -30
0 0

0101101
*
Ed
 1e-07 1 1 0
1  1 0 0 60
0

0101000
-108 0 +107 0 *
Ve
1e-07
-1500 50 30
0 0

0101101
*
Ed
 1e-07 1 1 0
1  2 0 0 100
0

0101000
-105 0 +108 0 *
Ve
1e-07
-1500 50 -30
0 0

0101101
*
Ed
 1e-07 1 1 0
1  3 0 0 60
0

0101000
-105 0 +103 0 *
Ed
 1e-07 1 1 0
1  4 0 0 100
0

0101000
-103 0 +107 0 *
Wi

0101100
-106 0 -104 0 +102 0 +101 0 *
Fa
0  1e-07 1 0

0111000
+100 0 *
Ve
1e-07
1500 -50 30
0 0

0101101
*
Ve
1e-07
1500 -50 -30
0 0

0101101
*
Ed
 1e-07 1 1 0
1  5 0 0 60
0

0101000
-98 0 +97 0 *
Ve
1e-07
1500 50 30
0 0

0101101
*
Ed
 1e-07 1 1 0
1  6 0 0 100
0

0101000
-95 0 +98 0 *
Ve
1e-07
1500 50 -30
0 0

0101101
*
Ed
 1e-07 1 1 0
1  7 0 0 60
0

0101000
-95 0 +93 0 *
Ed
 1e-07 1 1 0
1  8 0 0 100
0

0101000
-93 0 +97 0 *
Wi

0101100
-96 0 -94 0 +92 0 +91 0 *
Fa
0  1e-07 2 0

0111000
+90 0 *
Ed
 1e-07 1 1 0
1  9 0 0 3000
0

0101000
-97 0 +107 0 *
Ed
 1e-07 1 1 0
1  10 0 0 3000
0

0101000
-98 0 +108 0 *
Wi

0101100
-88 0 -96 0 +87 0 +106 0 *
Fa
0  1e-07 3 0

0111000
+86 0 *
Ed
 1e-07 1 1 0
1  11 0 0 3000
0

0101000
-93 0 +103 0 *
Ed
 1e-07 1 1 0
1  12 0 0 3000
0

0101000
-95 0 +105 0 *
Wi

0101100
-84 0 -92 0 +83 0 +102 0 *
Fa
0  1e-07 4 0

0111000
+82 0 *
Wi

0101100
-101 0 -84 0 +91 0 +88 0 *
Fa
0  1e-07 5 0

0111000
+80 0 *
Wi

0101100
-104 0 -83 0 +94 0 +87 0 *
Fa
0  1e-07 6 0

0111000
+78 0 *
Sh

0101100
-99 0 +89 0 -85 0 +81 0 -79 0 +77 0 *
So

0100000
+76 0 *
Co

0100000
+75 4 *
Ve
1e-07
-10 -50 160
0 0

0101101
*
Ve
1e-07
-10 -50 -160
0 0

0101101
*
Ed
 1e-07 1 1 0
1  13 0 0 320
0

0101000
-73 0 +72 0 *
Ve
1e-07
-10 50 160
0 0

0101101
*
Ed
 1e-07 1 1 0
1  14 0 0 100
0

0101000
-70 0 +73 0 *
Ve
1e-07
-10 50 -160
0 0

0101101
*
Ed
 1e-07 1 1 0
1  15 0 0 320
0

0101000
-70 0 +68 0 *
Ed
 1e-07 1 1 0
1  16 0 0 100
0

0101000
-68 0 +72 0 *
Wi

0101100
-71 0 -69 0 +67 0 +66 0 *
Fa
0  1e-07 7 0

0111000
+65 0 *
Ve
1e-07
10 -50 160
0 0

0101101
*
Ve
1e-07
10 -50 -160
0 0

0101101
*
Ed
 1e-07 1 1 0
1  17 0 0 320
0

0101000
-63 0 +62 0 *
Ve
1e-07
10 50 160
0 0

0101101
*
Ed
 1e-07 1 1 0
1  18 0 0 100
0

0101000
-60 0 +63 0 *
Ve
1e-07
10 50 -160
0 0

0101101
*
Ed
 1e-07 1 1 0
1  19 0 0 320
0

0101000
-60 0 +58 0 *
Ed
 1e-07 1 1 0
1  20 0 0 100
0

0101000
-58 0 +62 0 *
Wi

0101100
-61 0 -59 0 +57 0 +56 0 *
Fa
0  1e-07 8 0

0111000
+55 0 *
Ed
 1e-07 1 1 0
1  21 0 0 20
0

0101000
-62 0 +72 0 *
Ed
 1e-07 1 1 0
1  22 0 0 20
0

0101000
-63 0 +73 0 *
Wi

0101100
-53 0 -61 0 +52 0 +71 0 *
Fa
0  1e-07 9 0

0111000
+51 0 *
Ed
 1e-07 1 1 0
1  23 0 0 20
0

0101000
-58 0 +68 0 *
Ed
 1e-07 1 1 0
1  24 0 0 20
0

0101000
-60 0 +70 0 *
Wi

0101100
-49 0 -57 0 +48 0 +67 0 *
Fa
0  1e-07 10 0

0111000
+47 0 *
Wi

0101100
-66 0 -49 0 +56 0 +53 0 *
Fa
0  1e-07 11 0

0111000
+45 0 *
Wi

0101100
-69 0 -48 0 +59 0 +52 0 *
Fa
0  1e-07 12 0

0111000
+43 0 *
Sh

0101100
-64 0 +54 0 -50 0 +46 0 -44 0 +42 0 *
So

0100000
+41 0 *
Co

0100000
+40 9 *
Ve
1e-07
-950 -5 100
0 0

0101101
*
Ve
1e-07
-950 -5 -100
0 0

0101101
*
Ed
 1e-07 1 1 0
1  25 0 0 200
0

0101000
-38 0 +37 0 *
Ve
1e-07
-950 5 100
0 0

0101101
*
Ed
 1e-07 1 1 0
1  26 0 0 10
0

0101000
-35 0 +38 0 *
Ve
1e-07
-950 5 -100
0 0

0101101
*
Ed
 1e-07 1 1 0
1  27 0 0 200
0

0101000
-35 0 +33 0 *
Ed
 1e-07 1 1 0
1  28 0 0 10
0

0101000
-33 0 +37 0 *
Wi

0101100
-36 0 -34 0 +32 0 +31 0 *
Fa
0  1e-07 13 0

0111000
+30 0 *
Ve
1e-07
950 -5 100
0 0

0101101
*
Ve
1e-07
950 -5 -100
0 0

0101101
*
Ed
 1e-07 1 1 0
1  29 0 0 200
0

0101000
-28 0 +27 0 *
Ve
1e-07
950 5 100
0 0

0101101
*
Ed
 1e-07 1 1 0
1  30 0 0 10
0

0101000
-25 0 +28 0 *
Ve
1e-07
950 5 -100
0 0

0101101
*
Ed
 1e-07 1 1 0
1  31 0 0 200
0

0101000
-25 0 +23 0 *
Ed
 1e-07 1 1 0
1  32 0 0 10
0

0101000
-23 0 +27 0 *
Wi

0101100
-26 0 -24 0 +22 0 +21 0 *
Fa
0  1e-07 14 0

0111000
+20 0 *
Ed
 1e-07 1 1 0
1  33 0 0 1900
0

0101000
-27 0 +37 0 *
Ed
 1e-07 1 1 0
1  34 0 0 1900
0

0101000
-28 0 +38 0 *
Wi

0101100
-18 0 -26 0 +17 0 +36 0 *
Fa
0  1e-07 15 0

0111000
+16 0 *
Ed
 1e-07 1 1 0
1  35 0 0 1900
0

0101000
-23 0 +33 0 *
Ed
 1e-07 1 1 0
1  36 0 0 1900
0

0101000
-25 0 +35 0 *
Wi

0101100
-14 0 -22 0 +13 0 +32 0 *
Fa
0  1e-07 16 0

0111000
+12 0 *
Wi

0101100
-31 0 -14 0 +21 0 +18 0 *
Fa
0  1e-07 17 0

0111000
+10 0 *
Wi

0101100
-34 0 -13 0 +24 0 +17 0 *
Fa
0  1e-07 18 0

0111000
+8 0 *
Sh

0101100
-29 0 +19 0 -15 0 +11 0 -9 0 +7 0 *
So

0100000
+6 0 *
Co

0100000
+5 14 *
Co

0100000
+74 3 +74 7 +39 8 +39 12 +4 13 +4 17 *
Co

0100000
+3 2 +3 20 +3 23 +3 26 +3 29 +3 32 +3 35 +3 38 +3 41 +3 44 
+3 47 +3 50 +3 53 +3 56 +3 59 +3 62 +3 65 +3 68 +3 71 +3 74 
+3 77 +3 80 +3 83 +3 86 +3 89 +3 92 +3 95 +3 98 +3 101 +3 104 
+3 107 +3 110 +3 113 +3 116 +3 119 +3 122 +3 125 +3 128 +3 131 +3 134 
+3 137 +3 140 +3 143 +3 146 +3 149 +3 152 +3 155 +3 158 +3 161 +3 164 
+3 167 +3 170 +3 173 +3 176 +3 179 +3 182 +3 185 +3 188 +3 191 +3 194 
*
Co

1100000
+2 1 *

+1 0 