DBRep_DrawableShape

CASCADE Topology V1, (c) Matra-Datavision
Locations 7
1
              1               0               0               0 
              0               1               0               0 
              0               0               1               0 
1
0.939692620785908 0.342020143325669               0               0 
-0.342020143325669 0.939692620785908               0               0 
              0               0               1               0 
1
              1               0               0               0 
              0               1               0               0 
              0               0               1               0 
1
              1               0               0             -50 
              0               1               0               0 
              0               0               1         -323.25 
2  2 1 3 1 4 1 0
2  2 -1 0
2  3 1 4 1 0
Curve2ds 30
1 0 20 1 0 
2 0 0 1 0 -0 1 3495
1 0.69813170079773179 -0 0 1 
1 3494.9999999999995 0 0 1 
1 0 0 1 0 
2 0 0 1 0 -0 1 3495
1 0 -0 0 1 
1 3494.9999999999995 0 0 1 
1 0 0 1 0 
1 0 20 1 0 
1 0 20 1 0 
2 0 0 0.93969262078590854 0.3420201433256686 -0.3420201433256686 0.93969262078590854 2811.0000000000005
1 0 20 1 0 
2 0 0 0.93969262078590854 0.3420201433256686 -0.3420201433256686 0.93969262078590854 2811.0000000000005
1 0 0 0.76604444311897812 0.64278760968653925 
1 0 20 1 0 
1 0 0 1 0 
1 0 0 0.76604444311897812 0.64278760968653925 
1 0.34906585039886595 0 0 1 
1 2810.9999999999995 0 0 1 
1 0 0 1 0 
1 0 0 1 0 
1 0 0 1 0 
2 0 0 0.93969262078590854 0.3420201433256686 -0.3420201433256686 0.93969262078590854 2811.0000000000005
1 0 0 1 0 
2 0 0 0.93969262078590854 0.3420201433256686 -0.3420201433256686 0.93969262078590854 2811.0000000000005
1 5.9341194567807207 0 0 1 
1 2811 0 0 1 
1 6.2831853071795862 -0 0 1 
1 0 -0 0 1 
Curves 15
2 0 0 10 0 0 1 1 0 0 0 1 0 3495
1 2677.3253287008279 2246.5426958544545 -10 0 0 1 
2 0 0 -10 0 0 1 1 0 0 0 1 0 3495
1 3494.9999999999995 0 -10 0 0 1 
1 0 0 10 1 0 0 
2 0 0 10 0 0 1 1 0 0 0 1 0 2811
2 0 0 10 0 0 1 1 0 0 0 1 0 2811
1 0 0 10 0.76604444311897812 0.64278760968653925 0 
1 0 0 -10 0.76604444311897812 0.64278760968653925 0 
1 2641.4759570291885 961.41862288845493 -10 0 0 1 
1 0 0 -10 1 0 0 
2 0 0 -10 0 0 1 1 0 0 0 1 0 2811
2 0 0 -10 0 0 1 1 0 0 0 1 0 2811
1 2641.475957029189 -961.41862288845448 -10 0 0 1 
1 2811 -6.8849643048064196e-13 -10 0 0 1 
Polygon3D 0
PolygonOnTriangulations 0
Surfaces 7
2 0 0 -10 0 0 1 1 0 0 0 1 0 3495
1 0 0 10 0 0 1 1 0 0 0 1 0 
1 0 0 -10 0.64278760968653925 -0.76604444311897812 0 0.76604444311897812 0.64278760968653925 0 0 0 1 
1 0 0 -10 0 0 1 1 0 0 0 1 0 
1 0 0 -10 0 -1 0 1 0 0 0 0 1 
2 0 0 -10 0 0 1 1 0 0 0 1 0 2811
2 0 0 -10 0 0 1 1 0 0 0 1 0 2811
Triangulations 0

TShapes 43
Ve
1e-07
3284.22570964675 1195.36040092321 10
0 0

0101101
*
Ve
1e-07
3284.22570964675 -1195.36040092321 10
0 0

0101101
*
Ed
 1e-07 1 1 0
1  1 0 0 0.698131700797732
2  1 1 0 0 0.698131700797732
2  2 2 0 0 0.698131700797732
0

0101000
-43 6 +42 6 *
Ve
1e-07
3284.22570964675 1195.36040092321 -10
0 0

0101101
*
Ed
 1e-07 1 1 0
1  2 0 0 20
2  3 1 0 0 20
2  4 3 0 0 20
0

0101000
-43 6 +40 6 *
Ve
1e-07
3284.22570964675 -1195.36040092321 -10
0 0

0101101
*
Ed
 1e-07 1 1 0
1  3 0 0 0.698131700797732
2  5 1 0 0 0.698131700797732
2  6 4 0 0 0.698131700797732
0

0101000
-40 6 +38 6 *
Ed
 1e-07 1 1 0
1  4 0 0 20
2  7 1 0 0 20
2  8 5 0 0 20
0

0101000
-42 6 +38 6 *
Wi

0101100
-41 0 +39 0 +37 0 -36 0 *
Fa
0  1e-07 1 0

0111000
+35 0 *
Ve
1.00038651016946e-07
2641.4759570292 -961.418622888418 10
0 0

0101101
*
Ed
 1e-07 1 1 0
1  5 0 2811 3495
2  9 2 0 2811 3495
2  10 5 0 2811 3495
0

0101000
+33 6 -42 6 *
Ve
1e-07
2811 -6.88496430480642e-13 10
0 0

0101101
*
Ed
 1e-07 1 1 0
1  6 0 5.93411945678073 6.28318530717959
2  11 6 0 5.93411945678073 6.28318530717959
2  12 2 2 5.93411945678073 6.28318530717959
0

0101000
+33 0 -31 0 *
Ve
1.0003757947612e-07
2641.4759570292 961.41862288842 10
0 0

0101101
*
Ed
 1e-07 1 1 0
1  7 0 0 0.349065850398853
2  13 7 0 0 0.349065850398853
2  14 2 2 0 0.349065850398853
0

0101000
+31 0 -29 0 *
Ed
 1e-07 1 1 0
1  8 0 2811 3495
2  15 2 0 2811 3495
2  16 3 0 2811 3495
0

0101000
+29 6 -43 6 *
Wi

0101100
+41 2 +32 2 -30 0 -28 0 -27 2 *
Fa
0  1e-07 2 2

0111000
+26 0 *
Ve
1.0003757947612e-07
2641.4759570292 961.41862288842 -10
0 0

0101101
*
Ed
 1e-07 1 1 0
1  9 0 2811 3495
2  17 3 0 2811 3495
2  18 4 0 2811 3495
0

0101000
+24 6 -40 6 *
Ed
 1e-07 1 1 0
1  10 0 0 20
2  19 7 0 0 20
2  20 3 2 0 20
0

0101000
+24 0 -29 0 *
Wi

0101100
-27 2 +39 2 +23 2 -22 0 *
Fa
0  1e-07 3 2

0111000
+21 0 *
Ve
1.00038651016946e-07
2641.4759570292 -961.418622888418 -10
0 0

0101101
*
Ed
 1e-07 1 1 0
1  11 0 2811 3495
2  21 4 0 2811 3495
2  22 5 0 2811 3495
0

0101000
+19 6 -38 6 *
Ve
1e-07
2811 -6.88496430480642e-13 -10
0 0

0101101
*
Ed
 1e-07 1 1 0
1  12 0 5.93411945678073 6.28318530717959
2  23 6 0 5.93411945678073 6.28318530717959
2  24 4 2 5.93411945678073 6.28318530717959
0

0101000
+19 0 -17 0 *
Ed
 1e-07 1 1 0
1  13 0 0 0.349065850398853
2  25 7 0 0 0.349065850398853
2  26 4 2 0 0.349065850398853
0

0101000
+17 0 -24 0 *
Wi

0101100
+37 2 +18 2 -16 0 -15 0 -23 2 *
Fa
0  1e-07 4 2

0111000
+14 0 *
Ed
 1e-07 1 1 0
1  14 0 0 20
2  27 6 0 0 20
2  28 5 2 0 20
0

0101000
+19 0 -33 0 *
Wi

0101100
-12 0 -32 2 +36 2 +18 2 *
Fa
0  1e-07 5 2

0111000
+11 0 *
Ed
 1e-07 1 1 0
1  15 0 0 20
2  29 6 0 0 20
2  30 7 0 0 20
4 CN 6 0 7 0
0

0101000
-31 0 +17 0 *
Wi

0101100
+9 0 +16 0 -12 0 -30 0 *
Fa
0  1e-07 6 0

0111000
+8 0 *
Wi

0101100
-28 0 +22 0 +15 0 -9 0 *
Fa
0  1e-07 7 0

0111000
+6 0 *
Sh

0101100
+34 5 +25 7 -20 7 -13 7 +10 7 -7 7 -5 7 *
So

0100000
+4 0 *
Co

0100000
+3 0 *
Co

1100000
+2 1 *

+1 0 