DBRep_DrawableShape

CASCADE Topology V1, (c) Matra-Datavision
Locations 7
1
              1               0               0               0 
              0               1               0               0 
              0               0               1               0 
1
0.484809620246337 0.874619707139396               0               0 
-0.874619707139396 0.484809620246337               0               0 
              0               0               1               0 
1
              1               0               0               0 
              0               1               0               0 
              0               0               1               0 
1
              1               0               0               0 
              0               1               0               0 
              0               0               1               0 
2  2 1 3 1 4 1 0
2  2 -1 0
2  3 1 4 1 0
Curve2ds 12
1 0 770 1 0 
1 2.1293016874330819 -0 0 1 
1 0 0 1 0 
1 0 -0 0 1 
1 0 770 1 0 
1 0 770 1 0 
1 1.0646508437165412 0 0 1 
1 0 0 1 0 
1 0 0 1 0 
1 5.2185344634630457 0 0 1 
1 6.2831853071795862 -0 0 1 
1 0 -0 0 1 
Curves 15
2 0 0 385 0 0 1 1 0 0 0 1 0 2710
1 -1436.0812060719848 2298.2103405839148 -385 0 0 1 
2 0 0 -385 0 0 1 1 0 0 0 1 0 2710
1 2710 0 -385 0 0 1 
1 0 0 385 1 0 0 
2 0 0 385 0 0 1 1 0 0 0 1 0 2110
2 0 0 385 0 0 1 1 0 0 0 1 0 2110
1 0 0 385 -0.52991926423320468 0.84804809615642607 0 
1 0 0 -385 -0.52991926423320468 0.84804809615642607 0 
1 1022.9482987197711 1845.4475820641253 -385 0 0 1 
1 0 0 -385 1 0 0 
2 0 0 -385 0 0 1 1 0 0 0 1 0 2110
2 0 0 -385 0 0 1 1 0 0 0 1 0 2110
1 1022.9482987197715 -1845.4475820641248 -385 0 0 1 
1 2110 -5.1680094924018303e-13 -385 0 0 1 
Polygon3D 0
PolygonOnTriangulations 0
Surfaces 7
2 0 0 -385 0 0 1 1 0 0 0 1 0 2710
1 0 0 385 0 0 1 1 0 0 0 1 0 
2 0 0 -385 0 0 1 1 0 0 0 1 0 2110
2 0 0 -385 0 0 1 1 0 0 0 1 0 2110
1 0 0 -385 0.84804809615642607 0.52991926423320468 0 -0.52991926423320468 0.84804809615642607 0 0 0 1 
1 0 0 -385 0 0 1 1 0 0 0 1 0 
1 0 0 -385 0 -1 0 1 0 0 0 0 1 
Triangulations 0

TShapes 43
Ve
1e-07
1313.83407086757 2370.21940634776 385
0 0

0101101
*
Ve
1e-07
1313.83407086757 -2370.21940634776 385
0 0

0101101
*
Ed
 1e-07 1 1 0
1  1 0 0 2.12930168743308
2  1 1 0 0 2.12930168743308
0

0101000
-43 6 +42 6 *
Ve
1e-07
1313.83407086757 2370.21940634776 -385
0 0

0101101
*
Ed
 1e-07 1 1 0
1  2 0 0 770
2  2 1 0 0 770
0

0101000
-43 6 +40 6 *
Ve
1e-07
1313.83407086757 -2370.21940634776 -385
0 0

0101101
*
Ed
 1e-07 1 1 0
1  3 0 0 2.12930168743308
2  3 1 0 0 2.12930168743308
0

0101000
-40 6 +38 6 *
Ed
 1e-07 1 1 0
1  4 0 0 770
2  4 1 0 0 770
0

0101000
-42 6 +38 6 *
Wi

0101100
-41 0 +39 0 +37 0 -36 0 *
Fa
0  1e-07 1 0

0111000
+35 0 *
Ve
1.00031856869569e-07
1022.94829871974 -1845.44758206414 385
0 0

0101101
*
Ed
 1e-07 1 1 0
1  5 0 2110 2710
0

0101000
+33 6 -42 6 *
Ve
1e-07
2110 -5.16800949240183e-13 385
0 0

0101101
*
Ed
 1e-07 1 1 0
1  6 0 5.21853446346303 6.28318530717959
2  5 3 0 5.21853446346303 6.28318530717959
0

0101000
+33 0 -31 0 *
Ve
1.00033271419859e-07
1022.94829871974 1845.44758206414 385
0 0

0101101
*
Ed
 1e-07 1 1 0
1  7 0 0 1.06465084371656
2  6 4 0 0 1.06465084371656
0

0101000
+31 0 -29 0 *
Ed
 1e-07 1 1 0
1  8 0 2110 2710
0

0101000
+29 6 -43 6 *
Wi

0101100
+41 2 +32 2 -30 0 -28 0 -27 2 *
Fa
0  1e-07 2 2

0111000
+26 0 *
Ve
1.00033271419859e-07
1022.94829871974 1845.44758206414 -385
0 0

0101101
*
Ed
 1e-07 1 1 0
1  9 0 2110 2710
0

0101000
+24 6 -40 6 *
Ed
 1e-07 1 1 0
1  10 0 0 770
2  7 4 0 0 770
0

0101000
+24 0 -29 0 *
Wi

0101100
-27 2 +39 2 +23 2 -22 0 *
Fa
0  1e-07 5 2

0111000
+21 0 *
Ve
1.00031856869569e-07
1022.94829871974 -1845.44758206414 -385
0 0

0101101
*
Ed
 1e-07 1 1 0
1  11 0 2110 2710
0

0101000
+19 6 -38 6 *
Ve
1e-07
2110 -5.16800949240183e-13 -385
0 0

0101101
*
Ed
 1e-07 1 1 0
1  12 0 5.21853446346303 6.28318530717959
2  8 3 0 5.21853446346303 6.28318530717959
0

0101000
+19 0 -17 0 *
Ed
 1e-07 1 1 0
1  13 0 0 1.06465084371656
2  9 4 0 0 1.06465084371656
0

0101000
+17 0 -24 0 *
Wi

0101100
+37 2 +18 2 -16 0 -15 0 -23 2 *
Fa
0  1e-07 6 2

0111000
+14 0 *
Ed
 1e-07 1 1 0
1  14 0 0 770
2  10 3 0 0 770
0

0101000
+19 0 -33 0 *
Wi

0101100
-12 0 -32 2 +36 2 +18 2 *
Fa
0  1e-07 7 2

0111000
+11 0 *
Ed
 1e-07 1 1 0
1  15 0 0 770
2  11 3 0 0 770
2  12 4 0 0 770
4 CN 3 0 4 0
0

0101000
-31 0 +17 0 *
Wi

0101100
+9 0 +16 0 -12 0 -30 0 *
Fa
0  1e-07 3 0

0111000
+8 0 *
Wi

0101100
-28 0 +22 0 +15 0 -9 0 *
Fa
0  1e-07 4 0

0111000
+6 0 *
Sh

0101100
+34 5 +25 7 -20 7 -13 7 +10 7 -7 7 -5 7 *
So

0100000
+4 0 *
Co

0100000
+3 0 *
Co

1100000
+2 1 *

+1 0 