DBRep_DrawableShape

CASCADE Topology V1, (c) Matra-Datavision
Locations 6
1
              1               0               0               0 
              0               1               0               0 
              0               0               1               0 
1
              1               0               0               0 
              0               1               0               0 
              0               0               1               0 
1
              1               0               0               0 
              0               1               0               0 
              0               0               1               0 
2  2 1 3 1 0
1
0.484809620246337 0.874619707139396               0               0 
-0.874619707139396 0.484809620246337               0               0 
              0               0               1               0 
2  5 -1 0
Curve2ds 12
1 0 770 1 0 
1 2.1293016874330819 -0 0 1 
1 0 0 1 0 
1 0 -0 0 1 
1 0 770 1 0 
1 0 770 1 0 
1 1.0646508437165412 0 0 1 
1 0 0 1 0 
1 0 0 1 0 
1 5.2185344634630457 0 0 1 
1 6.2831853071795862 -0 0 1 
1 0 -0 0 1 
Curves 15
2 0 0 385 0 0 1 1 0 0 0 1 0 2710
1 -1436.0812060719848 2298.2103405839148 -385 0 0 1 
2 0 0 -385 0 0 1 1 0 0 0 1 0 2710
1 2710 0 -385 0 0 1 
1 0 0 385 1 0 0 
2 0 0 385 0 0 1 1 0 0 0 1 0 2110
2 0 0 385 0 0 1 1 0 0 0 1 0 2110
1 0 0 385 -0.52991926423320468 0.84804809615642607 0 
1 0 0 -385 -0.52991926423320468 0.84804809615642607 0 
1 1022.9482987197711 1845.4475820641253 -385 0 0 1 
1 0 0 -385 1 0 0 
2 0 0 -385 0 0 1 1 0 0 0 1 0 2110
2 0 0 -385 0 0 1 1 0 0 0 1 0 2110
1 1022.9482987197715 -1845.4475820641248 -385 0 0 1 
1 2110 -5.1680094924018303e-13 -385 0 0 1 
Polygon3D 0
PolygonOnTriangulations 0
Surfaces 7
2 0 0 -385 0 0 1 1 0 0 0 1 0 2710
1 0 0 385 0 0 1 1 0 0 0 1 0 
2 0 0 -385 0 0 1 1 0 0 0 1 0 2110
2 0 0 -385 0 0 1 1 0 0 0 1 0 2110
1 0 0 -385 0.84804809615642607 0.52991926423320468 0 -0.52991926423320468 0.84804809615642607 0 0 0 1 
1 0 0 -385 0 0 1 1 0 0 0 1 0 
1 0 0 -385 0 -1 0 1 0 0 0 0 1 
Triangulations 0

TShapes 44
Ve
1e-07
1313.83407086757 2370.21940634776 385
0 0

0101101
*
Ve
1e-07
1313.83407086757 -2370.21940634776 385
0 0

0101101
*
Ed
 1e-07 1 1 0
1  1 0 0 2.12930168743308
2  1 1 0 0 2.12930168743308
0

0101000
-44 6 +43 6 *
Ve
1e-07
1313.83407086757 2370.21940634776 -385
0 0

0101101
*
Ed
 1e-07 1 1 0
1  2 0 0 770
2  2 1 0 0 770
0

0101000
-44 6 +41 6 *
Ve
1e-07
1313.83407086757 -2370.21940634776 -385
0 0

0101101
*
Ed
 1e-07 1 1 0
1  3 0 0 2.12930168743308
2  3 1 0 0 2.12930168743308
0

0101000
-41 6 +39 6 *
Ed
 1e-07 1 1 0
1  4 0 0 770
2  4 1 0 0 770
0

0101000
-43 6 +39 6 *
Wi

0101100
-42 0 +40 0 +38 0 -37 0 *
Fa
0  1e-07 1 0

0111000
+36 0 *
Ve
1.00031856869569e-07
1022.94829871974 -1845.44758206414 385
0 0

0101101
*
Ed
 1e-07 1 1 0
1  5 0 2110 2710
0

0101000
+34 6 -43 6 *
Ve
1e-07
2110 -5.16800949240183e-13 385
0 0

0101101
*
Ed
 1e-07 1 1 0
1  6 0 5.21853446346303 6.28318530717959
2  5 3 0 5.21853446346303 6.28318530717959
0

0101000
+34 0 -32 0 *
Ve
1.00033082674438e-07
1022.94829871974 1845.44758206414 385
0 0

0101101
*
Ed
 1e-07 1 1 0
1  7 0 0 1.06465084371656
2  6 4 0 0 1.06465084371656
0

0101000
+32 0 -30 0 *
Ed
 1e-07 1 1 0
1  8 0 2110 2710
0

0101000
+30 6 -44 6 *
Wi

0101100
+42 5 +33 5 -31 0 -29 0 -28 5 *
Fa
0  1e-07 2 5

0111000
+27 0 *
Ve
1.00033082674438e-07
1022.94829871974 1845.44758206414 -385
0 0

0101101
*
Ed
 1e-07 1 1 0
1  9 0 2110 2710
0

0101000
+25 6 -41 6 *
Ed
 1e-07 1 1 0
1  10 0 0 770
2  7 4 0 0 770
0

0101000
+25 0 -30 0 *
Wi

0101100
-28 5 +40 5 +24 5 -23 0 *
Fa
0  1e-07 5 5

0111000
+22 0 *
Ve
1.00031856869569e-07
1022.94829871974 -1845.44758206414 -385
0 0

0101101
*
Ed
 1e-07 1 1 0
1  11 0 2110 2710
0

0101000
+20 6 -39 6 *
Ve
1e-07
2110 -5.16800949240183e-13 -385
0 0

0101101
*
Ed
 1e-07 1 1 0
1  12 0 5.21853446346303 6.28318530717959
2  8 3 0 5.21853446346303 6.28318530717959
0

0101000
+20 0 -18 0 *
Ed
 1e-07 1 1 0
1  13 0 0 1.06465084371656
2  9 4 0 0 1.06465084371656
0

0101000
+18 0 -25 0 *
Wi

0101100
+38 5 +19 5 -17 0 -16 0 -24 5 *
Fa
0  1e-07 6 5

0111000
+15 0 *
Ed
 1e-07 1 1 0
1  14 0 0 770
2  10 3 0 0 770
0

0101000
+20 0 -34 0 *
Wi

0101100
-13 0 -33 5 +37 5 +19 5 *
Fa
0  1e-07 7 5

0111000
+12 0 *
Ed
 1e-07 1 1 0
1  15 0 0 770
2  11 3 0 0 770
2  12 4 0 0 770
4 CN 3 0 4 0
0

0101000
-32 0 +18 0 *
Wi

0101100
+10 0 +17 0 -13 0 -31 0 *
Fa
0  1e-07 3 0

0111000
+9 0 *
Wi

0101100
-29 0 +23 0 +16 0 -10 0 *
Fa
0  1e-07 4 0

0111000
+7 0 *
Sh

0101100
+35 5 +26 0 -21 0 -14 0 +11 0 -8 0 -6 0 *
So

0100000
+5 0 *
Co

0100000
+4 0 *
Co

0100000
+3 4 *
Co

1100000
+2 1 *

+1 0 