DBRep_DrawableShape

CASCADE Topology V1, (c) Matra-Datavision
Locations 6
1
              1               0               0               0 
              0               1               0               0 
              0               0               1               0 
1
              1               0               0               0 
              0               1               0               0 
              0               0               1               0 
1
              1               0               0               0 
              0               1               0               0 
              0               0               1               0 
2  2 1 3 1 0
1
              1               0               0               0 
              0               1               0               0 
              0               0               1               0 
1
              1               0               0               0 
              0               1               0               0 
              0               0               1               0 
Curve2ds 0
Curves 24
1 -350 -385 -1369.4999694824219 0 0 1 
1 -350 -385 1369.4999694824219 0 1 0 
1 -350 385 -1369.4999694824219 0 0 1 
1 -350 -385 -1369.4999694824219 0 1 0 
1 350 -385 -1369.4999694824219 0 0 1 
1 350 -385 1369.4999694824219 0 1 0 
1 350 385 -1369.4999694824219 0 0 1 
1 350 -385 -1369.4999694824219 0 1 0 
1 -350 -385 -1369.4999694824219 1 0 0 
1 -350 -385 1369.4999694824219 1 0 0 
1 -350 385 -1369.4999694824219 1 0 0 
1 -350 385 1369.4999694824219 1 0 0 
1 -300 -335 -1319.4999694824219 0 0 1 
1 -300 -335 1319.4999694824219 0 1 0 
1 -300 335 -1319.4999694824219 0 0 1 
1 -300 -335 -1319.4999694824219 0 1 0 
1 300 -335 -1319.4999694824219 0 0 1 
1 300 -335 1319.4999694824219 0 1 0 
1 300 335 -1319.4999694824219 0 0 1 
1 300 -335 -1319.4999694824219 0 1 0 
1 -300 -335 -1319.4999694824219 1 0 0 
1 -300 -335 1319.4999694824219 1 0 0 
1 -300 335 -1319.4999694824219 1 0 0 
1 -300 335 1319.4999694824219 1 0 0 
Polygon3D 0
PolygonOnTriangulations 0
Surfaces 12
1 -350 -385 -1369.4999694824219 1 0 0 0 0 1 0 -1 0 
1 350 -385 -1369.4999694824219 1 0 0 0 0 1 0 -1 0 
1 -350 -385 -1369.4999694824219 0 1 0 0 0 1 1 0 0 
1 -350 385 -1369.4999694824219 0 1 0 0 0 1 1 0 0 
1 -350 -385 -1369.4999694824219 0 0 1 1 0 0 0 1 0 
1 -350 -385 1369.4999694824219 0 0 1 1 0 0 0 1 0 
1 -300 -335 -1319.4999694824219 1 0 0 0 0 1 0 -1 0 
1 300 -335 -1319.4999694824219 1 0 0 0 0 1 0 -1 0 
1 -300 -335 -1319.4999694824219 0 1 0 0 0 1 1 0 0 
1 -300 335 -1319.4999694824219 0 1 0 0 0 1 1 0 0 
1 -300 -335 -1319.4999694824219 0 0 1 1 0 0 0 1 0 
1 -300 -335 1319.4999694824219 0 0 1 1 0 0 0 1 0 
Triangulations 0

TShapes 71
Ve
1e-07
-350 -385 1369.49996948242
0 0

0101101
*
Ve
1e-07
-350 -385 -1369.49996948242
0 0

0101101
*
Ed
 1e-07 1 1 0
1  1 0 0 2738.99993896484
0

0101000
-71 0 +70 0 *
Ve
1e-07
-350 385 1369.49996948242
0 0

0101101
*
Ed
 1e-07 1 1 0
1  2 0 0 770
0

0101000
-68 0 +71 0 *
Ve
1e-07
-350 385 -1369.49996948242
0 0

0101101
*
Ed
 1e-07 1 1 0
1  3 0 0 2738.99993896484
0

0101000
-68 0 +66 0 *
Ed
 1e-07 1 1 0
1  4 0 0 770
0

0101000
-66 0 +70 0 *
Wi

0101100
-69 0 -67 0 +65 0 +64 0 *
Fa
0  1e-07 1 0

0111000
+63 0 *
Ve
1e-07
350 -385 1369.49996948242
0 0

0101101
*
Ve
1e-07
350 -385 -1369.49996948242
0 0

0101101
*
Ed
 1e-07 1 1 0
1  5 0 0 2738.99993896484
0

0101000
-61 0 +60 0 *
Ve
1e-07
350 385 1369.49996948242
0 0

0101101
*
Ed
 1e-07 1 1 0
1  6 0 0 770
0

0101000
-58 0 +61 0 *
Ve
1e-07
350 385 -1369.49996948242
0 0

0101101
*
Ed
 1e-07 1 1 0
1  7 0 0 2738.99993896484
0

0101000
-58 0 +56 0 *
Ed
 1e-07 1 1 0
1  8 0 0 770
0

0101000
-56 0 +60 0 *
Wi

0101100
-59 0 -57 0 +55 0 +54 0 *
Fa
0  1e-07 2 0

0111000
+53 0 *
Ed
 1e-07 1 1 0
1  9 0 0 700
0

0101000
-60 0 +70 0 *
Ed
 1e-07 1 1 0
1  10 0 0 700
0

0101000
-61 0 +71 0 *
Wi

0101100
-51 0 -59 0 +50 0 +69 0 *
Fa
0  1e-07 3 0

0111000
+49 0 *
Ed
 1e-07 1 1 0
1  11 0 0 700
0

0101000
-56 0 +66 0 *
Ed
 1e-07 1 1 0
1  12 0 0 700
0

0101000
-58 0 +68 0 *
Wi

0101100
-47 0 -55 0 +46 0 +65 0 *
Fa
0  1e-07 4 0

0111000
+45 0 *
Wi

0101100
-64 0 -47 0 +54 0 +51 0 *
Fa
0  1e-07 5 0

0111000
+43 0 *
Wi

0101100
-67 0 -46 0 +57 0 +50 0 *
Fa
0  1e-07 6 0

0111000
+41 0 *
Sh

0101100
-62 0 +52 0 -48 0 +44 0 -42 0 +40 0 *
So

0100000
+39 0 *
Ve
1e-07
-300 -335 1319.49996948242
0 0

0101101
*
Ve
1e-07
-300 -335 -1319.49996948242
0 0

0101101
*
Ed
 1e-07 1 1 0
1  13 0 0 2638.99993896484
0

0101000
-37 0 +36 0 *
Ve
1e-07
-300 335 1319.49996948242
0 0

0101101
*
Ed
 1e-07 1 1 0
1  14 0 0 670
0

0101000
-34 0 +37 0 *
Ve
1e-07
-300 335 -1319.49996948242
0 0

0101101
*
Ed
 1e-07 1 1 0
1  15 0 0 2638.99993896484
0

0101000
-34 0 +32 0 *
Ed
 1e-07 1 1 0
1  16 0 0 670
0

0101000
-32 0 +36 0 *
Wi

0101100
-35 0 -33 0 +31 0 +30 0 *
Fa
0  1e-07 7 0

0111000
+29 0 *
Ve
1e-07
300 -335 1319.49996948242
0 0

0101101
*
Ve
1e-07
300 -335 -1319.49996948242
0 0

0101101
*
Ed
 1e-07 1 1 0
1  17 0 0 2638.99993896484
0

0101000
-27 0 +26 0 *
Ve
1e-07
300 335 1319.49996948242
0 0

0101101
*
Ed
 1e-07 1 1 0
1  18 0 0 670
0

0101000
-24 0 +27 0 *
Ve
1e-07
300 335 -1319.49996948242
0 0

0101101
*
Ed
 1e-07 1 1 0
1  19 0 0 2638.99993896484
0

0101000
-24 0 +22 0 *
Ed
 1e-07 1 1 0
1  20 0 0 670
0

0101000
-22 0 +26 0 *
Wi

0101100
-25 0 -23 0 +21 0 +20 0 *
Fa
0  1e-07 8 0

0111000
+19 0 *
Ed
 1e-07 1 1 0
1  21 0 0 600
0

0101000
-26 0 +36 0 *
Ed
 1e-07 1 1 0
1  22 0 0 600
0

0101000
-27 0 +37 0 *
Wi

0101100
-17 0 -25 0 +16 0 +35 0 *
Fa
0  1e-07 9 0

0111000
+15 0 *
Ed
 1e-07 1 1 0
1  23 0 0 600
0

0101000
-22 0 +32 0 *
Ed
 1e-07 1 1 0
1  24 0 0 600
0

0101000
-24 0 +34 0 *
Wi

0101100
-13 0 -21 0 +12 0 +31 0 *
Fa
0  1e-07 10 0

0111000
+11 0 *
Wi

0101100
-30 0 -13 0 +20 0 +17 0 *
Fa
0  1e-07 11 0

0111000
+9 0 *
Wi

0101100
-33 0 -12 0 +23 0 +16 0 *
Fa
0  1e-07 12 0

0111000
+7 0 *
Sh

0101100
-28 0 +18 0 -14 0 +10 0 -8 0 +6 0 *
So

0100000
+5 0 *
Co

0100000
+4 6 *
Co

0100000
+38 4 +3 5 *
Co

1100000
+2 1 *

+1 0 