DBRep_DrawableShape

CASCADE Topology V1, (c) Matra-Datavision
Locations 6
1
              1               0               0               0 
              0               1               0               0 
              0               0               1               0 
1
              1               0               0               0 
              0               1               0               0 
              0               0               1               0 
1
              1               0               0               0 
              0               1               0               0 
              0               0               1               0 
2  2 1 3 1 0
1
0.933580426497202 -0.3583679495453               0               0 
0.3583679495453 0.933580426497202               0               0 
              0               0               1               0 
2  5 -1 0
Curve2ds 8
1 0 31.25 1 0 
1 0.52359877559829882 -0 0 1 
1 0 0 1 0 
1 0 -0 0 1 
1 0 31.25 1 0 
1 0.89011791851710798 0 0 1 
1 0 0 1 0 
1 0.36651914291880922 0 0 1 
Curves 12
2 0 0 15.625 0 0 1 1 0 0 0 1 0 2760
1 2390.2301144450507 1379.9999999999998 -15.625 0 0 1 
2 0 0 -15.625 0 0 1 1 0 0 0 1 0 2760
1 2760 0 -15.625 0 0 1 
1 0 0 15.625 1 0 0 
2 0 0 15.625 0 0 1 1 0 0 0 1 0 2028.75
1 0 0 15.625 0.86602540378443871 0.49999999999999994 0 
1 0 0 -15.625 0.86602540378443871 0.49999999999999994 0 
1 1276.7337433423579 1576.6348693058296 -15.625 0 0 1 
1 0 0 -15.625 1 0 0 
2 0 0 -15.625 0 0 1 1 0 0 0 1 0 2028.75
1 1894.001290256198 727.03897764002795 -15.625 0 0 1 
Polygon3D 0
PolygonOnTriangulations 0
Surfaces 6
2 0 0 -15.625 0 0 1 1 0 0 0 1 0 2760
1 0 0 15.625 0 0 1 1 0 0 0 1 0 
2 0 0 -15.625 0 0 1 1 0 0 0 1 0 2028.75
1 0 0 -15.625 0.49999999999999994 -0.86602540378443871 0 0.86602540378443871 0.49999999999999994 0 0 0 1 
1 0 0 -15.625 0 0 1 1 0 0 0 1 0 
1 0 0 -15.625 0 -1 0 1 0 0 0 0 1 
Triangulations 0

TShapes 37
Ve
1e-07
1736.92427929755 2144.92285362124 15.625
0 0

0101101
*
Ve
1e-07
2576.68197713228 989.095540745029 15.625
0 0

0101101
*
Ed
 1e-07 1 1 0
1  1 0 0 0.523598775598299
2  1 1 0 0 0.523598775598299
0

0101000
-37 6 +36 6 *
Ve
1e-07
1736.92427929755 2144.92285362124 -15.625
0 0

0101101
*
Ed
 1e-07 1 1 0
1  2 0 0 31.25
2  2 1 0 0 31.25
0

0101000
-37 6 +34 6 *
Ve
1e-07
2576.68197713228 989.095540745029 -15.625
0 0

0101101
*
Ed
 1e-07 1 1 0
1  3 0 0 0.523598775598299
2  3 1 0 0 0.523598775598299
0

0101000
-34 6 +32 6 *
Ed
 1e-07 1 1 0
1  4 0 0 31.25
2  4 1 0 0 31.25
0

0101000
-36 6 +32 6 *
Wi

0101100
-35 0 +33 0 +31 0 -30 0 *
Fa
0  1e-07 1 0

0111000
+29 0 *
Ve
1.00048434862609e-07
1894.00129025622 727.038977639983 15.625
0 0

0101101
*
Ed
 1e-07 1 1 0
1  5 0 2028.75 2760
0

0101000
+27 6 -36 6 *
Ve
1.00023117317632e-07
1276.73374334234 1576.63486930584 15.625
0 0

0101101
*
Ed
 1e-07 1 1 0
1  6 0 0.366519142918785 0.890117918517119
2  5 3 0 0.366519142918785 0.890117918517119
0

0101000
+27 0 -25 0 *
Ed
 1e-07 1 1 0
1  7 0 2028.75 2760
0

0101000
+25 6 -37 6 *
Wi

0101100
+35 5 +26 5 -24 0 -23 5 *
Fa
0  1e-07 2 5

0111000
+22 0 *
Ve
1.00023117317632e-07
1276.73374334234 1576.63486930584 -15.625
0 0

0101101
*
Ed
 1e-07 1 1 0
1  8 0 2028.75 2760
0

0101000
+20 6 -34 6 *
Ed
 1e-07 1 1 0
1  9 0 0 31.25
2  6 3 0 0 31.25
0

0101000
+20 0 -25 0 *
Wi

0101100
-23 5 +33 5 +19 5 -18 0 *
Fa
0  1e-07 4 5

0111000
+17 0 *
Ve
1.00048434862609e-07
1894.00129025622 727.038977639983 -15.625
0 0

0101101
*
Ed
 1e-07 1 1 0
1  10 0 2028.75 2760
0

0101000
+15 6 -32 6 *
Ed
 1e-07 1 1 0
1  11 0 0.366519142918785 0.890117918517119
2  7 3 0 0.366519142918785 0.890117918517119
0

0101000
+15 0 -20 0 *
Wi

0101100
+31 5 +14 5 -13 0 -19 5 *
Fa
0  1e-07 5 5

0111000
+12 0 *
Ed
 1e-07 1 1 0
1  12 0 0 31.25
2  8 3 0 0 31.25
0

0101000
+15 0 -27 0 *
Wi

0101100
-10 0 -26 5 +30 5 +14 5 *
Fa
0  1e-07 6 5

0111000
+9 0 *
Wi

0101100
-24 0 +18 0 +13 0 -10 0 *
Fa
0  1e-07 3 0

0111000
+7 0 *
Sh

0101100
+28 5 +21 0 -16 0 -11 0 +8 0 -6 0 *
So

0100000
+5 0 *
Co

0100000
+4 0 *
Co

0100000
+3 4 *
Co

1100000
+2 1 *

+1 0 