DBRep_DrawableShape

CASCADE Topology V1, (c) Matra-Datavision
Locations 10
1
              1               0               0               0 
              0               1               0               0 
              0               0               1               0 
1
              1               0               0               0 
              0               1               0               0 
              0               0               1               0 
1
              1               0               0               0 
              0               1               0               0 
              0               0               1               0 
1
              1               0               0               0 
              0               1               0             140 
              0               0               1               0 
1
              1               0               0               0 
              0               1               0               0 
              0               0               1               0 
1
              1               0               0               0 
              0               1               0               0 
              0               0               1               0 
1
              1               0               0               0 
              0               1               0            -140 
              0               0               1               0 
2  6 1 7 1 0
1
              1               0               0               0 
              0               1               0 -1449.48394775391 
              0               0               1 1595.50018310547 
1
              1               0               0               0 
              0               1               0               0 
              0               0               1               0 
Curve2ds 0
Curves 36
1 -15 -125 -1720.5001831054688 0 0 1 
1 -15 -125 1720.5001831054688 0 1 0 
1 -15 125 -1720.5001831054688 0 0 1 
1 -15 -125 -1720.5001831054688 0 1 0 
1 15 -125 -1720.5001831054688 0 0 1 
1 15 -125 1720.5001831054688 0 1 0 
1 15 125 -1720.5001831054688 0 0 1 
1 15 -125 -1720.5001831054688 0 1 0 
1 -15 -125 -1720.5001831054688 1 0 0 
1 -15 -125 1720.5001831054688 1 0 0 
1 -15 125 -1720.5001831054688 1 0 0 
1 -15 125 1720.5001831054688 1 0 0 
1 -125 -15 -1720.5001831054688 0 0 1 
1 -125 -15 1720.5001831054688 0 1 0 
1 -125 15 -1720.5001831054688 0 0 1 
1 -125 -15 -1720.5001831054688 0 1 0 
1 125 -15 -1720.5001831054688 0 0 1 
1 125 -15 1720.5001831054688 0 1 0 
1 125 15 -1720.5001831054688 0 0 1 
1 125 -15 -1720.5001831054688 0 1 0 
1 -125 -15 -1720.5001831054688 1 0 0 
1 -125 -15 1720.5001831054688 1 0 0 
1 -125 15 -1720.5001831054688 1 0 0 
1 -125 15 1720.5001831054688 1 0 0 
1 -17.5 -1294.4839477539062 -125 0 0 1 
1 -17.5 -1294.4839477539062 125 0 1 0 
1 -17.5 1294.4839477539062 -125 0 0 1 
1 -17.5 -1294.4839477539062 -125 0 1 0 
1 17.5 -1294.4839477539062 -125 0 0 1 
1 17.5 -1294.4839477539062 125 0 1 0 
1 17.5 1294.4839477539062 -125 0 0 1 
1 17.5 -1294.4839477539062 -125 0 1 0 
1 -17.5 -1294.4839477539062 -125 1 0 0 
1 -17.5 -1294.4839477539062 125 1 0 0 
1 -17.5 1294.4839477539062 -125 1 0 0 
1 -17.5 1294.4839477539062 125 1 0 0 
Polygon3D 0
PolygonOnTriangulations 0
Surfaces 18
1 -15 -125 -1720.5001831054688 1 0 0 0 0 1 0 -1 0 
1 15 -125 -1720.5001831054688 1 0 0 0 0 1 0 -1 0 
1 -15 -125 -1720.5001831054688 0 1 0 0 0 1 1 0 0 
1 -15 125 -1720.5001831054688 0 1 0 0 0 1 1 0 0 
1 -15 -125 -1720.5001831054688 0 0 1 1 0 0 0 1 0 
1 -15 -125 1720.5001831054688 0 0 1 1 0 0 0 1 0 
1 -125 -15 -1720.5001831054688 1 0 0 0 0 1 0 -1 0 
1 125 -15 -1720.5001831054688 1 0 0 0 0 1 0 -1 0 
1 -125 -15 -1720.5001831054688 0 1 0 0 0 1 1 0 0 
1 -125 15 -1720.5001831054688 0 1 0 0 0 1 1 0 0 
1 -125 -15 -1720.5001831054688 0 0 1 1 0 0 0 1 0 
1 -125 -15 1720.5001831054688 0 0 1 1 0 0 0 1 0 
1 -17.5 -1294.4839477539062 -125 1 0 0 0 0 1 0 -1 0 
1 17.5 -1294.4839477539062 -125 1 0 0 0 0 1 0 -1 0 
1 -17.5 -1294.4839477539062 -125 0 1 0 0 0 1 1 0 0 
1 -17.5 1294.4839477539062 -125 0 1 0 0 0 1 1 0 0 
1 -17.5 -1294.4839477539062 -125 0 0 1 1 0 0 0 1 0 
1 -17.5 -1294.4839477539062 125 0 0 1 1 0 0 0 1 0 
Triangulations 0

TShapes 107
Ve
1e-07
-15 -125 1720.50018310547
0 0

0101101
*
Ve
1e-07
-15 -125 -1720.50018310547
0 0

0101101
*
Ed
 1e-07 1 1 0
1  1 0 0 3441.00036621094
0

0101000
-107 0 +106 0 *
Ve
1e-07
-15 125 1720.50018310547
0 0

0101101
*
Ed
 1e-07 1 1 0
1  2 0 0 250
0

0101000
-104 0 +107 0 *
Ve
1e-07
-15 125 -1720.50018310547
0 0

0101101
*
Ed
 1e-07 1 1 0
1  3 0 0 3441.00036621094
0

0101000
-104 0 +102 0 *
Ed
 1e-07 1 1 0
1  4 0 0 250
0

0101000
-102 0 +106 0 *
Wi

0101100
-105 0 -103 0 +101 0 +100 0 *
Fa
0  1e-07 1 0

0111000
+99 0 *
Ve
1e-07
15 -125 1720.50018310547
0 0

0101101
*
Ve
1e-07
15 -125 -1720.50018310547
0 0

0101101
*
Ed
 1e-07 1 1 0
1  5 0 0 3441.00036621094
0

0101000
-97 0 +96 0 *
Ve
1e-07
15 125 1720.50018310547
0 0

0101101
*
Ed
 1e-07 1 1 0
1  6 0 0 250
0

0101000
-94 0 +97 0 *
Ve
1e-07
15 125 -1720.50018310547
0 0

0101101
*
Ed
 1e-07 1 1 0
1  7 0 0 3441.00036621094
0

0101000
-94 0 +92 0 *
Ed
 1e-07 1 1 0
1  8 0 0 250
0

0101000
-92 0 +96 0 *
Wi

0101100
-95 0 -93 0 +91 0 +90 0 *
Fa
0  1e-07 2 0

0111000
+89 0 *
Ed
 1e-07 1 1 0
1  9 0 0 30
0

0101000
-96 0 +106 0 *
Ed
 1e-07 1 1 0
1  10 0 0 30
0

0101000
-97 0 +107 0 *
Wi

0101100
-87 0 -95 0 +86 0 +105 0 *
Fa
0  1e-07 3 0

0111000
+85 0 *
Ed
 1e-07 1 1 0
1  11 0 0 30
0

0101000
-92 0 +102 0 *
Ed
 1e-07 1 1 0
1  12 0 0 30
0

0101000
-94 0 +104 0 *
Wi

0101100
-83 0 -91 0 +82 0 +101 0 *
Fa
0  1e-07 4 0

0111000
+81 0 *
Wi

0101100
-100 0 -83 0 +90 0 +87 0 *
Fa
0  1e-07 5 0

0111000
+79 0 *
Wi

0101100
-103 0 -82 0 +93 0 +86 0 *
Fa
0  1e-07 6 0

0111000
+77 0 *
Sh

0101100
-98 0 +88 0 -84 0 +80 0 -78 0 +76 0 *
So

0100000
+75 0 *
Co

0100000
+74 3 *
Ve
1e-07
-125 -15 1720.50018310547
0 0

0101101
*
Ve
1e-07
-125 -15 -1720.50018310547
0 0

0101101
*
Ed
 1e-07 1 1 0
1  13 0 0 3441.00036621094
0

0101000
-72 0 +71 0 *
Ve
1e-07
-125 15 1720.50018310547
0 0

0101101
*
Ed
 1e-07 1 1 0
1  14 0 0 30
0

0101000
-69 0 +72 0 *
Ve
1e-07
-125 15 -1720.50018310547
0 0

0101101
*
Ed
 1e-07 1 1 0
1  15 0 0 3441.00036621094
0

0101000
-69 0 +67 0 *
Ed
 1e-07 1 1 0
1  16 0 0 30
0

0101000
-67 0 +71 0 *
Wi

0101100
-70 0 -68 0 +66 0 +65 0 *
Fa
0  1e-07 7 0

0111000
+64 0 *
Ve
1e-07
125 -15 1720.50018310547
0 0

0101101
*
Ve
1e-07
125 -15 -1720.50018310547
0 0

0101101
*
Ed
 1e-07 1 1 0
1  17 0 0 3441.00036621094
0

0101000
-62 0 +61 0 *
Ve
1e-07
125 15 1720.50018310547
0 0

0101101
*
Ed
 1e-07 1 1 0
1  18 0 0 30
0

0101000
-59 0 +62 0 *
Ve
1e-07
125 15 -1720.50018310547
0 0

0101101
*
Ed
 1e-07 1 1 0
1  19 0 0 3441.00036621094
0

0101000
-59 0 +57 0 *
Ed
 1e-07 1 1 0
1  20 0 0 30
0

0101000
-57 0 +61 0 *
Wi

0101100
-60 0 -58 0 +56 0 +55 0 *
Fa
0  1e-07 8 0

0111000
+54 0 *
Ed
 1e-07 1 1 0
1  21 0 0 250
0

0101000
-61 0 +71 0 *
Ed
 1e-07 1 1 0
1  22 0 0 250
0

0101000
-62 0 +72 0 *
Wi

0101100
-52 0 -60 0 +51 0 +70 0 *
Fa
0  1e-07 9 0

0111000
+50 0 *
Ed
 1e-07 1 1 0
1  23 0 0 250
0

0101000
-57 0 +67 0 *
Ed
 1e-07 1 1 0
1  24 0 0 250
0

0101000
-59 0 +69 0 *
Wi

0101100
-48 0 -56 0 +47 0 +66 0 *
Fa
0  1e-07 10 0

0111000
+46 0 *
Wi

0101100
-65 0 -48 0 +55 0 +52 0 *
Fa
0  1e-07 11 0

0111000
+44 0 *
Wi

0101100
-68 0 -47 0 +58 0 +51 0 *
Fa
0  1e-07 12 0

0111000
+42 0 *
Sh

0101100
-63 0 +53 0 -49 0 +45 0 -43 0 +41 0 *
So

0100000
+40 0 *
Co

0100000
+39 5 *
Ve
1e-07
-17.5 -1294.48394775391 125
0 0

0101101
*
Ve
1e-07
-17.5 -1294.48394775391 -125
0 0

0101101
*
Ed
 1e-07 1 1 0
1  25 0 0 250
0

0101000
-37 0 +36 0 *
Ve
1e-07
-17.5 1294.48394775391 125
0 0

0101101
*
Ed
 1e-07 1 1 0
1  26 0 0 2588.96789550781
0

0101000
-34 0 +37 0 *
Ve
1e-07
-17.5 1294.48394775391 -125
0 0

0101101
*
Ed
 1e-07 1 1 0
1  27 0 0 250
0

0101000
-34 0 +32 0 *
Ed
 1e-07 1 1 0
1  28 0 0 2588.96789550781
0

0101000
-32 0 +36 0 *
Wi

0101100
-35 0 -33 0 +31 0 +30 0 *
Fa
0  1e-07 13 0

0111000
+29 0 *
Ve
1e-07
17.5 -1294.48394775391 125
0 0

0101101
*
Ve
1e-07
17.5 -1294.48394775391 -125
0 0

0101101
*
Ed
 1e-07 1 1 0
1  29 0 0 250
0

0101000
-27 0 +26 0 *
Ve
1e-07
17.5 1294.48394775391 125
0 0

0101101
*
Ed
 1e-07 1 1 0
1  30 0 0 2588.96789550781
0

0101000
-24 0 +27 0 *
Ve
1e-07
17.5 1294.48394775391 -125
0 0

0101101
*
Ed
 1e-07 1 1 0
1  31 0 0 250
0

0101000
-24 0 +22 0 *
Ed
 1e-07 1 1 0
1  32 0 0 2588.96789550781
0

0101000
-22 0 +26 0 *
Wi

0101100
-25 0 -23 0 +21 0 +20 0 *
Fa
0  1e-07 14 0

0111000
+19 0 *
Ed
 1e-07 1 1 0
1  33 0 0 35
0

0101000
-26 0 +36 0 *
Ed
 1e-07 1 1 0
1  34 0 0 35
0

0101000
-27 0 +37 0 *
Wi

0101100
-17 0 -25 0 +16 0 +35 0 *
Fa
0  1e-07 15 0

0111000
+15 0 *
Ed
 1e-07 1 1 0
1  35 0 0 35
0

0101000
-22 0 +32 0 *
Ed
 1e-07 1 1 0
1  36 0 0 35
0

0101000
-24 0 +34 0 *
Wi

0101100
-13 0 -21 0 +12 0 +31 0 *
Fa
0  1e-07 16 0

0111000
+11 0 *
Wi

0101100
-30 0 -13 0 +20 0 +17 0 *
Fa
0  1e-07 17 0

0111000
+9 0 *
Wi

0101100
-33 0 -12 0 +23 0 +16 0 *
Fa
0  1e-07 18 0

0111000
+7 0 *
Sh

0101100
-28 0 +18 0 -14 0 +10 0 -8 0 +6 0 *
So

0100000
+5 0 *
Co

0100000
+4 10 *
Co

0100000
+73 2 +38 4 +38 8 +3 9 *
Co

1100000
+2 1 *

+1 0 