DBRep_DrawableShape

CASCADE Topology V1, (c) Matra-Datavision
Locations 56
1
              1               0               0               0 
              0               1               0               0 
              0               0               1               0 
1
0.933580426497202 -0.3583679495453               0               0 
0.3583679495453 0.933580426497202               0               0 
              0               0               1               0 
1
              1               0               0               0 
              0               1               0               0 
              0               0               1               0 
1
              1               0               0               0 
              0               1               0               0 
              0               0               1             -30 
2  2 1 3 1 4 1 0
1
0.933580426497202 -0.3583679495453               0               0 
0.3583679495453 0.933580426497202               0               0 
              0               0               1               0 
1
              1               0               0               0 
              0               1               0               0 
              0               0               1               0 
1
              1               0               0               0 
              0               1               0               0 
              0               0               1         400.625 
2  6 1 7 1 8 1 4 -1 3 -1 2 -1 0
2  4 -1 3 -1 2 -1 0
2  2 -1 0
2  6 1 7 1 8 1 0
2  6 -1 0
2  8 -1 7 -1 6 -1 0
2  3 1 4 1 0
1
              1               0               0               0 
              0               1               0               0 
              0               0               1               0 
1
              1               0               0               0 
              0               1               0               0 
              0               0               1        -400.625 
2  16 1 17 1 4 -1 3 -1 0
1
0.933580426497202 -0.3583679495453               0               0 
0.3583679495453 0.933580426497202               0               0 
              0               0               1               0 
2  19 1 16 1 17 1 0
2  3 1 4 1 17 -1 16 -1 19 -1 0
2  2 1 3 1 4 1 17 -1 16 -1 19 -1 0
2  19 -1 0
2  7 1 8 1 0
1
              1               0               0               0 
              0               1               0               0 
              0               0               1               0 
1
              1               0               0               0 
              0               1               0               0 
              0               0               1               0 
2  25 1 26 1 8 -1 7 -1 6 -1 0
2  3 1 4 1 8 -1 7 -1 6 -1 0
2  8 -1 7 -1 0
2  17 -1 16 -1 19 -1 0
2  25 1 26 1 17 -1 16 -1 19 -1 0
2  16 1 17 1 0
2  17 -1 16 -1 0
2  6 1 7 1 8 1 4 -1 3 -1 0
2  25 1 26 1 8 -1 7 -1 0
1
0.933580426497202 -0.3583679495453               0               0 
0.3583679495453 0.933580426497202               0               0 
              0               0               1               0 
2  36 1 25 1 26 1 0
2  36 -1 0
2  25 1 26 1 0
2  26 -1 25 -1 0
2  6 1 7 1 8 1 26 -1 25 -1 36 -1 0
2  19 1 16 1 17 1 26 -1 25 -1 36 -1 0
2  25 1 26 1 17 -1 16 -1 0
1
              1               0               0               0 
              0               1               0               0 
              0               0               1               0 
1
              1               0               0               0 
              0               1               0               0 
              0               0               1        -460.625 
2  44 1 45 1 0
1
0.933580426497202 -0.3583679495453               0               0 
0.3583679495453 0.933580426497202               0               0 
              0               0               1               0 
2  47 -1 0
1
              1               0               0               0 
              0               1               0               0 
              0               0               1               0 
1
              1               0               0               0 
              0               1               0            0.04 
              0               0               1             -30 
2  49 1 50 1 0
1
0.933580426497202 -0.3583679495453               0               0 
0.3583679495453 0.933580426497202               0               0 
              0               0               1               0 
2  52 -1 0
1
0.999975630705395 -0.00698126029796153               0               0 
0.00698126029796153 0.999975630705395               0               0 
              0               0               1               0 
2  54 -1 0
2  52 -1 54 -1 0
Curve2ds 139
1 0 830 1 0 
2 0 0 1 0 -0 1 2791.25
8 0 0.52359877559829882
1 0 0 1 0 
2 0 0 1 0 -0 1 2791.25
1 0.52359877559829882 -0 0 1 
1 2791.25 0 0 1 
1 0 0 1 0 
2 0 0 1 0 -0 1 2791.25
1 0 -0 0 1 
1 2791.25 0 0 1 
1 0 31.25 1 0 
1 0.52359877559829882 -0 0 1 
1 2791.25 0 0 1 
1 0 -0 0 1 
1 2791.25 0 0 1 
1 0 0 0.86602540378443871 0.49999999999999994 
1 0 830 1 0 
1 0 0 0.86602540378443871 0.49999999999999994 
1 0 0 1 0 
1 0 0 1 0 
1 0 0 0.86602540378443871 0.49999999999999994 
1 0.89011791851710798 0 0 1 
1 2760 0 0 1 
1 0.52359877559829882 -0 0 1 
1 2760 0 0 1 
8 0 31.25
1 0.89011791851710798 28.75 0 1 
1 2760 28.75 0 1 
1 0 0 1 0 
1 0 0 1 0 
1 0 0 1 0 
2 0 0 0.93358042649720174 -0.35836794954530027 0.35836794954530027 0.93358042649720174 2759.9999999999995
1 0.36651914291880922 0 0 1 
1 2759.9999999999995 0 0 1 
1 0 -0 0 1 
1 2760 0 0 1 
8 0 31.25
1 0.36651914291880922 28.75 0 1 
1 2760 28.75 0 1 
1 0 0 1 0 
1 0 830 1 0 
1 0 0 1 0 
1 0 0 1 0 
1 0 31.25 1 0 
1 0 31.25 1 0 
1 0 31.25 1 0 
1 0 0 1 0 
1 0 0 0.86602540378443871 0.49999999999999994 
1 0.89011791851710798 0 0 1 
1 2028.7499999999998 0 0 1 
1 0.36651914291880922 0 0 1 
1 2028.75 0 0 1 
1 0 0 1 0 
1 0 0 1 0 
1 0 0 1 0 
2 0 0 1 0 -0 1 2760
1 0.36651914291880922 28.75 1 0 
1 0 0 0.86602540378443871 0.49999999999999994 
1 0 31.25 1 0 
1 0 0 1 0 
1 0 0 0.86602540378443871 0.49999999999999994 
1 0.89011791851710798 0 0 1 
1 2028.7499999999998 0 0 1 
1 0 830 1 0 
2 0 0 0.93358042649720174 -0.35836794954530027 0.35836794954530027 0.93358042649720174 2759.9999999999995
2 0 0 0.93358042649720174 -0.35836794954530027 0.35836794954530027 0.93358042649720174 2759.9999999999995
1 0 31.25 1 0 
2 0 0 1 0 -0 1 2760
1 0.36651914291880922 60 1 0 
1 0.36651914291880922 0 0 1 
1 2028.75 0 0 1 
1 0 0 1 0 
1 0 31.25 1 0 
1 0 0 1 0 
1 0 0 1 0 
1 0 0 1 0 
2 0 0 0.93358042649720174 -0.35836794954530027 0.35836794954530027 0.93358042649720174 2028.7499999999998
8 0.36651914291883736 0.89011791851707955
1 0 770 1 0 
1 0.52359877559829882 -0 0 1 
1 2060 0 0 1 
1 0.89011791851710798 0 0 1 
1 2028.7499999999998 0 0 1 
1 0 770 1 0 
2 0 0 1 0 -0 1 2060
2 0 0 1 0 -0 1 2060
1 0.36651914291880922 0 0 1 
1 2028.75 0 0 1 
1 0 -0 0 1 
1 2060 0 0 1 
1 0 0 1 0 
2 0 0 0.93358042649720174 -0.35836794954530027 0.35836794954530027 0.93358042649720174 2028.7499999999998
1 0 0 1 0 
2 0 0 1 0 -0 1 2060
2 0 0 1 0 -0 1 2060
1 0 31.25 1 0 
2 0 0 0.93358042649720174 -0.35836794954530027 0.35836794954530027 0.93358042649720174 2028.7499999999998
8 0.36651914291883736 0.89011791851707955
1 0 0 1 0 
1 0 20 1 0 
2 0 0 1 0 -0 1 3250
1 0.52359877559829882 -0 0 1 
1 3250 0 0 1 
1 0 0 1 0 
1 0 -0 0 1 
1 3250 0 0 1 
1 0 0 1 0 
1 0 20 1 0 
1 0 20 1 0 
2 0 0 0.93358042649720174 -0.35836794954530027 0.35836794954530027 0.93358042649720174 2759.9999999999995
1 0 0 0.86602540378443871 0.49999999999999994 
1 0 20 1 0 
1 0 0 1 0 
1 0.89011791851710798 0 0 1 
1 2760 0 0 1 
1 0 0 1 0 
1 0 0 1 0 
1 0.36651914291880922 0 0 1 
1 2759.9999999999995 0 0 1 
1 0 916.52962990838432 1 0 
2 0 0 1 0 -0 1 2811.25
1 0.0069813170079772941 7544.4239632330027 0 -1 
1 -6417.154340836013 -1600 0.90558992629945456 0.42415431789025643 
1 0 0 1 0 
2 0 0 1 0 -0 1 3200
1 0 -0 0 1 
1 415 1600.0000000000005 -0.90558992629945445 -0.42415431789025659 
1 3199.9999999999995 4.5474735088646412e-13 -1 -1.6653345369377348e-16 
1 -415 1599.9999999999998 -0 -1 
1 0 830.00000006024095 1 0 
2 0 0 1 0 -0 1 2791.25
1 3199.9220182572635 22.340032953477021 -0.99997563070539486 -0.0069812602979615335 
1 -415 1600.0000000000002 -0 -1 
7 0 0  4 5 2  0.0069813170079772932 0  0.0069813170079772932 207.50000001090865  0.0069813170079772949 415.00000001938486  0.0069813170079772932 622.50000004932929  0.0069813170079772932 830.00000006024095 
 0 5 1 5
7 0 0  4 5 2  414.9999999895482 1191.2400000000005  207.49999999369982 1191.2424999999996  -4.5925503400212619e-09 1191.2450000000001  -207.49999998140038 1191.2474999999988  -414.99999997725183 1191.2499999999989 
 0 5 1 5
1 0 0 0.99997563070539486 0.0069812602979615335 
1 415 -1600 0 1 
1 415 -1599.9999999999998 0 1 
1 0 0 1 1.6653345369377348e-16 
1 0 0 1 0 
2 0 0 1 0 -0 1 2791.2400000000002
1 0 -0 0 1 
1 415 1191.2400000000005 -0.9999999999274205 1.2048192769924986e-05 
Curves 65
2 0 0 415 0 0 1 1 0 0 0 1 0 2791.25
1 2417.2934083133146 1395.6249999999998 -415 0 0 1 
2 0 0 -415 0 0 1 1 0 0 0 1 0 2791.25
1 2791.25 0 -415 0 0 1 
2 0 0 15.625 0 0 1 1 0 0 0 1 0 2791.25
1 2417.2934083133146 1395.6249999999998 -15.625 0 0 1 
1 2791.25 0 -15.625 0 0 1 
1 0 0 415 0.86602540378443871 0.49999999999999994 0 
1 0 0 -415 0.86602540378443871 0.49999999999999994 0 
1 1736.9242792975515 2144.9228536212395 -415 0 0 1 
1 2390.2301144450507 1379.9999999999998 -15.625 0 0 1 
1 0 0 -415 1 0 0 
2 0 0 -415 0 0 1 1 0 0 0 1 0 2760
1 2576.6819771322766 989.09554074502876 -415 0 0 1 
1 2760 0 -15.625 0 0 1 
1 0 0 415 1 0 0 
1 0 0 15.625 1 0 0 
2 0 0 15.625 0 0 1 1 0 0 0 1 0 2028.75
1 0 0 15.625 0.86602540378443871 0.49999999999999994 0 
1 0 0 -15.625 0.86602540378443871 0.49999999999999994 0 
1 1276.7337433423579 1576.6348693058296 -15.625 0 0 1 
1 1894.001290256198 727.03897764002795 -15.625 0 0 1 
1 0 0 -15.625 1 0 0 
2 0 0 -15.625 0 0 1 1 0 0 0 1 0 2760
1 0 0 15.625 0.86602540378443871 0.49999999999999994 0 
1 0 0 -15.625 0.86602540378443871 0.49999999999999994 0 
1 1276.7337433423579 1576.6348693058296 -15.625 0 0 1 
2 0 0 415 0 0 1 1 0 0 0 1 0 2760
2 0 0 15.625 0 0 1 1 0 0 0 1 0 2760
1 1894.001290256198 727.03897764002795 -15.625 0 0 1 
1 0 0 15.625 1 0 0 
1 0 0 -15.625 1 0 0 
2 0 0 -15.625 0 0 1 1 0 0 0 1 0 2028.75
1 1784.0123317959437 1029.9999999999998 -385 0 0 1 
1 1276.7337433423579 1576.6348693058296 -385 0 0 1 
2 0 0 385 0 0 1 1 0 0 0 1 0 2060
1 1894.001290256198 727.03897764002795 -385 0 0 1 
1 2060 0 -385 0 0 1 
2 0 0 -15.625 0 0 1 1 0 0 0 1 0 2028.75
2 0 0 -385 0 0 1 1 0 0 0 1 0 2060
2 0 0 15.625 0 0 1 1 0 0 0 1 0 2028.75
2 0 0 10 0 0 1 1 0 0 0 1 0 3250
1 2814.5825622994257 1624.9999999999998 -10 0 0 1 
2 0 0 -10 0 0 1 1 0 0 0 1 0 3250
1 3250 0 -10 0 0 1 
1 0 0 10 1 0 0 
2 0 0 10 0 0 1 1 0 0 0 1 0 2760
1 0 0 10 0.86602540378443871 0.49999999999999994 0 
1 0 0 -10 0.86602540378443871 0.49999999999999994 0 
1 1736.9242792975515 2144.9228536212395 -10 0 0 1 
1 0 0 -10 1 0 0 
2 0 0 -10 0 0 1 1 0 0 0 1 0 2760
1 2576.6819771322766 989.09554074502876 -10 0 0 1 
2 0 0 414.99999999999989 0 -0 1 0.93358042649720174 0.35836794954530027 0 -0.35836794954530027 0.93358042649720174 0 2811.25
1 0 0 6417.154340836013 0.39491134449492693 0.15476406357471328 -0.90558992629945456 
2 0 0 -415 0 -0 1 0.93358042649720174 0.35836794954530027 0 -0.35836794954530027 0.93358042649720174 0 3200
1 2987.4573647910461 1146.7774385449602 -415 -0.39598216899661537 -0.15200331319311661 0.90558992629945434 
1 2995.3905143647139 1125.8932748950463 415 -0.93605953573897327 -0.35184164840470206 0 
2 0 0 415 0 -0 1 0.93358042649720174 0.35836794954530027 0 -0.35836794954530027 0.93358042649720174 0 2791.25
1 2987.4573647910456 1146.7774385449611 415 -0.93358042649720174 -0.35836794954530032 0 
7 0 0  4 5 2  2598.8002354681239 1018.4586755145377 -414.9999999895482  2598.8025631076634 1018.4595877064984 -207.49999999369982  2598.804890747203 1018.4604998984591 4.5925503400212619e-09  2598.8072183867421 1018.4614120904199 207.49999998140038  2598.8095460262816 1018.4623242823806 414.99999997725183 
 0 5 1 5
1 0 0 -415 0.93358042649720174 0.35836794954530032 0 
1 0 0 -415 0.93605953573897327 0.35184164840470206 0 
2 0 0 -415 0 -0 1 0.93358042649720174 0.35836794954530027 0 -0.35836794954530027 0.93358042649720174 0 2791.2400000000002
1 2605.8470296560499 1000.2909554888233 -415 1.124795694466707e-05 4.3176861386845259e-06 0.9999999999274205 
Polygon3D 0
PolygonOnTriangulations 0
Surfaces 36
2 0 0 -415 0 0 1 1 0 0 0 1 0 2791.25
1 0 0 415 0 0 1 1 0 0 0 1 0 
2 0 0 -15.625 0 0 1 1 0 0 0 1 0 2791.25
1 0 0 -15.625 0 0 1 1 0 0 0 1 0 
1 0 0 -415 0.49999999999999994 -0.86602540378443871 0 0.86602540378443871 0.49999999999999994 0 0 0 1 
1 0 0 -415 0 0 1 1 0 0 0 1 0 
1 0 0 -415 0 -1 0 1 0 0 0 0 1 
1 0 0 -15.625 0.49999999999999994 -0.86602540378443871 0 0.86602540378443871 0.49999999999999994 0 0 0 1 
1 0 0 -15.625 0 -1 0 1 0 0 0 0 1 
2 0 0 -415 0 0 1 1 0 0 0 1 0 2760
2 0 0 -15.625 0 0 1 1 0 0 0 1 0 2760
1 0 0 -15.625 0.49999999999999994 -0.86602540378443871 0 0.86602540378443871 0.49999999999999994 0 0 0 1 
1 0 0 -15.625 0 -1 0 1 0 0 0 0 1 
1 0 0 15.625 0 0 1 1 0 0 0 1 0 
2 0 0 -15.625 0 0 1 1 0 0 0 1 0 2028.75
1 0 0 -15.625 0 0 1 1 0 0 0 1 0 
1 0 0 15.625 0 0 1 1 0 0 0 1 0 
2 0 0 -15.625 0 0 1 1 0 0 0 1 0 2028.75
2 0 0 -385 0 0 1 1 0 0 0 1 0 2028.75
1 0 0 -385 0.49999999999999994 -0.86602540378443871 0 0.86602540378443871 0.49999999999999994 0 0 0 1 
2 0 0 -385 0 0 1 1 0 0 0 1 0 2060
1 0 0 385 0 0 1 1 0 0 0 1 0 
1 0 0 -385 0 -1 0 1 0 0 0 0 1 
1 0 0 -385 0 0 1 1 0 0 0 1 0 
2 0 0 -10 0 0 1 1 0 0 0 1 0 3250
1 0 0 10 0 0 1 1 0 0 0 1 0 
1 0 0 -10 0.49999999999999994 -0.86602540378443871 0 0.86602540378443871 0.49999999999999994 0 0 0 1 
1 0 0 -10 0 -1 0 1 0 0 0 0 1 
2 0 0 -10 0 0 1 1 0 0 0 1 0 2760
1 0 0 -10 0 0 1 1 0 0 0 1 0 
3 0 0 -415 0 0 1 0.93358042649720174 0.35836794954530027 0 -0.35836794954530027 0.93358042649720174 0 3200
-0.43802783451755584
1 0 0 414.99999999999989 0 0 1 0.93358042649720174 0.35836794954530027 0 -0.35836794954530027 0.93358042649720174 0 
1 1493.7286823955228 573.38871927248056 0 0.35836794954530032 -0.93358042649720174 -0 0 0 -1 0.93358042649720174 0.35836794954530032 0 
1 0 0 -415 0 0 1 0.93358042649720174 0.35836794954530027 0 -0.35836794954530027 0.93358042649720174 0 
1 1497.695257182357 562.94663744752313 0 0.35184164840470206 -0.93605953573897327 -0 0 0 -1 0.93605953573897327 0.35184164840470206 0 
3 0 0 -415 0 0 1 0.93358042649720174 0.35836794954530027 0 -0.35836794954530027 0.93358042649720174 0 2791.2400000000002
1.2048192770216469e-05
Triangulations 0

TShapes 187
Ve
1.00000508422995e-07
2605.85636546031 1000.29453916832 385
0 0

0101101
*
Ve
1.00000643109871e-07
1756.59054151786 2169.20866491677 385
0 0

0101101
*
Ed
 1.00000454747351e-07 1 1 0
1  1 0 0 0.523598775598299
2  1 1 0 0 0.523598775598299
2  2 2 0 0 0.523598775598299
2  3 3 9 0 0.523598775598299
2  4 4 9 0 0.523598775598299
0

0101000
+187 10 -186 10 *
Ve
1e-07
1756.59054151786 2169.20866491677 -415
0 0

0101101
*
Ed
 1e-07 1 1 0
1  2 0 0 830
2  5 1 0 0 830
2  6 5 0 0 830
0

0101000
+184 11 -186 10 *
Ve
1e-07
2605.85636546031 1000.29453916832 -415
0 0

0101101
*
Ed
 1e-07 1 1 0
1  3 0 0 0.523598775598299
2  7 1 0 0 0.523598775598299
2  8 6 0 0 0.523598775598299
0

0101000
-184 11 +182 11 *
Ed
 1e-07 1 1 0
1  4 0 0 830
2  9 1 0 0 830
2  10 7 0 0 830
0

0101000
+182 11 -187 10 *
Wi

0101100
-185 5 +183 5 +181 5 -180 5 *
Fa
0  1e-07 1 5

0111000
+179 0 *
Ve
1e-07
1756.59054151786 2169.20866491677 15.625
0 0

0101101
*
Ve
1e-07
2605.85636546031 1000.29453916832 15.625
0 0

0101101
*
Ed
 1e-07 1 1 0
1  5 0 0 0.523598775598299
2  11 3 0 0 0.523598775598299
0

0101000
-177 13 +176 13 *
Ed
 1e-07 1 1 0
1  6 0 0 31.25
2  12 3 0 0 31.25
2  13 8 0 0 31.25
0

0101000
+186 14 -177 13 *
Ed
 1e-07 1 1 0
1  7 0 0 31.25
2  14 3 0 0 31.25
2  15 9 0 0 31.25
0

0101000
+187 14 -176 13 *
Wi

0101100
-175 12 +174 12 +185 5 -173 12 *
Fa
0  1e-07 3 12

0111000
+172 0 *
Ve
1.00043786408434e-07
1736.92427929759 2144.92285362121 415
0 0

0101101
*
Ed
 1.00000643109871e-07 1 1 0
1  8 0 2760 2791.25
2  16 2 0 2760 2791.25
2  17 5 0 2760 2791.25
2  18 4 9 2760 2791.25
2  19 8 9 2760 2791.25
0

0101000
+170 11 -186 10 *
Ve
1.00043677056766e-07
1736.92427929759 2144.92285362121 -415
0 0

0101101
*
Ed
 1e-07 1 1 0
1  9 0 2760 2791.25
2  20 5 0 2760 2791.25
2  21 6 0 2760 2791.25
0

0101000
+168 11 -184 11 *
Ve
1.0000093748568e-07
1736.92427929755 2144.92285362124 -15.625
0 0

0101101
*
Ed
 1e-07 1 1 0
1  10 0 0 28.75
2  22 10 0 0 28.75
2  23 5 2 0 28.75
0

0101000
+168 0 -166 18 *
Ve
1.0000093748568e-07
1736.92427929755 2144.92285362124 15.625
0 0

0101101
*
Ed
 1e-07 1 1 0
1  11 0 0 31.25
2  24 11 0 0 31.25
2  25 12 0 0 31.25
2  26 10 21 0 31.25
2  27 5 22 0 31.25
0

0101000
-164 23 +166 23 *
Ed
 1e-07 1 1 0
1  10 0 60 830
2  22 10 0 60 830
2  23 5 2 60 830
0

0101000
+164 18 -170 0 *
Wi

0101100
-169 5 +183 5 +167 5 -165 15 -163 20 -162 15 *
Fa
0  1e-07 5 5

0111000
+161 0 *
Ve
1.00058229417219e-07
2576.6819771323 989.095540744974 -415
0 0

0101101
*
Ed
 1e-07 1 1 0
1  12 0 2760 2791.25
2  28 7 0 2760 2791.25
2  29 6 0 2760 2791.25
0

0101000
+159 11 -182 11 *
Ed
 1e-07 1 1 0
1  13 0 0.366519142918788 0.890117918517092
2  30 10 0 0.366519142918788 0.890117918517092
2  31 6 2 0.366519142918788 0.890117918517092
0

0101000
+159 0 -168 0 *
Wi

0101100
+181 2 +158 2 -157 0 -167 2 *
Fa
0  1e-07 6 2

0111000
+156 0 *
Ve
1.0000093748568e-07
2576.68197713228 989.095540745029 -15.625
0 0

0101101
*
Ed
 1e-07 1 1 0
1  14 0 0 28.75
2  32 10 0 0 28.75
2  33 7 2 0 28.75
0

0101000
+159 0 -154 18 *
Ve
1.0000093748568e-07
2576.68197713228 989.095540745029 15.625
0 0

0101101
*
Ed
 1e-07 1 1 0
1  15 0 0 31.25
2  34 11 0 0 31.25
2  35 13 0 0 31.25
2  36 10 21 0 31.25
2  37 7 22 0 31.25
0

0101000
-152 23 +154 23 *
Ve
1.00058229417219e-07
2576.6819771323 989.095540744974 415
0 0

0101101
*
Ed
 1e-07 1 1 0
1  14 0 60 830
2  32 10 0 60 830
2  33 7 2 60 830
0

0101000
+152 18 -150 0 *
Ed
 1.00000508422995e-07 1 1 0
1  16 0 2760 2791.25
2  38 2 0 2760 2791.25
2  39 7 0 2760 2791.25
2  40 4 9 2760 2791.25
2  41 9 9 2760 2791.25
0

0101000
+150 11 -187 10 *
Wi

0101100
-153 15 -151 20 -149 15 -148 5 +180 5 +158 5 *
Fa
0  1e-07 7 5

0111000
+147 0 *
Ve
1.00048434862609e-07
1894.00129025622 727.038977639983 15.625
0 0

0101101
*
Ed
 1e-07 1 1 0
1  17 0 2028.75 2791.25
2  42 9 0 2028.75 2791.25
0

0101000
+145 13 -176 13 *
Ve
1.00023117317632e-07
1276.73374334234 1576.63486930584 15.625
0 0

0101101
*
Ed
 1e-07 1 1 0
1  18 0 0.366519142918785 0.890117918517119
2  43 15 0 0.366519142918785 0.890117918517119
0

0101000
+145 0 -143 0 *
Ed
 1e-07 1 1 0
1  19 0 2028.75 2791.25
2  44 8 0 2028.75 2791.25
0

0101000
+143 13 -177 13 *
Wi

0101100
+175 6 +144 6 -142 0 -141 6 *
Fa
0  1e-07 14 6

0111000
+140 0 *
Ve
1.00080894121113e-07
1276.73374334238 1576.63486930581 385
0 0

0101101
*
Ve
1.00000508422995e-07
1296.40000556267 1600.92068060136 385
0 0

0101101
*
Ed
 1.00000508422995e-07 1 1 0
1  20 0 2028.75 2060
2  45 8 0 2028.75 2060
2  46 4 0 2028.75 2060
0

0101000
+138 14 -137 27 *
Ed
 1e-07 1 1 0
1  20 0 2060 2760
2  45 8 0 2060 2760
2  46 4 0 2060 2760
0

0101000
+137 27 -170 28 *
Ed
 1e-07 1 1 0
1  21 0 0 31.25
2  47 15 0 0 31.25
2  48 8 6 0 31.25
0

0101000
+138 29 -143 0 *
Wi

0101100
-141 12 +174 12 +136 12 +135 12 +169 5 -134 24 *
Fa
0  1e-07 8 12

0111000
+133 0 *
Ve
1.00105546047619e-07
1894.00129025619 727.038977640036 385
0 0

0101101
*
Ed
 1e-07 1 1 0
1  22 0 0 31.25
2  49 15 0 0 31.25
2  50 9 6 0 31.25
0

0101000
+131 29 -145 0 *
Ve
1.00000227373675e-07
1923.17567858424 738.237976063319 385
0 0

0101101
*
Ed
 1.00000227373675e-07 1 1 0
1  23 0 2028.75 2060
2  51 4 0 2028.75 2060
2  52 9 0 2028.75 2060
0

0101000
+131 14 -129 27 *
Ed
 1e-07 1 1 0
1  23 0 2060 2760
2  51 4 0 2060 2760
2  52 9 0 2060 2760
0

0101000
+129 27 -150 28 *
Wi

0101100
-130 24 -144 12 +173 12 +128 12 +127 12 +148 5 *
Fa
0  1e-07 9 12

0111000
+126 0 *
Ed
 1.0000093748568e-07 1 1 0
1  24 0 0 0.523598775598299
2  53 11 0 0 0.523598775598299
2  54 16 0 0 0.523598775598299
2  55 10 21 0 0.523598775598299
0

0101000
-166 23 +154 23 *
Wi

0101100
-124 20 +165 15 +157 15 -153 15 *
Fa
0  1e-07 10 15

0111000
+123 0 *
Ve
1.00080894121113e-07
1276.73374334238 1576.63486930581 -385
0 0

0101101
*
Ve
1.00000508422995e-07
1296.40000556267 1600.92068060136 -385
0 0

0101101
*
Ed
 1.00000508422995e-07 1 1 0
1  25 0 2028.75 2060
2  56 17 0 2028.75 2060
2  57 12 0 2028.75 2060
0

0101000
+121 30 -120 31 *
Ed
 1e-07 1 1 0
1  25 0 2060 2760
2  56 17 0 2060 2760
2  57 12 0 2060 2760
0

0101000
+120 31 -164 23 *
Ve
1.00023117317632e-07
1276.73374334234 1576.63486930584 -15.625
0 0

0101101
*
Ed
 1e-07 1 1 0
1  26 0 2028.75 2760
2  58 12 0 2028.75 2760
2  59 16 0 2028.75 2760
0

0101000
+117 23 -166 23 *
Ed
 1e-07 1 1 0
1  27 0 0 31.25
2  60 18 0 0 31.25
2  61 12 19 0 31.25
0

0101000
+117 0 -121 33 *
Wi

0101100
-119 20 -118 20 +163 20 +116 20 -115 32 *
Fa
0  1e-07 12 20

0111000
+114 0 *
Ed
 1e-07 1 1 0
1  28 0 0.366519142918788 0.890117918517092
2  62 10 0 0.366519142918788 0.890117918517092
2  63 2 2 0.366519142918788 0.890117918517092
2  64 4 34 0.366519142918788 0.890117918517092
0

0101000
+150 0 -170 0 *
Ed
 1.0000093748568e-07 1 1 0
1  29 0 0 0.523598775598299
2  65 11 0 0 0.523598775598299
2  66 17 0 0 0.523598775598299
2  67 10 21 0 0.523598775598299
0

0101000
-164 23 +152 23 *
Wi

0101100
-112 15 +162 15 +111 20 -149 15 *
Fa
0  1e-07 10 15

0111000
+110 0 *
Ve
1.00048434862609e-07
1894.00129025622 727.038977639983 -15.625
0 0

0101101
*
Ve
1.00105546047619e-07
1894.00129025619 727.038977640036 -385
0 0

0101101
*
Ed
 1e-07 1 1 0
1  30 0 0 31.25
2  68 18 0 0 31.25
2  69 13 19 0 31.25
0

0101000
+108 0 -107 33 *
Ve
1.00000227373675e-07
1923.17567858424 738.237976063319 -385
0 0

0101101
*
Ed
 1.00000227373675e-07 1 1 0
1  31 0 2028.75 2060
2  70 17 0 2028.75 2060
2  71 13 0 2028.75 2060
0

0101000
+107 30 -105 31 *
Ed
 1e-07 1 1 0
1  31 0 2060 2760
2  70 17 0 2060 2760
2  71 13 0 2060 2760
0

0101000
+105 31 -152 23 *
Ed
 1e-07 1 1 0
1  32 0 2028.75 2760
2  72 16 0 2028.75 2760
2  73 13 0 2028.75 2760
0

0101000
+108 23 -154 23 *
Wi

0101100
-106 32 -104 20 -103 20 +151 20 +102 20 *
Fa
0  1e-07 13 20

0111000
+101 0 *
Ed
 1.00000227373675e-07 1 1 0
1  33 0 0.366519142918785 0.890117918517119
2  74 15 0 0.366519142918785 0.890117918517119
2  75 4 6 0.366519142918785 0.890117918517119
2  76 19 35 0.366519142918785 0.890117918517119
0

0101000
+131 29 -138 29 *
Wi

0101100
-142 24 +134 24 +99 24 -130 24 *
Fa
0  1e-07 15 24

0111000
+98 0 *
Ed
 1e-07 1 1 0
1  34 0 0 770
2  77 21 0 0 770
2  78 20 0 0 770
0

0101000
-137 38 +120 38 *
Ed
 1e-07 1 1 0
1  35 0 0 770
2  79 19 0 0 770
2  80 20 36 0 770
0

0101000
+121 40 -138 40 *
Wi

0101100
-136 12 +96 37 +119 20 -95 39 *
Fa
0  1e-07 20 37

0111000
+94 0 *
Ed
 1e-07 1 1 0
1  36 0 0 0.523598775598299
2  81 21 0 0 0.523598775598299
2  82 22 0 0 0.523598775598299
2  83 4 41 0 0.523598775598299
0

0101000
-137 38 +129 38 *
Wi

0101100
-92 37 -135 12 +112 15 +127 12 *
Fa
0  1e-07 4 12

0111000
+91 0 *
Ed
 1e-07 1 1 0
1  37 0 0 770
2  84 19 0 0 770
2  85 23 36 0 770
0

0101000
+107 40 -131 40 *
Ed
 1e-07 1 1 0
1  38 0 0 770
2  86 21 0 0 770
2  87 23 0 0 770
0

0101000
-129 38 +105 38 *
Wi

0101100
-89 39 -128 12 +88 37 +104 20 *
Fa
0  1e-07 23 37

0111000
+87 0 *
Ed
 1e-07 1 1 0
1  39 0 0.366519142918785 0.890117918517119
2  88 18 0 0.366519142918785 0.890117918517119
2  89 16 19 0.366519142918785 0.890117918517119
0

0101000
+108 0 -117 0 *
Wi

0101100
+124 19 +102 19 -85 0 -116 19 *
Fa
0  1e-07 16 19

0111000
+84 0 *
Ed
 1e-07 1 1 0
1  40 0 0 0.523598775598299
2  90 21 0 0 0.523598775598299
2  91 24 0 0 0.523598775598299
2  92 17 42 0 0.523598775598299
0

0101000
-120 38 +105 38 *
Wi

0101100
+111 20 +103 20 -82 37 -118 20 *
Fa
0  1e-07 17 20

0111000
+81 0 *
Ed
 1.00000227373675e-07 1 1 0
1  41 0 0.366519142918785 0.890117918517119
2  93 18 0 0.366519142918785 0.890117918517119
2  94 17 19 0.366519142918785 0.890117918517119
2  95 19 43 0.366519142918785 0.890117918517119
0

0101000
+107 33 -121 33 *
Wi

0101100
-79 32 +115 32 +85 32 -106 32 *
Fa
0  1e-07 18 32

0111000
+78 0 *
Wi

0101100
-99 24 +95 39 +79 32 -89 39 *
Fa
0  1e-07 19 39

0111000
+76 0 *
Wi

0101100
-92 0 +96 0 +82 0 -88 0 *
Fa
0  1e-07 21 0

0111000
+74 0 *
Sh

0101100
+178 0 +171 0 -160 0 -155 15 +146 0 +139 24 -132 0 +125 0 -122 0 -113 0 
-109 0 +100 0 -97 0 -93 0 -90 0 +86 0 -83 32 +80 0 -77 0 -75 0 
+73 37 *
So

0100000
+72 0 *
Ve
1e-07
2045.29127091197 2525.72437473515 10
0 0

0101101
*
Ve
1e-07
3034.13638611591 1164.69583602223 10
0 0

0101101
*
Ed
 1e-07 1 1 0
1  42 0 0 0.523598775598299
2  96 25 0 0 0.523598775598299
2  97 26 0 0 0.523598775598299
0

0101000
-70 48 +69 48 *
Ve
1e-07
2045.29127091197 2525.72437473515 -10
0 0

0101101
*
Ed
 1e-07 1 1 0
1  43 0 0 20
2  98 25 0 0 20
2  99 27 0 0 20
0

0101000
-70 48 +67 48 *
Ve
1e-07
3034.13638611591 1164.69583602223 -10
0 0

0101101
*
Ed
 1e-07 1 1 0
1  44 0 0 0.523598775598299
2  100 25 0 0 0.523598775598299
0

0101000
-67 48 +65 48 *
Ed
 1e-07 1 1 0
1  45 0 0 20
2  101 25 0 0 20
2  102 28 0 0 20
0

0101000
-69 48 +65 48 *
Wi

0101100
-68 0 +66 0 +64 0 -63 0 *
Fa
0  1e-07 25 0

0111000
+62 0 *
Ve
1.0005764225381e-07
2576.6819771323 989.095540744975 10
0 0

0101101
*
Ed
 1e-07 1 1 0
1  46 0 2760 3250
2  103 26 0 2760 3250
2  104 28 0 2760 3250
0

0101000
+60 48 -69 48 *
Ve
1.00079897181316e-07
1736.92427929761 2144.92285362119 10
0 0

0101101
*
Ed
 1e-07 1 1 0
1  47 0 0.366519142918788 0.890117918517079
2  105 29 0 0.366519142918788 0.890117918517079
2  106 26 47 0.366519142918788 0.890117918517079
0

0101000
+60 0 -58 0 *
Ed
 1e-07 1 1 0
1  48 0 2760 3250
2  107 26 0 2760 3250
2  108 27 0 2760 3250
0

0101000
+58 48 -70 48 *
Wi

0101100
+68 47 +59 47 -57 0 -56 47 *
Fa
0  1e-07 26 47

0111000
+55 0 *
Ve
1.00079897181316e-07
1736.92427929761 2144.92285362119 -10
0 0

0101101
*
Ed
 1e-07 1 1 0
1  49 0 2760 3250
2  109 27 0 2760 3250
0

0101000
+53 48 -67 48 *
Ed
 1e-07 1 1 0
1  50 0 0 20
2  110 29 0 0 20
2  111 27 47 0 20
0

0101000
+53 0 -58 0 *
Wi

0101100
-56 47 +66 47 +52 47 -51 0 *
Fa
0  1e-07 27 47

0111000
+50 0 *
Ve
1.0005764225381e-07
2576.6819771323 989.095540744975 -10
0 0

0101101
*
Ed
 1e-07 1 1 0
1  51 0 2760 3250
2  112 28 0 2760 3250
0

0101000
+48 48 -65 48 *
Ed
 1e-07 1 1 0
1  52 0 0.366519142918788 0.890117918517079
2  113 29 0 0.366519142918788 0.890117918517079
0

0101000
+48 0 -53 0 *
Wi

0101100
+64 47 +47 47 -46 0 -52 47 *
Fa
0  1e-07 30 47

0111000
+45 0 *
Ed
 1e-07 1 1 0
1  53 0 0 20
2  114 29 0 0 20
2  115 28 47 0 20
0

0101000
+48 0 -60 0 *
Wi

0101100
-43 0 -59 47 +63 47 +47 47 *
Fa
0  1e-07 28 47

0111000
+42 0 *
Wi

0101100
-57 0 +51 0 +46 0 -43 0 *
Fa
0  1e-07 29 0

0111000
+40 0 *
Sh

0101100
+61 47 +54 0 -49 0 -44 0 +41 0 -39 0 *
So

0100000
+38 0 *
Ve
1.00001297079249e-07
2089.16589062333 1881.09341712634 415
0 0

0101101
*
Ve
1.00054447240176e-07
2075.98257633455 1895.6325870947 415
0 0

0101101
*
Ed
 1e-07 1 1 0
1  54 0 0 0.00698131700795796
2  116 31 0 0 0.00698131700795796
2  117 32 0 0 0.00698131700795796
0

0101000
+36 53 -35 53 *
Ve
1.50001e-07
2363.05709000283 2157.76764026791 -415
0 0

0101101
*
Ed
 1e-07 1 1 0
1  55 0 6627.89433332462 7544.423963233
2  118 31 0 6627.89433332462 7544.423963233
2  119 33 54 6627.89433332462 7544.423963233
0

0101000
+35 53 -33 53 *
Ve
1.0000245315279e-07
2378.06344152766 2141.21794034835 -415
0 0

0101101
*
Ed
 1e-07 1 1 0
1  56 0 0 0.00698131700797729
2  120 31 0 0 0.00698131700797729
2  121 34 0 0 0.00698131700797729
0

0101000
+31 53 -33 53 *
Ed
 1.00001297079249e-07 1 1 0
1  57 0 0 916.529629908384
2  122 31 0 0 916.529629908384
2  123 35 54 0 916.529629908384
0

0101000
+31 53 -36 53 *
Wi

0101100
-34 0 -32 0 +30 0 -29 0 *
Fa
0  1e-07 31 0

0111000
+28 0 *
Ve
1.00001142876034e-07
2074.30299411378 1867.71080499916 415
0 0

0101101
*
Ed
 1.00000113686838e-07 1 1 0
1  58 0 388.75 408.75
2  124 32 55 388.75 408.75
2  125 35 0 388.75 408.75
0

0101000
+36 56 -26 56 *
Ve
1.22748220046147e-07
2061.21346952196 1882.1465393431 415
0 0

0101101
*
Ed
 1.00000113686838e-07 1 1 0
1  59 0 0 0.00698131700799476
2  126 36 0 0 0.00698131700799476
2  127 32 0 0 0.00698131700799476
0

0101000
+26 53 -24 53 *
Ed
 1.00000113686838e-07 1 1 0
1  60 0 388.75 408.75
2  128 32 55 388.75 408.75
2  129 33 0 388.75 408.75
0

0101000
+35 56 -24 56 *
Wi

0101100
-25 54 -23 0 +22 54 +34 0 *
Fa
0  1e-07 32 0

0111000
+21 0 *
Ve
1.10451913257455e-07
2061.20608496856 1882.13979631923 -415
0 0

0101101
*
Ed
 1e-07 1 1 0
1  61 0 0 1
2  130 36 0 0 1
2  131 33 54 0 1
0

0101000
+19 53 -24 53 *
Ed
 1e-07 1 1 0
1  62 0 2791.24 3200
2  132 34 55 2791.24 3200
2  133 33 0 2791.24 3200
0

0101000
+19 56 -33 56 *
Wi

0101100
-18 0 +22 54 -32 0 +17 54 *
Fa
0  1e-07 33 54

0111000
+16 0 *
Ve
1.00001143649434e-07
2074.29556266552 1867.7041136931 -415
0 0

0101101
*
Ed
 1e-07 1 1 0
1  63 0 2791.24 3200
2  134 35 0 2791.24 3200
2  135 34 55 2791.24 3200
0

0101000
+14 56 -31 56 *
Ed
 1e-07 1 1 0
1  64 0 0 0.00698131700799477
2  136 36 0 0 0.00698131700799477
2  137 34 0 0 0.00698131700799477
0

0101000
+14 53 -19 53 *
Wi

0101100
+13 54 -12 0 -17 54 +30 0 *
Fa
0  1e-07 34 0

0111000
+11 0 *
Ed
 1.00001142876034e-07 1 1 0
1  65 0 0 830.000000060241
2  138 36 0 0 830.000000060241
2  139 35 54 0 830.000000060241
0

0101000
-26 53 +14 53 *
Wi

0101100
-9 0 +25 54 +29 0 +13 54 *
Fa
0  1e-07 35 54

0111000
+8 0 *
Wi

0101100
-23 0 +18 0 +12 0 -9 0 *
Fa
0  1e-07 36 0

0111000
+6 0 *
Sh

0101100
+27 0 +20 0 -15 0 -10 0 +7 0 -5 0 *
So

0100000
+4 0 *
Co

0100000
+71 0 +37 46 +3 51 *
Co

1100000
+2 1 *

+1 0 