DBRep_DrawableShape

CASCADE Topology V1, (c) Matra-Datavision
Locations 8
1
              1               0               0               0 
              0               1               0               0 
              0               0               1               0 
1
              1               0               0             -50 
              0               1               0               0 
              0               0               1         -323.25 
1
              1               0               0               0 
              0               1               0               0 
              0               0               1               0 
1
0.939692620785908 0.342020143325669               0               0 
-0.342020143325669 0.939692620785908               0               0 
              0               0               1               0 
2  4 -1 0
1
              1               0               0               0 
              0               1               0               0 
              0               0               1               0 
1
              1               0               0             -50 
              0               1               0               0 
              0               0               1          323.25 
2  6 1 7 1 0
Curve2ds 12
1 0 20 1 0 
1 0.69813170079773179 -0 0 1 
1 0 0 1 0 
1 0 -0 0 1 
1 0 20 1 0 
1 0 20 1 0 
1 0.34906585039886595 0 0 1 
1 0 0 1 0 
1 0 0 1 0 
1 5.9341194567807207 0 0 1 
1 6.2831853071795862 -0 0 1 
1 0 -0 0 1 
Curves 15
2 0 0 10 0 0 1 1 0 0 0 1 0 3495
1 2677.3253287008279 2246.5426958544545 -10 0 0 1 
2 0 0 -10 0 0 1 1 0 0 0 1 0 3495
1 3494.9999999999995 0 -10 0 0 1 
1 0 0 10 1 0 0 
2 0 0 10 0 0 1 1 0 0 0 1 0 2811
2 0 0 10 0 0 1 1 0 0 0 1 0 2811
1 0 0 10 0.76604444311897812 0.64278760968653925 0 
1 0 0 -10 0.76604444311897812 0.64278760968653925 0 
1 2641.4759570291885 961.41862288845493 -10 0 0 1 
1 0 0 -10 1 0 0 
2 0 0 -10 0 0 1 1 0 0 0 1 0 2811
2 0 0 -10 0 0 1 1 0 0 0 1 0 2811
1 2641.475957029189 -961.41862288845448 -10 0 0 1 
1 2811 -6.8849643048064196e-13 -10 0 0 1 
Polygon3D 0
PolygonOnTriangulations 0
Surfaces 7
2 0 0 -10 0 0 1 1 0 0 0 1 0 3495
1 0 0 10 0 0 1 1 0 0 0 1 0 
2 0 0 -10 0 0 1 1 0 0 0 1 0 2811
2 0 0 -10 0 0 1 1 0 0 0 1 0 2811
1 0 0 -10 0.64278760968653925 -0.76604444311897812 0 0.76604444311897812 0.64278760968653925 0 0 0 1 
1 0 0 -10 0 0 1 1 0 0 0 1 0 
1 0 0 -10 0 -1 0 1 0 0 0 0 1 
Triangulations 0

TShapes 45
Ve
1e-07
3284.22570964675 1195.36040092321 10
0 0

0101101
*
Ve
1e-07
3284.22570964675 -1195.36040092321 10
0 0

0101101
*
Ed
 1e-07 1 1 0
1  1 0 0 0.698131700797732
2  1 1 0 0 0.698131700797732
0

0101000
-45 5 +44 5 *
Ve
1e-07
3284.22570964675 1195.36040092321 -10
0 0

0101101
*
Ed
 1e-07 1 1 0
1  2 0 0 20
2  2 1 0 0 20
0

0101000
-45 5 +42 5 *
Ve
1e-07
3284.22570964675 -1195.36040092321 -10
0 0

0101101
*
Ed
 1e-07 1 1 0
1  3 0 0 0.698131700797732
2  3 1 0 0 0.698131700797732
0

0101000
-42 5 +40 5 *
Ed
 1e-07 1 1 0
1  4 0 0 20
2  4 1 0 0 20
0

0101000
-44 5 +40 5 *
Wi

0101100
-43 0 +41 0 +39 0 -38 0 *
Fa
0  1e-07 1 0

0111000
+37 0 *
Ve
1.00038651016946e-07
2641.4759570292 -961.418622888418 10
0 0

0101101
*
Ed
 1e-07 1 1 0
1  5 0 2811 3495
0

0101000
+35 5 -44 5 *
Ve
1e-07
2811 -6.88496430480642e-13 10
0 0

0101101
*
Ed
 1e-07 1 1 0
1  6 0 5.93411945678073 6.28318530717959
2  5 3 0 5.93411945678073 6.28318530717959
0

0101000
+35 0 -33 0 *
Ve
1.0003757947612e-07
2641.4759570292 961.41862288842 10
0 0

0101101
*
Ed
 1e-07 1 1 0
1  7 0 0 0.349065850398853
2  6 4 0 0 0.349065850398853
0

0101000
+33 0 -31 0 *
Ed
 1e-07 1 1 0
1  8 0 2811 3495
0

0101000
+31 5 -45 5 *
Wi

0101100
+43 4 +34 4 -32 0 -30 0 -29 4 *
Fa
0  1e-07 2 4

0111000
+28 0 *
Ve
1.0003757947612e-07
2641.4759570292 961.41862288842 -10
0 0

0101101
*
Ed
 1e-07 1 1 0
1  9 0 2811 3495
0

0101000
+26 5 -42 5 *
Ed
 1e-07 1 1 0
1  10 0 0 20
2  7 4 0 0 20
0

0101000
+26 0 -31 0 *
Wi

0101100
-29 4 +41 4 +25 4 -24 0 *
Fa
0  1e-07 5 4

0111000
+23 0 *
Ve
1.00038651016946e-07
2641.4759570292 -961.418622888418 -10
0 0

0101101
*
Ed
 1e-07 1 1 0
1  11 0 2811 3495
0

0101000
+21 5 -40 5 *
Ve
1e-07
2811 -6.88496430480642e-13 -10
0 0

0101101
*
Ed
 1e-07 1 1 0
1  12 0 5.93411945678073 6.28318530717959
2  8 3 0 5.93411945678073 6.28318530717959
0

0101000
+21 0 -19 0 *
Ed
 1e-07 1 1 0
1  13 0 0 0.349065850398853
2  9 4 0 0 0.349065850398853
0

0101000
+19 0 -26 0 *
Wi

0101100
+39 4 +20 4 -18 0 -17 0 -25 4 *
Fa
0  1e-07 6 4

0111000
+16 0 *
Ed
 1e-07 1 1 0
1  14 0 0 20
2  10 3 0 0 20
0

0101000
+21 0 -35 0 *
Wi

0101100
-14 0 -34 4 +38 4 +20 4 *
Fa
0  1e-07 7 4

0111000
+13 0 *
Ed
 1e-07 1 1 0
1  15 0 0 20
2  11 3 0 0 20
2  12 4 0 0 20
4 CN 3 0 4 0
0

0101000
-33 0 +19 0 *
Wi

0101100
+11 0 +18 0 -14 0 -32 0 *
Fa
0  1e-07 3 0

0111000
+10 0 *
Wi

0101100
-30 0 +24 0 +17 0 -11 0 *
Fa
0  1e-07 4 0

0111000
+8 0 *
Sh

0101100
+36 4 +27 0 -22 0 -15 0 +12 0 -9 0 -7 0 *
So

0100000
+6 0 *
Co

0100000
+5 0 *
Co

0100000
+4 3 *
Co

0100000
+3 2 +3 8 *
Co

1100000
+2 1 *

+1 0 