DBRep_DrawableShape

CASCADE Topology V1, (c) Matra-Datavision
Locations 4
1
              1               0               0               0 
              0               1               0               0 
              0               0               1               0 
1
              1               0               0               0 
              0               1               0               0 
              0               0               1               0 
1
              1               0               0               0 
              0               1               0               0 
              0               0               1               0 
2  2 1 3 1 0
Curve2ds 24
1 0 0 1 0 
1 0 0 1 0 
1 10000 0 0 -1 
1 0 0 0 1 
1 0 -10000 1 0 
1 0 0 1 0 
1 0 0 0 -1 
1 0 0 0 1 
1 0 0 0 1 
1 0 0 1 0 
1 0 0 1 0 
1 0 10000 1 0 
1 10000 0 0 1 
1 0 0 1 0 
1 10000 0 0 1 
1 0 10000 1 0 
1 10000 0 0 -1 
1 10000 0 0 1 
1 0 0 0 1 
1 0 10000 1 0 
1 0 -10000 1 0 
1 0 10000 1 0 
1 0 0 0 -1 
1 10000 0 0 1 
Curves 12
1 -5000 -5000 -5000 0 0 1 
1 -5000 -5000 5000 0 1 0 
1 -5000 5000 -5000 0 0 1 
1 -5000 -5000 -5000 0 1 0 
1 -5000 -5000 -5000 1 0 0 
1 5000 -5000 -5000 0 0 1 
1 -5000 -5000 5000 1 0 0 
1 -5000 5000 5000 1 0 0 
1 5000 -5000 5000 0 1 0 
1 -5000 5000 -5000 1 0 0 
1 5000 5000 -5000 0 0 1 
1 5000 -5000 -5000 0 1 0 
Polygon3D 0
PolygonOnTriangulations 0
Surfaces 6
1 -5000 -5000 -5000 1 0 0 0 0 1 0 -1 0 
1 -5000 -5000 -5000 0 1 0 0 0 1 1 0 0 
1 -5000 -5000 5000 0 0 1 1 0 0 0 1 0 
1 -5000 5000 -5000 0 1 0 0 0 1 1 0 0 
1 -5000 -5000 -5000 0 0 1 1 0 0 0 1 0 
1 5000 -5000 -5000 1 0 0 0 0 1 0 -1 0 
Triangulations 0

TShapes 36
Ve
1e-07
-5000 -5000 5000
0 0

0101101
*
Ve
1e-07
-5000 -5000 -5000
0 0

0101101
*
Ed
 1e-07 1 1 0
1  1 0 0 10000
2  1 1 0 0 10000
2  2 2 0 0 10000
0

0101000
-36 0 +35 0 *
Ve
1e-07
-5000 5000 5000
0 0

0101101
*
Ed
 1e-07 1 1 0
1  2 0 0 10000
2  3 1 0 0 10000
2  4 3 0 0 10000
0

0101000
-33 0 +36 0 *
Ve
1e-07
-5000 5000 -5000
0 0

0101101
*
Ed
 1e-07 1 1 0
1  3 0 0 10000
2  5 1 0 0 10000
2  6 4 0 0 10000
0

0101000
-33 0 +31 0 *
Ed
 1e-07 1 1 0
1  4 0 0 10000
2  7 1 0 0 10000
2  8 5 0 0 10000
0

0101000
-31 0 +35 0 *
Wi

0101100
-34 0 -32 0 +30 0 +29 0 *
Fa
0  1e-07 1 0

0111000
+28 0 *
Ve
1e-07
5000 -5000 -5000
0 0

0101101
*
Ed
 1e-07 1 1 0
1  5 0 0 10000
2  9 2 0 0 10000
2  10 5 0 0 10000
0

0101000
-26 0 +35 0 *
Ve
1e-07
5000 -5000 5000
0 0

0101101
*
Ed
 1e-07 1 1 0
1  6 0 0 10000
2  11 6 0 0 10000
2  12 2 0 0 10000
0

0101000
-24 0 +26 0 *
Ed
 1e-07 1 1 0
1  7 0 0 10000
2  13 2 0 0 10000
2  14 3 0 0 10000
0

0101000
-24 0 +36 0 *
Wi

0101100
-25 0 -23 0 +22 0 +34 0 *
Fa
0  1e-07 2 0

0111000
+21 0 *
Ve
1e-07
5000 5000 5000
0 0

0101101
*
Ed
 1e-07 1 1 0
1  8 0 0 10000
2  15 4 0 0 10000
2  16 3 0 0 10000
0

0101000
-19 0 +33 0 *
Ed
 1e-07 1 1 0
1  9 0 0 10000
2  17 6 0 0 10000
2  18 3 0 0 10000
0

0101000
-19 0 +24 0 *
Wi

0101100
-32 0 -18 0 +17 0 +22 0 *
Fa
0  1e-07 3 0

0111000
+16 0 *
Ve
1e-07
5000 5000 -5000
0 0

0101101
*
Ed
 1e-07 1 1 0
1  10 0 0 10000
2  19 4 0 0 10000
2  20 5 0 0 10000
0

0101000
-14 0 +31 0 *
Ed
 1e-07 1 1 0
1  11 0 0 10000
2  21 6 0 0 10000
2  22 4 0 0 10000
0

0101000
-19 0 +14 0 *
Wi

0101100
-13 0 -12 0 +18 0 +30 0 *
Fa
0  1e-07 4 0

0111000
+11 0 *
Ed
 1e-07 1 1 0
1  12 0 0 10000
2  23 6 0 0 10000
2  24 5 0 0 10000
0

0101000
-14 0 +26 0 *
Wi

0101100
-29 0 -13 0 +9 0 +25 0 *
Fa
0  1e-07 5 0

0111000
+8 0 *
Wi

0101100
-23 0 -17 0 +12 0 +9 0 *
Fa
0  1e-07 6 0

0111000
+6 0 *
Sh

0101100
-27 4 -20 4 +15 4 +10 4 -7 4 +5 4 *
So

0100000
+4 0 *
Co

0100000
+3 0 *
Co

1100000
+2 1 *

+1 0 