DBRep_DrawableShape

CASCADE Topology V1, (c) Matra-Datavision
Locations 57
1
              1               0               0               0 
              0               1               0               0 
              0               0               1               0 
1
              1               0               0               0 
              0               1               0               0 
              0               0               1               0 
1
0.484809620246337 -0.874619707139396               0 -556.157302856445 
0.874619707139396 0.484809620246337               0 -2447.20031738281 
              0               0               1               0 
2  2 1 3 1 0
1
-2.22044604925031e-16               1               0               0 
             -1 -2.22044604925031e-16               0               0 
              0               0               1               0 
1
              1               0               0               0 
              0               1               0               0 
              0               0               1               0 
1
2.22044604925031e-16 -0.874619707139396 0.484809620246337 -1168.39111328125 
-2.77555756156289e-16 0.484809620246337 0.874619707139396 -2107.83355712891 
             -1 -3.28766288070729e-16 -1.35106373572815e-16 -1369.49996948242 
2  5 1 6 1 7 1 0
2  2 1 3 1 7 -1 6 -1 5 -1 0
1
2.22044604925031e-16 -0.874619707139396 0.484809620246337 -1168.39111328125 
-2.77555756156289e-16 0.484809620246337 0.874619707139396 -2107.83355712891 
             -1 -3.28766288070729e-16 -1.35106373572815e-16 -1369.49996948242 
2  2 1 3 1 10 -1 6 -1 5 -1 0
1
2.22044604925031e-16 -0.874619707139396 0.484809620246337 -1168.39111328125 
-2.77555756156289e-16 0.484809620246337 0.874619707139396 -2107.83355712891 
             -1 -3.28766288070729e-16 -1.35106373572815e-16 -1369.49996948242 
2  2 1 3 1 12 -1 6 -1 5 -1 0
1
2.22044604925031e-16 -0.874619707139396 0.484809620246337 -1168.39111328125 
-2.77555756156289e-16 0.484809620246337 0.874619707139396 -2107.83355712891 
             -1 -3.28766288070729e-16 -1.35106373572815e-16 -1369.49996948242 
2  2 1 3 1 14 -1 6 -1 5 -1 0
1
0.484809620246337 -0.874619707139396               0 -556.157302856445 
0.874619707139396 0.484809620246337               0 -2447.20031738281 
              0               0               1               0 
2  2 1 16 1 7 -1 6 -1 5 -1 0
2  2 1 16 1 10 -1 6 -1 5 -1 0
2  2 1 16 1 12 -1 6 -1 5 -1 0
2  2 1 16 1 14 -1 6 -1 5 -1 0
1
0.484809620246337 -0.874619707139396               0 -556.157302856445 
0.874619707139396 0.484809620246337               0 -2447.20031738281 
              0               0               1               0 
2  2 1 21 1 7 -1 6 -1 5 -1 0
2  2 1 21 1 10 -1 6 -1 5 -1 0
2  2 1 21 1 12 -1 6 -1 5 -1 0
2  2 1 21 1 14 -1 6 -1 5 -1 0
1
0.484809620246337 -0.874619707139396               0 -556.157302856445 
0.874619707139396 0.484809620246337               0 -2447.20031738281 
              0               0               1               0 
2  2 1 26 1 7 -1 6 -1 5 -1 0
2  2 1 26 1 10 -1 6 -1 5 -1 0
2  2 1 26 1 12 -1 6 -1 5 -1 0
2  2 1 26 1 14 -1 6 -1 5 -1 0
2  5 -1 0
2  6 1 7 1 0
2  2 1 3 1 7 -1 6 -1 0
2  2 1 3 1 10 -1 6 -1 0
2  2 1 3 1 12 -1 6 -1 0
2  2 1 3 1 14 -1 6 -1 0
2  2 1 16 1 7 -1 6 -1 0
2  2 1 16 1 10 -1 6 -1 0
2  2 1 16 1 12 -1 6 -1 0
2  2 1 16 1 14 -1 6 -1 0
2  2 1 21 1 7 -1 6 -1 0
2  2 1 21 1 10 -1 6 -1 0
2  2 1 21 1 12 -1 6 -1 0
2  2 1 21 1 14 -1 6 -1 0
2  2 1 26 1 7 -1 6 -1 0
2  2 1 26 1 10 -1 6 -1 0
2  2 1 26 1 12 -1 6 -1 0
2  2 1 26 1 14 -1 6 -1 0
1
0.484809620246337 0.874619707139396               0               0 
-0.874619707139396 0.484809620246337               0               0 
              0               0               1               0 
1
              1               0               0               0 
              0               1               0               0 
              0               0               1               0 
1
              1               0               0               0 
              0               1               0               0 
              0               0               1 -2069.49996948242 
2  49 1 50 1 51 1 0
2  49 -1 0
2  50 1 51 1 0
1
              1               0               0               0 
              0               1               0               0 
              0               0               1               0 
1
-4.44089209850063e-16 0.874619707139396 -0.484809620246338 -1168.39111328125 
1.11022302462516e-16 0.484809620246338 0.874619707139396 2107.83355712891 
              1 3.34584494367101e-16 -3.12401014848612e-16 -1369.49996948242 
2  55 1 56 1 0
Curve2ds 166
1 0 0 1 0 
1 0 0 1 0 
1 2738.9999389648438 0 0 -1 
1 0 0 0 1 
1 0 -810 1 0 
1 0 0 1 0 
1 0 0 0 -1 
1 0 0 0 1 
1 0 0 0 1 
1 0 0 1 0 
1 0 0 1 0 
1 0 740 1 0 
1 2738.9999389648438 0 0 1 
1 0 0 1 0 
1 2738.9999389648438 0 0 1 
1 0 810 1 0 
1 2738.9999389648438 0 0 -1 
1 740 0 0 1 
1 0 0 0 1 
1 0 810 1 0 
1 0 -810 1 0 
1 0 740 1 0 
1 0 0 0 -1 
1 740 0 0 1 
1 0 0 1 0 
1 0 700 1 0 
1 720.00001533209934 1105.0000261375051 2.999964134282934e-32 -1 
1 720.00001533209934 1105.0000261375051 2.999964134282934e-32 -1 
1 720.00001533209934 1105.0000261375051 2.999964134282934e-32 -1 
1 720.00001533209934 1105.0000261375051 2.999964134282934e-32 -1 
1 720.00001533209934 1105.0000261375051 2.999964134282934e-32 -1 
1 720.00001533209934 1105.0000261375051 2.999964134282934e-32 -1 
1 720.00001533209934 1105.0000261375051 2.999964134282934e-32 -1 
1 720.00001533209934 1105.0000261375051 2.999964134282934e-32 -1 
1 720.00001533209934 1105.0000261375051 2.999964134282934e-32 -1 
1 720.00001533209934 1105.0000261375051 2.999964134282934e-32 -1 
1 720.00001533209934 1105.0000261375051 2.999964134282934e-32 -1 
1 720.00001533209934 1105.0000261375051 2.999964134282934e-32 -1 
1 720.00001533209934 1105.0000261375051 2.999964134282934e-32 -1 
1 720.00001533209934 1105.0000261375051 2.999964134282934e-32 -1 
1 720.00001533209934 1105.0000261375051 2.999964134282934e-32 -1 
1 720.00001533209934 1105.0000261375051 2.999964134282934e-32 -1 
1 4.7123889803846897 0 0 1 
1 315 0 0 1 
1 20.000015332099338 790.00002613750507 1 0 
1 20.000015332099338 790.00002613750507 1 0 
1 20.000015332099338 790.00002613750507 1 0 
1 20.000015332099338 790.00002613750507 1 0 
1 20.000015332099338 790.00002613750507 1 0 
1 20.000015332099338 790.00002613750507 1 0 
1 20.000015332099338 790.00002613750507 1 0 
1 20.000015332099338 790.00002613750507 1 0 
1 20.000015332099338 790.00002613750507 1 0 
1 20.000015332099338 790.00002613750507 1 0 
1 20.000015332099338 790.00002613750507 1 0 
1 20.000015332099338 790.00002613750507 1 0 
1 20.000015332099338 790.00002613750507 1 0 
1 20.000015332099338 790.00002613750507 1 0 
1 20.000015332099338 790.00002613750507 1 0 
1 20.000015332099338 790.00002613750507 1 0 
1 0 0 1 0 
1 0 0 1 0 
1 20.000015332099338 1105.0000261375051 2.999964134282934e-32 -1 
1 20.000015332099338 1105.0000261375051 2.999964134282934e-32 -1 
1 20.000015332099338 1105.0000261375051 2.999964134282934e-32 -1 
1 20.000015332099338 1105.0000261375051 2.999964134282934e-32 -1 
1 20.000015332099338 1105.0000261375051 2.999964134282934e-32 -1 
1 20.000015332099338 1105.0000261375051 2.999964134282934e-32 -1 
1 20.000015332099338 1105.0000261375051 2.999964134282934e-32 -1 
1 20.000015332099338 1105.0000261375051 2.999964134282934e-32 -1 
1 20.000015332099338 1105.0000261375051 2.999964134282934e-32 -1 
1 20.000015332099338 1105.0000261375051 2.999964134282934e-32 -1 
1 20.000015332099338 1105.0000261375051 2.999964134282934e-32 -1 
1 20.000015332099338 1105.0000261375051 2.999964134282934e-32 -1 
1 20.000015332099338 1105.0000261375051 2.999964134282934e-32 -1 
1 20.000015332099338 1105.0000261375051 2.999964134282934e-32 -1 
1 20.000015332099338 1105.0000261375051 2.999964134282934e-32 -1 
1 20.000015332099338 1105.0000261375051 2.999964134282934e-32 -1 
1 0 -0 0 1 
1 1085 0 0 1 
1 20.000015332099338 20.000026137505074 1 0 
1 20.000015332099338 20.000026137505074 1 0 
1 20.000015332099338 20.000026137505074 1 0 
1 20.000015332099338 20.000026137505074 1 0 
1 20.000015332099338 20.000026137505074 1 0 
1 20.000015332099338 20.000026137505074 1 0 
1 20.000015332099338 20.000026137505074 1 0 
1 20.000015332099338 20.000026137505074 1 0 
1 20.000015332099338 20.000026137505074 1 0 
1 20.000015332099338 20.000026137505074 1 0 
1 20.000015332099338 20.000026137505074 1 0 
1 20.000015332099338 20.000026137505074 1 0 
1 20.000015332099338 20.000026137505074 1 0 
1 20.000015332099338 20.000026137505074 1 0 
1 20.000015332099338 20.000026137505074 1 0 
1 20.000015332099338 20.000026137505074 1 0 
1 0 700 1 0 
2 0 0 1 0 -0 1 1085
1 0 700 1 0 
2 0 0 -2.2204460492503131e-16 1 -1 -2.2204460492503131e-16 315
1 0 0 1.1102230246251565e-16 1 
1 0 700 1 0 
1 6.2831853071795862 -0 0 1 
1 315 0 0 1 
1 0 0 1 0 
2 0 0 -2.2204460492503131e-16 1 -1 -2.2204460492503131e-16 315
1 0 0 1 0 
2 0 0 1 0 -0 1 1085
1 0 0 1.1102230246251565e-16 1 
1 0 0 1 0 
1 1.5707963267948966 -0 0 1 
1 1085 0 0 1 
1 0 770 1 0 
2 0 0 1 0 -0 1 2760
1 2.1293016874330819 -0 0 1 
1 2760 0 0 1 
1 0 0 1 0 
2 0 0 1 0 -0 1 2760
1 0 -0 0 1 
1 2760 0 0 1 
1 0 0 1 0 
1 0 770 1 0 
1 0 770 1 0 
2 0 0 0.48480962024633723 0.87461970713939563 -0.87461970713939563 0.48480962024633723 2060
1 0 770 1 0 
2 0 0 0.48480962024633723 0.87461970713939563 -0.87461970713939563 0.48480962024633723 2060
1 0 0 -0.52991926423320468 0.84804809615642607 
1 0 770 1 0 
1 0 0 1 0 
1 0 0 -0.52991926423320468 0.84804809615642607 
1 1.0646508437165412 0 0 1 
1 2060 0 0 1 
1 0 0 1 0 
1 0 0 1 0 
1 0 0 1 0 
2 0 0 0.48480962024633723 0.87461970713939563 -0.87461970713939563 0.48480962024633723 2060
1 0 0 1 0 
2 0 0 0.48480962024633723 0.87461970713939563 -0.87461970713939563 0.48480962024633723 2060
1 5.2185344634630457 0 0 1 
1 2060 0 0 1 
1 6.2831853071795862 -0 0 1 
1 0 -0 0 1 
1 0 700 1 0 
2 0 0 1 0 -0 1 1085
1 1.5707963267948966 -0 0 1 
1 1085 0 0 1 
1 0 0 1 0 
2 0 0 1 0 -0 1 1085
1 0 -0 0 1 
1 1085 0 0 1 
1 0 0 1 0 
1 0 700 1 0 
1 0 700 1 0 
2 0 0 1 0 -0 1 315
1 0 0 1.1102230246251565e-16 1 
1 0 700 1 0 
1 0 0 1 0 
1 0 0 1.1102230246251565e-16 1 
1 1.5707963267948966 0 0 1 
1 315 0 0 1 
1 0 0 1 0 
1 0 0 1 0 
1 0 0 1 0 
2 0 0 1 0 -0 1 315
1 0 -0 0 1 
1 315 0 0 1 
Curves 51
1 -370 -405 -1369.4999694824219 0 0 1 
1 -370 -405 1369.4999694824219 0 1 0 
1 -370 405 -1369.4999694824219 0 0 1 
1 -370 -405 -1369.4999694824219 0 1 0 
1 -370 -405 -1369.4999694824219 1 0 0 
1 370 -405 -1369.4999694824219 0 0 1 
1 -370 -405 1369.4999694824219 1 0 0 
1 -370 405 1369.4999694824219 1 0 0 
1 370 -405 1369.4999694824219 0 1 0 
1 -370 405 -1369.4999694824219 1 0 0 
1 370 405 -1369.4999694824219 0 0 1 
1 370 -405 -1369.4999694824219 0 1 0 
1 0 0 350 1 0 0 
1 -6.9944050551384862e-14 -315 -350 0 0 1 
1 0 0 -350 1 0 0 
1 1085 0 -350 0 0 1 
2 0 0 350 0 0 1 1 0 0 0 1 0 1085
2 0 0 350 0 0 1 1 0 0 0 1 0 315
1 0 0 350 1.1102230246251565e-16 1 0 
1 315 -7.7152748346283257e-14 -350 0 0 1 
2 0 0 -350 0 0 1 1 0 0 0 1 0 315
2 0 0 -350 0 0 1 1 0 0 0 1 0 1085
1 0 0 -350 1.1102230246251565e-16 1 0 
1 1.2045919817182948e-13 1085 -350 0 0 1 
2 0 0 385 0 0 1 1 0 0 0 1 0 2760
1 -1462.5771692836449 2340.6127453917361 -385 0 0 1 
2 0 0 -385 0 0 1 1 0 0 0 1 0 2760
1 2760 0 -385 0 0 1 
1 0 0 385 1 0 0 
2 0 0 385 0 0 1 1 0 0 0 1 0 2060
2 0 0 385 0 0 1 1 0 0 0 1 0 2060
1 0 0 385 -0.52991926423320468 0.84804809615642607 0 
1 0 0 -385 -0.52991926423320468 0.84804809615642607 0 
1 998.70781770745418 1801.7165967071555 -385 0 0 1 
1 0 0 -385 1 0 0 
2 0 0 -385 0 0 1 1 0 0 0 1 0 2060
2 0 0 -385 0 0 1 1 0 0 0 1 0 2060
1 998.70781770745464 -1801.7165967071551 -385 0 0 1 
1 2060 -5.0455448124870952e-13 -385 0 0 1 
2 0 0 350 0 0 1 1 0 0 0 1 0 1085
1 1.2045919817182948e-13 1085 -350 0 0 1 
2 0 0 -350 0 0 1 1 0 0 0 1 0 1085
1 1085 0 -350 0 0 1 
1 0 0 350 1 0 0 
2 0 0 350 0 0 1 1 0 0 0 1 0 315
1 0 0 350 1.1102230246251565e-16 1 0 
1 0 0 -350 1.1102230246251565e-16 1 0 
1 3.4972025275692431e-14 315 -350 0 0 1 
1 0 0 -350 1 0 0 
2 0 0 -350 0 0 1 1 0 0 0 1 0 315
1 315 -7.7152748346283257e-14 -350 0 0 1 
Polygon3D 0
PolygonOnTriangulations 0
Surfaces 25
1 -370 -405 -1369.4999694824219 1 0 0 0 0 1 0 -1 0 
1 -370 -405 -1369.4999694824219 0 1 0 0 0 1 1 0 0 
1 -370 -405 1369.4999694824219 0 0 1 1 0 0 0 1 0 
1 -370 405 -1369.4999694824219 0 1 0 0 0 1 1 0 0 
1 -370 -405 -1369.4999694824219 0 0 1 1 0 0 0 1 0 
1 370 -405 -1369.4999694824219 1 0 0 0 0 1 0 -1 0 
1 0 0 350 0 0 1 1 0 0 0 1 0 
1 0 0 -350 0 -1 0 1 0 0 0 0 1 
2 0 0 -350 0 0 1 1 0 0 0 1 0 315
1 0 0 -350 0 0 1 1 0 0 0 1 0 
2 0 0 -350 0 0 1 1 0 0 0 1 0 1085
1 0 0 -350 1 -1.1102230246251565e-16 0 1.1102230246251565e-16 1 0 0 0 1 
2 0 0 -385 0 0 1 1 0 0 0 1 0 2760
1 0 0 385 0 0 1 1 0 0 0 1 0 
1 0 0 -385 0.84804809615642607 0.52991926423320468 0 -0.52991926423320468 0.84804809615642607 0 0 0 1 
1 0 0 -385 0 0 1 1 0 0 0 1 0 
1 0 0 -385 0 -1 0 1 0 0 0 0 1 
2 0 0 -385 0 0 1 1 0 0 0 1 0 2060
2 0 0 -385 0 0 1 1 0 0 0 1 0 2060
2 0 0 -350 0 0 1 1 0 0 0 1 0 1085
1 0 0 350 0 0 1 1 0 0 0 1 0 
1 0 0 -350 1 -1.1102230246251565e-16 0 1.1102230246251565e-16 1 0 0 0 1 
1 0 0 -350 0 0 1 1 0 0 0 1 0 
1 0 0 -350 0 -1 0 1 0 0 0 0 1 
2 0 0 -350 0 0 1 1 0 0 0 1 0 315
Triangulations 0

TShapes 142
Ve
1e-07
-370 -405 1369.49996948242
0 0

0101101
*
Ve
1e-07
-370 -405 -1369.49996948242
0 0

0101101
*
Ed
 1e-07 1 1 0
1  1 0 0 2738.99993896484
2  1 1 0 0 2738.99993896484
2  2 2 0 0 2738.99993896484
0

0101000
-142 0 +141 0 *
Ve
1e-07
-370 405 1369.49996948242
0 0

0101101
*
Ed
 1e-07 1 1 0
1  2 0 0 810
2  3 1 0 0 810
2  4 3 0 0 810
0

0101000
-139 0 +142 0 *
Ve
1e-07
-370 405 -1369.49996948242
0 0

0101101
*
Ed
 1e-07 1 1 0
1  3 0 0 2738.99993896484
2  5 1 0 0 2738.99993896484
2  6 4 0 0 2738.99993896484
0

0101000
-139 0 +137 0 *
Ed
 1e-07 1 1 0
1  4 0 0 810
2  7 1 0 0 810
2  8 5 0 0 810
0

0101000
-137 0 +141 0 *
Wi

0101100
-140 0 -138 0 +136 0 +135 0 *
Fa
0  1e-07 1 0

0111000
+134 0 *
Ve
1e-07
370 -405 -1369.49996948242
0 0

0101101
*
Ed
 1e-07 1 1 0
1  5 0 0 740
2  9 2 0 0 740
2  10 5 0 0 740
0

0101000
-132 0 +141 0 *
Ve
1e-07
370 -405 1369.49996948242
0 0

0101101
*
Ed
 1e-07 1 1 0
1  6 0 0 2738.99993896484
2  11 6 0 0 2738.99993896484
2  12 2 0 0 2738.99993896484
0

0101000
-130 0 +132 0 *
Ed
 1e-07 1 1 0
1  7 0 0 740
2  13 2 0 0 740
2  14 3 0 0 740
0

0101000
-130 0 +142 0 *
Wi

0101100
-131 0 -129 0 +128 0 +140 0 *
Fa
0  1e-07 2 0

0111000
+127 0 *
Ve
1e-07
370 405 1369.49996948242
0 0

0101101
*
Ed
 1e-07 1 1 0
1  8 0 0 740
2  15 4 0 0 740
2  16 3 0 0 740
0

0101000
-125 0 +139 0 *
Ed
 1e-07 1 1 0
1  9 0 0 810
2  17 6 0 0 810
2  18 3 0 0 810
0

0101000
-125 0 +130 0 *
Wi

0101100
-138 0 -124 0 +123 0 +128 0 *
Fa
0  1e-07 3 0

0111000
+122 0 *
Ve
1e-07
370 405 -1369.49996948242
0 0

0101101
*
Ed
 1e-07 1 1 0
1  10 0 0 740
2  19 4 0 0 740
2  20 5 0 0 740
0

0101000
-120 0 +137 0 *
Ed
 1e-07 1 1 0
1  11 0 0 2738.99993896484
2  21 6 0 0 2738.99993896484
2  22 4 0 0 2738.99993896484
0

0101000
-125 0 +120 0 *
Wi

0101100
-119 0 -118 0 +124 0 +136 0 *
Fa
0  1e-07 4 0

0111000
+117 0 *
Ed
 1e-07 1 1 0
1  12 0 0 810
2  23 6 0 0 810
2  24 5 0 0 810
0

0101000
-120 0 +132 0 *
Wi

0101100
-135 4 -119 4 +131 4 +115 4 *
Ve
1.00006366462912e-07
-6.21898075442742e-12 -315 350
0 0

0101101
*
Ve
1.00000682121026e-07
-2.40918396343659e-13 -1085 350
0 0

0101101
*
Ed
 1.00000454747351e-07 1 1 0
1  13 0 315 1085
2  25 7 0 315 1085
2  26 8 0 315 1085
2  27 5 9 315 1085
2  28 5 11 315 1085
2  29 5 13 315 1085
2  30 5 15 315 1085
2  31 5 17 315 1085
2  32 5 18 315 1085
2  33 5 19 315 1085
2  34 5 20 315 1085
2  35 5 22 315 1085
2  36 5 23 315 1085
2  37 5 24 315 1085
2  38 5 25 315 1085
2  39 5 27 315 1085
2  40 5 28 315 1085
2  41 5 29 315 1085
2  42 5 30 315 1085
0

0101000
+113 31 -112 31 *
Ve
1.00006366462912e-07
-6.21898075442742e-12 -315 -350
0 0

0101101
*
Ed
 1.00000227373675e-07 1 1 0
1  14 0 0 700
2  43 9 0 0 700
2  44 8 5 0 700
2  45 5 33 0 700
2  46 5 34 0 700
2  47 5 35 0 700
2  48 5 36 0 700
2  49 5 37 0 700
2  50 5 38 0 700
2  51 5 39 0 700
2  52 5 40 0 700
2  53 5 41 0 700
2  54 5 42 0 700
2  55 5 43 0 700
2  56 5 44 0 700
2  57 5 45 0 700
2  58 5 46 0 700
2  59 5 47 0 700
2  60 5 48 0 700
0

0101000
+110 0 -113 0 *
Ve
1.00000682121026e-07
-2.40918396343659e-13 -1085 -350
0 0

0101101
*
Ed
 1.00000454747351e-07 1 1 0
1  15 0 315 1085
2  61 10 0 315 1085
2  62 8 0 315 1085
2  63 5 9 315 1085
2  64 5 11 315 1085
2  65 5 13 315 1085
2  66 5 15 315 1085
2  67 5 17 315 1085
2  68 5 18 315 1085
2  69 5 19 315 1085
2  70 5 20 315 1085
2  71 5 22 315 1085
2  72 5 23 315 1085
2  73 5 24 315 1085
2  74 5 25 315 1085
2  75 5 27 315 1085
2  76 5 28 315 1085
2  77 5 29 315 1085
2  78 5 30 315 1085
0

0101000
+110 31 -108 31 *
Ed
 1.00000682121026e-07 1 1 0
1  16 0 0 700
2  79 11 0 0 700
2  80 8 0 0 700
2  81 5 9 0 700
2  82 5 11 0 700
2  83 5 13 0 700
2  84 5 15 0 700
2  85 5 17 0 700
2  86 5 18 0 700
2  87 5 19 0 700
2  88 5 20 0 700
2  89 5 22 0 700
2  90 5 23 0 700
2  91 5 24 0 700
2  92 5 25 0 700
2  93 5 27 0 700
2  94 5 28 0 700
2  95 5 29 0 700
2  96 5 30 0 700
0

0101000
-112 31 +108 31 *
Wi

0101100
+111 8 +109 32 -107 8 -106 8 *
Fa
0  1e-07 5 4

0111000
+114 0 +105 0 *
Wi

0101100
-129 0 -123 0 +118 0 +115 0 *
Fa
0  1e-07 6 0

0111000
+103 0 *
Ve
1e-07
1085 -3.61377594515488e-13 350
0 0

0101101
*
Ed
 1e-07 1 1 0
1  17 0 0 1.5707963267949
2  97 11 0 0 1.5707963267949
2  98 7 0 0 1.5707963267949
0

0101000
-101 31 +112 31 *
Ve
1.00000027763327e-07
315 -7.71527483462833e-14 350
0 0

0101101
*
Ed
 1e-07 1 1 0
1  18 0 4.71238898038467 6.28318530717959
2  99 9 0 4.71238898038467 6.28318530717959
2  100 7 5 4.71238898038467 6.28318530717959
0

0101000
+113 0 -99 0 *
Ed
 1e-07 1 1 0
1  19 0 315 1085
2  101 7 0 315 1085
2  102 12 0 315 1085
0

0101000
+99 31 -101 31 *
Wi

0101100
+100 5 +111 5 -98 0 -97 5 *
Fa
0  1e-07 7 5

0111000
+96 0 *
Ve
1.00000027763327e-07
315 -7.71527483462833e-14 -350
0 0

0101101
*
Ed
 1.00000027763327e-07 1 1 0
1  20 0 0 700
2  103 9 0 0 700
2  104 12 5 0 700
0

0101000
-99 0 +94 0 *
Ed
 1e-07 1 1 0
1  21 0 4.71238898038467 6.28318530717959
2  105 9 0 4.71238898038467 6.28318530717959
2  106 10 5 4.71238898038467 6.28318530717959
0

0101000
+110 0 -94 0 *
Wi

0101100
+93 0 +92 0 -109 0 -98 0 *
Fa
0  1e-07 9 0

0111000
+91 0 *
Ve
1e-07
1085 -3.61377594515488e-13 -350
0 0

0101101
*
Ed
 1e-07 1 1 0
1  22 0 0 1.5707963267949
2  107 11 0 0 1.5707963267949
2  108 10 0 0 1.5707963267949
0

0101000
-89 31 +108 31 *
Ed
 1e-07 1 1 0
1  23 0 315 1085
2  109 10 0 315 1085
2  110 12 0 315 1085
0

0101000
+94 31 -89 31 *
Wi

0101100
+88 5 +107 5 -92 0 -87 5 *
Fa
0  1e-07 10 5

0111000
+86 0 *
Ed
 1e-07 1 1 0
1  24 0 0 700
2  111 11 0 0 700
2  112 12 0 0 700
0

0101000
-101 31 +89 31 *
Wi

0101100
-100 0 +84 0 +88 0 -106 0 *
Fa
0  1e-07 11 0

0111000
+83 0 *
Wi

0101100
-97 5 +84 5 +87 5 -93 0 *
Fa
0  1e-07 12 5

0111000
+81 0 *
Sh

0101100
-133 4 -126 4 +121 4 +116 4 -104 0 +102 4 +95 32 -90 32 -85 32 +82 8 
-80 32 *
So

0100000
+79 0 *
Ve
1e-07
1338.07455187989 2413.95039170473 385
0 0

0101101
*
Ve
1e-07
1338.07455187989 -2413.95039170473 385
0 0

0101101
*
Ed
 1e-07 1 1 0
1  25 0 0 2.12930168743308
2  113 13 0 0 2.12930168743308
2  114 14 0 0 2.12930168743308
0

0101000
-77 53 +76 53 *
Ve
1e-07
1338.07455187989 2413.95039170473 -385
0 0

0101101
*
Ed
 1e-07 1 1 0
1  26 0 0 770
2  115 13 0 0 770
2  116 15 0 0 770
0

0101000
-77 53 +74 53 *
Ve
1e-07
1338.07455187989 -2413.95039170473 -385
0 0

0101101
*
Ed
 1e-07 1 1 0
1  27 0 0 2.12930168743308
2  117 13 0 0 2.12930168743308
2  118 16 0 0 2.12930168743308
0

0101000
-74 53 +72 53 *
Ed
 1e-07 1 1 0
1  28 0 0 770
2  119 13 0 0 770
2  120 17 0 0 770
0

0101000
-76 53 +72 53 *
Wi

0101100
-75 0 +73 0 +71 0 -70 0 *
Fa
0  1e-07 13 0

0111000
+69 0 *
Ve
1.00008364292274e-07
998.707817707462 -1801.71659670715 385
0 0

0101101
*
Ed
 1e-07 1 1 0
1  29 0 2060 2760
2  121 14 0 2060 2760
2  122 17 0 2060 2760
0

0101000
+67 53 -76 53 *
Ve
1e-07
2060 -5.0455448124871e-13 385
0 0

0101101
*
Ed
 1e-07 1 1 0
1  30 0 5.21853446346305 6.28318530717959
2  123 18 0 5.21853446346305 6.28318530717959
2  124 14 49 5.21853446346305 6.28318530717959
0

0101000
+67 0 -65 0 *
Ve
1.00009067193506e-07
998.707817707462 1801.71659670715 385
0 0

0101101
*
Ed
 1e-07 1 1 0
1  31 0 0 1.06465084371654
2  125 19 0 0 1.06465084371654
2  126 14 49 0 1.06465084371654
0

0101000
+65 0 -63 0 *
Ed
 1e-07 1 1 0
1  32 0 2060 2760
2  127 14 0 2060 2760
2  128 15 0 2060 2760
0

0101000
+63 53 -77 53 *
Wi

0101100
+75 49 +66 49 -64 0 -62 0 -61 49 *
Fa
0  1e-07 14 49

0111000
+60 0 *
Ve
1.00009067193506e-07
998.707817707462 1801.71659670715 -385
0 0

0101101
*
Ed
 1e-07 1 1 0
1  33 0 2060 2760
2  129 15 0 2060 2760
2  130 16 0 2060 2760
0

0101000
+58 53 -74 53 *
Ed
 1e-07 1 1 0
1  34 0 0 770
2  131 19 0 0 770
2  132 15 49 0 770
0

0101000
+58 0 -63 0 *
Wi

0101100
-61 49 +73 49 +57 49 -56 0 *
Fa
0  1e-07 15 49

0111000
+55 0 *
Ve
1.00008364292274e-07
998.707817707462 -1801.71659670715 -385
0 0

0101101
*
Ed
 1e-07 1 1 0
1  35 0 2060 2760
2  133 16 0 2060 2760
2  134 17 0 2060 2760
0

0101000
+53 53 -72 53 *
Ve
1e-07
2060 -5.0455448124871e-13 -385
0 0

0101101
*
Ed
 1e-07 1 1 0
1  36 0 5.21853446346305 6.28318530717959
2  135 18 0 5.21853446346305 6.28318530717959
2  136 16 49 5.21853446346305 6.28318530717959
0

0101000
+53 0 -51 0 *
Ed
 1e-07 1 1 0
1  37 0 0 1.06465084371654
2  137 19 0 0 1.06465084371654
2  138 16 49 0 1.06465084371654
0

0101000
+51 0 -58 0 *
Wi

0101100
+71 49 +52 49 -50 0 -49 0 -57 49 *
Fa
0  1e-07 16 49

0111000
+48 0 *
Ed
 1e-07 1 1 0
1  38 0 0 770
2  139 18 0 0 770
2  140 17 49 0 770
0

0101000
+53 0 -67 0 *
Wi

0101100
-46 0 -66 49 +70 49 +52 49 *
Fa
0  1e-07 17 49

0111000
+45 0 *
Ed
 1e-07 1 1 0
1  39 0 0 770
2  141 18 0 0 770
2  142 19 0 0 770
4 CN 18 0 19 0
0

0101000
-65 0 +51 0 *
Wi

0101100
+43 0 +50 0 -46 0 -64 0 *
Fa
0  1e-07 18 0

0111000
+42 0 *
Wi

0101100
-62 0 +56 0 +49 0 -43 0 *
Fa
0  1e-07 19 0

0111000
+40 0 *
Sh

0101100
+68 52 +59 54 -54 54 -47 54 +44 54 -41 54 -39 54 *
So

0100000
+38 0 *
Ve
1e-07
1.20459198171829e-13 1085 350
0 0

0101101
*
Ve
1e-07
1085 0 350
0 0

0101101
*
Ed
 1e-07 1 1 0
1  40 0 0 1.5707963267949
2  143 20 0 0 1.5707963267949
2  144 21 0 0 1.5707963267949
0

0101000
-36 0 +35 0 *
Ve
1e-07
1.20459198171829e-13 1085 -350
0 0

0101101
*
Ed
 1e-07 1 1 0
1  41 0 0 700
2  145 20 0 0 700
2  146 22 0 0 700
0

0101000
-36 0 +33 0 *
Ve
1e-07
1085 0 -350
0 0

0101101
*
Ed
 1e-07 1 1 0
1  42 0 0 1.5707963267949
2  147 20 0 0 1.5707963267949
2  148 23 0 0 1.5707963267949
0

0101000
-33 0 +31 0 *
Ed
 1e-07 1 1 0
1  43 0 0 700
2  149 20 0 0 700
2  150 24 0 0 700
0

0101000
-35 0 +31 0 *
Wi

0101100
-34 0 +32 0 +30 0 -29 0 *
Fa
0  1e-07 20 0

0111000
+28 0 *
Ve
1.00000077152748e-07
315 -7.71527483462833e-14 350
0 0

0101101
*
Ed
 1e-07 1 1 0
1  44 0 315 1085
2  151 21 0 315 1085
2  152 24 0 315 1085
0

0101000
+26 0 -35 0 *
Ve
1.00006077290479e-07
6.11226250415161e-12 315 350
0 0

0101101
*
Ed
 1e-07 1 1 0
1  45 0 0 1.57079632679488
2  153 25 0 0 1.57079632679488
2  154 21 0 0 1.57079632679488
0

0101000
+26 0 -24 0 *
Ed
 1e-07 1 1 0
1  46 0 315 1085
2  155 21 0 315 1085
2  156 22 0 315 1085
0

0101000
+24 0 -36 0 *
Wi

0101100
+34 0 +25 0 -23 0 -22 0 *
Fa
0  1e-07 21 0

0111000
+21 0 *
Ve
1.00006077290479e-07
6.11226250415161e-12 315 -350
0 0

0101101
*
Ed
 1e-07 1 1 0
1  47 0 315 1085
2  157 22 0 315 1085
2  158 23 0 315 1085
0

0101000
+19 0 -33 0 *
Ed
 1e-07 1 1 0
1  48 0 0 700
2  159 25 0 0 700
2  160 22 0 0 700
0

0101000
+19 0 -24 0 *
Wi

0101100
-22 0 +32 0 +18 0 -17 0 *
Fa
0  1e-07 22 0

0111000
+16 0 *
Ve
1.00000077152748e-07
315 -7.71527483462833e-14 -350
0 0

0101101
*
Ed
 1e-07 1 1 0
1  49 0 315 1085
2  161 23 0 315 1085
2  162 24 0 315 1085
0

0101000
+14 0 -31 0 *
Ed
 1e-07 1 1 0
1  50 0 0 1.57079632679488
2  163 25 0 0 1.57079632679488
2  164 23 0 0 1.57079632679488
0

0101000
+14 0 -19 0 *
Wi

0101100
+30 0 +13 0 -12 0 -18 0 *
Fa
0  1e-07 23 0

0111000
+11 0 *
Ed
 1.00000077152748e-07 1 1 0
1  51 0 0 700
2  165 25 0 0 700
2  166 24 0 0 700
0

0101000
-26 0 +14 0 *
Wi

0101100
-9 0 -25 0 +29 0 +13 0 *
Fa
0  1e-07 24 0

0111000
+8 0 *
Wi

0101100
-23 0 +17 0 +12 0 -9 0 *
Fa
0  1e-07 25 0

0111000
+6 0 *
Sh

0101100
+27 0 +20 0 -15 0 -10 0 +7 0 -5 0 *
So

0100000
+4 0 *
Co

0100000
+78 0 +37 0 +3 57 *
Co

1100000
+2 1 *

+1 0 