DBRep_DrawableShape

CASCADE Topology V1, (c) Matra-Datavision
Locations 4
1
              1               0               0               0 
              0               1               0               0 
              0               0               1               0 
1
              1               0               0               0 
              0               1               0               0 
              0               0               1               0 
1
              1               0               0               0 
              0               1               0               0 
              0               0               1               0 
2  2 1 3 1 0
Curve2ds 0
Curves 12
1 -125 -15 -1720.5001831054688 0 0 1 
1 -125 -15 1720.5001831054688 0 1 0 
1 -125 15 -1720.5001831054688 0 0 1 
1 -125 -15 -1720.5001831054688 0 1 0 
1 125 -15 -1720.5001831054688 0 0 1 
1 125 -15 1720.5001831054688 0 1 0 
1 125 15 -1720.5001831054688 0 0 1 
1 125 -15 -1720.5001831054688 0 1 0 
1 -125 -15 -1720.5001831054688 1 0 0 
1 -125 -15 1720.5001831054688 1 0 0 
1 -125 15 -1720.5001831054688 1 0 0 
1 -125 15 1720.5001831054688 1 0 0 
Polygon3D 0
PolygonOnTriangulations 0
Surfaces 6
1 -125 -15 -1720.5001831054688 1 0 0 0 0 1 0 -1 0 
1 125 -15 -1720.5001831054688 1 0 0 0 0 1 0 -1 0 
1 -125 -15 -1720.5001831054688 0 1 0 0 0 1 1 0 0 
1 -125 15 -1720.5001831054688 0 1 0 0 0 1 1 0 0 
1 -125 -15 -1720.5001831054688 0 0 1 1 0 0 0 1 0 
1 -125 -15 1720.5001831054688 0 0 1 1 0 0 0 1 0 
Triangulations 0

TShapes 36
Ve
1e-07
-125 -15 1720.50018310547
0 0

0101101
*
Ve
1e-07
-125 -15 -1720.50018310547
0 0

0101101
*
Ed
 1e-07 1 1 0
1  1 0 0 3441.00036621094
0

0101000
-36 0 +35 0 *
Ve
1e-07
-125 15 1720.50018310547
0 0

0101101
*
Ed
 1e-07 1 1 0
1  2 0 0 30
0

0101000
-33 0 +36 0 *
Ve
1e-07
-125 15 -1720.50018310547
0 0

0101101
*
Ed
 1e-07 1 1 0
1  3 0 0 3441.00036621094
0

0101000
-33 0 +31 0 *
Ed
 1e-07 1 1 0
1  4 0 0 30
0

0101000
-31 0 +35 0 *
Wi

0101100
-34 0 -32 0 +30 0 +29 0 *
Fa
0  1e-07 1 0

0111000
+28 0 *
Ve
1e-07
125 -15 1720.50018310547
0 0

0101101
*
Ve
1e-07
125 -15 -1720.50018310547
0 0

0101101
*
Ed
 1e-07 1 1 0
1  5 0 0 3441.00036621094
0

0101000
-26 0 +25 0 *
Ve
1e-07
125 15 1720.50018310547
0 0

0101101
*
Ed
 1e-07 1 1 0
1  6 0 0 30
0

0101000
-23 0 +26 0 *
Ve
1e-07
125 15 -1720.50018310547
0 0

0101101
*
Ed
 1e-07 1 1 0
1  7 0 0 3441.00036621094
0

0101000
-23 0 +21 0 *
Ed
 1e-07 1 1 0
1  8 0 0 30
0

0101000
-21 0 +25 0 *
Wi

0101100
-24 0 -22 0 +20 0 +19 0 *
Fa
0  1e-07 2 0

0111000
+18 0 *
Ed
 1e-07 1 1 0
1  9 0 0 250
0

0101000
-25 0 +35 0 *
Ed
 1e-07 1 1 0
1  10 0 0 250
0

0101000
-26 0 +36 0 *
Wi

0101100
-16 0 -24 0 +15 0 +34 0 *
Fa
0  1e-07 3 0

0111000
+14 0 *
Ed
 1e-07 1 1 0
1  11 0 0 250
0

0101000
-21 0 +31 0 *
Ed
 1e-07 1 1 0
1  12 0 0 250
0

0101000
-23 0 +33 0 *
Wi

0101100
-12 0 -20 0 +11 0 +30 0 *
Fa
0  1e-07 4 0

0111000
+10 0 *
Wi

0101100
-29 0 -12 0 +19 0 +16 0 *
Fa
0  1e-07 5 0

0111000
+8 0 *
Wi

0101100
-32 0 -11 0 +22 0 +15 0 *
Fa
0  1e-07 6 0

0111000
+6 0 *
Sh

0101100
-27 0 +17 0 -13 0 +9 0 -7 0 +5 0 *
So

0100000
+4 0 *
Co

0100000
+3 4 *
Co

1100000
+2 1 *

+1 0 