DBRep_DrawableShape

CASCADE Topology V1, (c) Matra-Datavision
Locations 9
1
              1               0               0               0 
              0               1               0               0 
              0               0               1               0 
1
-2.22044604925031e-16               1               0               0 
             -1 -2.22044604925031e-16               0               0 
              0               0               1               0 
1
              1               0               0               0 
              0               1               0               0 
              0               0               1               0 
1
              1               0               0               0 
              0               1               0               0 
              0               0               1               0 
1
              1               0               0               0 
              0               1               0               0 
              0               0               1               0 
1
              1               0               0               0 
              0               1               0               0 
              0               0               1               0 
2  2 1 3 1 4 1 5 1 6 1 0
2  2 -1 0
2  3 1 4 1 5 1 6 1 0
Curve2ds 8
1 0 700 1 0 
1 1.5707963267948966 -0 0 1 
1 0 0 1 0 
1 0 -0 0 1 
1 0 700 1 0 
1 6.2831853071795862 -0 0 1 
1 0 0 1 0 
1 4.7123889803846897 0 0 1 
Curves 12
2 0 0 350 0 0 1 1 0 -0 -0 1 0 1085
1 1.2045919817182948e-13 1085 -350 0 0 1 
2 0 0 -350 0 0 1 1 0 -0 -0 1 0 1085
1 1085 0 -350 0 0 1 
1 0 0 350 1 0 0 
2 0 0 350 0 0 1 1 0 -0 -0 1 0 315
1 0 0 350 1.1102230246251565e-16 1 0 
1 0 0 -350 1.1102230246251565e-16 1 0 
1 315 -7.7152748346283257e-14 -350 0 0 1 
1 0 0 -350 1 0 0 
2 0 0 -350 0 0 1 1 0 -0 -0 1 0 315
1 -6.9944050551384862e-14 -315 -350 0 0 1 
Polygon3D 0
PolygonOnTriangulations 0
Surfaces 6
2 0 0 -350 0 0 1 1 0 -0 -0 1 0 1085
1 0 0 350 0 0 1 1 0 -0 -0 1 0 
2 0 0 -350 0 0 1 1 0 -0 -0 1 0 315
1 0 0 -350 1 -1.1102230246251565e-16 0 1.1102230246251565e-16 1 0 -0 0 1 
1 0 0 -350 0 0 1 1 0 -0 -0 1 0 
1 0 0 -350 0 -1 0 1 0 0 -0 0 1 
Triangulations 0

TShapes 36
Ve
1e-07
1085 -3.61377594515488e-13 350
0 0

0101101
*
Ve
1e-07
-2.40918396343659e-13 -1085 350
0 0

0101101
*
Ed
 1e-07 1 1 0
1  1 0 0 1.5707963267949
2  1 1 0 0 1.5707963267949
0

0101000
-36 8 +35 8 *
Ve
1e-07
1085 -3.61377594515488e-13 -350
0 0

0101101
*
Ed
 1e-07 1 1 0
1  2 0 0 700
2  2 1 0 0 700
0

0101000
-36 8 +33 8 *
Ve
1e-07
-2.40918396343659e-13 -1085 -350
0 0

0101101
*
Ed
 1e-07 1 1 0
1  3 0 0 1.5707963267949
2  3 1 0 0 1.5707963267949
0

0101000
-33 8 +31 8 *
Ed
 1e-07 1 1 0
1  4 0 0 700
2  4 1 0 0 700
0

0101000
-35 8 +31 8 *
Wi

0101100
-34 0 +32 0 +30 0 -29 0 *
Fa
0  1e-07 1 0

0111000
+28 0 *
Ve
1.00006149036704e-07
-6.21898075442742e-12 -315 350
0 0

0101101
*
Ed
 1e-07 1 1 0
1  5 0 315 1085
0

0101000
+26 8 -35 8 *
Ve
1.00000027763327e-07
315 -7.71527483462833e-14 350
0 0

0101101
*
Ed
 1e-07 1 1 0
1  6 0 4.71238898038467 6.28318530717959
2  5 3 0 4.71238898038467 6.28318530717959
0

0101000
+26 0 -24 0 *
Ed
 1e-07 1 1 0
1  7 0 315 1085
0

0101000
+24 8 -36 8 *
Wi

0101100
+34 2 +25 2 -23 0 -22 2 *
Fa
0  1e-07 2 2

0111000
+21 0 *
Ve
1.00000027763327e-07
315 -7.71527483462833e-14 -350
0 0

0101101
*
Ed
 1e-07 1 1 0
1  8 0 315 1085
0

0101000
+19 8 -33 8 *
Ed
 1.00000027763327e-07 1 1 0
1  9 0 0 700
2  6 3 0 0 700
0

0101000
-24 0 +19 0 *
Wi

0101100
-22 2 +32 2 +18 2 -17 0 *
Fa
0  1e-07 4 2

0111000
+16 0 *
Ve
1.00006149036704e-07
-6.21898075442742e-12 -315 -350
0 0

0101101
*
Ed
 1e-07 1 1 0
1  10 0 315 1085
0

0101000
+14 8 -31 8 *
Ed
 1e-07 1 1 0
1  11 0 4.71238898038467 6.28318530717959
2  7 3 0 4.71238898038467 6.28318530717959
0

0101000
+14 0 -19 0 *
Wi

0101100
+30 2 +13 2 -12 0 -18 2 *
Fa
0  1e-07 5 2

0111000
+11 0 *
Ed
 1e-07 1 1 0
1  12 0 0 700
2  8 3 0 0 700
0

0101000
+14 0 -26 0 *
Wi

0101100
-9 0 -25 2 +29 2 +13 2 *
Fa
0  1e-07 6 2

0111000
+8 0 *
Wi

0101100
+17 0 +12 0 -9 0 -23 0 *
Fa
0  1e-07 3 0

0111000
+6 0 *
Sh

0101100
+27 7 +20 9 -15 9 -10 9 +7 9 -5 9 *
So

0100000
+4 0 *
Co

0100000
+3 0 *
Co

1100000
+2 1 *

+1 0 