DBRep_DrawableShape

CASCADE Topology V1, (c) Matra-Datavision
Locations 71
1
              1               0               0               0 
              0               1               0               0 
              0               0               1               0 
1
              1               0               0               0 
              0               1               0               0 
              0               0               1 -2069.49996948242 
1
              1               0               0               0 
              0               1               0               0 
              0               0               1               0 
1
0.484809620246337 0.874619707139396               0               0 
-0.874619707139396 0.484809620246337               0               0 
              0               0               1               0 
2  4 -1 0
1
              1               0               0               0 
              0               1               0               0 
              0               0               1               0 
1
              1               0               0               0 
              0               1               0               0 
              0               0               1               0 
1
0.484809620246337 0.874619707139396               0               0 
-0.874619707139396 0.484809620246337               0               0 
              0               0               1               0 
2  8 -1 0
1
              1               0               0               0 
              0               1               0               0 
              0               0               1               0 
1
             -1 -1.22464679914735e-16               0               0 
1.22464679914735e-16              -1               0               0 
              0               0               1 -2069.49996948242 
2  10 1 11 1 0
1
              1               0               0               0 
              0               1               0               0 
              0               0               1               0 
1
              1               0               0               0 
              0               1               0               0 
              0               0               1 2069.49996948242 
2  13 1 14 1 0
1
              1               0               0               0 
              0               1               0               0 
              0               0               1               0 
1
              1               0               0               0 
              0               1               0               0 
              0               0               1 2069.49996948242 
2  16 1 17 1 0
2  3 -1 4 -1 0
2  3 -1 0
2  6 -1 7 -1 8 -1 0
2  6 -1 7 -1 0
1
2.22044604925031e-16 -0.874619707139396 0.484809620246337 -1168.39111328125 
-2.77555756156289e-16 0.484809620246337 0.874619707139396 -2107.83355712891 
             -1 -3.28766288070729e-16 -1.35106373572815e-16 -1369.49996948242 
1
              1               0               0               0 
              0               1               0               0 
              0               0               1               0 
1
-2.22044604925031e-16               1               0               0 
             -1 -2.22044604925031e-16               0               0 
              0               0               1               0 
2  25 -1 0
1
              1               0               0               0 
              0               1               0               0 
              0               0               1               0 
1
2.22044604925031e-16 -0.874619707139396 0.484809620246337 -1168.39111328125 
-2.77555756156289e-16 0.484809620246337 0.874619707139396 -2107.83355712891 
             -1 -3.28766288070729e-16 -1.35106373572815e-16 1369.49996948242 
2  27 1 28 1 0
1
              1               0               0               0 
              0               1               0               0 
              0               0               1               0 
1
-4.44089209850063e-16 0.874619707139396 -0.484809620246338 1168.39111328125 
5.55111512312578e-17 0.484809620246338 0.874619707139396 -2107.83355712891 
              1 3.61496834514964e-16 -2.63849868015758e-16 -1369.49996948242 
2  30 1 31 1 0
1
              1               0               0               0 
              0               1               0               0 
              0               0               1               0 
1
-4.44089209850063e-16 0.874619707139396 -0.484809620246338 1168.39111328125 
5.55111512312578e-17 0.484809620246338 0.874619707139396 -2107.83355712891 
              1 3.61496834514964e-16 -2.63849868015758e-16 1369.49996948242 
2  33 1 34 1 0
1
-4.44089209850063e-16 0.874619707139396 -0.484809620246338 -1168.39111328125 
5.55111512312578e-17 0.484809620246338 0.874619707139396 2107.83355712891 
              1 3.61496834514964e-16 -2.63849868015758e-16 -1369.49996948242 
1
              1               0               0               0 
              0               1               0               0 
              0               0               1               0 
1
              1               0               0               0 
              0               1               0               0 
              0               0               1               0 
1
-4.44089209850063e-16 0.874619707139396 -0.484809620246338 -1168.39111328125 
5.55111512312578e-17 0.484809620246338 0.874619707139396 2107.83355712891 
              1 3.61496834514964e-16 -2.63849868015758e-16 1369.49996948242 
2  38 1 39 1 0
1
              1               0               0               0 
              0               1               0               0 
              0               0               1               0 
1
2.22044604925031e-16 -0.874619707139396 0.484809620246337 1168.39111328125 
-2.77555756156289e-16 0.484809620246337 0.874619707139396 2107.83355712891 
             -1 -3.28766288070729e-16 -1.35106373572815e-16 -1369.49996948242 
2  41 1 42 1 0
1
              1               0               0               0 
              0               1               0               0 
              0               0               1               0 
1
2.22044604925031e-16 -0.874619707139396 0.484809620246337 1168.39111328125 
-2.77555756156289e-16 0.484809620246337 0.874619707139396 2107.83355712891 
             -1 -3.28766288070729e-16 -1.35106373572815e-16 1369.49996948242 
2  44 1 45 1 0
1
0.484809620246337 -0.874619707139396               0 -556.157302856445 
0.874619707139396 0.484809620246337               0 -2447.20031738281 
              0               0               1               0 
1
              1               0               0               0 
              0               1               0               0 
              0               0               1               0 
1
              1               0               0               0 
              0               1               0               0 
              0               0               1               0 
1
              1               0               0               0 
              0               1               0               0 
              0               0               1               0 
1
              1               0               0               0 
              0               1               0               0 
              0               0               1               0 
1
              1               0               0               0 
              0               1               0               0 
              0               0               1               0 
1
              1               0               0            -360 
              0               1               0               0 
              0               0               1               0 
1
              1               0               0               0 
              0               1               0               0 
              0               0               1               0 
1
              1               0               0               0 
              0               1               0               0 
              0               0               1               0 
1
              1               0               0             360 
              0               1               0               0 
              0               0               1               0 
2  55 1 56 1 0
1
              1               0               0               0 
              0               1               0            -395 
              0               0               1               0 
1
              1               0               0               0 
              0               1               0               0 
              0               0               1               0 
1
              1               0               0               0 
              0               1               0               0 
              0               0               1               0 
1
              1               0               0               0 
              0               1               0             395 
              0               0               1               0 
2  60 1 61 1 0
1
              1               0               0               0 
              0               1               0               0 
              0               0               1               0 
1
0.484809620246337 -0.874619707139396               0 -556.157302856445 
0.874619707139396 0.484809620246337               0 2447.20031738281 
              0               0               1               0 
2  63 1 64 1 0
1
              1               0               0               0 
              0               1               0               0 
              0               0               1               0 
1
-0.484809620246337 -0.874619707139396               0 556.157302856445 
0.874619707139396 -0.484809620246337               0 -2447.20031738281 
              0               0               1               0 
2  66 1 67 1 0
1
              1               0               0               0 
              0               1               0               0 
              0               0               1               0 
1
-0.484809620246337 -0.874619707139396               0 556.157302856445 
0.874619707139396 -0.484809620246337               0 2447.20031738281 
              0               0               1               0 
2  69 1 70 1 0
Curve2ds 40
1 0 770 1 0 
1 2.1293016874330819 -0 0 1 
1 0 0 1 0 
1 0 -0 0 1 
1 0 770 1 0 
1 0 770 1 0 
1 1.0646508437165412 0 0 1 
1 0 0 1 0 
1 0 0 1 0 
1 5.2185344634630457 0 0 1 
1 6.2831853071795862 -0 0 1 
1 0 -0 0 1 
1 0 770 1 0 
1 2.1293016874330819 -0 0 1 
1 0 0 1 0 
1 0 -0 0 1 
1 0 770 1 0 
1 0 770 1 0 
1 1.0646508437165412 0 0 1 
1 0 0 1 0 
1 0 0 1 0 
1 5.2185344634630457 0 0 1 
1 6.2831853071795862 -0 0 1 
1 0 -0 0 1 
1 0 700 1 0 
1 1.5707963267948966 -0 0 1 
1 0 0 1 0 
1 0 -0 0 1 
1 0 700 1 0 
1 6.2831853071795862 -0 0 1 
1 0 0 1 0 
1 4.7123889803846897 0 0 1 
1 0 700 1 0 
1 1.5707963267948966 -0 0 1 
1 0 0 1 0 
1 0 -0 0 1 
1 0 700 1 0 
1 1.5707963267948966 0 0 1 
1 0 0 1 0 
1 0 -0 0 1 
Curves 144
2 0 0 385 0 0 1 1 0 0 0 1 0 2760
1 -1462.5771692836449 2340.6127453917361 -385 0 0 1 
2 0 0 -385 0 0 1 1 0 0 0 1 0 2760
1 2760 0 -385 0 0 1 
1 0 0 385 1 0 0 
2 0 0 385 0 0 1 1 0 0 0 1 0 2060
2 0 0 385 0 0 1 1 0 0 0 1 0 2060
1 0 0 385 -0.52991926423320468 0.84804809615642607 0 
1 0 0 -385 -0.52991926423320468 0.84804809615642607 0 
1 998.70781770745418 1801.7165967071555 -385 0 0 1 
1 0 0 -385 1 0 0 
2 0 0 -385 0 0 1 1 0 0 0 1 0 2060
2 0 0 -385 0 0 1 1 0 0 0 1 0 2060
1 998.70781770745464 -1801.7165967071551 -385 0 0 1 
1 2060 -5.0455448124870952e-13 -385 0 0 1 
2 0 0 385 0 0 1 1 0 0 0 1 0 2710
1 -1436.0812060719848 2298.2103405839148 -385 0 0 1 
2 0 0 -385 0 0 1 1 0 0 0 1 0 2710
1 2710 0 -385 0 0 1 
1 0 0 385 1 0 0 
2 0 0 385 0 0 1 1 0 0 0 1 0 2110
2 0 0 385 0 0 1 1 0 0 0 1 0 2110
1 0 0 385 -0.52991926423320468 0.84804809615642607 0 
1 0 0 -385 -0.52991926423320468 0.84804809615642607 0 
1 1022.9482987197711 1845.4475820641253 -385 0 0 1 
1 0 0 -385 1 0 0 
2 0 0 -385 0 0 1 1 0 0 0 1 0 2110
2 0 0 -385 0 0 1 1 0 0 0 1 0 2110
1 1022.9482987197715 -1845.4475820641248 -385 0 0 1 
1 2110 -5.1680094924018303e-13 -385 0 0 1 
2 0 0 -385 0 0 1 -1 -0 -0 -0 -1 -0 2760
1 1462.5771692836449 -2340.6127453917361 385 -0 -0 -1 
2 0 0 385 0 0 1 -1 -0 -0 -0 -1 -0 2760
1 -2760 0 385 -0 -0 -1 
1 0 0 -385 -1 -0 -0 
2 0 0 -385 0 0 1 -1 -0 -0 -0 -1 -0 2060
2 0 0 -385 0 0 1 -1 -0 -0 -0 -1 -0 2060
1 0 0 -385 0.52991926423320468 -0.84804809615642607 -0 
1 0 0 385 0.52991926423320468 -0.84804809615642607 -0 
1 -998.70781770745418 -1801.7165967071555 385 -0 -0 -1 
1 0 0 385 -1 -0 -0 
2 0 0 385 0 0 1 -1 -0 -0 -0 -1 -0 2060
2 0 0 385 0 0 1 -1 -0 -0 -0 -1 -0 2060
1 -998.70781770745464 1801.7165967071551 385 -0 -0 -1 
1 -2060 5.0455448124870952e-13 385 -0 -0 -1 
2 0 0 -385 0 0 1 -1 -0 -0 -0 -1 -0 2710
1 1436.0812060719848 -2298.2103405839148 385 -0 -0 -1 
2 0 0 385 0 0 1 -1 -0 -0 -0 -1 -0 2710
1 -2710 0 385 -0 -0 -1 
1 0 0 -385 -1 -0 -0 
2 0 0 -385 0 0 1 -1 -0 -0 -0 -1 -0 2110
2 0 0 -385 0 0 1 -1 -0 -0 -0 -1 -0 2110
1 0 0 -385 0.52991926423320468 -0.84804809615642607 -0 
1 0 0 385 0.52991926423320468 -0.84804809615642607 -0 
1 -1022.9482987197711 -1845.4475820641253 385 -0 -0 -1 
1 0 0 385 -1 -0 -0 
2 0 0 385 0 0 1 -1 -0 -0 -0 -1 -0 2110
2 0 0 385 0 0 1 -1 -0 -0 -0 -1 -0 2110
1 -1022.9482987197715 1845.4475820641248 385 -0 -0 -1 
1 -2110 5.1680094924018303e-13 385 -0 -0 -1 
2 0 0 350 0 0 1 1 0 0 0 1 0 1085
1 1.2045919817182948e-13 1085 -350 0 0 1 
2 0 0 -350 0 0 1 1 0 0 0 1 0 1085
1 1085 0 -350 0 0 1 
1 0 0 350 1 0 0 
2 0 0 350 0 0 1 1 0 0 0 1 0 315
1 0 0 350 1.1102230246251565e-16 1 0 
1 0 0 -350 1.1102230246251565e-16 1 0 
1 315 -7.7152748346283257e-14 -350 0 0 1 
1 0 0 -350 1 0 0 
2 0 0 -350 0 0 1 1 0 0 0 1 0 315
1 -6.9944050551384862e-14 -315 -350 0 0 1 
2 0 0 350 0 0 1 1 0 0 0 1 0 1085
1 1.2045919817182948e-13 1085 -350 0 0 1 
2 0 0 -350 0 0 1 1 0 0 0 1 0 1085
1 1085 0 -350 0 0 1 
1 0 0 350 1 0 0 
2 0 0 350 0 0 1 1 0 0 0 1 0 315
1 0 0 350 1.1102230246251565e-16 1 0 
1 0 0 -350 1.1102230246251565e-16 1 0 
1 3.4972025275692431e-14 315 -350 0 0 1 
1 0 0 -350 1 0 0 
2 0 0 -350 0 0 1 1 0 0 0 1 0 315
1 315 -7.7152748346283257e-14 -350 0 0 1 
1 -370 -405 -1369.4999694824219 0 0 1 
1 -370 -405 1369.4999694824219 0 1 0 
1 -370 405 -1369.4999694824219 0 0 1 
1 -370 -405 -1369.4999694824219 0 1 0 
1 370 -405 -1369.4999694824219 0 0 1 
1 370 -405 1369.4999694824219 0 1 0 
1 370 405 -1369.4999694824219 0 0 1 
1 370 -405 -1369.4999694824219 0 1 0 
1 -370 -405 -1369.4999694824219 1 0 0 
1 -370 -405 1369.4999694824219 1 0 0 
1 -370 405 -1369.4999694824219 1 0 0 
1 -370 405 1369.4999694824219 1 0 0 
1 -350 -385 -1369.4999694824219 0 0 1 
1 -350 -385 1369.4999694824219 0 1 0 
1 -350 385 -1369.4999694824219 0 0 1 
1 -350 -385 -1369.4999694824219 0 1 0 
1 350 -385 -1369.4999694824219 0 0 1 
1 350 -385 1369.4999694824219 0 1 0 
1 350 385 -1369.4999694824219 0 0 1 
1 350 -385 -1369.4999694824219 0 1 0 
1 -350 -385 -1369.4999694824219 1 0 0 
1 -350 -385 1369.4999694824219 1 0 0 
1 -350 385 -1369.4999694824219 1 0 0 
1 -350 385 1369.4999694824219 1 0 0 
1 -300 -335 -1319.4999694824219 0 0 1 
1 -300 -335 1319.4999694824219 0 1 0 
1 -300 335 -1319.4999694824219 0 0 1 
1 -300 -335 -1319.4999694824219 0 1 0 
1 300 -335 -1319.4999694824219 0 0 1 
1 300 -335 1319.4999694824219 0 1 0 
1 300 335 -1319.4999694824219 0 0 1 
1 300 -335 -1319.4999694824219 0 1 0 
1 -300 -335 -1319.4999694824219 1 0 0 
1 -300 -335 1319.4999694824219 1 0 0 
1 -300 335 -1319.4999694824219 1 0 0 
1 -300 335 1319.4999694824219 1 0 0 
1 -10 -385 -1200 0 0 1 
1 -10 -385 1200 0 1 0 
1 -10 385 -1200 0 0 1 
1 -10 -385 -1200 0 1 0 
1 10 -385 -1200 0 0 1 
1 10 -385 1200 0 1 0 
1 10 385 -1200 0 0 1 
1 10 -385 -1200 0 1 0 
1 -10 -385 -1200 1 0 0 
1 -10 -385 1200 1 0 0 
1 -10 385 -1200 1 0 0 
1 -10 385 1200 1 0 0 
1 -350 -10 -1200 0 0 1 
1 -350 -10 1200 0 1 0 
1 -350 10 -1200 0 0 1 
1 -350 -10 -1200 0 1 0 
1 350 -10 -1200 0 0 1 
1 350 -10 1200 0 1 0 
1 350 10 -1200 0 0 1 
1 350 -10 -1200 0 1 0 
1 -350 -10 -1200 1 0 0 
1 -350 -10 1200 1 0 0 
1 -350 10 -1200 1 0 0 
1 -350 10 1200 1 0 0 
Polygon3D 0
PolygonOnTriangulations 0
Surfaces 70
2 0 0 -385 0 0 1 1 0 0 0 1 0 2760
1 0 0 385 0 0 1 1 0 0 0 1 0 
2 0 0 -385 0 0 1 1 0 0 0 1 0 2060
2 0 0 -385 0 0 1 1 0 0 0 1 0 2060
1 0 0 -385 0.84804809615642607 0.52991926423320468 0 -0.52991926423320468 0.84804809615642607 0 0 0 1 
1 0 0 -385 0 0 1 1 0 0 0 1 0 
1 0 0 -385 0 -1 0 1 0 0 0 0 1 
2 0 0 -385 0 0 1 1 0 0 0 1 0 2710
1 0 0 385 0 0 1 1 0 0 0 1 0 
2 0 0 -385 0 0 1 1 0 0 0 1 0 2110
2 0 0 -385 0 0 1 1 0 0 0 1 0 2110
1 0 0 -385 0.84804809615642607 0.52991926423320468 0 -0.52991926423320468 0.84804809615642607 0 0 0 1 
1 0 0 -385 0 0 1 1 0 0 0 1 0 
1 0 0 -385 0 -1 0 1 0 0 0 0 1 
2 0 0 385 -0 -0 -1 -1 -0 -0 -0 -1 -0 2760
1 0 0 -385 -0 -0 -1 -1 -0 -0 -0 -1 -0 
2 0 0 385 -0 -0 -1 -1 -0 -0 -0 -1 -0 2060
2 0 0 385 -0 -0 -1 -1 -0 -0 -0 -1 -0 2060
1 0 0 385 -0.84804809615642607 -0.52991926423320468 -0 0.52991926423320468 -0.84804809615642607 -0 -0 -0 -1 
1 0 0 385 -0 -0 -1 -1 -0 -0 -0 -1 -0 
1 0 0 385 -0 1 -0 -1 -0 -0 -0 -0 -1 
2 0 0 385 -0 -0 -1 -1 -0 -0 -0 -1 -0 2710
1 0 0 -385 -0 -0 -1 -1 -0 -0 -0 -1 -0 
2 0 0 385 -0 -0 -1 -1 -0 -0 -0 -1 -0 2110
2 0 0 385 -0 -0 -1 -1 -0 -0 -0 -1 -0 2110
1 0 0 385 -0.84804809615642607 -0.52991926423320468 -0 0.52991926423320468 -0.84804809615642607 -0 -0 -0 -1 
1 0 0 385 -0 -0 -1 -1 -0 -0 -0 -1 -0 
1 0 0 385 -0 1 -0 -1 -0 -0 -0 -0 -1 
2 0 0 -350 0 0 1 1 0 0 0 1 0 1085
1 0 0 350 0 0 1 1 0 0 0 1 0 
2 0 0 -350 0 0 1 1 0 0 0 1 0 315
1 0 0 -350 1 -1.1102230246251565e-16 0 1.1102230246251565e-16 1 0 0 0 1 
1 0 0 -350 0 0 1 1 0 0 0 1 0 
1 0 0 -350 0 -1 0 1 0 0 0 0 1 
2 0 0 -350 0 0 1 1 0 0 0 1 0 1085
1 0 0 350 0 0 1 1 0 0 0 1 0 
2 0 0 -350 0 0 1 1 0 0 0 1 0 315
1 0 0 -350 1 -1.1102230246251565e-16 0 1.1102230246251565e-16 1 0 0 0 1 
1 0 0 -350 0 0 1 1 0 0 0 1 0 
1 0 0 -350 0 -1 0 1 0 0 0 0 1 
1 -370 -405 -1369.4999694824219 1 0 0 0 0 1 0 -1 0 
1 370 -405 -1369.4999694824219 1 0 0 0 0 1 0 -1 0 
1 -370 -405 -1369.4999694824219 0 1 0 0 0 1 1 0 0 
1 -370 405 -1369.4999694824219 0 1 0 0 0 1 1 0 0 
1 -370 -405 -1369.4999694824219 0 0 1 1 0 0 0 1 0 
1 -370 -405 1369.4999694824219 0 0 1 1 0 0 0 1 0 
1 -350 -385 -1369.4999694824219 1 0 0 0 0 1 0 -1 0 
1 350 -385 -1369.4999694824219 1 0 0 0 0 1 0 -1 0 
1 -350 -385 -1369.4999694824219 0 1 0 0 0 1 1 0 0 
1 -350 385 -1369.4999694824219 0 1 0 0 0 1 1 0 0 
1 -350 -385 -1369.4999694824219 0 0 1 1 0 0 0 1 0 
1 -350 -385 1369.4999694824219 0 0 1 1 0 0 0 1 0 
1 -300 -335 -1319.4999694824219 1 0 0 0 0 1 0 -1 0 
1 300 -335 -1319.4999694824219 1 0 0 0 0 1 0 -1 0 
1 -300 -335 -1319.4999694824219 0 1 0 0 0 1 1 0 0 
1 -300 335 -1319.4999694824219 0 1 0 0 0 1 1 0 0 
1 -300 -335 -1319.4999694824219 0 0 1 1 0 0 0 1 0 
1 -300 -335 1319.4999694824219 0 0 1 1 0 0 0 1 0 
1 -10 -385 -1200 1 0 0 0 0 1 0 -1 0 
1 10 -385 -1200 1 0 0 0 0 1 0 -1 0 
1 -10 -385 -1200 0 1 0 0 0 1 1 0 0 
1 -10 385 -1200 0 1 0 0 0 1 1 0 0 
1 -10 -385 -1200 0 0 1 1 0 0 0 1 0 
1 -10 -385 1200 0 0 1 1 0 0 0 1 0 
1 -350 -10 -1200 1 0 0 0 0 1 0 -1 0 
1 350 -10 -1200 1 0 0 0 0 1 0 -1 0 
1 -350 -10 -1200 0 1 0 0 0 1 1 0 0 
1 -350 10 -1200 0 1 0 0 0 1 1 0 0 
1 -350 -10 -1200 0 0 1 1 0 0 0 1 0 
1 -350 -10 1200 0 0 1 1 0 0 0 1 0 
Triangulations 0

TShapes 421
Ve
1e-07
1338.07455187989 2413.95039170473 385
0 0

0101101
*
Ve
1e-07
1338.07455187989 -2413.95039170473 385
0 0

0101101
*
Ed
 1e-07 1 1 0
1  1 0 0 2.12930168743308
2  1 1 0 0 2.12930168743308
0

0101000
-421 5 +420 5 *
Ve
1e-07
1338.07455187989 2413.95039170473 -385
0 0

0101101
*
Ed
 1e-07 1 1 0
1  2 0 0 770
2  2 1 0 0 770
0

0101000
-421 5 +418 5 *
Ve
1e-07
1338.07455187989 -2413.95039170473 -385
0 0

0101101
*
Ed
 1e-07 1 1 0
1  3 0 0 2.12930168743308
2  3 1 0 0 2.12930168743308
0

0101000
-418 5 +416 5 *
Ed
 1e-07 1 1 0
1  4 0 0 770
2  4 1 0 0 770
0

0101000
-420 5 +416 5 *
Wi

0101100
-419 0 +417 0 +415 0 -414 0 *
Fa
0  1e-07 1 0

0111000
+413 0 *
Ve
1.00008364292274e-07
998.707817707462 -1801.71659670715 385
0 0

0101101
*
Ed
 1e-07 1 1 0
1  5 0 2060 2760
0

0101000
+411 5 -420 5 *
Ve
1e-07
2060 -5.0455448124871e-13 385
0 0

0101101
*
Ed
 1e-07 1 1 0
1  6 0 5.21853446346305 6.28318530717959
2  5 3 0 5.21853446346305 6.28318530717959
0

0101000
+411 0 -409 0 *
Ve
1.00009067193506e-07
998.707817707462 1801.71659670715 385
0 0

0101101
*
Ed
 1e-07 1 1 0
1  7 0 0 1.06465084371654
2  6 4 0 0 1.06465084371654
0

0101000
+409 0 -407 0 *
Ed
 1e-07 1 1 0
1  8 0 2060 2760
0

0101000
+407 5 -421 5 *
Wi

0101100
+419 4 +410 4 -408 0 -406 0 -405 4 *
Fa
0  1e-07 2 4

0111000
+404 0 *
Ve
1.00009067193506e-07
998.707817707462 1801.71659670715 -385
0 0

0101101
*
Ed
 1e-07 1 1 0
1  9 0 2060 2760
0

0101000
+402 5 -418 5 *
Ed
 1e-07 1 1 0
1  10 0 0 770
2  7 4 0 0 770
0

0101000
+402 0 -407 0 *
Wi

0101100
-405 4 +417 4 +401 4 -400 0 *
Fa
0  1e-07 5 4

0111000
+399 0 *
Ve
1.00008364292274e-07
998.707817707462 -1801.71659670715 -385
0 0

0101101
*
Ed
 1e-07 1 1 0
1  11 0 2060 2760
0

0101000
+397 5 -416 5 *
Ve
1e-07
2060 -5.0455448124871e-13 -385
0 0

0101101
*
Ed
 1e-07 1 1 0
1  12 0 5.21853446346305 6.28318530717959
2  8 3 0 5.21853446346305 6.28318530717959
0

0101000
+397 0 -395 0 *
Ed
 1e-07 1 1 0
1  13 0 0 1.06465084371654
2  9 4 0 0 1.06465084371654
0

0101000
+395 0 -402 0 *
Wi

0101100
+415 4 +396 4 -394 0 -393 0 -401 4 *
Fa
0  1e-07 6 4

0111000
+392 0 *
Ed
 1e-07 1 1 0
1  14 0 0 770
2  10 3 0 0 770
0

0101000
+397 0 -411 0 *
Wi

0101100
-390 0 -410 4 +414 4 +396 4 *
Fa
0  1e-07 7 4

0111000
+389 0 *
Ed
 1e-07 1 1 0
1  15 0 0 770
2  11 3 0 0 770
2  12 4 0 0 770
4 CN 3 0 4 0
0

0101000
-409 0 +395 0 *
Wi

0101100
+387 0 +394 0 -390 0 -408 0 *
Fa
0  1e-07 3 0

0111000
+386 0 *
Wi

0101100
-406 0 +400 0 +393 0 -387 0 *
Fa
0  1e-07 4 0

0111000
+384 0 *
Sh

0101100
+412 4 +403 0 -398 0 -391 0 +388 0 -385 0 -383 0 *
So

0100000
+382 0 *
Co

0100000
+381 0 *
Ve
1e-07
1313.83407086757 2370.21940634776 385
0 0

0101101
*
Ve
1e-07
1313.83407086757 -2370.21940634776 385
0 0

0101101
*
Ed
 1e-07 1 1 0
1  16 0 0 2.12930168743308
2  13 8 0 0 2.12930168743308
0

0101000
-379 9 +378 9 *
Ve
1e-07
1313.83407086757 2370.21940634776 -385
0 0

0101101
*
Ed
 1e-07 1 1 0
1  17 0 0 770
2  14 8 0 0 770
0

0101000
-379 9 +376 9 *
Ve
1e-07
1313.83407086757 -2370.21940634776 -385
0 0

0101101
*
Ed
 1e-07 1 1 0
1  18 0 0 2.12930168743308
2  15 8 0 0 2.12930168743308
0

0101000
-376 9 +374 9 *
Ed
 1e-07 1 1 0
1  19 0 0 770
2  16 8 0 0 770
0

0101000
-378 9 +374 9 *
Wi

0101100
-377 0 +375 0 +373 0 -372 0 *
Fa
0  1e-07 8 0

0111000
+371 0 *
Ve
1.00031856869569e-07
1022.94829871974 -1845.44758206414 385
0 0

0101101
*
Ed
 1e-07 1 1 0
1  20 0 2110 2710
0

0101000
+369 9 -378 9 *
Ve
1e-07
2110 -5.16800949240183e-13 385
0 0

0101101
*
Ed
 1e-07 1 1 0
1  21 0 5.21853446346303 6.28318530717959
2  17 10 0 5.21853446346303 6.28318530717959
0

0101000
+369 0 -367 0 *
Ve
1.00033082674438e-07
1022.94829871974 1845.44758206414 385
0 0

0101101
*
Ed
 1e-07 1 1 0
1  22 0 0 1.06465084371656
2  18 11 0 0 1.06465084371656
0

0101000
+367 0 -365 0 *
Ed
 1e-07 1 1 0
1  23 0 2110 2710
0

0101000
+365 9 -379 9 *
Wi

0101100
+377 8 +368 8 -366 0 -364 0 -363 8 *
Fa
0  1e-07 9 8

0111000
+362 0 *
Ve
1.00033082674438e-07
1022.94829871974 1845.44758206414 -385
0 0

0101101
*
Ed
 1e-07 1 1 0
1  24 0 2110 2710
0

0101000
+360 9 -376 9 *
Ed
 1e-07 1 1 0
1  25 0 0 770
2  19 11 0 0 770
0

0101000
+360 0 -365 0 *
Wi

0101100
-363 8 +375 8 +359 8 -358 0 *
Fa
0  1e-07 12 8

0111000
+357 0 *
Ve
1.00031856869569e-07
1022.94829871974 -1845.44758206414 -385
0 0

0101101
*
Ed
 1e-07 1 1 0
1  26 0 2110 2710
0

0101000
+355 9 -374 9 *
Ve
1e-07
2110 -5.16800949240183e-13 -385
0 0

0101101
*
Ed
 1e-07 1 1 0
1  27 0 5.21853446346303 6.28318530717959
2  20 10 0 5.21853446346303 6.28318530717959
0

0101000
+355 0 -353 0 *
Ed
 1e-07 1 1 0
1  28 0 0 1.06465084371656
2  21 11 0 0 1.06465084371656
0

0101000
+353 0 -360 0 *
Wi

0101100
+373 8 +354 8 -352 0 -351 0 -359 8 *
Fa
0  1e-07 13 8

0111000
+350 0 *
Ed
 1e-07 1 1 0
1  29 0 0 770
2  22 10 0 0 770
0

0101000
+355 0 -369 0 *
Wi

0101100
-348 0 -368 8 +372 8 +354 8 *
Fa
0  1e-07 14 8

0111000
+347 0 *
Ed
 1e-07 1 1 0
1  30 0 0 770
2  23 10 0 0 770
2  24 11 0 0 770
4 CN 10 0 11 0
0

0101000
-367 0 +353 0 *
Wi

0101100
+345 0 +352 0 -348 0 -366 0 *
Fa
0  1e-07 10 0

0111000
+344 0 *
Wi

0101100
-364 0 +358 0 +351 0 -345 0 *
Fa
0  1e-07 11 0

0111000
+342 0 *
Sh

0101100
+370 8 +361 0 -356 0 -349 0 +346 0 -343 0 -341 0 *
So

0100000
+340 0 *
Co

0100000
+339 0 *
Co

0100000
+338 7 *
Co

0100000
+380 3 +337 6 *
Ve
1e-07
-1338.07455187989 -2413.95039170473 -385
0 0

0101101
*
Ve
1e-07
-1338.07455187989 2413.95039170473 -385
0 0

0101101
*
Ed
 1e-07 1 1 0
1  31 0 0 2.12930168743308
2  1 15 0 0 2.12930168743308
0

0101000
-335 19 +334 19 *
Ve
1e-07
-1338.07455187989 -2413.95039170473 385
0 0

0101101
*
Ed
 1e-07 1 1 0
1  32 0 0 770
2  2 15 0 0 770
0

0101000
-335 19 +332 19 *
Ve
1e-07
-1338.07455187989 2413.95039170473 385
0 0

0101101
*
Ed
 1e-07 1 1 0
1  33 0 0 2.12930168743308
2  3 15 0 0 2.12930168743308
0

0101000
-332 19 +330 19 *
Ed
 1e-07 1 1 0
1  34 0 0 770
2  4 15 0 0 770
0

0101000
-334 19 +330 19 *
Wi

0101100
-333 0 +331 0 +329 0 -328 0 *
Fa
0  1e-07 15 0

0101000
+327 0 *
Ve
1.00008364292274e-07
-998.707817707462 1801.71659670715 -385
0 0

0101101
*
Ed
 1e-07 1 1 0
1  35 0 2060 2760
0

0101000
+325 19 -334 19 *
Ve
1e-07
-2060 5.0455448124871e-13 -385
0 0

0101101
*
Ed
 1e-07 1 1 0
1  36 0 5.21853446346305 6.28318530717959
2  5 17 0 5.21853446346305 6.28318530717959
0

0101000
+325 20 -323 20 *
Ve
1.00009067193506e-07
-998.707817707462 -1801.71659670715 -385
0 0

0101101
*
Ed
 1e-07 1 1 0
1  37 0 0 1.06465084371654
2  6 18 0 0 1.06465084371654
0

0101000
+323 20 -321 20 *
Ed
 1e-07 1 1 0
1  38 0 2060 2760
0

0101000
+321 19 -335 19 *
Wi

0101100
+333 4 +324 4 -322 0 -320 0 -319 4 *
Fa
0  1e-07 16 4

0101000
+318 0 *
Ve
1.00009067193506e-07
-998.707817707462 -1801.71659670715 385
0 0

0101101
*
Ed
 1e-07 1 1 0
1  39 0 2060 2760
0

0101000
+316 19 -332 19 *
Ed
 1e-07 1 1 0
1  40 0 0 770
2  7 18 0 0 770
0

0101000
+316 20 -321 20 *
Wi

0101100
-319 4 +331 4 +315 4 -314 0 *
Fa
0  1e-07 19 4

0101000
+313 0 *
Ve
1.00008364292274e-07
-998.707817707462 1801.71659670715 385
0 0

0101101
*
Ed
 1e-07 1 1 0
1  41 0 2060 2760
0

0101000
+311 19 -330 19 *
Ve
1e-07
-2060 5.0455448124871e-13 385
0 0

0101101
*
Ed
 1e-07 1 1 0
1  42 0 5.21853446346305 6.28318530717959
2  8 17 0 5.21853446346305 6.28318530717959
0

0101000
+311 20 -309 20 *
Ed
 1e-07 1 1 0
1  43 0 0 1.06465084371654
2  9 18 0 0 1.06465084371654
0

0101000
+309 20 -316 20 *
Wi

0101100
+329 4 +310 4 -308 0 -307 0 -315 4 *
Fa
0  1e-07 20 4

0101000
+306 0 *
Ed
 1e-07 1 1 0
1  44 0 0 770
2  10 17 0 0 770
0

0101000
+311 20 -325 20 *
Wi

0101100
-304 0 -324 4 +328 4 +310 4 *
Fa
0  1e-07 21 4

0101000
+303 0 *
Ed
 1e-07 1 1 0
1  45 0 0 770
2  11 17 0 0 770
2  12 18 0 0 770
4 CN 17 0 18 0
0

0101000
-323 20 +309 20 *
Wi

0101100
+301 0 +308 0 -304 0 -322 0 *
Fa
0  1e-07 17 0

0101000
+300 0 *
Wi

0101100
-320 0 +314 0 +307 0 -301 0 *
Fa
0  1e-07 18 0

0101000
+298 0 *
Sh

0101100
-326 4 -317 0 +312 0 +305 0 -302 0 +299 0 +297 0 *
So

0100000
+296 0 *
Co

0100000
+295 0 *
Ve
1e-07
-1313.83407086757 -2370.21940634776 -385
0 0

0101101
*
Ve
1e-07
-1313.83407086757 2370.21940634776 -385
0 0

0101101
*
Ed
 1e-07 1 1 0
1  46 0 0 2.12930168743308
2  13 22 0 0 2.12930168743308
0

0101000
-293 21 +292 21 *
Ve
1e-07
-1313.83407086757 -2370.21940634776 385
0 0

0101101
*
Ed
 1e-07 1 1 0
1  47 0 0 770
2  14 22 0 0 770
0

0101000
-293 21 +290 21 *
Ve
1e-07
-1313.83407086757 2370.21940634776 385
0 0

0101101
*
Ed
 1e-07 1 1 0
1  48 0 0 2.12930168743308
2  15 22 0 0 2.12930168743308
0

0101000
-290 21 +288 21 *
Ed
 1e-07 1 1 0
1  49 0 0 770
2  16 22 0 0 770
0

0101000
-292 21 +288 21 *
Wi

0101100
-291 0 +289 0 +287 0 -286 0 *
Fa
0  1e-07 22 0

0101000
+285 0 *
Ve
1.00031856869569e-07
-1022.94829871974 1845.44758206414 -385
0 0

0101101
*
Ed
 1e-07 1 1 0
1  50 0 2110 2710
0

0101000
+283 21 -292 21 *
Ve
1e-07
-2110 5.16800949240183e-13 -385
0 0

0101101
*
Ed
 1e-07 1 1 0
1  51 0 5.21853446346303 6.28318530717959
2  17 24 0 5.21853446346303 6.28318530717959
0

0101000
+283 22 -281 22 *
Ve
1.00033082674438e-07
-1022.94829871974 -1845.44758206414 -385
0 0

0101101
*
Ed
 1e-07 1 1 0
1  52 0 0 1.06465084371656
2  18 25 0 0 1.06465084371656
0

0101000
+281 22 -279 22 *
Ed
 1e-07 1 1 0
1  53 0 2110 2710
0

0101000
+279 21 -293 21 *
Wi

0101100
+291 8 +282 8 -280 0 -278 0 -277 8 *
Fa
0  1e-07 23 8

0101000
+276 0 *
Ve
1.00033082674438e-07
-1022.94829871974 -1845.44758206414 385
0 0

0101101
*
Ed
 1e-07 1 1 0
1  54 0 2110 2710
0

0101000
+274 21 -290 21 *
Ed
 1e-07 1 1 0
1  55 0 0 770
2  19 25 0 0 770
0

0101000
+274 22 -279 22 *
Wi

0101100
-277 8 +289 8 +273 8 -272 0 *
Fa
0  1e-07 26 8

0101000
+271 0 *
Ve
1.00031856869569e-07
-1022.94829871974 1845.44758206414 385
0 0

0101101
*
Ed
 1e-07 1 1 0
1  56 0 2110 2710
0

0101000
+269 21 -288 21 *
Ve
1e-07
-2110 5.16800949240183e-13 385
0 0

0101101
*
Ed
 1e-07 1 1 0
1  57 0 5.21853446346303 6.28318530717959
2  20 24 0 5.21853446346303 6.28318530717959
0

0101000
+269 22 -267 22 *
Ed
 1e-07 1 1 0
1  58 0 0 1.06465084371656
2  21 25 0 0 1.06465084371656
0

0101000
+267 22 -274 22 *
Wi

0101100
+287 8 +268 8 -266 0 -265 0 -273 8 *
Fa
0  1e-07 27 8

0101000
+264 0 *
Ed
 1e-07 1 1 0
1  59 0 0 770
2  22 24 0 0 770
0

0101000
+269 22 -283 22 *
Wi

0101100
-262 0 -282 8 +286 8 +268 8 *
Fa
0  1e-07 28 8

0101000
+261 0 *
Ed
 1e-07 1 1 0
1  60 0 0 770
2  23 24 0 0 770
2  24 25 0 0 770
4 CN 24 0 25 0
0

0101000
-281 22 +267 22 *
Wi

0101100
+259 0 +266 0 -262 0 -280 0 *
Fa
0  1e-07 24 0

0101000
+258 0 *
Wi

0101100
-278 0 +272 0 +265 0 -259 0 *
Fa
0  1e-07 25 0

0101000
+256 0 *
Sh

0101100
-284 8 -275 0 +270 0 +263 0 -260 0 +257 0 +255 0 *
So

0100000
+254 0 *
Co

0100000
+253 0 *
Co

0100000
+252 7 *
Co

0100000
+294 3 +251 6 *
Ve
1e-07
1085 -3.61377594515488e-13 350
0 0

0101101
*
Ve
1e-07
-2.40918396343659e-13 -1085 350
0 0

0101101
*
Ed
 1e-07 1 1 0
1  61 0 0 1.5707963267949
2  25 29 0 0 1.5707963267949
0

0101000
-249 26 +248 26 *
Ve
1e-07
1085 -3.61377594515488e-13 -350
0 0

0101101
*
Ed
 1e-07 1 1 0
1  62 0 0 700
2  26 29 0 0 700
0

0101000
-249 26 +246 26 *
Ve
1e-07
-2.40918396343659e-13 -1085 -350
0 0

0101101
*
Ed
 1e-07 1 1 0
1  63 0 0 1.5707963267949
2  27 29 0 0 1.5707963267949
0

0101000
-246 26 +244 26 *
Ed
 1e-07 1 1 0
1  64 0 0 700
2  28 29 0 0 700
0

0101000
-248 26 +244 26 *
Wi

0101100
-247 0 +245 0 +243 0 -242 0 *
Fa
0  1e-07 29 0

0111000
+241 0 *
Ve
1.00006149036704e-07
-6.21898075442742e-12 -315 350
0 0

0101101
*
Ed
 1e-07 1 1 0
1  65 0 315 1085
0

0101000
+239 26 -248 26 *
Ve
1.00000027763327e-07
315 -7.71527483462833e-14 350
0 0

0101101
*
Ed
 1e-07 1 1 0
1  66 0 4.71238898038467 6.28318530717959
2  29 31 0 4.71238898038467 6.28318530717959
0

0101000
+239 0 -237 0 *
Ed
 1e-07 1 1 0
1  67 0 315 1085
0

0101000
+237 26 -249 26 *
Wi

0101100
+247 25 +238 25 -236 0 -235 25 *
Fa
0  1e-07 30 25

0111000
+234 0 *
Ve
1.00000027763327e-07
315 -7.71527483462833e-14 -350
0 0

0101101
*
Ed
 1e-07 1 1 0
1  68 0 315 1085
0

0101000
+232 26 -246 26 *
Ed
 1.00000027763327e-07 1 1 0
1  69 0 0 700
2  30 31 0 0 700
0

0101000
-237 0 +232 0 *
Wi

0101100
-235 25 +245 25 +231 25 -230 0 *
Fa
0  1e-07 32 25

0111000
+229 0 *
Ve
1.00006149036704e-07
-6.21898075442742e-12 -315 -350
0 0

0101101
*
Ed
 1e-07 1 1 0
1  70 0 315 1085
0

0101000
+227 26 -244 26 *
Ed
 1e-07 1 1 0
1  71 0 4.71238898038467 6.28318530717959
2  31 31 0 4.71238898038467 6.28318530717959
0

0101000
+227 0 -232 0 *
Wi

0101100
+243 25 +226 25 -225 0 -231 25 *
Fa
0  1e-07 33 25

0111000
+224 0 *
Ed
 1e-07 1 1 0
1  72 0 0 700
2  32 31 0 0 700
0

0101000
+227 0 -239 0 *
Wi

0101100
-222 0 -238 25 +242 25 +226 25 *
Fa
0  1e-07 34 25

0111000
+221 0 *
Wi

0101100
+230 0 +225 0 -222 0 -236 0 *
Fa
0  1e-07 31 0

0111000
+219 0 *
Sh

0101100
+240 25 +233 0 -228 0 -223 0 +220 0 -218 0 *
So

0100000
+217 0 *
Co

0100000
+216 0 *
Co

0100000
+215 24 *
Ve
1e-07
1.20459198171829e-13 1085 350
0 0

0101101
*
Ve
1e-07
1085 0 350
0 0

0101101
*
Ed
 1e-07 1 1 0
1  73 0 0 1.5707963267949
2  33 35 0 0 1.5707963267949
0

0101000
-213 0 +212 0 *
Ve
1e-07
1.20459198171829e-13 1085 -350
0 0

0101101
*
Ed
 1e-07 1 1 0
1  74 0 0 700
2  34 35 0 0 700
0

0101000
-213 0 +210 0 *
Ve
1e-07
1085 0 -350
0 0

0101101
*
Ed
 1e-07 1 1 0
1  75 0 0 1.5707963267949
2  35 35 0 0 1.5707963267949
0

0101000
-210 0 +208 0 *
Ed
 1e-07 1 1 0
1  76 0 0 700
2  36 35 0 0 700
0

0101000
-212 0 +208 0 *
Wi

0101100
-211 0 +209 0 +207 0 -206 0 *
Fa
0  1e-07 35 0

0111000
+205 0 *
Ve
1.00000077152748e-07
315 -7.71527483462833e-14 350
0 0

0101101
*
Ed
 1e-07 1 1 0
1  77 0 315 1085
0

0101000
+203 0 -212 0 *
Ve
1.00006077290479e-07
6.11226250415161e-12 315 350
0 0

0101101
*
Ed
 1e-07 1 1 0
1  78 0 0 1.57079632679488
2  37 37 0 0 1.57079632679488
0

0101000
+203 0 -201 0 *
Ed
 1e-07 1 1 0
1  79 0 315 1085
0

0101000
+201 0 -213 0 *
Wi

0101100
+211 0 +202 0 -200 0 -199 0 *
Fa
0  1e-07 36 0

0111000
+198 0 *
Ve
1.00006077290479e-07
6.11226250415161e-12 315 -350
0 0

0101101
*
Ed
 1e-07 1 1 0
1  80 0 315 1085
0

0101000
+196 0 -210 0 *
Ed
 1e-07 1 1 0
1  81 0 0 700
2  38 37 0 0 700
0

0101000
+196 0 -201 0 *
Wi

0101100
-199 0 +209 0 +195 0 -194 0 *
Fa
0  1e-07 38 0

0111000
+193 0 *
Ve
1.00000077152748e-07
315 -7.71527483462833e-14 -350
0 0

0101101
*
Ed
 1e-07 1 1 0
1  82 0 315 1085
0

0101000
+191 0 -208 0 *
Ed
 1e-07 1 1 0
1  83 0 0 1.57079632679488
2  39 37 0 0 1.57079632679488
0

0101000
+191 0 -196 0 *
Wi

0101100
+207 0 +190 0 -189 0 -195 0 *
Fa
0  1e-07 39 0

0111000
+188 0 *
Ed
 1.00000077152748e-07 1 1 0
1  84 0 0 700
2  40 37 0 0 700
0

0101000
-203 0 +191 0 *
Wi

0101100
-186 0 -202 0 +206 0 +190 0 *
Fa
0  1e-07 40 0

0111000
+185 0 *
Wi

0101100
-200 0 +194 0 +189 0 -186 0 *
Fa
0  1e-07 37 0

0111000
+183 0 *
Sh

0101100
+204 0 +197 0 -192 0 -187 0 +184 0 -182 0 *
So

0100000
+181 0 *
Co

0100000
+180 0 *
Co

0100000
+179 37 *
Ve
1e-07
-370 -405 1369.49996948242
0 0

0101101
*
Ve
1e-07
-370 -405 -1369.49996948242
0 0

0101101
*
Ed
 1e-07 1 1 0
1  85 0 0 2738.99993896484
0

0101000
-177 0 +176 0 *
Ve
1e-07
-370 405 1369.49996948242
0 0

0101101
*
Ed
 1e-07 1 1 0
1  86 0 0 810
0

0101000
-174 0 +177 0 *
Ve
1e-07
-370 405 -1369.49996948242
0 0

0101101
*
Ed
 1e-07 1 1 0
1  87 0 0 2738.99993896484
0

0101000
-174 0 +172 0 *
Ed
 1e-07 1 1 0
1  88 0 0 810
0

0101000
-172 0 +176 0 *
Wi

0101100
-175 0 -173 0 +171 0 +170 0 *
Fa
0  1e-07 41 0

0111000
+169 0 *
Ve
1e-07
370 -405 1369.49996948242
0 0

0101101
*
Ve
1e-07
370 -405 -1369.49996948242
0 0

0101101
*
Ed
 1e-07 1 1 0
1  89 0 0 2738.99993896484
0

0101000
-167 0 +166 0 *
Ve
1e-07
370 405 1369.49996948242
0 0

0101101
*
Ed
 1e-07 1 1 0
1  90 0 0 810
0

0101000
-164 0 +167 0 *
Ve
1e-07
370 405 -1369.49996948242
0 0

0101101
*
Ed
 1e-07 1 1 0
1  91 0 0 2738.99993896484
0

0101000
-164 0 +162 0 *
Ed
 1e-07 1 1 0
1  92 0 0 810
0

0101000
-162 0 +166 0 *
Wi

0101100
-165 0 -163 0 +161 0 +160 0 *
Fa
0  1e-07 42 0

0111000
+159 0 *
Ed
 1e-07 1 1 0
1  93 0 0 740
0

0101000
-166 0 +176 0 *
Ed
 1e-07 1 1 0
1  94 0 0 740
0

0101000
-167 0 +177 0 *
Wi

0101100
-157 0 -165 0 +156 0 +175 0 *
Fa
0  1e-07 43 0

0111000
+155 0 *
Ed
 1e-07 1 1 0
1  95 0 0 740
0

0101000
-162 0 +172 0 *
Ed
 1e-07 1 1 0
1  96 0 0 740
0

0101000
-164 0 +174 0 *
Wi

0101100
-153 0 -161 0 +152 0 +171 0 *
Fa
0  1e-07 44 0

0111000
+151 0 *
Wi

0101100
-170 0 -153 0 +160 0 +157 0 *
Fa
0  1e-07 45 0

0111000
+149 0 *
Wi

0101100
-173 0 -152 0 +163 0 +156 0 *
Fa
0  1e-07 46 0

0111000
+147 0 *
Sh

0101100
-168 0 +158 0 -154 0 +150 0 -148 0 +146 0 *
So

0100000
+145 0 *
Ve
1e-07
-350 -385 1369.49996948242
0 0

0101101
*
Ve
1e-07
-350 -385 -1369.49996948242
0 0

0101101
*
Ed
 1e-07 1 1 0
1  97 0 0 2738.99993896484
0

0101000
-143 0 +142 0 *
Ve
1e-07
-350 385 1369.49996948242
0 0

0101101
*
Ed
 1e-07 1 1 0
1  98 0 0 770
0

0101000
-140 0 +143 0 *
Ve
1e-07
-350 385 -1369.49996948242
0 0

0101101
*
Ed
 1e-07 1 1 0
1  99 0 0 2738.99993896484
0

0101000
-140 0 +138 0 *
Ed
 1e-07 1 1 0
1  100 0 0 770
0

0101000
-138 0 +142 0 *
Wi

0101100
-141 0 -139 0 +137 0 +136 0 *
Fa
0  1e-07 47 0

0111000
+135 0 *
Ve
1e-07
350 -385 1369.49996948242
0 0

0101101
*
Ve
1e-07
350 -385 -1369.49996948242
0 0

0101101
*
Ed
 1e-07 1 1 0
1  101 0 0 2738.99993896484
0

0101000
-133 0 +132 0 *
Ve
1e-07
350 385 1369.49996948242
0 0

0101101
*
Ed
 1e-07 1 1 0
1  102 0 0 770
0

0101000
-130 0 +133 0 *
Ve
1e-07
350 385 -1369.49996948242
0 0

0101101
*
Ed
 1e-07 1 1 0
1  103 0 0 2738.99993896484
0

0101000
-130 0 +128 0 *
Ed
 1e-07 1 1 0
1  104 0 0 770
0

0101000
-128 0 +132 0 *
Wi

0101100
-131 0 -129 0 +127 0 +126 0 *
Fa
0  1e-07 48 0

0111000
+125 0 *
Ed
 1e-07 1 1 0
1  105 0 0 700
0

0101000
-132 0 +142 0 *
Ed
 1e-07 1 1 0
1  106 0 0 700
0

0101000
-133 0 +143 0 *
Wi

0101100
-123 0 -131 0 +122 0 +141 0 *
Fa
0  1e-07 49 0

0111000
+121 0 *
Ed
 1e-07 1 1 0
1  107 0 0 700
0

0101000
-128 0 +138 0 *
Ed
 1e-07 1 1 0
1  108 0 0 700
0

0101000
-130 0 +140 0 *
Wi

0101100
-119 0 -127 0 +118 0 +137 0 *
Fa
0  1e-07 50 0

0111000
+117 0 *
Wi

0101100
-136 0 -119 0 +126 0 +123 0 *
Fa
0  1e-07 51 0

0111000
+115 0 *
Wi

0101100
-139 0 -118 0 +129 0 +122 0 *
Fa
0  1e-07 52 0

0111000
+113 0 *
Sh

0101100
-134 0 +124 0 -120 0 +116 0 -114 0 +112 0 *
So

0100000
+111 0 *
Ve
1e-07
-300 -335 1319.49996948242
0 0

0101101
*
Ve
1e-07
-300 -335 -1319.49996948242
0 0

0101101
*
Ed
 1e-07 1 1 0
1  109 0 0 2638.99993896484
0

0101000
-109 0 +108 0 *
Ve
1e-07
-300 335 1319.49996948242
0 0

0101101
*
Ed
 1e-07 1 1 0
1  110 0 0 670
0

0101000
-106 0 +109 0 *
Ve
1e-07
-300 335 -1319.49996948242
0 0

0101101
*
Ed
 1e-07 1 1 0
1  111 0 0 2638.99993896484
0

0101000
-106 0 +104 0 *
Ed
 1e-07 1 1 0
1  112 0 0 670
0

0101000
-104 0 +108 0 *
Wi

0101100
-107 0 -105 0 +103 0 +102 0 *
Fa
0  1e-07 53 0

0111000
+101 0 *
Ve
1e-07
300 -335 1319.49996948242
0 0

0101101
*
Ve
1e-07
300 -335 -1319.49996948242
0 0

0101101
*
Ed
 1e-07 1 1 0
1  113 0 0 2638.99993896484
0

0101000
-99 0 +98 0 *
Ve
1e-07
300 335 1319.49996948242
0 0

0101101
*
Ed
 1e-07 1 1 0
1  114 0 0 670
0

0101000
-96 0 +99 0 *
Ve
1e-07
300 335 -1319.49996948242
0 0

0101101
*
Ed
 1e-07 1 1 0
1  115 0 0 2638.99993896484
0

0101000
-96 0 +94 0 *
Ed
 1e-07 1 1 0
1  116 0 0 670
0

0101000
-94 0 +98 0 *
Wi

0101100
-97 0 -95 0 +93 0 +92 0 *
Fa
0  1e-07 54 0

0111000
+91 0 *
Ed
 1e-07 1 1 0
1  117 0 0 600
0

0101000
-98 0 +108 0 *
Ed
 1e-07 1 1 0
1  118 0 0 600
0

0101000
-99 0 +109 0 *
Wi

0101100
-89 0 -97 0 +88 0 +107 0 *
Fa
0  1e-07 55 0

0111000
+87 0 *
Ed
 1e-07 1 1 0
1  119 0 0 600
0

0101000
-94 0 +104 0 *
Ed
 1e-07 1 1 0
1  120 0 0 600
0

0101000
-96 0 +106 0 *
Wi

0101100
-85 0 -93 0 +84 0 +103 0 *
Fa
0  1e-07 56 0

0111000
+83 0 *
Wi

0101100
-102 0 -85 0 +92 0 +89 0 *
Fa
0  1e-07 57 0

0111000
+81 0 *
Wi

0101100
-105 0 -84 0 +95 0 +88 0 *
Fa
0  1e-07 58 0

0111000
+79 0 *
Sh

0101100
-100 0 +90 0 -86 0 +82 0 -80 0 +78 0 *
So

0100000
+77 0 *
Co

0100000
+76 52 *
Co

0100000
+110 50 +75 51 *
Ve
1e-07
-10 -385 1200
0 0

0101101
*
Ve
1e-07
-10 -385 -1200
0 0

0101101
*
Ed
 1e-07 1 1 0
1  121 0 0 2400
0

0101000
-73 0 +72 0 *
Ve
1e-07
-10 385 1200
0 0

0101101
*
Ed
 1e-07 1 1 0
1  122 0 0 770
0

0101000
-70 0 +73 0 *
Ve
1e-07
-10 385 -1200
0 0

0101101
*
Ed
 1e-07 1 1 0
1  123 0 0 2400
0

0101000
-70 0 +68 0 *
Ed
 1e-07 1 1 0
1  124 0 0 770
0

0101000
-68 0 +72 0 *
Wi

0101100
-71 0 -69 0 +67 0 +66 0 *
Fa
0  1e-07 59 0

0111000
+65 0 *
Ve
1e-07
10 -385 1200
0 0

0101101
*
Ve
1e-07
10 -385 -1200
0 0

0101101
*
Ed
 1e-07 1 1 0
1  125 0 0 2400
0

0101000
-63 0 +62 0 *
Ve
1e-07
10 385 1200
0 0

0101101
*
Ed
 1e-07 1 1 0
1  126 0 0 770
0

0101000
-60 0 +63 0 *
Ve
1e-07
10 385 -1200
0 0

0101101
*
Ed
 1e-07 1 1 0
1  127 0 0 2400
0

0101000
-60 0 +58 0 *
Ed
 1e-07 1 1 0
1  128 0 0 770
0

0101000
-58 0 +62 0 *
Wi

0101100
-61 0 -59 0 +57 0 +56 0 *
Fa
0  1e-07 60 0

0111000
+55 0 *
Ed
 1e-07 1 1 0
1  129 0 0 20
0

0101000
-62 0 +72 0 *
Ed
 1e-07 1 1 0
1  130 0 0 20
0

0101000
-63 0 +73 0 *
Wi

0101100
-53 0 -61 0 +52 0 +71 0 *
Fa
0  1e-07 61 0

0111000
+51 0 *
Ed
 1e-07 1 1 0
1  131 0 0 20
0

0101000
-58 0 +68 0 *
Ed
 1e-07 1 1 0
1  132 0 0 20
0

0101000
-60 0 +70 0 *
Wi

0101100
-49 0 -57 0 +48 0 +67 0 *
Fa
0  1e-07 62 0

0111000
+47 0 *
Wi

0101100
-66 0 -49 0 +56 0 +53 0 *
Fa
0  1e-07 63 0

0111000
+45 0 *
Wi

0101100
-69 0 -48 0 +59 0 +52 0 *
Fa
0  1e-07 64 0

0111000
+43 0 *
Sh

0101100
-64 0 +54 0 -50 0 +46 0 -44 0 +42 0 *
So

0100000
+41 0 *
Co

0100000
+40 54 *
Ve
1e-07
-350 -10 1200
0 0

0101101
*
Ve
1e-07
-350 -10 -1200
0 0

0101101
*
Ed
 1e-07 1 1 0
1  133 0 0 2400
0

0101000
-38 0 +37 0 *
Ve
1e-07
-350 10 1200
0 0

0101101
*
Ed
 1e-07 1 1 0
1  134 0 0 20
0

0101000
-35 0 +38 0 *
Ve
1e-07
-350 10 -1200
0 0

0101101
*
Ed
 1e-07 1 1 0
1  135 0 0 2400
0

0101000
-35 0 +33 0 *
Ed
 1e-07 1 1 0
1  136 0 0 20
0

0101000
-33 0 +37 0 *
Wi

0101100
-36 0 -34 0 +32 0 +31 0 *
Fa
0  1e-07 65 0

0111000
+30 0 *
Ve
1e-07
350 -10 1200
0 0

0101101
*
Ve
1e-07
350 -10 -1200
0 0

0101101
*
Ed
 1e-07 1 1 0
1  137 0 0 2400
0

0101000
-28 0 +27 0 *
Ve
1e-07
350 10 1200
0 0

0101101
*
Ed
 1e-07 1 1 0
1  138 0 0 20
0

0101000
-25 0 +28 0 *
Ve
1e-07
350 10 -1200
0 0

0101101
*
Ed
 1e-07 1 1 0
1  139 0 0 2400
0

0101000
-25 0 +23 0 *
Ed
 1e-07 1 1 0
1  140 0 0 20
0

0101000
-23 0 +27 0 *
Wi

0101100
-26 0 -24 0 +22 0 +21 0 *
Fa
0  1e-07 66 0

0111000
+20 0 *
Ed
 1e-07 1 1 0
1  141 0 0 700
0

0101000
-27 0 +37 0 *
Ed
 1e-07 1 1 0
1  142 0 0 700
0

0101000
-28 0 +38 0 *
Wi

0101100
-18 0 -26 0 +17 0 +36 0 *
Fa
0  1e-07 67 0

0111000
+16 0 *
Ed
 1e-07 1 1 0
1  143 0 0 700
0

0101000
-23 0 +33 0 *
Ed
 1e-07 1 1 0
1  144 0 0 700
0

0101000
-25 0 +35 0 *
Wi

0101100
-14 0 -22 0 +13 0 +32 0 *
Fa
0  1e-07 68 0

0111000
+12 0 *
Wi

0101100
-31 0 -14 0 +21 0 +18 0 *
Fa
0  1e-07 69 0

0111000
+10 0 *
Wi

0101100
-34 0 -13 0 +24 0 +17 0 *
Fa
0  1e-07 70 0

0111000
+8 0 *
Sh

0101100
-29 0 +19 0 -15 0 +11 0 -9 0 +7 0 *
So

0100000
+6 0 *
Co

0100000
+5 59 *
Co

0100000
+144 48 +74 49 +39 53 +39 57 +4 58 +4 62 *
Co

0100000
+336 2 +336 12 +336 15 +250 18 +214 23 +214 29 +214 32 +214 35 +178 36 +178 40 
+178 43 +178 46 +3 47 +3 65 +3 68 +3 71 *
Co

1100000
+2 1 *

+1 0 