DBRep_DrawableShape

CASCADE Topology V1, (c) Matra-Datavision
Locations 51
1
              1               0               0               0 
              0               1               0               0 
              0               0               1               0 
1
              1               0               0               0 
              0               1               0               0 
              0               0               1             -30 
1
              1               0               0               0 
              0               1               0               0 
              0               0               1               0 
1
0.933580426497202 -0.3583679495453               0               0 
0.3583679495453 0.933580426497202               0               0 
              0               0               1               0 
2  4 -1 0
1
              1               0               0               0 
              0               1               0               0 
              0               0               1               0 
1
              1               0               0               0 
              0               1               0               0 
              0               0               1               0 
1
0.933580426497202 -0.3583679495453               0               0 
0.3583679495453 0.933580426497202               0               0 
              0               0               1               0 
2  8 -1 0
1
              1               0               0               0 
              0               1               0            0.04 
              0               0               1             -30 
1
              1               0               0               0 
              0               1               0               0 
              0               0               1               0 
1
0.933580426497202 -0.3583679495453               0               0 
0.3583679495453 0.933580426497202               0               0 
              0               0               1               0 
2  12 -1 0
1
0.999975630705395 -0.00698126029796153               0               0 
0.00698126029796153 0.999975630705395               0               0 
              0               0               1               0 
2  12 -1 14 -1 0
1
              1               0               0               0 
              0               1               0               0 
              0               0               1               0 
1
0.997858923238604 -0.0654031292301429               0               0 
0.0654031292301429 0.997858923238604               0            0.04 
              0               0               1             -30 
2  16 1 17 1 0
1
              1               0               0               0 
              0               1               0               0 
              0               0               1               0 
1
0.99144486137381 -0.130526192220052               0               0 
0.130526192220052 0.99144486137381               0            0.04 
              0               0               1             -30 
2  19 1 20 1 0
1
              1               0               0               0 
              0               1               0               0 
              0               0               1               0 
1
0.98078528040323 -0.195090322016128               0               0 
0.195090322016128 0.98078528040323               0            0.04 
              0               0               1             -30 
2  22 1 23 1 0
1
              1               0               0               0 
              0               1               0               0 
              0               0               1               0 
1
0.965925826289068 -0.258819045102521               0               0 
0.258819045102521 0.965925826289068               0            0.04 
              0               0               1             -30 
2  25 1 26 1 0
1
              1               0               0               0 
              0               1               0               0 
              0               0               1               0 
1
0.946930129495106 -0.321439465303162               0               0 
0.321439465303162 0.946930129495106               0            0.04 
              0               0               1             -30 
2  28 1 29 1 0
1
              1               0               0               0 
              0               1               0               0 
              0               0               1               0 
1
0.923879532511287 -0.38268343236509               0               0 
0.38268343236509 0.923879532511287               0            0.04 
              0               0               1             -30 
2  31 1 32 1 0
1
              1               0               0               0 
              0               1               0               0 
              0               0               1               0 
1
0.896872741532688 -0.442288690219001               0               0 
0.442288690219001 0.896872741532688               0            0.04 
              0               0               1             -30 
2  34 1 35 1 0
1
              1               0               0               0 
              0               1               0               0 
              0               0               1               0 
1
0.866025403784439            -0.5               0               0 
            0.5 0.866025403784439               0            0.04 
              0               0               1             -30 
2  37 1 38 1 0
1
              1               0               0               0 
              0               1               0               0 
              0               0               1        -460.625 
1
              1               0               0               0 
              0               1               0               0 
              0               0               1               0 
1
0.933580426497202 -0.3583679495453               0               0 
0.3583679495453 0.933580426497202               0               0 
              0               0               1               0 
2  42 -1 0
1
              1               0               0               0 
              0               1               0               0 
              0               0               1         400.625 
1
              1               0               0               0 
              0               1               0               0 
              0               0               1               0 
1
0.933580426497202 -0.3583679495453               0               0 
0.3583679495453 0.933580426497202               0               0 
              0               0               1               0 
2  46 -1 0
1
              1               0               0               0 
              0               1               0               0 
              0               0               1        -400.625 
1
              1               0               0               0 
              0               1               0               0 
              0               0               1               0 
1
0.933580426497202 -0.3583679495453               0               0 
0.3583679495453 0.933580426497202               0               0 
              0               0               1               0 
2  50 -1 0
Curve2ds 48
1 0 830 1 0 
1 0.52359877559829882 -0 0 1 
1 0 0 1 0 
1 0 -0 0 1 
1 0 830 1 0 
1 0.89011791851710798 0 0 1 
1 0 0 1 0 
1 0.36651914291880922 0 0 1 
1 0 770 1 0 
1 0.52359877559829882 -0 0 1 
1 0 0 1 0 
1 0 -0 0 1 
1 0 770 1 0 
1 0.89011791851710798 0 0 1 
1 0 0 1 0 
1 0.36651914291880922 0 0 1 
1 0 916.52962990838432 1 0 
1 0.0069813170079772941 7544.4239632330027 0 -1 
1 0 0 1 0 
1 0 -0 0 1 
1 0 830.00000006024095 1 0 
7 0 0  4 5 2  0.0069813170079772932 0  0.0069813170079772932 207.50000001090865  0.0069813170079772949 415.00000001938486  0.0069813170079772932 622.50000004932929  0.0069813170079772932 830.00000006024095 
 0 5 1 5
1 0 0 1 0 
1 0 -0 0 1 
1 0 20 1 0 
1 0.52359877559829882 -0 0 1 
1 0 0 1 0 
1 0 -0 0 1 
1 0 20 1 0 
1 0.89011791851710798 0 0 1 
1 0 0 1 0 
1 0.36651914291880922 0 0 1 
1 0 31.25 1 0 
1 0.52359877559829882 -0 0 1 
1 0 0 1 0 
1 0 -0 0 1 
1 0 31.25 1 0 
1 0.89011791851710798 0 0 1 
1 0 0 1 0 
1 0.36651914291880922 0 0 1 
1 0 31.25 1 0 
1 0.52359877559829882 -0 0 1 
1 0 0 1 0 
1 0 -0 0 1 
1 0 31.25 1 0 
1 0.89011791851710798 0 0 1 
1 0 0 1 0 
1 0.36651914291880922 0 0 1 
Curves 72
2 0 0 415 0 0 1 1 0 0 0 1 0 2791.25
1 2417.2934083133146 1395.6249999999998 -415 0 0 1 
2 0 0 -415 0 0 1 1 0 0 0 1 0 2791.25
1 2791.25 0 -415 0 0 1 
1 0 0 415 1 0 0 
2 0 0 415 0 0 1 1 0 0 0 1 0 2760
1 0 0 415 0.86602540378443871 0.49999999999999994 0 
1 0 0 -415 0.86602540378443871 0.49999999999999994 0 
1 1736.9242792975515 2144.9228536212395 -415 0 0 1 
1 0 0 -415 1 0 0 
2 0 0 -415 0 0 1 1 0 0 0 1 0 2760
1 2576.6819771322766 989.09554074502876 -415 0 0 1 
2 0 0 385 0 0 1 1 0 0 0 1 0 2060
1 1784.0123317959437 1029.9999999999998 -385 0 0 1 
2 0 0 -385 0 0 1 1 0 0 0 1 0 2060
1 2060 0 -385 0 0 1 
1 0 0 385 1 0 0 
2 0 0 385 0 0 1 1 0 0 0 1 0 2028.75
1 0 0 385 0.86602540378443871 0.49999999999999994 0 
1 0 0 -385 0.86602540378443871 0.49999999999999994 0 
1 1276.7337433423579 1576.6348693058296 -385 0 0 1 
1 0 0 -385 1 0 0 
2 0 0 -385 0 0 1 1 0 0 0 1 0 2028.75
1 1894.001290256198 727.03897764002795 -385 0 0 1 
2 0 0 414.99999999999989 0 -0 1 0.93358042649720174 0.35836794954530027 0 -0.35836794954530027 0.93358042649720174 0 2811.25
1 0 0 6417.154340836013 0.39491134449492693 0.15476406357471328 -0.90558992629945456 
2 0 0 -415 0 -0 1 0.93358042649720174 0.35836794954530027 0 -0.35836794954530027 0.93358042649720174 0 3200
1 2987.4573647910461 1146.7774385449602 -415 -0.39598216899661537 -0.15200331319311661 0.90558992629945434 
1 2995.3905143647139 1125.8932748950463 415 -0.93605953573897327 -0.35184164840470206 0 
2 0 0 415 0 -0 1 0.93358042649720174 0.35836794954530027 0 -0.35836794954530027 0.93358042649720174 0 2791.25
1 2987.4573647910456 1146.7774385449611 415 -0.93358042649720174 -0.35836794954530032 0 
7 0 0  4 5 2  2598.8002354681239 1018.4586755145377 -414.9999999895482  2598.8025631076634 1018.4595877064984 -207.49999999369982  2598.804890747203 1018.4604998984591 4.5925503400212619e-09  2598.8072183867421 1018.4614120904199 207.49999998140038  2598.8095460262816 1018.4623242823806 414.99999997725183 
 0 5 1 5
1 0 0 -415 0.93358042649720174 0.35836794954530032 0 
1 0 0 -415 0.93605953573897327 0.35184164840470206 0 
2 0 0 -415 0 -0 1 0.93358042649720174 0.35836794954530027 0 -0.35836794954530027 0.93358042649720174 0 2791.2400000000002
1 2605.8470296560499 1000.2909554888233 -415 1.124795694466707e-05 4.3176861386845259e-06 0.9999999999274205 
2 0 0 10 0 0 1 1 0 0 0 1 0 3250
1 2814.5825622994257 1624.9999999999998 -10 0 0 1 
2 0 0 -10 0 0 1 1 0 0 0 1 0 3250
1 3250 0 -10 0 0 1 
1 0 0 10 1 0 0 
2 0 0 10 0 0 1 1 0 0 0 1 0 2760
1 0 0 10 0.86602540378443871 0.49999999999999994 0 
1 0 0 -10 0.86602540378443871 0.49999999999999994 0 
1 1736.9242792975515 2144.9228536212395 -10 0 0 1 
1 0 0 -10 1 0 0 
2 0 0 -10 0 0 1 1 0 0 0 1 0 2760
1 2576.6819771322766 989.09554074502876 -10 0 0 1 
2 0 0 15.625 0 0 1 1 0 0 0 1 0 2791.25
1 2417.2934083133146 1395.6249999999998 -15.625 0 0 1 
2 0 0 -15.625 0 0 1 1 0 0 0 1 0 2791.25
1 2791.25 0 -15.625 0 0 1 
1 0 0 15.625 1 0 0 
2 0 0 15.625 0 0 1 1 0 0 0 1 0 2028.75
1 0 0 15.625 0.86602540378443871 0.49999999999999994 0 
1 0 0 -15.625 0.86602540378443871 0.49999999999999994 0 
1 1276.7337433423579 1576.6348693058296 -15.625 0 0 1 
1 0 0 -15.625 1 0 0 
2 0 0 -15.625 0 0 1 1 0 0 0 1 0 2028.75
1 1894.001290256198 727.03897764002795 -15.625 0 0 1 
2 0 0 15.625 0 0 1 1 0 0 0 1 0 2760
1 2390.2301144450507 1379.9999999999998 -15.625 0 0 1 
2 0 0 -15.625 0 0 1 1 0 0 0 1 0 2760
1 2760 0 -15.625 0 0 1 
1 0 0 15.625 1 0 0 
2 0 0 15.625 0 0 1 1 0 0 0 1 0 2028.75
1 0 0 15.625 0.86602540378443871 0.49999999999999994 0 
1 0 0 -15.625 0.86602540378443871 0.49999999999999994 0 
1 1276.7337433423579 1576.6348693058296 -15.625 0 0 1 
1 0 0 -15.625 1 0 0 
2 0 0 -15.625 0 0 1 1 0 0 0 1 0 2028.75
1 1894.001290256198 727.03897764002795 -15.625 0 0 1 
Polygon3D 0
PolygonOnTriangulations 0
Surfaces 36
2 0 0 -415 0 0 1 1 0 0 0 1 0 2791.25
1 0 0 415 0 0 1 1 0 0 0 1 0 
2 0 0 -415 0 0 1 1 0 0 0 1 0 2760
1 0 0 -415 0.49999999999999994 -0.86602540378443871 0 0.86602540378443871 0.49999999999999994 0 0 0 1 
1 0 0 -415 0 0 1 1 0 0 0 1 0 
1 0 0 -415 0 -1 0 1 0 0 0 0 1 
2 0 0 -385 0 0 1 1 0 0 0 1 0 2060
1 0 0 385 0 0 1 1 0 0 0 1 0 
2 0 0 -385 0 0 1 1 0 0 0 1 0 2028.75
1 0 0 -385 0.49999999999999994 -0.86602540378443871 0 0.86602540378443871 0.49999999999999994 0 0 0 1 
1 0 0 -385 0 0 1 1 0 0 0 1 0 
1 0 0 -385 0 -1 0 1 0 0 0 0 1 
3 0 0 -415 0 0 1 0.93358042649720174 0.35836794954530027 0 -0.35836794954530027 0.93358042649720174 0 3200
-0.43802783451755584
1 0 0 414.99999999999989 0 0 1 0.93358042649720174 0.35836794954530027 0 -0.35836794954530027 0.93358042649720174 0 
3 0 0 -415 0 0 1 0.93358042649720174 0.35836794954530027 0 -0.35836794954530027 0.93358042649720174 0 2791.2400000000002
1.2048192770216469e-05
1 1493.7286823955228 573.38871927248056 0 0.35836794954530032 -0.93358042649720174 -0 0 0 -1 0.93358042649720174 0.35836794954530032 0 
1 0 0 -415 0 0 1 0.93358042649720174 0.35836794954530027 0 -0.35836794954530027 0.93358042649720174 0 
1 1497.695257182357 562.94663744752313 0 0.35184164840470206 -0.93605953573897327 -0 0 0 -1 0.93605953573897327 0.35184164840470206 0 
2 0 0 -10 0 0 1 1 0 0 0 1 0 3250
1 0 0 10 0 0 1 1 0 0 0 1 0 
2 0 0 -10 0 0 1 1 0 0 0 1 0 2760
1 0 0 -10 0.49999999999999994 -0.86602540378443871 0 0.86602540378443871 0.49999999999999994 0 0 0 1 
1 0 0 -10 0 0 1 1 0 0 0 1 0 
1 0 0 -10 0 -1 0 1 0 0 0 0 1 
2 0 0 -15.625 0 0 1 1 0 0 0 1 0 2791.25
1 0 0 15.625 0 0 1 1 0 0 0 1 0 
2 0 0 -15.625 0 0 1 1 0 0 0 1 0 2028.75
1 0 0 -15.625 0.49999999999999994 -0.86602540378443871 0 0.86602540378443871 0.49999999999999994 0 0 0 1 
1 0 0 -15.625 0 0 1 1 0 0 0 1 0 
1 0 0 -15.625 0 -1 0 1 0 0 0 0 1 
2 0 0 -15.625 0 0 1 1 0 0 0 1 0 2760
1 0 0 15.625 0 0 1 1 0 0 0 1 0 
2 0 0 -15.625 0 0 1 1 0 0 0 1 0 2028.75
1 0 0 -15.625 0.49999999999999994 -0.86602540378443871 0 0.86602540378443871 0.49999999999999994 0 0 0 1 
1 0 0 -15.625 0 0 1 1 0 0 0 1 0 
1 0 0 -15.625 0 -1 0 1 0 0 0 0 1 
Triangulations 0

TShapes 218
Ve
1e-07
1756.59054151786 2169.20866491677 415
0 0

0101101
*
Ve
1e-07
2605.85636546031 1000.29453916832 415
0 0

0101101
*
Ed
 1e-07 1 1 0
1  1 0 0 0.523598775598299
2  1 1 0 0 0.523598775598299
0

0101000
-218 5 +217 5 *
Ve
1e-07
1756.59054151786 2169.20866491677 -415
0 0

0101101
*
Ed
 1e-07 1 1 0
1  2 0 0 830
2  2 1 0 0 830
0

0101000
-218 5 +215 5 *
Ve
1e-07
2605.85636546031 1000.29453916832 -415
0 0

0101101
*
Ed
 1e-07 1 1 0
1  3 0 0 0.523598775598299
2  3 1 0 0 0.523598775598299
0

0101000
-215 5 +213 5 *
Ed
 1e-07 1 1 0
1  4 0 0 830
2  4 1 0 0 830
0

0101000
-217 5 +213 5 *
Wi

0101100
-216 0 +214 0 +212 0 -211 0 *
Fa
0  1e-07 1 0

0111000
+210 0 *
Ve
1.00058229417219e-07
2576.6819771323 989.095540744974 415
0 0

0101101
*
Ed
 1e-07 1 1 0
1  5 0 2760 2791.25
0

0101000
+208 5 -217 5 *
Ve
1.00043677056766e-07
1736.92427929759 2144.92285362121 415
0 0

0101101
*
Ed
 1e-07 1 1 0
1  6 0 0.366519142918788 0.890117918517092
2  5 3 0 0.366519142918788 0.890117918517092
0

0101000
+208 0 -206 0 *
Ed
 1e-07 1 1 0
1  7 0 2760 2791.25
0

0101000
+206 5 -218 5 *
Wi

0101100
+216 4 +207 4 -205 0 -204 4 *
Fa
0  1e-07 2 4

0111000
+203 0 *
Ve
1.00043677056766e-07
1736.92427929759 2144.92285362121 -415
0 0

0101101
*
Ed
 1e-07 1 1 0
1  8 0 2760 2791.25
0

0101000
+201 5 -215 5 *
Ed
 1e-07 1 1 0
1  9 0 0 830
2  6 3 0 0 830
0

0101000
+201 0 -206 0 *
Wi

0101100
-204 4 +214 4 +200 4 -199 0 *
Fa
0  1e-07 4 4

0111000
+198 0 *
Ve
1.00058229417219e-07
2576.6819771323 989.095540744974 -415
0 0

0101101
*
Ed
 1e-07 1 1 0
1  10 0 2760 2791.25
0

0101000
+196 5 -213 5 *
Ed
 1e-07 1 1 0
1  11 0 0.366519142918788 0.890117918517092
2  7 3 0 0.366519142918788 0.890117918517092
0

0101000
+196 0 -201 0 *
Wi

0101100
+212 4 +195 4 -194 0 -200 4 *
Fa
0  1e-07 5 4

0111000
+193 0 *
Ed
 1e-07 1 1 0
1  12 0 0 830
2  8 3 0 0 830
0

0101000
+196 0 -208 0 *
Wi

0101100
-191 0 -207 4 +211 4 +195 4 *
Fa
0  1e-07 6 4

0111000
+190 0 *
Wi

0101100
-205 0 +199 0 +194 0 -191 0 *
Fa
0  1e-07 3 0

0111000
+188 0 *
Sh

0101100
+209 4 +202 0 -197 0 -192 0 +189 0 -187 0 *
So

0100000
+186 0 *
Co

0100000
+185 0 *
Co

0100000
+184 3 *
Ve
1e-07
1296.40000556267 1600.92068060136 385
0 0

0101101
*
Ve
1e-07
1923.17567858424 738.237976063319 385
0 0

0101101
*
Ed
 1e-07 1 1 0
1  13 0 0 0.523598775598299
2  9 7 0 0 0.523598775598299
0

0101000
-182 9 +181 9 *
Ve
1e-07
1296.40000556267 1600.92068060136 -385
0 0

0101101
*
Ed
 1e-07 1 1 0
1  14 0 0 770
2  10 7 0 0 770
0

0101000
-182 9 +179 9 *
Ve
1e-07
1923.17567858424 738.237976063319 -385
0 0

0101101
*
Ed
 1e-07 1 1 0
1  15 0 0 0.523598775598299
2  11 7 0 0 0.523598775598299
0

0101000
-179 9 +177 9 *
Ed
 1e-07 1 1 0
1  16 0 0 770
2  12 7 0 0 770
0

0101000
-181 9 +177 9 *
Wi

0101100
-180 0 +178 0 +176 0 -175 0 *
Fa
0  1e-07 7 0

0111000
+174 0 *
Ve
1.00057111202733e-07
1894.00129025618 727.038977640081 385
0 0

0101101
*
Ed
 1e-07 1 1 0
1  17 0 2028.75 2060
0

0101000
+172 9 -181 9 *
Ve
1.00057848617664e-07
1276.7337433424 1576.63486930579 385
0 0

0101101
*
Ed
 1e-07 1 1 0
1  18 0 0.366519142918837 0.89011791851708
2  13 9 0 0.366519142918837 0.89011791851708
0

0101000
+172 0 -170 0 *
Ed
 1e-07 1 1 0
1  19 0 2028.75 2060
0

0101000
+170 9 -182 9 *
Wi

0101100
+180 8 +171 8 -169 0 -168 8 *
Fa
0  1e-07 8 8

0111000
+167 0 *
Ve
1.00057848617664e-07
1276.7337433424 1576.63486930579 -385
0 0

0101101
*
Ed
 1e-07 1 1 0
1  20 0 2028.75 2060
0

0101000
+165 9 -179 9 *
Ed
 1e-07 1 1 0
1  21 0 0 770
2  14 9 0 0 770
0

0101000
+165 0 -170 0 *
Wi

0101100
-168 8 +178 8 +164 8 -163 0 *
Fa
0  1e-07 10 8

0111000
+162 0 *
Ve
1.00057111202733e-07
1894.00129025618 727.038977640081 -385
0 0

0101101
*
Ed
 1e-07 1 1 0
1  22 0 2028.75 2060
0

0101000
+160 9 -177 9 *
Ed
 1e-07 1 1 0
1  23 0 0.366519142918837 0.89011791851708
2  15 9 0 0.366519142918837 0.89011791851708
0

0101000
+160 0 -165 0 *
Wi

0101100
+176 8 +159 8 -158 0 -164 8 *
Fa
0  1e-07 11 8

0111000
+157 0 *
Ed
 1e-07 1 1 0
1  24 0 0 770
2  16 9 0 0 770
0

0101000
+160 0 -172 0 *
Wi

0101100
-155 0 -171 8 +175 8 +159 8 *
Fa
0  1e-07 12 8

0111000
+154 0 *
Wi

0101100
-169 0 +163 0 +158 0 -155 0 *
Fa
0  1e-07 9 0

0111000
+152 0 *
Sh

0101100
+173 8 +166 0 -161 0 -156 0 +153 0 -151 0 *
So

0100000
+150 0 *
Co

0100000
+149 0 *
Co

0100000
+148 7 *
Ve
1.00001297079249e-07
2089.16589062333 1881.09341712634 415
0 0

0101101
*
Ve
1.00054447240176e-07
2075.98257633455 1895.6325870947 415
0 0

0101101
*
Ed
 1e-07 1 1 0
1  25 0 0 0.00698131700795796
2  17 13 0 0 0.00698131700795796
0

0101000
+146 13 -145 13 *
Ve
1.50001e-07
2363.05709000283 2157.76764026791 -415
0 0

0101101
*
Ed
 1e-07 1 1 0
1  26 0 6627.89433332462 7544.423963233
2  18 13 0 6627.89433332462 7544.423963233
0

0101000
+145 13 -143 13 *
Ve
1.0000245315279e-07
2378.06344152766 2141.21794034835 -415
0 0

0101101
*
Ed
 1e-07 1 1 0
1  27 0 0 0.00698131700797729
2  19 13 0 0 0.00698131700797729
0

0101000
+141 13 -143 13 *
Ed
 1.00001297079249e-07 1 1 0
1  28 0 0 916.529629908384
2  20 13 0 0 916.529629908384
0

0101000
+141 13 -146 13 *
Wi

0101100
-144 0 -142 0 +140 0 -139 0 *
Fa
0  1e-07 13 0

0111000
+138 0 *
Ve
1.00001142876034e-07
2074.30299411378 1867.71080499916 415
0 0

0101101
*
Ed
 1.00000113686838e-07 1 1 0
1  29 0 388.75 408.75
0

0101000
+146 15 -136 15 *
Ve
1.22748220046147e-07
2061.21346952196 1882.1465393431 415
0 0

0101101
*
Ed
 1.00000113686838e-07 1 1 0
1  30 0 0 0.00698131700799476
2  21 15 0 0 0.00698131700799476
0

0101000
+136 13 -134 13 *
Ed
 1.00000113686838e-07 1 1 0
1  31 0 388.75 408.75
0

0101000
+145 15 -134 15 *
Wi

0101100
-135 14 -133 0 +132 14 +144 0 *
Fa
0  1e-07 14 0

0111000
+131 0 *
Ve
1.10451913257455e-07
2061.20608496856 1882.13979631923 -415
0 0

0101101
*
Ed
 1e-07 1 1 0
1  32 0 0 1
2  22 15 0 0 1
0

0101000
+129 13 -134 13 *
Ed
 1e-07 1 1 0
1  33 0 2791.24 3200
0

0101000
+129 15 -143 15 *
Wi

0101100
-128 0 +132 14 -142 0 +127 14 *
Fa
0  1e-07 16 14

0111000
+126 0 *
Ve
1.00001143649434e-07
2074.29556266552 1867.7041136931 -415
0 0

0101101
*
Ed
 1e-07 1 1 0
1  34 0 2791.24 3200
0

0101000
+124 15 -141 15 *
Ed
 1e-07 1 1 0
1  35 0 0 0.00698131700799477
2  23 15 0 0 0.00698131700799477
0

0101000
+124 13 -129 13 *
Wi

0101100
+123 14 -122 0 -127 14 +140 0 *
Fa
0  1e-07 17 0

0111000
+121 0 *
Ed
 1.00001142876034e-07 1 1 0
1  36 0 0 830.000000060241
2  24 15 0 0 830.000000060241
0

0101000
-136 13 +124 13 *
Wi

0101100
-119 0 +135 14 +139 0 +123 14 *
Fa
0  1e-07 18 14

0111000
+118 0 *
Wi

0101100
-133 0 +128 0 +122 0 -119 0 *
Fa
0  1e-07 15 0

0111000
+116 0 *
Sh

0101100
+137 0 +130 0 -125 0 -120 0 +117 0 -115 0 *
So

0100000
+114 0 *
Co

0100000
+113 0 *
Co

0100000
+112 11 *
Ve
1e-07
2045.29127091197 2525.72437473515 10
0 0

0101101
*
Ve
1e-07
3034.13638611591 1164.69583602223 10
0 0

0101101
*
Ed
 1e-07 1 1 0
1  37 0 0 0.523598775598299
2  25 19 0 0 0.523598775598299
0

0101000
-110 43 +109 43 *
Ve
1e-07
2045.29127091197 2525.72437473515 -10
0 0

0101101
*
Ed
 1e-07 1 1 0
1  38 0 0 20
2  26 19 0 0 20
0

0101000
-110 43 +107 43 *
Ve
1e-07
3034.13638611591 1164.69583602223 -10
0 0

0101101
*
Ed
 1e-07 1 1 0
1  39 0 0 0.523598775598299
2  27 19 0 0 0.523598775598299
0

0101000
-107 43 +105 43 *
Ed
 1e-07 1 1 0
1  40 0 0 20
2  28 19 0 0 20
0

0101000
-109 43 +105 43 *
Wi

0101100
-108 0 +106 0 +104 0 -103 0 *
Fa
0  1e-07 19 0

0111000
+102 0 *
Ve
1.0005764225381e-07
2576.6819771323 989.095540744975 10
0 0

0101101
*
Ed
 1e-07 1 1 0
1  41 0 2760 3250
0

0101000
+100 43 -109 43 *
Ve
1.00079897181316e-07
1736.92427929761 2144.92285362119 10
0 0

0101101
*
Ed
 1e-07 1 1 0
1  42 0 0.366519142918788 0.890117918517079
2  29 21 0 0.366519142918788 0.890117918517079
0

0101000
+100 0 -98 0 *
Ed
 1e-07 1 1 0
1  43 0 2760 3250
0

0101000
+98 43 -110 43 *
Wi

0101100
+108 42 +99 42 -97 0 -96 42 *
Fa
0  1e-07 20 42

0111000
+95 0 *
Ve
1.00079897181316e-07
1736.92427929761 2144.92285362119 -10
0 0

0101101
*
Ed
 1e-07 1 1 0
1  44 0 2760 3250
0

0101000
+93 43 -107 43 *
Ed
 1e-07 1 1 0
1  45 0 0 20
2  30 21 0 0 20
0

0101000
+93 0 -98 0 *
Wi

0101100
-96 42 +106 42 +92 42 -91 0 *
Fa
0  1e-07 22 42

0111000
+90 0 *
Ve
1.0005764225381e-07
2576.6819771323 989.095540744975 -10
0 0

0101101
*
Ed
 1e-07 1 1 0
1  46 0 2760 3250
0

0101000
+88 43 -105 43 *
Ed
 1e-07 1 1 0
1  47 0 0.366519142918788 0.890117918517079
2  31 21 0 0.366519142918788 0.890117918517079
0

0101000
+88 0 -93 0 *
Wi

0101100
+104 42 +87 42 -86 0 -92 42 *
Fa
0  1e-07 23 42

0111000
+85 0 *
Ed
 1e-07 1 1 0
1  48 0 0 20
2  32 21 0 0 20
0

0101000
+88 0 -100 0 *
Wi

0101100
-83 0 -99 42 +103 42 +87 42 *
Fa
0  1e-07 24 42

0111000
+82 0 *
Wi

0101100
-97 0 +91 0 +86 0 -83 0 *
Fa
0  1e-07 21 0

0111000
+80 0 *
Sh

0101100
+101 42 +94 0 -89 0 -84 0 +81 0 -79 0 *
So

0100000
+78 0 *
Co

0100000
+77 0 *
Co

0100000
+76 41 *
Ve
1e-07
1756.59054151786 2169.20866491677 15.625
0 0

0101101
*
Ve
1e-07
2605.85636546031 1000.29453916832 15.625
0 0

0101101
*
Ed
 1e-07 1 1 0
1  49 0 0 0.523598775598299
2  33 25 0 0 0.523598775598299
0

0101000
-74 47 +73 47 *
Ve
1e-07
1756.59054151786 2169.20866491677 -15.625
0 0

0101101
*
Ed
 1e-07 1 1 0
1  50 0 0 31.25
2  34 25 0 0 31.25
0

0101000
-74 47 +71 47 *
Ve
1e-07
2605.85636546031 1000.29453916832 -15.625
0 0

0101101
*
Ed
 1e-07 1 1 0
1  51 0 0 0.523598775598299
2  35 25 0 0 0.523598775598299
0

0101000
-71 47 +69 47 *
Ed
 1e-07 1 1 0
1  52 0 0 31.25
2  36 25 0 0 31.25
0

0101000
-73 47 +69 47 *
Wi

0101100
-72 0 +70 0 +68 0 -67 0 *
Fa
0  1e-07 25 0

0111000
+66 0 *
Ve
1.00048434862609e-07
1894.00129025622 727.038977639983 15.625
0 0

0101101
*
Ed
 1e-07 1 1 0
1  53 0 2028.75 2791.25
0

0101000
+64 47 -73 47 *
Ve
1.00023117317632e-07
1276.73374334234 1576.63486930584 15.625
0 0

0101101
*
Ed
 1e-07 1 1 0
1  54 0 0.366519142918785 0.890117918517119
2  37 27 0 0.366519142918785 0.890117918517119
0

0101000
+64 0 -62 0 *
Ed
 1e-07 1 1 0
1  55 0 2028.75 2791.25
0

0101000
+62 47 -74 47 *
Wi

0101100
+72 46 +63 46 -61 0 -60 46 *
Fa
0  1e-07 26 46

0111000
+59 0 *
Ve
1.00023117317632e-07
1276.73374334234 1576.63486930584 -15.625
0 0

0101101
*
Ed
 1e-07 1 1 0
1  56 0 2028.75 2791.25
0

0101000
+57 47 -71 47 *
Ed
 1e-07 1 1 0
1  57 0 0 31.25
2  38 27 0 0 31.25
0

0101000
+57 0 -62 0 *
Wi

0101100
-60 46 +70 46 +56 46 -55 0 *
Fa
0  1e-07 28 46

0111000
+54 0 *
Ve
1.00048434862609e-07
1894.00129025622 727.038977639983 -15.625
0 0

0101101
*
Ed
 1e-07 1 1 0
1  58 0 2028.75 2791.25
0

0101000
+52 47 -69 47 *
Ed
 1e-07 1 1 0
1  59 0 0.366519142918785 0.890117918517119
2  39 27 0 0.366519142918785 0.890117918517119
0

0101000
+52 0 -57 0 *
Wi

0101100
+68 46 +51 46 -50 0 -56 46 *
Fa
0  1e-07 29 46

0111000
+49 0 *
Ed
 1e-07 1 1 0
1  60 0 0 31.25
2  40 27 0 0 31.25
0

0101000
+52 0 -64 0 *
Wi

0101100
-47 0 -63 46 +67 46 +51 46 *
Fa
0  1e-07 30 46

0111000
+46 0 *
Wi

0101100
-61 0 +55 0 +50 0 -47 0 *
Fa
0  1e-07 27 0

0111000
+44 0 *
Sh

0101100
+65 46 +58 0 -53 0 -48 0 +45 0 -43 0 *
So

0100000
+42 0 *
Co

0100000
+41 0 *
Co

0100000
+40 45 *
Ve
1e-07
1736.92427929755 2144.92285362124 15.625
0 0

0101101
*
Ve
1e-07
2576.68197713228 989.095540745029 15.625
0 0

0101101
*
Ed
 1e-07 1 1 0
1  61 0 0 0.523598775598299
2  41 31 0 0 0.523598775598299
0

0101000
-38 51 +37 51 *
Ve
1e-07
1736.92427929755 2144.92285362124 -15.625
0 0

0101101
*
Ed
 1e-07 1 1 0
1  62 0 0 31.25
2  42 31 0 0 31.25
0

0101000
-38 51 +35 51 *
Ve
1e-07
2576.68197713228 989.095540745029 -15.625
0 0

0101101
*
Ed
 1e-07 1 1 0
1  63 0 0 0.523598775598299
2  43 31 0 0 0.523598775598299
0

0101000
-35 51 +33 51 *
Ed
 1e-07 1 1 0
1  64 0 0 31.25
2  44 31 0 0 31.25
0

0101000
-37 51 +33 51 *
Wi

0101100
-36 0 +34 0 +32 0 -31 0 *
Fa
0  1e-07 31 0

0111000
+30 0 *
Ve
1.00048434862609e-07
1894.00129025622 727.038977639983 15.625
0 0

0101101
*
Ed
 1e-07 1 1 0
1  65 0 2028.75 2760
0

0101000
+28 51 -37 51 *
Ve
1.00023117317632e-07
1276.73374334234 1576.63486930584 15.625
0 0

0101101
*
Ed
 1e-07 1 1 0
1  66 0 0.366519142918785 0.890117918517119
2  45 33 0 0.366519142918785 0.890117918517119
0

0101000
+28 0 -26 0 *
Ed
 1e-07 1 1 0
1  67 0 2028.75 2760
0

0101000
+26 51 -38 51 *
Wi

0101100
+36 50 +27 50 -25 0 -24 50 *
Fa
0  1e-07 32 50

0111000
+23 0 *
Ve
1.00023117317632e-07
1276.73374334234 1576.63486930584 -15.625
0 0

0101101
*
Ed
 1e-07 1 1 0
1  68 0 2028.75 2760
0

0101000
+21 51 -35 51 *
Ed
 1e-07 1 1 0
1  69 0 0 31.25
2  46 33 0 0 31.25
0

0101000
+21 0 -26 0 *
Wi

0101100
-24 50 +34 50 +20 50 -19 0 *
Fa
0  1e-07 34 50

0111000
+18 0 *
Ve
1.00048434862609e-07
1894.00129025622 727.038977639983 -15.625
0 0

0101101
*
Ed
 1e-07 1 1 0
1  70 0 2028.75 2760
0

0101000
+16 51 -33 51 *
Ed
 1e-07 1 1 0
1  71 0 0.366519142918785 0.890117918517119
2  47 33 0 0.366519142918785 0.890117918517119
0

0101000
+16 0 -21 0 *
Wi

0101100
+32 50 +15 50 -14 0 -20 50 *
Fa
0  1e-07 35 50

0111000
+13 0 *
Ed
 1e-07 1 1 0
1  72 0 0 31.25
2  48 33 0 0 31.25
0

0101000
+16 0 -28 0 *
Wi

0101100
-11 0 -27 50 +31 50 +15 50 *
Fa
0  1e-07 36 50

0111000
+10 0 *
Wi

0101100
-25 0 +19 0 +14 0 -11 0 *
Fa
0  1e-07 33 0

0111000
+8 0 *
Sh

0101100
+29 50 +22 0 -17 0 -12 0 +9 0 -7 0 *
So

0100000
+6 0 *
Co

0100000
+5 0 *
Co

0100000
+4 49 *
Co

0100000
+183 2 +147 6 +111 10 +111 18 +111 21 +111 24 +111 27 +111 30 +111 33 +111 36 
+111 39 +75 40 +39 44 +3 48 *
Co

1100000
+2 1 *

+1 0 