DBRep_DrawableShape

CASCADE Topology V1, (c) Matra-Datavision
Locations 10
1
              1               0               0               0 
              0               1               0               0 
              0               0               1               0 
1
              1               0               0               0 
              0               1               0               0 
              0               0               1               0 
1
              1               0               0               0 
              0               1               0               0 
              0               0               1               0 
2  2 1 3 1 0
1
0.484809620246337 0.874619707139396               0               0 
-0.874619707139396 0.484809620246337               0               0 
              0               0               1               0 
2  5 -1 0
1
              1               0               0               0 
              0               1               0               0 
              0               0               1               0 
1
              1               0               0               0 
              0               1               0               0 
              0               0               1               0 
1
0.484809620246337 0.874619707139396               0               0 
-0.874619707139396 0.484809620246337               0               0 
              0               0               1               0 
2  9 -1 0
Curve2ds 24
1 0 770 1 0 
1 2.1293016874330819 -0 0 1 
1 0 0 1 0 
1 0 -0 0 1 
1 0 770 1 0 
1 0 770 1 0 
1 1.0646508437165412 0 0 1 
1 0 0 1 0 
1 0 0 1 0 
1 5.2185344634630457 0 0 1 
1 6.2831853071795862 -0 0 1 
1 0 -0 0 1 
1 0 770 1 0 
1 2.1293016874330819 -0 0 1 
1 0 0 1 0 
1 0 -0 0 1 
1 0 770 1 0 
1 0 770 1 0 
1 1.0646508437165412 0 0 1 
1 0 0 1 0 
1 0 0 1 0 
1 5.2185344634630457 0 0 1 
1 6.2831853071795862 -0 0 1 
1 0 -0 0 1 
Curves 30
2 0 0 385 0 0 1 1 0 0 0 1 0 2760
1 -1462.5771692836449 2340.6127453917361 -385 0 0 1 
2 0 0 -385 0 0 1 1 0 0 0 1 0 2760
1 2760 0 -385 0 0 1 
1 0 0 385 1 0 0 
2 0 0 385 0 0 1 1 0 0 0 1 0 2060
2 0 0 385 0 0 1 1 0 0 0 1 0 2060
1 0 0 385 -0.52991926423320468 0.84804809615642607 0 
1 0 0 -385 -0.52991926423320468 0.84804809615642607 0 
1 998.70781770745418 1801.7165967071555 -385 0 0 1 
1 0 0 -385 1 0 0 
2 0 0 -385 0 0 1 1 0 0 0 1 0 2060
2 0 0 -385 0 0 1 1 0 0 0 1 0 2060
1 998.70781770745464 -1801.7165967071551 -385 0 0 1 
1 2060 -5.0455448124870952e-13 -385 0 0 1 
2 0 0 385 0 0 1 1 0 0 0 1 0 2710
1 -1436.0812060719848 2298.2103405839148 -385 0 0 1 
2 0 0 -385 0 0 1 1 0 0 0 1 0 2710
1 2710 0 -385 0 0 1 
1 0 0 385 1 0 0 
2 0 0 385 0 0 1 1 0 0 0 1 0 2110
2 0 0 385 0 0 1 1 0 0 0 1 0 2110
1 0 0 385 -0.52991926423320468 0.84804809615642607 0 
1 0 0 -385 -0.52991926423320468 0.84804809615642607 0 
1 1022.9482987197711 1845.4475820641253 -385 0 0 1 
1 0 0 -385 1 0 0 
2 0 0 -385 0 0 1 1 0 0 0 1 0 2110
2 0 0 -385 0 0 1 1 0 0 0 1 0 2110
1 1022.9482987197715 -1845.4475820641248 -385 0 0 1 
1 2110 -5.1680094924018303e-13 -385 0 0 1 
Polygon3D 0
PolygonOnTriangulations 0
Surfaces 14
2 0 0 -385 0 0 1 1 0 0 0 1 0 2760
1 0 0 385 0 0 1 1 0 0 0 1 0 
2 0 0 -385 0 0 1 1 0 0 0 1 0 2060
2 0 0 -385 0 0 1 1 0 0 0 1 0 2060
1 0 0 -385 0.84804809615642607 0.52991926423320468 0 -0.52991926423320468 0.84804809615642607 0 0 0 1 
1 0 0 -385 0 0 1 1 0 0 0 1 0 
1 0 0 -385 0 -1 0 1 0 0 0 0 1 
2 0 0 -385 0 0 1 1 0 0 0 1 0 2710
1 0 0 385 0 0 1 1 0 0 0 1 0 
2 0 0 -385 0 0 1 1 0 0 0 1 0 2110
2 0 0 -385 0 0 1 1 0 0 0 1 0 2110
1 0 0 -385 0.84804809615642607 0.52991926423320468 0 -0.52991926423320468 0.84804809615642607 0 0 0 1 
1 0 0 -385 0 0 1 1 0 0 0 1 0 
1 0 0 -385 0 -1 0 1 0 0 0 0 1 
Triangulations 0

TShapes 87
Ve
1e-07
1338.07455187989 2413.95039170473 385
0 0

0101101
*
Ve
1e-07
1338.07455187989 -2413.95039170473 385
0 0

0101101
*
Ed
 1e-07 1 1 0
1  1 0 0 2.12930168743308
2  1 1 0 0 2.12930168743308
0

0101000
-87 6 +86 6 *
Ve
1e-07
1338.07455187989 2413.95039170473 -385
0 0

0101101
*
Ed
 1e-07 1 1 0
1  2 0 0 770
2  2 1 0 0 770
0

0101000
-87 6 +84 6 *
Ve
1e-07
1338.07455187989 -2413.95039170473 -385
0 0

0101101
*
Ed
 1e-07 1 1 0
1  3 0 0 2.12930168743308
2  3 1 0 0 2.12930168743308
0

0101000
-84 6 +82 6 *
Ed
 1e-07 1 1 0
1  4 0 0 770
2  4 1 0 0 770
0

0101000
-86 6 +82 6 *
Wi

0101100
-85 0 +83 0 +81 0 -80 0 *
Fa
0  1e-07 1 0

0111000
+79 0 *
Ve
1.00008364292274e-07
998.707817707462 -1801.71659670715 385
0 0

0101101
*
Ed
 1e-07 1 1 0
1  5 0 2060 2760
0

0101000
+77 6 -86 6 *
Ve
1e-07
2060 -5.0455448124871e-13 385
0 0

0101101
*
Ed
 1e-07 1 1 0
1  6 0 5.21853446346305 6.28318530717959
2  5 3 0 5.21853446346305 6.28318530717959
0

0101000
+77 0 -75 0 *
Ve
1.00009067193506e-07
998.707817707462 1801.71659670715 385
0 0

0101101
*
Ed
 1e-07 1 1 0
1  7 0 0 1.06465084371654
2  6 4 0 0 1.06465084371654
0

0101000
+75 0 -73 0 *
Ed
 1e-07 1 1 0
1  8 0 2060 2760
0

0101000
+73 6 -87 6 *
Wi

0101100
+85 5 +76 5 -74 0 -72 0 -71 5 *
Fa
0  1e-07 2 5

0111000
+70 0 *
Ve
1.00009067193506e-07
998.707817707462 1801.71659670715 -385
0 0

0101101
*
Ed
 1e-07 1 1 0
1  9 0 2060 2760
0

0101000
+68 6 -84 6 *
Ed
 1e-07 1 1 0
1  10 0 0 770
2  7 4 0 0 770
0

0101000
+68 0 -73 0 *
Wi

0101100
-71 5 +83 5 +67 5 -66 0 *
Fa
0  1e-07 5 5

0111000
+65 0 *
Ve
1.00008364292274e-07
998.707817707462 -1801.71659670715 -385
0 0

0101101
*
Ed
 1e-07 1 1 0
1  11 0 2060 2760
0

0101000
+63 6 -82 6 *
Ve
1e-07
2060 -5.0455448124871e-13 -385
0 0

0101101
*
Ed
 1e-07 1 1 0
1  12 0 5.21853446346305 6.28318530717959
2  8 3 0 5.21853446346305 6.28318530717959
0

0101000
+63 0 -61 0 *
Ed
 1e-07 1 1 0
1  13 0 0 1.06465084371654
2  9 4 0 0 1.06465084371654
0

0101000
+61 0 -68 0 *
Wi

0101100
+81 5 +62 5 -60 0 -59 0 -67 5 *
Fa
0  1e-07 6 5

0111000
+58 0 *
Ed
 1e-07 1 1 0
1  14 0 0 770
2  10 3 0 0 770
0

0101000
+63 0 -77 0 *
Wi

0101100
-56 0 -76 5 +80 5 +62 5 *
Fa
0  1e-07 7 5

0111000
+55 0 *
Ed
 1e-07 1 1 0
1  15 0 0 770
2  11 3 0 0 770
2  12 4 0 0 770
4 CN 3 0 4 0
0

0101000
-75 0 +61 0 *
Wi

0101100
+53 0 +60 0 -56 0 -74 0 *
Fa
0  1e-07 3 0

0111000
+52 0 *
Wi

0101100
-72 0 +66 0 +59 0 -53 0 *
Fa
0  1e-07 4 0

0111000
+50 0 *
Sh

0101100
+78 5 +69 0 -64 0 -57 0 +54 0 -51 0 -49 0 *
So

0100000
+48 0 *
Co

0100000
+47 0 *
Ve
1e-07
1313.83407086757 2370.21940634776 385
0 0

0101101
*
Ve
1e-07
1313.83407086757 -2370.21940634776 385
0 0

0101101
*
Ed
 1e-07 1 1 0
1  16 0 0 2.12930168743308
2  13 8 0 0 2.12930168743308
0

0101000
-45 10 +44 10 *
Ve
1e-07
1313.83407086757 2370.21940634776 -385
0 0

0101101
*
Ed
 1e-07 1 1 0
1  17 0 0 770
2  14 8 0 0 770
0

0101000
-45 10 +42 10 *
Ve
1e-07
1313.83407086757 -2370.21940634776 -385
0 0

0101101
*
Ed
 1e-07 1 1 0
1  18 0 0 2.12930168743308
2  15 8 0 0 2.12930168743308
0

0101000
-42 10 +40 10 *
Ed
 1e-07 1 1 0
1  19 0 0 770
2  16 8 0 0 770
0

0101000
-44 10 +40 10 *
Wi

0101100
-43 0 +41 0 +39 0 -38 0 *
Fa
0  1e-07 8 0

0111000
+37 0 *
Ve
1.00031856869569e-07
1022.94829871974 -1845.44758206414 385
0 0

0101101
*
Ed
 1e-07 1 1 0
1  20 0 2110 2710
0

0101000
+35 10 -44 10 *
Ve
1e-07
2110 -5.16800949240183e-13 385
0 0

0101101
*
Ed
 1e-07 1 1 0
1  21 0 5.21853446346303 6.28318530717959
2  17 10 0 5.21853446346303 6.28318530717959
0

0101000
+35 0 -33 0 *
Ve
1.00033082674438e-07
1022.94829871974 1845.44758206414 385
0 0

0101101
*
Ed
 1e-07 1 1 0
1  22 0 0 1.06465084371656
2  18 11 0 0 1.06465084371656
0

0101000
+33 0 -31 0 *
Ed
 1e-07 1 1 0
1  23 0 2110 2710
0

0101000
+31 10 -45 10 *
Wi

0101100
+43 9 +34 9 -32 0 -30 0 -29 9 *
Fa
0  1e-07 9 9

0111000
+28 0 *
Ve
1.00033082674438e-07
1022.94829871974 1845.44758206414 -385
0 0

0101101
*
Ed
 1e-07 1 1 0
1  24 0 2110 2710
0

0101000
+26 10 -42 10 *
Ed
 1e-07 1 1 0
1  25 0 0 770
2  19 11 0 0 770
0

0101000
+26 0 -31 0 *
Wi

0101100
-29 9 +41 9 +25 9 -24 0 *
Fa
0  1e-07 12 9

0111000
+23 0 *
Ve
1.00031856869569e-07
1022.94829871974 -1845.44758206414 -385
0 0

0101101
*
Ed
 1e-07 1 1 0
1  26 0 2110 2710
0

0101000
+21 10 -40 10 *
Ve
1e-07
2110 -5.16800949240183e-13 -385
0 0

0101101
*
Ed
 1e-07 1 1 0
1  27 0 5.21853446346303 6.28318530717959
2  20 10 0 5.21853446346303 6.28318530717959
0

0101000
+21 0 -19 0 *
Ed
 1e-07 1 1 0
1  28 0 0 1.06465084371656
2  21 11 0 0 1.06465084371656
0

0101000
+19 0 -26 0 *
Wi

0101100
+39 9 +20 9 -18 0 -17 0 -25 9 *
Fa
0  1e-07 13 9

0111000
+16 0 *
Ed
 1e-07 1 1 0
1  29 0 0 770
2  22 10 0 0 770
0

0101000
+21 0 -35 0 *
Wi

0101100
-14 0 -34 9 +38 9 +20 9 *
Fa
0  1e-07 14 9

0111000
+13 0 *
Ed
 1e-07 1 1 0
1  30 0 0 770
2  23 10 0 0 770
2  24 11 0 0 770
4 CN 10 0 11 0
0

0101000
-33 0 +19 0 *
Wi

0101100
+11 0 +18 0 -14 0 -32 0 *
Fa
0  1e-07 10 0

0111000
+10 0 *
Wi

0101100
-30 0 +24 0 +17 0 -11 0 *
Fa
0  1e-07 11 0

0111000
+8 0 *
Sh

0101100
+36 9 +27 0 -22 0 -15 0 +12 0 -9 0 -7 0 *
So

0100000
+6 0 *
Co

0100000
+5 0 *
Co

0100000
+4 8 *
Co

0100000
+46 4 +3 7 *
Co

1100000
+2 1 *

+1 0 