DBRep_DrawableShape

CASCADE Topology V1, (c) Matra-Datavision
Locations 15
1
              1               0               0               0 
              0               1               0               0 
              0               0               1               0 
1
              1               0               0               0 
              0               1               0               0 
              0               0               1 -1326.00002288818 
1
              1               0               0               0 
              0               1               0               0 
              0               0               1               0 
1
              1               0               0               0 
              0               1               0               0 
              0               0               1 -884.000015258789 
1
              1               0               0               0 
              0               1               0               0 
              0               0               1               0 
1
              1               0               0               0 
              0               1               0               0 
              0               0               1 -442.000007629395 
1
              1               0               0               0 
              0               1               0               0 
              0               0               1               0 
1
              1               0               0               0 
              0               1               0               0 
              0               0               1               0 
1
              1               0               0               0 
              0               1               0               0 
              0               0               1               0 
1
              1               0               0               0 
              0               1               0               0 
              0               0               1 442.000007629395 
1
              1               0               0               0 
              0               1               0               0 
              0               0               1               0 
1
              1               0               0               0 
              0               1               0               0 
              0               0               1 884.000015258789 
1
              1               0               0               0 
              0               1               0               0 
              0               0               1               0 
1
              1               0               0               0 
              0               1               0               0 
              0               0               1 1326.00002288818 
1
              1               0               0               0 
              0               1               0               0 
              0               0               1               0 
Curve2ds 0
Curves 84
1 -2942.5 -727.24998474121094 -221.00000381469727 0 0 1 
1 -2942.5 -727.24998474121094 221.00000381469727 0 1 0 
1 -2942.5 727.24998474121094 -221.00000381469727 0 0 1 
1 -2942.5 -727.24998474121094 -221.00000381469727 0 1 0 
1 2942.5 -727.24998474121094 -221.00000381469727 0 0 1 
1 2942.5 -727.24998474121094 221.00000381469727 0 1 0 
1 2942.5 727.24998474121094 -221.00000381469727 0 0 1 
1 2942.5 -727.24998474121094 -221.00000381469727 0 1 0 
1 -2942.5 -727.24998474121094 -221.00000381469727 1 0 0 
1 -2942.5 -727.24998474121094 221.00000381469727 1 0 0 
1 -2942.5 727.24998474121094 -221.00000381469727 1 0 0 
1 -2942.5 727.24998474121094 221.00000381469727 1 0 0 
1 -3023.9999389648438 -727.24998474121094 -221.00000381469727 0 0 1 
1 -3023.9999389648438 -727.24998474121094 221.00000381469727 0 1 0 
1 -3023.9999389648438 727.24998474121094 -221.00000381469727 0 0 1 
1 -3023.9999389648438 -727.24998474121094 -221.00000381469727 0 1 0 
1 3023.9999389648438 -727.24998474121094 -221.00000381469727 0 0 1 
1 3023.9999389648438 -727.24998474121094 221.00000381469727 0 1 0 
1 3023.9999389648438 727.24998474121094 -221.00000381469727 0 0 1 
1 3023.9999389648438 -727.24998474121094 -221.00000381469727 0 1 0 
1 -3023.9999389648438 -727.24998474121094 -221.00000381469727 1 0 0 
1 -3023.9999389648438 -727.24998474121094 221.00000381469727 1 0 0 
1 -3023.9999389648438 727.24998474121094 -221.00000381469727 1 0 0 
1 -3023.9999389648438 727.24998474121094 221.00000381469727 1 0 0 
1 -3105.4998779296875 -727.24998474121094 -221.00000381469727 0 0 1 
1 -3105.4998779296875 -727.24998474121094 221.00000381469727 0 1 0 
1 -3105.4998779296875 727.24998474121094 -221.00000381469727 0 0 1 
1 -3105.4998779296875 -727.24998474121094 -221.00000381469727 0 1 0 
1 3105.4998779296875 -727.24998474121094 -221.00000381469727 0 0 1 
1 3105.4998779296875 -727.24998474121094 221.00000381469727 0 1 0 
1 3105.4998779296875 727.24998474121094 -221.00000381469727 0 0 1 
1 3105.4998779296875 -727.24998474121094 -221.00000381469727 0 1 0 
1 -3105.4998779296875 -727.24998474121094 -221.00000381469727 1 0 0 
1 -3105.4998779296875 -727.24998474121094 221.00000381469727 1 0 0 
1 -3105.4998779296875 727.24998474121094 -221.00000381469727 1 0 0 
1 -3105.4998779296875 727.24998474121094 221.00000381469727 1 0 0 
1 -3186.9998168945312 -727.24998474121094 -221.00000381469727 0 0 1 
1 -3186.9998168945312 -727.24998474121094 221.00000381469727 0 1 0 
1 -3186.9998168945312 727.24998474121094 -221.00000381469727 0 0 1 
1 -3186.9998168945312 -727.24998474121094 -221.00000381469727 0 1 0 
1 3186.9998168945312 -727.24998474121094 -221.00000381469727 0 0 1 
1 3186.9998168945312 -727.24998474121094 221.00000381469727 0 1 0 
1 3186.9998168945312 727.24998474121094 -221.00000381469727 0 0 1 
1 3186.9998168945312 -727.24998474121094 -221.00000381469727 0 1 0 
1 -3186.9998168945312 -727.24998474121094 -221.00000381469727 1 0 0 
1 -3186.9998168945312 -727.24998474121094 221.00000381469727 1 0 0 
1 -3186.9998168945312 727.24998474121094 -221.00000381469727 1 0 0 
1 -3186.9998168945312 727.24998474121094 221.00000381469727 1 0 0 
1 -3268.499755859375 -727.24998474121094 -221.00000381469727 0 0 1 
1 -3268.499755859375 -727.24998474121094 221.00000381469727 0 1 0 
1 -3268.499755859375 727.24998474121094 -221.00000381469727 0 0 1 
1 -3268.499755859375 -727.24998474121094 -221.00000381469727 0 1 0 
1 3268.499755859375 -727.24998474121094 -221.00000381469727 0 0 1 
1 3268.499755859375 -727.24998474121094 221.00000381469727 0 1 0 
1 3268.499755859375 727.24998474121094 -221.00000381469727 0 0 1 
1 3268.499755859375 -727.24998474121094 -221.00000381469727 0 1 0 
1 -3268.499755859375 -727.24998474121094 -221.00000381469727 1 0 0 
1 -3268.499755859375 -727.24998474121094 221.00000381469727 1 0 0 
1 -3268.499755859375 727.24998474121094 -221.00000381469727 1 0 0 
1 -3268.499755859375 727.24998474121094 221.00000381469727 1 0 0 
1 -3349.9996948242188 -727.24998474121094 -221.00000381469727 0 0 1 
1 -3349.9996948242188 -727.24998474121094 221.00000381469727 0 1 0 
1 -3349.9996948242188 727.24998474121094 -221.00000381469727 0 0 1 
1 -3349.9996948242188 -727.24998474121094 -221.00000381469727 0 1 0 
1 3349.9996948242188 -727.24998474121094 -221.00000381469727 0 0 1 
1 3349.9996948242188 -727.24998474121094 221.00000381469727 0 1 0 
1 3349.9996948242188 727.24998474121094 -221.00000381469727 0 0 1 
1 3349.9996948242188 -727.24998474121094 -221.00000381469727 0 1 0 
1 -3349.9996948242188 -727.24998474121094 -221.00000381469727 1 0 0 
1 -3349.9996948242188 -727.24998474121094 221.00000381469727 1 0 0 
1 -3349.9996948242188 727.24998474121094 -221.00000381469727 1 0 0 
1 -3349.9996948242188 727.24998474121094 221.00000381469727 1 0 0 
1 -3431.4996337890625 -727.24998474121094 -221.00000381469727 0 0 1 
1 -3431.4996337890625 -727.24998474121094 221.00000381469727 0 1 0 
1 -3431.4996337890625 727.24998474121094 -221.00000381469727 0 0 1 
1 -3431.4996337890625 -727.24998474121094 -221.00000381469727 0 1 0 
1 3431.4996337890625 -727.24998474121094 -221.00000381469727 0 0 1 
1 3431.4996337890625 -727.24998474121094 221.00000381469727 0 1 0 
1 3431.4996337890625 727.24998474121094 -221.00000381469727 0 0 1 
1 3431.4996337890625 -727.24998474121094 -221.00000381469727 0 1 0 
1 -3431.4996337890625 -727.24998474121094 -221.00000381469727 1 0 0 
1 -3431.4996337890625 -727.24998474121094 221.00000381469727 1 0 0 
1 -3431.4996337890625 727.24998474121094 -221.00000381469727 1 0 0 
1 -3431.4996337890625 727.24998474121094 221.00000381469727 1 0 0 
Polygon3D 0
PolygonOnTriangulations 0
Surfaces 42
1 -2942.5 -727.24998474121094 -221.00000381469727 1 0 0 0 0 1 0 -1 0 
1 2942.5 -727.24998474121094 -221.00000381469727 1 0 0 0 0 1 0 -1 0 
1 -2942.5 -727.24998474121094 -221.00000381469727 0 1 0 0 0 1 1 0 0 
1 -2942.5 727.24998474121094 -221.00000381469727 0 1 0 0 0 1 1 0 0 
1 -2942.5 -727.24998474121094 -221.00000381469727 0 0 1 1 0 0 0 1 0 
1 -2942.5 -727.24998474121094 221.00000381469727 0 0 1 1 0 0 0 1 0 
1 -3023.9999389648438 -727.24998474121094 -221.00000381469727 1 0 0 0 0 1 0 -1 0 
1 3023.9999389648438 -727.24998474121094 -221.00000381469727 1 0 0 0 0 1 0 -1 0 
1 -3023.9999389648438 -727.24998474121094 -221.00000381469727 0 1 0 0 0 1 1 0 0 
1 -3023.9999389648438 727.24998474121094 -221.00000381469727 0 1 0 0 0 1 1 0 0 
1 -3023.9999389648438 -727.24998474121094 -221.00000381469727 0 0 1 1 0 0 0 1 0 
1 -3023.9999389648438 -727.24998474121094 221.00000381469727 0 0 1 1 0 0 0 1 0 
1 -3105.4998779296875 -727.24998474121094 -221.00000381469727 1 0 0 0 0 1 0 -1 0 
1 3105.4998779296875 -727.24998474121094 -221.00000381469727 1 0 0 0 0 1 0 -1 0 
1 -3105.4998779296875 -727.24998474121094 -221.00000381469727 0 1 0 0 0 1 1 0 0 
1 -3105.4998779296875 727.24998474121094 -221.00000381469727 0 1 0 0 0 1 1 0 0 
1 -3105.4998779296875 -727.24998474121094 -221.00000381469727 0 0 1 1 0 0 0 1 0 
1 -3105.4998779296875 -727.24998474121094 221.00000381469727 0 0 1 1 0 0 0 1 0 
1 -3186.9998168945312 -727.24998474121094 -221.00000381469727 1 0 0 0 0 1 0 -1 0 
1 3186.9998168945312 -727.24998474121094 -221.00000381469727 1 0 0 0 0 1 0 -1 0 
1 -3186.9998168945312 -727.24998474121094 -221.00000381469727 0 1 0 0 0 1 1 0 0 
1 -3186.9998168945312 727.24998474121094 -221.00000381469727 0 1 0 0 0 1 1 0 0 
1 -3186.9998168945312 -727.24998474121094 -221.00000381469727 0 0 1 1 0 0 0 1 0 
1 -3186.9998168945312 -727.24998474121094 221.00000381469727 0 0 1 1 0 0 0 1 0 
1 -3268.499755859375 -727.24998474121094 -221.00000381469727 1 0 0 0 0 1 0 -1 0 
1 3268.499755859375 -727.24998474121094 -221.00000381469727 1 0 0 0 0 1 0 -1 0 
1 -3268.499755859375 -727.24998474121094 -221.00000381469727 0 1 0 0 0 1 1 0 0 
1 -3268.499755859375 727.24998474121094 -221.00000381469727 0 1 0 0 0 1 1 0 0 
1 -3268.499755859375 -727.24998474121094 -221.00000381469727 0 0 1 1 0 0 0 1 0 
1 -3268.499755859375 -727.24998474121094 221.00000381469727 0 0 1 1 0 0 0 1 0 
1 -3349.9996948242188 -727.24998474121094 -221.00000381469727 1 0 0 0 0 1 0 -1 0 
1 3349.9996948242188 -727.24998474121094 -221.00000381469727 1 0 0 0 0 1 0 -1 0 
1 -3349.9996948242188 -727.24998474121094 -221.00000381469727 0 1 0 0 0 1 1 0 0 
1 -3349.9996948242188 727.24998474121094 -221.00000381469727 0 1 0 0 0 1 1 0 0 
1 -3349.9996948242188 -727.24998474121094 -221.00000381469727 0 0 1 1 0 0 0 1 0 
1 -3349.9996948242188 -727.24998474121094 221.00000381469727 0 0 1 1 0 0 0 1 0 
1 -3431.4996337890625 -727.24998474121094 -221.00000381469727 1 0 0 0 0 1 0 -1 0 
1 3431.4996337890625 -727.24998474121094 -221.00000381469727 1 0 0 0 0 1 0 -1 0 
1 -3431.4996337890625 -727.24998474121094 -221.00000381469727 0 1 0 0 0 1 1 0 0 
1 -3431.4996337890625 727.24998474121094 -221.00000381469727 0 1 0 0 0 1 1 0 0 
1 -3431.4996337890625 -727.24998474121094 -221.00000381469727 0 0 1 1 0 0 0 1 0 
1 -3431.4996337890625 -727.24998474121094 221.00000381469727 0 0 1 1 0 0 0 1 0 
Triangulations 0

TShapes 247
Ve
1e-07
-2942.5 -727.249984741211 221.000003814697
0 0

0101101
*
Ve
1e-07
-2942.5 -727.249984741211 -221.000003814697
0 0

0101101
*
Ed
 1e-07 1 1 0
1  1 0 0 442.000007629395
0

0101000
-247 0 +246 0 *
Ve
1e-07
-2942.5 727.249984741211 221.000003814697
0 0

0101101
*
Ed
 1e-07 1 1 0
1  2 0 0 1454.49996948242
0

0101000
-244 0 +247 0 *
Ve
1e-07
-2942.5 727.249984741211 -221.000003814697
0 0

0101101
*
Ed
 1e-07 1 1 0
1  3 0 0 442.000007629395
0

0101000
-244 0 +242 0 *
Ed
 1e-07 1 1 0
1  4 0 0 1454.49996948242
0

0101000
-242 0 +246 0 *
Wi

0101100
-245 0 -243 0 +241 0 +240 0 *
Fa
0  1e-07 1 0

0111000
+239 0 *
Ve
1e-07
2942.5 -727.249984741211 221.000003814697
0 0

0101101
*
Ve
1e-07
2942.5 -727.249984741211 -221.000003814697
0 0

0101101
*
Ed
 1e-07 1 1 0
1  5 0 0 442.000007629395
0

0101000
-237 0 +236 0 *
Ve
1e-07
2942.5 727.249984741211 221.000003814697
0 0

0101101
*
Ed
 1e-07 1 1 0
1  6 0 0 1454.49996948242
0

0101000
-234 0 +237 0 *
Ve
1e-07
2942.5 727.249984741211 -221.000003814697
0 0

0101101
*
Ed
 1e-07 1 1 0
1  7 0 0 442.000007629395
0

0101000
-234 0 +232 0 *
Ed
 1e-07 1 1 0
1  8 0 0 1454.49996948242
0

0101000
-232 0 +236 0 *
Wi

0101100
-235 0 -233 0 +231 0 +230 0 *
Fa
0  1e-07 2 0

0111000
+229 0 *
Ed
 1e-07 1 1 0
1  9 0 0 5885
0

0101000
-236 0 +246 0 *
Ed
 1e-07 1 1 0
1  10 0 0 5885
0

0101000
-237 0 +247 0 *
Wi

0101100
-227 0 -235 0 +226 0 +245 0 *
Fa
0  1e-07 3 0

0111000
+225 0 *
Ed
 1e-07 1 1 0
1  11 0 0 5885
0

0101000
-232 0 +242 0 *
Ed
 1e-07 1 1 0
1  12 0 0 5885
0

0101000
-234 0 +244 0 *
Wi

0101100
-223 0 -231 0 +222 0 +241 0 *
Fa
0  1e-07 4 0

0111000
+221 0 *
Wi

0101100
-240 0 -223 0 +230 0 +227 0 *
Fa
0  1e-07 5 0

0111000
+219 0 *
Wi

0101100
-243 0 -222 0 +233 0 +226 0 *
Fa
0  1e-07 6 0

0111000
+217 0 *
Sh

0101100
-238 0 +228 0 -224 0 +220 0 -218 0 +216 0 *
So

0100000
+215 0 *
Co

0100000
+214 3 *
Ve
1e-07
-3023.99993896484 -727.249984741211 221.000003814697
0 0

0101101
*
Ve
1e-07
-3023.99993896484 -727.249984741211 -221.000003814697
0 0

0101101
*
Ed
 1e-07 1 1 0
1  13 0 0 442.000007629395
0

0101000
-212 0 +211 0 *
Ve
1e-07
-3023.99993896484 727.249984741211 221.000003814697
0 0

0101101
*
Ed
 1e-07 1 1 0
1  14 0 0 1454.49996948242
0

0101000
-209 0 +212 0 *
Ve
1e-07
-3023.99993896484 727.249984741211 -221.000003814697
0 0

0101101
*
Ed
 1e-07 1 1 0
1  15 0 0 442.000007629395
0

0101000
-209 0 +207 0 *
Ed
 1e-07 1 1 0
1  16 0 0 1454.49996948242
0

0101000
-207 0 +211 0 *
Wi

0101100
-210 0 -208 0 +206 0 +205 0 *
Fa
0  1e-07 7 0

0111000
+204 0 *
Ve
1e-07
3023.99993896484 -727.249984741211 221.000003814697
0 0

0101101
*
Ve
1e-07
3023.99993896484 -727.249984741211 -221.000003814697
0 0

0101101
*
Ed
 1e-07 1 1 0
1  17 0 0 442.000007629395
0

0101000
-202 0 +201 0 *
Ve
1e-07
3023.99993896484 727.249984741211 221.000003814697
0 0

0101101
*
Ed
 1e-07 1 1 0
1  18 0 0 1454.49996948242
0

0101000
-199 0 +202 0 *
Ve
1e-07
3023.99993896484 727.249984741211 -221.000003814697
0 0

0101101
*
Ed
 1e-07 1 1 0
1  19 0 0 442.000007629395
0

0101000
-199 0 +197 0 *
Ed
 1e-07 1 1 0
1  20 0 0 1454.49996948242
0

0101000
-197 0 +201 0 *
Wi

0101100
-200 0 -198 0 +196 0 +195 0 *
Fa
0  1e-07 8 0

0111000
+194 0 *
Ed
 1e-07 1 1 0
1  21 0 0 6047.99987792969
0

0101000
-201 0 +211 0 *
Ed
 1e-07 1 1 0
1  22 0 0 6047.99987792969
0

0101000
-202 0 +212 0 *
Wi

0101100
-192 0 -200 0 +191 0 +210 0 *
Fa
0  1e-07 9 0

0111000
+190 0 *
Ed
 1e-07 1 1 0
1  23 0 0 6047.99987792969
0

0101000
-197 0 +207 0 *
Ed
 1e-07 1 1 0
1  24 0 0 6047.99987792969
0

0101000
-199 0 +209 0 *
Wi

0101100
-188 0 -196 0 +187 0 +206 0 *
Fa
0  1e-07 10 0

0111000
+186 0 *
Wi

0101100
-205 0 -188 0 +195 0 +192 0 *
Fa
0  1e-07 11 0

0111000
+184 0 *
Wi

0101100
-208 0 -187 0 +198 0 +191 0 *
Fa
0  1e-07 12 0

0111000
+182 0 *
Sh

0101100
-203 0 +193 0 -189 0 +185 0 -183 0 +181 0 *
So

0100000
+180 0 *
Co

0100000
+179 5 *
Ve
1e-07
-3105.49987792969 -727.249984741211 221.000003814697
0 0

0101101
*
Ve
1e-07
-3105.49987792969 -727.249984741211 -221.000003814697
0 0

0101101
*
Ed
 1e-07 1 1 0
1  25 0 0 442.000007629395
0

0101000
-177 0 +176 0 *
Ve
1e-07
-3105.49987792969 727.249984741211 221.000003814697
0 0

0101101
*
Ed
 1e-07 1 1 0
1  26 0 0 1454.49996948242
0

0101000
-174 0 +177 0 *
Ve
1e-07
-3105.49987792969 727.249984741211 -221.000003814697
0 0

0101101
*
Ed
 1e-07 1 1 0
1  27 0 0 442.000007629395
0

0101000
-174 0 +172 0 *
Ed
 1e-07 1 1 0
1  28 0 0 1454.49996948242
0

0101000
-172 0 +176 0 *
Wi

0101100
-175 0 -173 0 +171 0 +170 0 *
Fa
0  1e-07 13 0

0111000
+169 0 *
Ve
1e-07
3105.49987792969 -727.249984741211 221.000003814697
0 0

0101101
*
Ve
1e-07
3105.49987792969 -727.249984741211 -221.000003814697
0 0

0101101
*
Ed
 1e-07 1 1 0
1  29 0 0 442.000007629395
0

0101000
-167 0 +166 0 *
Ve
1e-07
3105.49987792969 727.249984741211 221.000003814697
0 0

0101101
*
Ed
 1e-07 1 1 0
1  30 0 0 1454.49996948242
0

0101000
-164 0 +167 0 *
Ve
1e-07
3105.49987792969 727.249984741211 -221.000003814697
0 0

0101101
*
Ed
 1e-07 1 1 0
1  31 0 0 442.000007629395
0

0101000
-164 0 +162 0 *
Ed
 1e-07 1 1 0
1  32 0 0 1454.49996948242
0

0101000
-162 0 +166 0 *
Wi

0101100
-165 0 -163 0 +161 0 +160 0 *
Fa
0  1e-07 14 0

0111000
+159 0 *
Ed
 1e-07 1 1 0
1  33 0 0 6210.99975585938
0

0101000
-166 0 +176 0 *
Ed
 1e-07 1 1 0
1  34 0 0 6210.99975585938
0

0101000
-167 0 +177 0 *
Wi

0101100
-157 0 -165 0 +156 0 +175 0 *
Fa
0  1e-07 15 0

0111000
+155 0 *
Ed
 1e-07 1 1 0
1  35 0 0 6210.99975585938
0

0101000
-162 0 +172 0 *
Ed
 1e-07 1 1 0
1  36 0 0 6210.99975585938
0

0101000
-164 0 +174 0 *
Wi

0101100
-153 0 -161 0 +152 0 +171 0 *
Fa
0  1e-07 16 0

0111000
+151 0 *
Wi

0101100
-170 0 -153 0 +160 0 +157 0 *
Fa
0  1e-07 17 0

0111000
+149 0 *
Wi

0101100
-173 0 -152 0 +163 0 +156 0 *
Fa
0  1e-07 18 0

0111000
+147 0 *
Sh

0101100
-168 0 +158 0 -154 0 +150 0 -148 0 +146 0 *
So

0100000
+145 0 *
Co

0100000
+144 7 *
Ve
1e-07
-3186.99981689453 -727.249984741211 221.000003814697
0 0

0101101
*
Ve
1e-07
-3186.99981689453 -727.249984741211 -221.000003814697
0 0

0101101
*
Ed
 1e-07 1 1 0
1  37 0 0 442.000007629395
0

0101000
-142 0 +141 0 *
Ve
1e-07
-3186.99981689453 727.249984741211 221.000003814697
0 0

0101101
*
Ed
 1e-07 1 1 0
1  38 0 0 1454.49996948242
0

0101000
-139 0 +142 0 *
Ve
1e-07
-3186.99981689453 727.249984741211 -221.000003814697
0 0

0101101
*
Ed
 1e-07 1 1 0
1  39 0 0 442.000007629395
0

0101000
-139 0 +137 0 *
Ed
 1e-07 1 1 0
1  40 0 0 1454.49996948242
0

0101000
-137 0 +141 0 *
Wi

0101100
-140 0 -138 0 +136 0 +135 0 *
Fa
0  1e-07 19 0

0111000
+134 0 *
Ve
1e-07
3186.99981689453 -727.249984741211 221.000003814697
0 0

0101101
*
Ve
1e-07
3186.99981689453 -727.249984741211 -221.000003814697
0 0

0101101
*
Ed
 1e-07 1 1 0
1  41 0 0 442.000007629395
0

0101000
-132 0 +131 0 *
Ve
1e-07
3186.99981689453 727.249984741211 221.000003814697
0 0

0101101
*
Ed
 1e-07 1 1 0
1  42 0 0 1454.49996948242
0

0101000
-129 0 +132 0 *
Ve
1e-07
3186.99981689453 727.249984741211 -221.000003814697
0 0

0101101
*
Ed
 1e-07 1 1 0
1  43 0 0 442.000007629395
0

0101000
-129 0 +127 0 *
Ed
 1e-07 1 1 0
1  44 0 0 1454.49996948242
0

0101000
-127 0 +131 0 *
Wi

0101100
-130 0 -128 0 +126 0 +125 0 *
Fa
0  1e-07 20 0

0111000
+124 0 *
Ed
 1e-07 1 1 0
1  45 0 0 6373.99963378906
0

0101000
-131 0 +141 0 *
Ed
 1e-07 1 1 0
1  46 0 0 6373.99963378906
0

0101000
-132 0 +142 0 *
Wi

0101100
-122 0 -130 0 +121 0 +140 0 *
Fa
0  1e-07 21 0

0111000
+120 0 *
Ed
 1e-07 1 1 0
1  47 0 0 6373.99963378906
0

0101000
-127 0 +137 0 *
Ed
 1e-07 1 1 0
1  48 0 0 6373.99963378906
0

0101000
-129 0 +139 0 *
Wi

0101100
-118 0 -126 0 +117 0 +136 0 *
Fa
0  1e-07 22 0

0111000
+116 0 *
Wi

0101100
-135 0 -118 0 +125 0 +122 0 *
Fa
0  1e-07 23 0

0111000
+114 0 *
Wi

0101100
-138 0 -117 0 +128 0 +121 0 *
Fa
0  1e-07 24 0

0111000
+112 0 *
Sh

0101100
-133 0 +123 0 -119 0 +115 0 -113 0 +111 0 *
So

0100000
+110 0 *
Co

0100000
+109 9 *
Ve
1e-07
-3268.49975585938 -727.249984741211 221.000003814697
0 0

0101101
*
Ve
1e-07
-3268.49975585938 -727.249984741211 -221.000003814697
0 0

0101101
*
Ed
 1e-07 1 1 0
1  49 0 0 442.000007629395
0

0101000
-107 0 +106 0 *
Ve
1e-07
-3268.49975585938 727.249984741211 221.000003814697
0 0

0101101
*
Ed
 1e-07 1 1 0
1  50 0 0 1454.49996948242
0

0101000
-104 0 +107 0 *
Ve
1e-07
-3268.49975585938 727.249984741211 -221.000003814697
0 0

0101101
*
Ed
 1e-07 1 1 0
1  51 0 0 442.000007629395
0

0101000
-104 0 +102 0 *
Ed
 1e-07 1 1 0
1  52 0 0 1454.49996948242
0

0101000
-102 0 +106 0 *
Wi

0101100
-105 0 -103 0 +101 0 +100 0 *
Fa
0  1e-07 25 0

0111000
+99 0 *
Ve
1e-07
3268.49975585938 -727.249984741211 221.000003814697
0 0

0101101
*
Ve
1e-07
3268.49975585938 -727.249984741211 -221.000003814697
0 0

0101101
*
Ed
 1e-07 1 1 0
1  53 0 0 442.000007629395
0

0101000
-97 0 +96 0 *
Ve
1e-07
3268.49975585938 727.249984741211 221.000003814697
0 0

0101101
*
Ed
 1e-07 1 1 0
1  54 0 0 1454.49996948242
0

0101000
-94 0 +97 0 *
Ve
1e-07
3268.49975585938 727.249984741211 -221.000003814697
0 0

0101101
*
Ed
 1e-07 1 1 0
1  55 0 0 442.000007629395
0

0101000
-94 0 +92 0 *
Ed
 1e-07 1 1 0
1  56 0 0 1454.49996948242
0

0101000
-92 0 +96 0 *
Wi

0101100
-95 0 -93 0 +91 0 +90 0 *
Fa
0  1e-07 26 0

0111000
+89 0 *
Ed
 1e-07 1 1 0
1  57 0 0 6536.99951171875
0

0101000
-96 0 +106 0 *
Ed
 1e-07 1 1 0
1  58 0 0 6536.99951171875
0

0101000
-97 0 +107 0 *
Wi

0101100
-87 0 -95 0 +86 0 +105 0 *
Fa
0  1e-07 27 0

0111000
+85 0 *
Ed
 1e-07 1 1 0
1  59 0 0 6536.99951171875
0

0101000
-92 0 +102 0 *
Ed
 1e-07 1 1 0
1  60 0 0 6536.99951171875
0

0101000
-94 0 +104 0 *
Wi

0101100
-83 0 -91 0 +82 0 +101 0 *
Fa
0  1e-07 28 0

0111000
+81 0 *
Wi

0101100
-100 0 -83 0 +90 0 +87 0 *
Fa
0  1e-07 29 0

0111000
+79 0 *
Wi

0101100
-103 0 -82 0 +93 0 +86 0 *
Fa
0  1e-07 30 0

0111000
+77 0 *
Sh

0101100
-98 0 +88 0 -84 0 +80 0 -78 0 +76 0 *
So

0100000
+75 0 *
Co

0100000
+74 11 *
Ve
1e-07
-3349.99969482422 -727.249984741211 221.000003814697
0 0

0101101
*
Ve
1e-07
-3349.99969482422 -727.249984741211 -221.000003814697
0 0

0101101
*
Ed
 1e-07 1 1 0
1  61 0 0 442.000007629395
0

0101000
-72 0 +71 0 *
Ve
1e-07
-3349.99969482422 727.249984741211 221.000003814697
0 0

0101101
*
Ed
 1e-07 1 1 0
1  62 0 0 1454.49996948242
0

0101000
-69 0 +72 0 *
Ve
1e-07
-3349.99969482422 727.249984741211 -221.000003814697
0 0

0101101
*
Ed
 1e-07 1 1 0
1  63 0 0 442.000007629395
0

0101000
-69 0 +67 0 *
Ed
 1e-07 1 1 0
1  64 0 0 1454.49996948242
0

0101000
-67 0 +71 0 *
Wi

0101100
-70 0 -68 0 +66 0 +65 0 *
Fa
0  1e-07 31 0

0111000
+64 0 *
Ve
1e-07
3349.99969482422 -727.249984741211 221.000003814697
0 0

0101101
*
Ve
1e-07
3349.99969482422 -727.249984741211 -221.000003814697
0 0

0101101
*
Ed
 1e-07 1 1 0
1  65 0 0 442.000007629395
0

0101000
-62 0 +61 0 *
Ve
1e-07
3349.99969482422 727.249984741211 221.000003814697
0 0

0101101
*
Ed
 1e-07 1 1 0
1  66 0 0 1454.49996948242
0

0101000
-59 0 +62 0 *
Ve
1e-07
3349.99969482422 727.249984741211 -221.000003814697
0 0

0101101
*
Ed
 1e-07 1 1 0
1  67 0 0 442.000007629395
0

0101000
-59 0 +57 0 *
Ed
 1e-07 1 1 0
1  68 0 0 1454.49996948242
0

0101000
-57 0 +61 0 *
Wi

0101100
-60 0 -58 0 +56 0 +55 0 *
Fa
0  1e-07 32 0

0111000
+54 0 *
Ed
 1e-07 1 1 0
1  69 0 0 6699.99938964844
0

0101000
-61 0 +71 0 *
Ed
 1e-07 1 1 0
1  70 0 0 6699.99938964844
0

0101000
-62 0 +72 0 *
Wi

0101100
-52 0 -60 0 +51 0 +70 0 *
Fa
0  1e-07 33 0

0111000
+50 0 *
Ed
 1e-07 1 1 0
1  71 0 0 6699.99938964844
0

0101000
-57 0 +67 0 *
Ed
 1e-07 1 1 0
1  72 0 0 6699.99938964844
0

0101000
-59 0 +69 0 *
Wi

0101100
-48 0 -56 0 +47 0 +66 0 *
Fa
0  1e-07 34 0

0111000
+46 0 *
Wi

0101100
-65 0 -48 0 +55 0 +52 0 *
Fa
0  1e-07 35 0

0111000
+44 0 *
Wi

0101100
-68 0 -47 0 +58 0 +51 0 *
Fa
0  1e-07 36 0

0111000
+42 0 *
Sh

0101100
-63 0 +53 0 -49 0 +45 0 -43 0 +41 0 *
So

0100000
+40 0 *
Co

0100000
+39 13 *
Ve
1e-07
-3431.49963378906 -727.249984741211 221.000003814697
0 0

0101101
*
Ve
1e-07
-3431.49963378906 -727.249984741211 -221.000003814697
0 0

0101101
*
Ed
 1e-07 1 1 0
1  73 0 0 442.000007629395
0

0101000
-37 0 +36 0 *
Ve
1e-07
-3431.49963378906 727.249984741211 221.000003814697
0 0

0101101
*
Ed
 1e-07 1 1 0
1  74 0 0 1454.49996948242
0

0101000
-34 0 +37 0 *
Ve
1e-07
-3431.49963378906 727.249984741211 -221.000003814697
0 0

0101101
*
Ed
 1e-07 1 1 0
1  75 0 0 442.000007629395
0

0101000
-34 0 +32 0 *
Ed
 1e-07 1 1 0
1  76 0 0 1454.49996948242
0

0101000
-32 0 +36 0 *
Wi

0101100
-35 0 -33 0 +31 0 +30 0 *
Fa
0  1e-07 37 0

0111000
+29 0 *
Ve
1e-07
3431.49963378906 -727.249984741211 221.000003814697
0 0

0101101
*
Ve
1e-07
3431.49963378906 -727.249984741211 -221.000003814697
0 0

0101101
*
Ed
 1e-07 1 1 0
1  77 0 0 442.000007629395
0

0101000
-27 0 +26 0 *
Ve
1e-07
3431.49963378906 727.249984741211 221.000003814697
0 0

0101101
*
Ed
 1e-07 1 1 0
1  78 0 0 1454.49996948242
0

0101000
-24 0 +27 0 *
Ve
1e-07
3431.49963378906 727.249984741211 -221.000003814697
0 0

0101101
*
Ed
 1e-07 1 1 0
1  79 0 0 442.000007629395
0

0101000
-24 0 +22 0 *
Ed
 1e-07 1 1 0
1  80 0 0 1454.49996948242
0

0101000
-22 0 +26 0 *
Wi

0101100
-25 0 -23 0 +21 0 +20 0 *
Fa
0  1e-07 38 0

0111000
+19 0 *
Ed
 1e-07 1 1 0
1  81 0 0 6862.99926757812
0

0101000
-26 0 +36 0 *
Ed
 1e-07 1 1 0
1  82 0 0 6862.99926757812
0

0101000
-27 0 +37 0 *
Wi

0101100
-17 0 -25 0 +16 0 +35 0 *
Fa
0  1e-07 39 0

0111000
+15 0 *
Ed
 1e-07 1 1 0
1  83 0 0 6862.99926757812
0

0101000
-22 0 +32 0 *
Ed
 1e-07 1 1 0
1  84 0 0 6862.99926757812
0

0101000
-24 0 +34 0 *
Wi

0101100
-13 0 -21 0 +12 0 +31 0 *
Fa
0  1e-07 40 0

0111000
+11 0 *
Wi

0101100
-30 0 -13 0 +20 0 +17 0 *
Fa
0  1e-07 41 0

0111000
+9 0 *
Wi

0101100
-33 0 -12 0 +23 0 +16 0 *
Fa
0  1e-07 42 0

0111000
+7 0 *
Sh

0101100
-28 0 +18 0 -14 0 +10 0 -8 0 +6 0 *
So

0100000
+5 0 *
Co

0100000
+4 15 *
Co

0100000
+213 2 +178 4 +143 6 +108 8 +73 10 +38 12 +3 14 *
Co

1100000
+2 1 *

+1 0 