DBRep_DrawableShape

CASCADE Topology V1, (c) Matra-Datavision
Locations 214
1
              1               0               0               0 
              0               1               0               0 
              0               0               1               0 
1
0.707106781186547 0.707106781186548               0 -6899.92553710938 
-0.707106781186548 0.707106781186547               0 4423.12255859375 
              0               0               1            4100 
1
              1               0               0               0 
              0               1               0               0 
              0               0               1               0 
1
              1               0               0               0 
              0               1               0               0 
              0               0               1               0 
1
0.707106781186547 0.707106781186548               0 -6899.92553710938 
-0.707106781186548 0.707106781186547               0 4423.12255859375 
              0               0               1            1100 
2  4 1 5 1 0
1
              1               0               0               0 
              0               1               0               0 
              0               0               1               0 
1
0.707106781186547 0.707106781186548               0 -6899.92553710938 
-0.707106781186548 0.707106781186547               0 4423.12255859375 
              0               0               1           -1250 
2  7 1 8 1 0
1
              1               0               0               0 
              0               1               0               0 
              0               0               1               0 
1
0.707106781186547 0.707106781186548               0 -6899.92553710938 
-0.707106781186548 0.707106781186547               0 4423.12255859375 
              0               0               1           -3900 
2  10 1 11 1 0
1
              1               0               0               0 
              0               1               0               0 
              0               0               1               0 
1
0.707106781186547 0.707106781186548               0 -6226.76630027466 
-0.707106781186548 0.707106781186547               0 5066.28169972534 
              0               0               1            -500 
2  13 1 14 1 0
1
              1               0               0               0 
              0               1               0               0 
              0               0               1               0 
1
0.707106781186547 0.707106781186548               0 -5460.19919027466 
-0.707106781186548 0.707106781186547               0 5832.84880972534 
              0               0               1            -500 
2  16 1 17 1 0
1
              1               0               0               0 
              0               1               0               0 
              0               0               1               0 
1
0.707106781186547 0.707106781186548               0 -6226.76635742188 
-0.707106781186548 0.707106781186547               0 5096.28173828125 
              0               0               1            4500 
2  19 1 20 1 0
1
              1               0               0               0 
              0               1               0               0 
              0               0               1               0 
1
0.707106781186547 0.707106781186548               0 -5460.19897460938 
-0.707106781186548 0.707106781186547               0 5862.84851074219 
              0               0               1            4500 
2  22 1 23 1 0
1
              1               0               0               0 
              0               1               0               0 
              0               0               1               0 
1
0.707106781186547 0.707106781186548               0 -6226.76635742188 
-0.707106781186548 0.707106781186547               0 5096.28173828125 
              0               0               1            2500 
2  25 1 26 1 0
1
              1               0               0               0 
              0               1               0               0 
              0               0               1               0 
1
0.707106781186547 0.707106781186548               0 -5460.19897460938 
-0.707106781186548 0.707106781186547               0 5862.84851074219 
              0               0               1            2500 
2  28 1 29 1 0
1
              1               0               0               0 
              0               1               0               0 
              0               0               1               0 
1
0.707106781186547 0.707106781186548               0 -6226.76635742188 
-0.707106781186548 0.707106781186547               0 5096.28173828125 
              0               0               1             500 
2  31 1 32 1 0
1
              1               0               0               0 
              0               1               0               0 
              0               0               1               0 
1
0.707106781186547 0.707106781186548               0 -5460.19897460938 
-0.707106781186548 0.707106781186547               0 5862.84851074219 
              0               0               1             500 
2  34 1 35 1 0
1
              1               0               0               0 
              0               1               0               0 
              0               0               1               0 
1
0.707106781186547 0.707106781186548               0 -6196.76635742188 
-0.707106781186548 0.707106781186547               0 5096.28173828125 
              0               0               1           -2500 
2  37 1 38 1 0
1
              1               0               0               0 
              0               1               0               0 
              0               0               1               0 
1
0.707106781186547 0.707106781186548               0 -5430.19897460938 
-0.707106781186548 0.707106781186547               0 5862.84851074219 
              0               0               1           -2500 
2  40 1 41 1 0
1
              1               0               0               0 
              0               1               0               0 
              0               0               1               0 
1
0.707106781186547 0.707106781186548               0 -6196.76635742188 
-0.707106781186548 0.707106781186547               0 5096.28173828125 
              0               0               1           -4500 
2  43 1 44 1 0
1
              1               0               0               0 
              0               1               0               0 
              0               0               1               0 
1
0.707106781186547 0.707106781186548               0 -5430.19897460938 
-0.707106781186548 0.707106781186547               0 5862.84851074219 
              0               0               1           -4500 
2  46 1 47 1 0
1
              1               0               0               0 
              0               1               0               0 
              0               0               1               0 
1
0.707106781186547 0.707106781186548               0 -4719.92553710938 
-0.707106781186548 0.707106781186547               0 6573.12255859375 
              0               0               1            4100 
2  49 1 50 1 0
1
              1               0               0               0 
              0               1               0               0 
              0               0               1               0 
1
0.707106781186547 0.707106781186548               0 -4719.92553710938 
-0.707106781186548 0.707106781186547               0 6573.12255859375 
              0               0               1            1100 
2  52 1 53 1 0
1
              1               0               0               0 
              0               1               0               0 
              0               0               1               0 
1
0.707106781186547 0.707106781186548               0 -4719.92553710938 
-0.707106781186548 0.707106781186547               0 6573.12255859375 
              0               0               1            -900 
2  55 1 56 1 0
1
              1               0               0               0 
              0               1               0               0 
              0               0               1               0 
1
0.707106781186547 0.707106781186548               0 -4719.92553710938 
-0.707106781186548 0.707106781186547               0 6573.12255859375 
              0               0               1           -3900 
2  58 1 59 1 0
1
              1               0               0               0 
              0               1               0               0 
              0               0               1               0 
1
0.707106781186547 0.707106781186548               0 -4046.76635742188 
-0.707106781186548 0.707106781186547               0 7246.28173828125 
              0               0               1            4500 
2  61 1 62 1 0
1
              1               0               0               0 
              0               1               0               0 
              0               0               1               0 
1
-0.258819045102521 -0.965925826289068               0 -3430.19927978516 
0.965925826289068 -0.258819045102521               0 7912.84851074219 
              0               0               1            4500 
2  64 1 65 1 0
1
              1               0               0               0 
              0               1               0               0 
              0               0               1               0 
1
0.707106781186547 0.707106781186548               0 -4046.76635742188 
-0.707106781186548 0.707106781186547               0 7246.28173828125 
              0               0               1            2500 
2  67 1 68 1 0
1
              1               0               0               0 
              0               1               0               0 
              0               0               1               0 
1
-0.258819045102521 -0.965925826289068               0 -3430.19927978516 
0.965925826289068 -0.258819045102521               0 7912.84851074219 
              0               0               1            2500 
2  70 1 71 1 0
1
              1               0               0               0 
              0               1               0               0 
              0               0               1               0 
1
0.707106781186547 0.707106781186548               0 -4046.76635742188 
-0.707106781186548 0.707106781186547               0 7246.28173828125 
              0               0               1             500 
2  73 1 74 1 0
1
              1               0               0               0 
              0               1               0               0 
              0               0               1               0 
1
-0.258819045102521 -0.965925826289068               0 -3430.19927978516 
0.965925826289068 -0.258819045102521               0 7912.84851074219 
              0               0               1             500 
2  76 1 77 1 0
1
              1               0               0               0 
              0               1               0               0 
              0               0               1               0 
1
0.707106781186547 0.707106781186548               0 -4046.76635742188 
-0.707106781186548 0.707106781186547               0 7246.28173828125 
              0               0               1            -500 
2  79 1 80 1 0
1
              1               0               0               0 
              0               1               0               0 
              0               0               1               0 
1
-0.258819045102521 -0.965925826289068               0 -3430.19927978516 
0.965925826289068 -0.258819045102521               0 7912.84851074219 
              0               0               1            -500 
2  82 1 83 1 0
1
              1               0               0               0 
              0               1               0               0 
              0               0               1               0 
1
0.707106781186547 0.707106781186548               0 -4046.76635742188 
-0.707106781186548 0.707106781186547               0 7246.28173828125 
              0               0               1           -2500 
2  85 1 86 1 0
1
              1               0               0               0 
              0               1               0               0 
              0               0               1               0 
1
-0.258819045102521 -0.965925826289068               0 -3430.19927978516 
0.965925826289068 -0.258819045102521               0 7912.84851074219 
              0               0               1           -2500 
2  88 1 89 1 0
1
              1               0               0               0 
              0               1               0               0 
              0               0               1               0 
1
0.707106781186547 0.707106781186548               0 -4046.76635742188 
-0.707106781186548 0.707106781186547               0 7246.28173828125 
              0               0               1           -4500 
2  91 1 92 1 0
1
              1               0               0               0 
              0               1               0               0 
              0               0               1               0 
1
-0.258819045102521 -0.965925826289068               0 -3430.19927978516 
0.965925826289068 -0.258819045102521               0 7912.84851074219 
              0               0               1           -4500 
2  94 1 95 1 0
1
              1               0               0 -7215.90148925781 
              0               1               0 4179.09851074219 
              0               0               1            4100 
1
              1               0               0               0 
              0               1               0               0 
              0               0               1               0 
1
              1               0               0               0 
              0               1               0               0 
              0               0               1               0 
1
              1               0               0 -7215.90148925781 
              0               1               0 4179.09851074219 
              0               0               1            1100 
2  99 1 100 1 0
1
              1               0               0               0 
              0               1               0               0 
              0               0               1               0 
1
              1               0               0 -7215.90148925781 
              0               1               0 4179.09851074219 
              0               0               1           -1250 
2  102 1 103 1 0
1
              1               0               0               0 
              0               1               0               0 
              0               0               1               0 
1
              1               0               0 -7215.90148925781 
              0               1               0 4179.09851074219 
              0               0               1           -3900 
2  105 1 106 1 0
1
              1               0               0               0 
              0               1               0               0 
              0               0               1               0 
1
              1               0               0 -6542.74230027466 
              0               1               0 4852.25769972534 
              0               0               1            -500 
2  108 1 109 1 0
1
              1               0               0               0 
              0               1               0               0 
              0               0               1               0 
1
              1               0               0 -5776.17519027466 
              0               1               0 5618.82480972534 
              0               0               1            -500 
2  111 1 112 1 0
1
              1               0               0               0 
              0               1               0               0 
              0               0               1               0 
1
              1               0               0 -6542.74230957031 
              0               1               0 4852.25769042969 
              0               0               1            4500 
2  114 1 115 1 0
1
              1               0               0               0 
              0               1               0               0 
              0               0               1               0 
1
              1               0               0 -5776.17492675781 
              0               1               0 5618.82507324219 
              0               0               1            4500 
2  117 1 118 1 0
1
              1               0               0               0 
              0               1               0               0 
              0               0               1               0 
1
              1               0               0 -6542.74230957031 
              0               1               0 4852.25769042969 
              0               0               1            2500 
2  120 1 121 1 0
1
              1               0               0               0 
              0               1               0               0 
              0               0               1               0 
1
              1               0               0 -5776.17492675781 
              0               1               0 5618.82507324219 
              0               0               1            2500 
2  123 1 124 1 0
1
              1               0               0               0 
              0               1               0               0 
              0               0               1               0 
1
              1               0               0 -6542.74230957031 
              0               1               0 4852.25769042969 
              0               0               1             500 
2  126 1 127 1 0
1
              1               0               0               0 
              0               1               0               0 
              0               0               1               0 
1
              1               0               0 -5776.17492675781 
              0               1               0 5618.82507324219 
              0               0               1             500 
2  129 1 130 1 0
1
              1               0               0               0 
              0               1               0               0 
              0               0               1               0 
1
              1               0               0 -6512.74230957031 
              0               1               0 4852.25769042969 
              0               0               1           -2500 
2  132 1 133 1 0
1
              1               0               0               0 
              0               1               0               0 
              0               0               1               0 
1
              1               0               0 -5746.17492675781 
              0               1               0 5618.82507324219 
              0               0               1           -2500 
2  135 1 136 1 0
1
              1               0               0               0 
              0               1               0               0 
              0               0               1               0 
1
              1               0               0 -6512.74230957031 
              0               1               0 4852.25769042969 
              0               0               1           -4500 
2  138 1 139 1 0
1
              1               0               0               0 
              0               1               0               0 
              0               0               1               0 
1
              1               0               0 -5746.17492675781 
              0               1               0 5618.82507324219 
              0               0               1           -4500 
2  141 1 142 1 0
1
              1               0               0               0 
              0               1               0               0 
              0               0               1               0 
1
              1               0               0 -5045.90148925781 
              0               1               0 6334.09851074219 
              0               0               1            4100 
2  144 1 145 1 0
1
              1               0               0               0 
              0               1               0               0 
              0               0               1               0 
1
              1               0               0 -5045.90148925781 
              0               1               0 6334.09851074219 
              0               0               1            1100 
2  147 1 148 1 0
1
              1               0               0               0 
              0               1               0               0 
              0               0               1               0 
1
              1               0               0 -5045.90148925781 
              0               1               0 6334.09851074219 
              0               0               1            -900 
2  150 1 151 1 0
1
              1               0               0               0 
              0               1               0               0 
              0               0               1               0 
1
              1               0               0 -5045.90148925781 
              0               1               0 6334.09851074219 
              0               0               1           -3900 
2  153 1 154 1 0
1
              1               0               0               0 
              0               1               0               0 
              0               0               1               0 
1
              1               0               0 -4362.74230957031 
              0               1               0 7002.25769042969 
              0               0               1            4500 
2  156 1 157 1 0
1
              1               0               0               0 
              0               1               0               0 
              0               0               1               0 
1
              1               0               0 -3608.17504882812 
              0               1               0 7768.82507324219 
              0               0               1            4500 
2  159 1 160 1 0
1
              1               0               0               0 
              0               1               0               0 
              0               0               1               0 
1
              1               0               0 -4362.74230957031 
              0               1               0 7002.25769042969 
              0               0               1            2500 
2  162 1 163 1 0
1
              1               0               0               0 
              0               1               0               0 
              0               0               1               0 
1
              1               0               0 -3608.17504882812 
              0               1               0 7768.82507324219 
              0               0               1            2500 
2  165 1 166 1 0
1
              1               0               0               0 
              0               1               0               0 
              0               0               1               0 
1
              1               0               0 -4362.74230957031 
              0               1               0 7002.25769042969 
              0               0               1             500 
2  168 1 169 1 0
1
              1               0               0               0 
              0               1               0               0 
              0               0               1               0 
1
              1               0               0 -3608.17504882812 
              0               1               0 7768.82507324219 
              0               0               1             500 
2  171 1 172 1 0
1
              1               0               0               0 
              0               1               0               0 
              0               0               1               0 
1
              1               0               0 -4362.74230957031 
              0               1               0 7002.25769042969 
              0               0               1            -500 
2  174 1 175 1 0
1
              1               0               0               0 
              0               1               0               0 
              0               0               1               0 
1
              1               0               0 -3608.17504882812 
              0               1               0 7768.82507324219 
              0               0               1            -500 
2  177 1 178 1 0
1
              1               0               0               0 
              0               1               0               0 
              0               0               1               0 
1
              1               0               0 -4362.74230957031 
              0               1               0 7002.25769042969 
              0               0               1           -2500 
2  180 1 181 1 0
1
              1               0               0               0 
              0               1               0               0 
              0               0               1               0 
1
              1               0               0 -3608.17504882812 
              0               1               0 7768.82507324219 
              0               0               1           -2500 
2  183 1 184 1 0
1
              1               0               0               0 
              0               1               0               0 
              0               0               1               0 
1
              1               0               0 -4362.74230957031 
              0               1               0 7002.25769042969 
              0               0               1           -4500 
2  186 1 187 1 0
1
              1               0               0               0 
              0               1               0               0 
              0               0               1               0 
1
              1               0               0 -3608.17504882812 
              0               1               0 7768.82507324219 
              0               0               1           -4500 
2  189 1 190 1 0
1
0.707106781186548 -0.707106781186547               0 -7345.90148925781 
0.707106781186547 0.707106781186548               0 4792.09851026535 
              0               0               1               0 
1
              1               0               0               0 
              0               1               0             -50 
              0               0               1               0 
1
              1               0               0               0 
              0               1               0               0 
              0               0               1               0 
1
              1               0               0               0 
              0               1               0               0 
              0               0               1               0 
1
              1               0               0               0 
              0               1               0            -200 
              0               0               1               0 
2  195 1 196 1 0
1
              1               0               0               0 
              0               1               0            -125 
              0               0               1               0 
1
              1               0               0               0 
              0               1               0               0 
              0               0               1               0 
1
              1               0               0               0 
              0               1               0               0 
              0               0               1               0 
1
0.707106781186548 -0.707106781186547               0 -6672.74217605591 
0.707106781186547 0.707106781186548               0 5465.25782346725 
              0               0               1               0 
2  200 1 201 1 0
1
              1               0               0               0 
              0               1               0               0 
              0               0               1               0 
1
0.707106781186548 -0.707106781186547               0 -5906.17540359497 
0.707106781186547 0.707106781186548               0 6231.82459592819 
              0               0               1               0 
2  203 1 204 1 0
1
              1               0               0               0 
              0               1               0               0 
              0               0               1               0 
1
0.707106781186548 -0.707106781186547               0 -5195.90148925781 
0.707106781186547 0.707106781186548               0 6942.09851026535 
              0               0               1               0 
2  206 1 207 1 0
1
              1               0               0               0 
              0               1               0               0 
              0               0               1               0 
1
0.707106781186548 -0.707106781186547               0 -4522.74217605591 
0.707106781186547 0.707106781186548               0 7615.25782346725 
              0               0               1               0 
2  209 1 210 1 0
1
              1               0               0               0 
              0               1               0               0 
              0               0               1               0 
1
0.707106781186548 -0.707106781186547               0 -3756.17509841919 
0.707106781186547 0.707106781186548               0 8381.82459592819 
              0               0               1               0 
2  212 1 213 1 0
Curve2ds 0
Curves 48
1 -270 -50 -50 0 0 1 
1 -270 -50 50 0 1 0 
1 -270 50 -50 0 0 1 
1 -270 -50 -50 0 1 0 
1 270 -50 -50 0 0 1 
1 270 -50 50 0 1 0 
1 270 50 -50 0 0 1 
1 270 -50 -50 0 1 0 
1 -270 -50 -50 1 0 0 
1 -270 -50 50 1 0 0 
1 -270 50 -50 1 0 0 
1 -270 50 50 1 0 0 
1 -50 -400 -50 0 0 1 
1 -50 -400 50 0 1 0 
1 -50 400 -50 0 0 1 
1 -50 -400 -50 0 1 0 
1 50 -400 -50 0 0 1 
1 50 -400 50 0 1 0 
1 50 400 -50 0 0 1 
1 50 -400 -50 0 1 0 
1 -50 -400 -50 1 0 0 
1 -50 -400 50 1 0 0 
1 -50 400 -50 1 0 0 
1 -50 400 50 1 0 0 
1 -100 -5 -5000 0 0 1 
1 -100 -5 5000 0 1 0 
1 -100 5 -5000 0 0 1 
1 -100 -5 -5000 0 1 0 
1 100 -5 -5000 0 0 1 
1 100 -5 5000 0 1 0 
1 100 5 -5000 0 0 1 
1 100 -5 -5000 0 1 0 
1 -100 -5 -5000 1 0 0 
1 -100 -5 5000 1 0 0 
1 -100 5 -5000 1 0 0 
1 -100 5 5000 1 0 0 
1 -10 -70 -5000 0 0 1 
1 -10 -70 5000 0 1 0 
1 -10 70 -5000 0 0 1 
1 -10 -70 -5000 0 1 0 
1 10 -70 -5000 0 0 1 
1 10 -70 5000 0 1 0 
1 10 70 -5000 0 0 1 
1 10 -70 -5000 0 1 0 
1 -10 -70 -5000 1 0 0 
1 -10 -70 5000 1 0 0 
1 -10 70 -5000 1 0 0 
1 -10 70 5000 1 0 0 
Polygon3D 0
PolygonOnTriangulations 0
Surfaces 24
1 -270 -50 -50 1 0 0 0 0 1 0 -1 0 
1 270 -50 -50 1 0 0 0 0 1 0 -1 0 
1 -270 -50 -50 0 1 0 0 0 1 1 0 0 
1 -270 50 -50 0 1 0 0 0 1 1 0 0 
1 -270 -50 -50 0 0 1 1 0 0 0 1 0 
1 -270 -50 50 0 0 1 1 0 0 0 1 0 
1 -50 -400 -50 1 0 0 0 0 1 0 -1 0 
1 50 -400 -50 1 0 0 0 0 1 0 -1 0 
1 -50 -400 -50 0 1 0 0 0 1 1 0 0 
1 -50 400 -50 0 1 0 0 0 1 1 0 0 
1 -50 -400 -50 0 0 1 1 0 0 0 1 0 
1 -50 -400 50 0 0 1 1 0 0 0 1 0 
1 -100 -5 -5000 1 0 0 0 0 1 0 -1 0 
1 100 -5 -5000 1 0 0 0 0 1 0 -1 0 
1 -100 -5 -5000 0 1 0 0 0 1 1 0 0 
1 -100 5 -5000 0 1 0 0 0 1 1 0 0 
1 -100 -5 -5000 0 0 1 1 0 0 0 1 0 
1 -100 -5 5000 0 0 1 1 0 0 0 1 0 
1 -10 -70 -5000 1 0 0 0 0 1 0 -1 0 
1 10 -70 -5000 1 0 0 0 0 1 0 -1 0 
1 -10 -70 -5000 0 1 0 0 0 1 1 0 0 
1 -10 70 -5000 0 1 0 0 0 1 1 0 0 
1 -10 -70 -5000 0 0 1 1 0 0 0 1 0 
1 -10 -70 5000 0 0 1 1 0 0 0 1 0 
Triangulations 0

TShapes 143
Ve
1e-07
-270 -50 50
0 0

0101101
*
Ve
1e-07
-270 -50 -50
0 0

0101101
*
Ed
 1e-07 1 1 0
1  1 0 0 100
0

0101000
-143 0 +142 0 *
Ve
1e-07
-270 50 50
0 0

0101101
*
Ed
 1e-07 1 1 0
1  2 0 0 100
0

0101000
-140 0 +143 0 *
Ve
1e-07
-270 50 -50
0 0

0101101
*
Ed
 1e-07 1 1 0
1  3 0 0 100
0

0101000
-140 0 +138 0 *
Ed
 1e-07 1 1 0
1  4 0 0 100
0

0101000
-138 0 +142 0 *
Wi

0101100
-141 0 -139 0 +137 0 +136 0 *
Fa
0  1e-07 1 0

0111000
+135 0 *
Ve
1e-07
270 -50 50
0 0

0101101
*
Ve
1e-07
270 -50 -50
0 0

0101101
*
Ed
 1e-07 1 1 0
1  5 0 0 100
0

0101000
-133 0 +132 0 *
Ve
1e-07
270 50 50
0 0

0101101
*
Ed
 1e-07 1 1 0
1  6 0 0 100
0

0101000
-130 0 +133 0 *
Ve
1e-07
270 50 -50
0 0

0101101
*
Ed
 1e-07 1 1 0
1  7 0 0 100
0

0101000
-130 0 +128 0 *
Ed
 1e-07 1 1 0
1  8 0 0 100
0

0101000
-128 0 +132 0 *
Wi

0101100
-131 0 -129 0 +127 0 +126 0 *
Fa
0  1e-07 2 0

0111000
+125 0 *
Ed
 1e-07 1 1 0
1  9 0 0 540
0

0101000
-132 0 +142 0 *
Ed
 1e-07 1 1 0
1  10 0 0 540
0

0101000
-133 0 +143 0 *
Wi

0101100
-123 0 -131 0 +122 0 +141 0 *
Fa
0  1e-07 3 0

0111000
+121 0 *
Ed
 1e-07 1 1 0
1  11 0 0 540
0

0101000
-128 0 +138 0 *
Ed
 1e-07 1 1 0
1  12 0 0 540
0

0101000
-130 0 +140 0 *
Wi

0101100
-119 0 -127 0 +118 0 +137 0 *
Fa
0  1e-07 4 0

0111000
+117 0 *
Wi

0101100
-136 0 -119 0 +126 0 +123 0 *
Fa
0  1e-07 5 0

0111000
+115 0 *
Wi

0101100
-139 0 -118 0 +129 0 +122 0 *
Fa
0  1e-07 6 0

0111000
+113 0 *
Sh

0101100
-134 0 +124 0 -120 0 +116 0 -114 0 +112 0 *
So

0100000
+111 0 *
Co

0100000
+110 3 *
Ve
1e-07
-50 -400 50
0 0

0101101
*
Ve
1e-07
-50 -400 -50
0 0

0101101
*
Ed
 1e-07 1 1 0
1  13 0 0 100
0

0101000
-108 0 +107 0 *
Ve
1e-07
-50 400 50
0 0

0101101
*
Ed
 1e-07 1 1 0
1  14 0 0 800
0

0101000
-105 0 +108 0 *
Ve
1e-07
-50 400 -50
0 0

0101101
*
Ed
 1e-07 1 1 0
1  15 0 0 100
0

0101000
-105 0 +103 0 *
Ed
 1e-07 1 1 0
1  16 0 0 800
0

0101000
-103 0 +107 0 *
Wi

0101100
-106 0 -104 0 +102 0 +101 0 *
Fa
0  1e-07 7 0

0111000
+100 0 *
Ve
1e-07
50 -400 50
0 0

0101101
*
Ve
1e-07
50 -400 -50
0 0

0101101
*
Ed
 1e-07 1 1 0
1  17 0 0 100
0

0101000
-98 0 +97 0 *
Ve
1e-07
50 400 50
0 0

0101101
*
Ed
 1e-07 1 1 0
1  18 0 0 800
0

0101000
-95 0 +98 0 *
Ve
1e-07
50 400 -50
0 0

0101101
*
Ed
 1e-07 1 1 0
1  19 0 0 100
0

0101000
-95 0 +93 0 *
Ed
 1e-07 1 1 0
1  20 0 0 800
0

0101000
-93 0 +97 0 *
Wi

0101100
-96 0 -94 0 +92 0 +91 0 *
Fa
0  1e-07 8 0

0111000
+90 0 *
Ed
 1e-07 1 1 0
1  21 0 0 100
0

0101000
-97 0 +107 0 *
Ed
 1e-07 1 1 0
1  22 0 0 100
0

0101000
-98 0 +108 0 *
Wi

0101100
-88 0 -96 0 +87 0 +106 0 *
Fa
0  1e-07 9 0

0111000
+86 0 *
Ed
 1e-07 1 1 0
1  23 0 0 100
0

0101000
-93 0 +103 0 *
Ed
 1e-07 1 1 0
1  24 0 0 100
0

0101000
-95 0 +105 0 *
Wi

0101100
-84 0 -92 0 +83 0 +102 0 *
Fa
0  1e-07 10 0

0111000
+82 0 *
Wi

0101100
-101 0 -84 0 +91 0 +88 0 *
Fa
0  1e-07 11 0

0111000
+80 0 *
Wi

0101100
-104 0 -83 0 +94 0 +87 0 *
Fa
0  1e-07 12 0

0111000
+78 0 *
Sh

0101100
-99 0 +89 0 -85 0 +81 0 -79 0 +77 0 *
So

0100000
+76 0 *
Co

0100000
+75 98 *
Ve
1e-07
-100 -5 5000
0 0

0101101
*
Ve
1e-07
-100 -5 -5000
0 0

0101101
*
Ed
 1e-07 1 1 0
1  25 0 0 10000
0

0101000
-73 0 +72 0 *
Ve
1e-07
-100 5 5000
0 0

0101101
*
Ed
 1e-07 1 1 0
1  26 0 0 10
0

0101000
-70 0 +73 0 *
Ve
1e-07
-100 5 -5000
0 0

0101101
*
Ed
 1e-07 1 1 0
1  27 0 0 10000
0

0101000
-70 0 +68 0 *
Ed
 1e-07 1 1 0
1  28 0 0 10
0

0101000
-68 0 +72 0 *
Wi

0101100
-71 0 -69 0 +67 0 +66 0 *
Fa
0  1e-07 13 0

0111000
+65 0 *
Ve
1e-07
100 -5 5000
0 0

0101101
*
Ve
1e-07
100 -5 -5000
0 0

0101101
*
Ed
 1e-07 1 1 0
1  29 0 0 10000
0

0101000
-63 0 +62 0 *
Ve
1e-07
100 5 5000
0 0

0101101
*
Ed
 1e-07 1 1 0
1  30 0 0 10
0

0101000
-60 0 +63 0 *
Ve
1e-07
100 5 -5000
0 0

0101101
*
Ed
 1e-07 1 1 0
1  31 0 0 10000
0

0101000
-60 0 +58 0 *
Ed
 1e-07 1 1 0
1  32 0 0 10
0

0101000
-58 0 +62 0 *
Wi

0101100
-61 0 -59 0 +57 0 +56 0 *
Fa
0  1e-07 14 0

0111000
+55 0 *
Ed
 1e-07 1 1 0
1  33 0 0 200
0

0101000
-62 0 +72 0 *
Ed
 1e-07 1 1 0
1  34 0 0 200
0

0101000
-63 0 +73 0 *
Wi

0101100
-53 0 -61 0 +52 0 +71 0 *
Fa
0  1e-07 15 0

0111000
+51 0 *
Ed
 1e-07 1 1 0
1  35 0 0 200
0

0101000
-58 0 +68 0 *
Ed
 1e-07 1 1 0
1  36 0 0 200
0

0101000
-60 0 +70 0 *
Wi

0101100
-49 0 -57 0 +48 0 +67 0 *
Fa
0  1e-07 16 0

0111000
+47 0 *
Wi

0101100
-66 0 -49 0 +56 0 +53 0 *
Fa
0  1e-07 17 0

0111000
+45 0 *
Wi

0101100
-69 0 -48 0 +59 0 +52 0 *
Fa
0  1e-07 18 0

0111000
+43 0 *
Sh

0101100
-64 0 +54 0 -50 0 +46 0 -44 0 +42 0 *
So

0100000
+41 0 *
Co

0100000
+40 194 *
Ve
1e-07
-10 -70 5000
0 0

0101101
*
Ve
1e-07
-10 -70 -5000
0 0

0101101
*
Ed
 1e-07 1 1 0
1  37 0 0 10000
0

0101000
-38 0 +37 0 *
Ve
1e-07
-10 70 5000
0 0

0101101
*
Ed
 1e-07 1 1 0
1  38 0 0 140
0

0101000
-35 0 +38 0 *
Ve
1e-07
-10 70 -5000
0 0

0101101
*
Ed
 1e-07 1 1 0
1  39 0 0 10000
0

0101000
-35 0 +33 0 *
Ed
 1e-07 1 1 0
1  40 0 0 140
0

0101000
-33 0 +37 0 *
Wi

0101100
-36 0 -34 0 +32 0 +31 0 *
Fa
0  1e-07 19 0

0111000
+30 0 *
Ve
1e-07
10 -70 5000
0 0

0101101
*
Ve
1e-07
10 -70 -5000
0 0

0101101
*
Ed
 1e-07 1 1 0
1  41 0 0 10000
0

0101000
-28 0 +27 0 *
Ve
1e-07
10 70 5000
0 0

0101101
*
Ed
 1e-07 1 1 0
1  42 0 0 140
0

0101000
-25 0 +28 0 *
Ve
1e-07
10 70 -5000
0 0

0101101
*
Ed
 1e-07 1 1 0
1  43 0 0 10000
0

0101000
-25 0 +23 0 *
Ed
 1e-07 1 1 0
1  44 0 0 140
0

0101000
-23 0 +27 0 *
Wi

0101100
-26 0 -24 0 +22 0 +21 0 *
Fa
0  1e-07 20 0

0111000
+20 0 *
Ed
 1e-07 1 1 0
1  45 0 0 20
0

0101000
-27 0 +37 0 *
Ed
 1e-07 1 1 0
1  46 0 0 20
0

0101000
-28 0 +38 0 *
Wi

0101100
-18 0 -26 0 +17 0 +36 0 *
Fa
0  1e-07 21 0

0111000
+16 0 *
Ed
 1e-07 1 1 0
1  47 0 0 20
0

0101000
-23 0 +33 0 *
Ed
 1e-07 1 1 0
1  48 0 0 20
0

0101000
-25 0 +35 0 *
Wi

0101100
-14 0 -22 0 +13 0 +32 0 *
Fa
0  1e-07 22 0

0111000
+12 0 *
Wi

0101100
-31 0 -14 0 +21 0 +18 0 *
Fa
0  1e-07 23 0

0111000
+10 0 *
Wi

0101100
-34 0 -13 0 +24 0 +17 0 *
Fa
0  1e-07 24 0

0111000
+8 0 *
Sh

0101100
-29 0 +19 0 -15 0 +11 0 -9 0 +7 0 *
So

0100000
+6 0 *
Co

0100000
+5 199 *
Co

0100000
+39 193 +39 197 +4 198 *
Co

0100000
+109 2 +109 6 +109 9 +109 12 +109 15 +109 18 +109 21 +109 24 +109 27 +109 30 
+109 33 +109 36 +109 39 +109 42 +109 45 +109 48 +109 51 +109 54 +109 57 +109 60 
+109 63 +109 66 +109 69 +109 72 +109 75 +109 78 +109 81 +109 84 +109 87 +109 90 
+109 93 +109 96 +74 97 +74 101 +74 104 +74 107 +74 110 +74 113 +74 116 +74 119 
+74 122 +74 125 +74 128 +74 131 +74 134 +74 137 +74 140 +74 143 +74 146 +74 149 
+74 152 +74 155 +74 158 +74 161 +74 164 +74 167 +74 170 +74 173 +74 176 +74 179 
+74 182 +74 185 +74 188 +74 191 +3 192 +3 202 +3 205 +3 208 +3 211 +3 214 
*
Co

1100000
+2 1 *

+1 0 