DBRep_DrawableShape

CASCADE Topology V1, (c) Matra-Datavision
Locations 18
1
              1               0               0               0 
              0               1               0               0 
              0               0               1               0 
1
              1               0               0               0 
              0               1               0               0 
              0               0               1               0 
1
              1               0               0               0 
              0               1               0               0 
              0               0               1               0 
2  2 1 3 1 0
1
              1               0               0               0 
              0               1               0               0 
              0               0               1               0 
1
              1               0               0               0 
              0               1               0               0 
              0               0               1               0 
1
              1               0               0               0 
              0               1               0               0 
              0               0               1               0 
1
              1               0               0               0 
              0               1               0               0 
              0               0               1               0 
1
              1               0               0            -360 
              0               1               0               0 
              0               0               1               0 
1
              1               0               0               0 
              0               1               0               0 
              0               0               1               0 
1
              1               0               0               0 
              0               1               0               0 
              0               0               1               0 
1
              1               0               0             360 
              0               1               0               0 
              0               0               1               0 
2  11 1 12 1 0
1
              1               0               0               0 
              0               1               0            -395 
              0               0               1               0 
1
              1               0               0               0 
              0               1               0               0 
              0               0               1               0 
1
              1               0               0               0 
              0               1               0               0 
              0               0               1               0 
1
              1               0               0               0 
              0               1               0             395 
              0               0               1               0 
2  16 1 17 1 0
Curve2ds 0
Curves 60
1 -370 -405 -1369.4999694824219 0 0 1 
1 -370 -405 1369.4999694824219 0 1 0 
1 -370 405 -1369.4999694824219 0 0 1 
1 -370 -405 -1369.4999694824219 0 1 0 
1 370 -405 -1369.4999694824219 0 0 1 
1 370 -405 1369.4999694824219 0 1 0 
1 370 405 -1369.4999694824219 0 0 1 
1 370 -405 -1369.4999694824219 0 1 0 
1 -370 -405 -1369.4999694824219 1 0 0 
1 -370 -405 1369.4999694824219 1 0 0 
1 -370 405 -1369.4999694824219 1 0 0 
1 -370 405 1369.4999694824219 1 0 0 
1 -350 -385 -1369.4999694824219 0 0 1 
1 -350 -385 1369.4999694824219 0 1 0 
1 -350 385 -1369.4999694824219 0 0 1 
1 -350 -385 -1369.4999694824219 0 1 0 
1 350 -385 -1369.4999694824219 0 0 1 
1 350 -385 1369.4999694824219 0 1 0 
1 350 385 -1369.4999694824219 0 0 1 
1 350 -385 -1369.4999694824219 0 1 0 
1 -350 -385 -1369.4999694824219 1 0 0 
1 -350 -385 1369.4999694824219 1 0 0 
1 -350 385 -1369.4999694824219 1 0 0 
1 -350 385 1369.4999694824219 1 0 0 
1 -300 -335 -1319.4999694824219 0 0 1 
1 -300 -335 1319.4999694824219 0 1 0 
1 -300 335 -1319.4999694824219 0 0 1 
1 -300 -335 -1319.4999694824219 0 1 0 
1 300 -335 -1319.4999694824219 0 0 1 
1 300 -335 1319.4999694824219 0 1 0 
1 300 335 -1319.4999694824219 0 0 1 
1 300 -335 -1319.4999694824219 0 1 0 
1 -300 -335 -1319.4999694824219 1 0 0 
1 -300 -335 1319.4999694824219 1 0 0 
1 -300 335 -1319.4999694824219 1 0 0 
1 -300 335 1319.4999694824219 1 0 0 
1 -10 -385 -1200 0 0 1 
1 -10 -385 1200 0 1 0 
1 -10 385 -1200 0 0 1 
1 -10 -385 -1200 0 1 0 
1 10 -385 -1200 0 0 1 
1 10 -385 1200 0 1 0 
1 10 385 -1200 0 0 1 
1 10 -385 -1200 0 1 0 
1 -10 -385 -1200 1 0 0 
1 -10 -385 1200 1 0 0 
1 -10 385 -1200 1 0 0 
1 -10 385 1200 1 0 0 
1 -350 -10 -1200 0 0 1 
1 -350 -10 1200 0 1 0 
1 -350 10 -1200 0 0 1 
1 -350 -10 -1200 0 1 0 
1 350 -10 -1200 0 0 1 
1 350 -10 1200 0 1 0 
1 350 10 -1200 0 0 1 
1 350 -10 -1200 0 1 0 
1 -350 -10 -1200 1 0 0 
1 -350 -10 1200 1 0 0 
1 -350 10 -1200 1 0 0 
1 -350 10 1200 1 0 0 
Polygon3D 0
PolygonOnTriangulations 0
Surfaces 30
1 -370 -405 -1369.4999694824219 1 0 0 0 0 1 0 -1 0 
1 370 -405 -1369.4999694824219 1 0 0 0 0 1 0 -1 0 
1 -370 -405 -1369.4999694824219 0 1 0 0 0 1 1 0 0 
1 -370 405 -1369.4999694824219 0 1 0 0 0 1 1 0 0 
1 -370 -405 -1369.4999694824219 0 0 1 1 0 0 0 1 0 
1 -370 -405 1369.4999694824219 0 0 1 1 0 0 0 1 0 
1 -350 -385 -1369.4999694824219 1 0 0 0 0 1 0 -1 0 
1 350 -385 -1369.4999694824219 1 0 0 0 0 1 0 -1 0 
1 -350 -385 -1369.4999694824219 0 1 0 0 0 1 1 0 0 
1 -350 385 -1369.4999694824219 0 1 0 0 0 1 1 0 0 
1 -350 -385 -1369.4999694824219 0 0 1 1 0 0 0 1 0 
1 -350 -385 1369.4999694824219 0 0 1 1 0 0 0 1 0 
1 -300 -335 -1319.4999694824219 1 0 0 0 0 1 0 -1 0 
1 300 -335 -1319.4999694824219 1 0 0 0 0 1 0 -1 0 
1 -300 -335 -1319.4999694824219 0 1 0 0 0 1 1 0 0 
1 -300 335 -1319.4999694824219 0 1 0 0 0 1 1 0 0 
1 -300 -335 -1319.4999694824219 0 0 1 1 0 0 0 1 0 
1 -300 -335 1319.4999694824219 0 0 1 1 0 0 0 1 0 
1 -10 -385 -1200 1 0 0 0 0 1 0 -1 0 
1 10 -385 -1200 1 0 0 0 0 1 0 -1 0 
1 -10 -385 -1200 0 1 0 0 0 1 1 0 0 
1 -10 385 -1200 0 1 0 0 0 1 1 0 0 
1 -10 -385 -1200 0 0 1 1 0 0 0 1 0 
1 -10 -385 1200 0 0 1 1 0 0 0 1 0 
1 -350 -10 -1200 1 0 0 0 0 1 0 -1 0 
1 350 -10 -1200 1 0 0 0 0 1 0 -1 0 
1 -350 -10 -1200 0 1 0 0 0 1 1 0 0 
1 -350 10 -1200 0 1 0 0 0 1 1 0 0 
1 -350 -10 -1200 0 0 1 1 0 0 0 1 0 
1 -350 -10 1200 0 0 1 1 0 0 0 1 0 
Triangulations 0

TShapes 176
Ve
1e-07
-370 -405 1369.49996948242
0 0

0101101
*
Ve
1e-07
-370 -405 -1369.49996948242
0 0

0101101
*
Ed
 1e-07 1 1 0
1  1 0 0 2738.99993896484
0

0101000
-176 0 +175 0 *
Ve
1e-07
-370 405 1369.49996948242
0 0

0101101
*
Ed
 1e-07 1 1 0
1  2 0 0 810
0

0101000
-173 0 +176 0 *
Ve
1e-07
-370 405 -1369.49996948242
0 0

0101101
*
Ed
 1e-07 1 1 0
1  3 0 0 2738.99993896484
0

0101000
-173 0 +171 0 *
Ed
 1e-07 1 1 0
1  4 0 0 810
0

0101000
-171 0 +175 0 *
Wi

0101100
-174 0 -172 0 +170 0 +169 0 *
Fa
0  1e-07 1 0

0111000
+168 0 *
Ve
1e-07
370 -405 1369.49996948242
0 0

0101101
*
Ve
1e-07
370 -405 -1369.49996948242
0 0

0101101
*
Ed
 1e-07 1 1 0
1  5 0 0 2738.99993896484
0

0101000
-166 0 +165 0 *
Ve
1e-07
370 405 1369.49996948242
0 0

0101101
*
Ed
 1e-07 1 1 0
1  6 0 0 810
0

0101000
-163 0 +166 0 *
Ve
1e-07
370 405 -1369.49996948242
0 0

0101101
*
Ed
 1e-07 1 1 0
1  7 0 0 2738.99993896484
0

0101000
-163 0 +161 0 *
Ed
 1e-07 1 1 0
1  8 0 0 810
0

0101000
-161 0 +165 0 *
Wi

0101100
-164 0 -162 0 +160 0 +159 0 *
Fa
0  1e-07 2 0

0111000
+158 0 *
Ed
 1e-07 1 1 0
1  9 0 0 740
0

0101000
-165 0 +175 0 *
Ed
 1e-07 1 1 0
1  10 0 0 740
0

0101000
-166 0 +176 0 *
Wi

0101100
-156 0 -164 0 +155 0 +174 0 *
Fa
0  1e-07 3 0

0111000
+154 0 *
Ed
 1e-07 1 1 0
1  11 0 0 740
0

0101000
-161 0 +171 0 *
Ed
 1e-07 1 1 0
1  12 0 0 740
0

0101000
-163 0 +173 0 *
Wi

0101100
-152 0 -160 0 +151 0 +170 0 *
Fa
0  1e-07 4 0

0111000
+150 0 *
Wi

0101100
-169 0 -152 0 +159 0 +156 0 *
Fa
0  1e-07 5 0

0111000
+148 0 *
Wi

0101100
-172 0 -151 0 +162 0 +155 0 *
Fa
0  1e-07 6 0

0111000
+146 0 *
Sh

0101100
-167 0 +157 0 -153 0 +149 0 -147 0 +145 0 *
So

0100000
+144 0 *
Ve
1e-07
-350 -385 1369.49996948242
0 0

0101101
*
Ve
1e-07
-350 -385 -1369.49996948242
0 0

0101101
*
Ed
 1e-07 1 1 0
1  13 0 0 2738.99993896484
0

0101000
-142 0 +141 0 *
Ve
1e-07
-350 385 1369.49996948242
0 0

0101101
*
Ed
 1e-07 1 1 0
1  14 0 0 770
0

0101000
-139 0 +142 0 *
Ve
1e-07
-350 385 -1369.49996948242
0 0

0101101
*
Ed
 1e-07 1 1 0
1  15 0 0 2738.99993896484
0

0101000
-139 0 +137 0 *
Ed
 1e-07 1 1 0
1  16 0 0 770
0

0101000
-137 0 +141 0 *
Wi

0101100
-140 0 -138 0 +136 0 +135 0 *
Fa
0  1e-07 7 0

0111000
+134 0 *
Ve
1e-07
350 -385 1369.49996948242
0 0

0101101
*
Ve
1e-07
350 -385 -1369.49996948242
0 0

0101101
*
Ed
 1e-07 1 1 0
1  17 0 0 2738.99993896484
0

0101000
-132 0 +131 0 *
Ve
1e-07
350 385 1369.49996948242
0 0

0101101
*
Ed
 1e-07 1 1 0
1  18 0 0 770
0

0101000
-129 0 +132 0 *
Ve
1e-07
350 385 -1369.49996948242
0 0

0101101
*
Ed
 1e-07 1 1 0
1  19 0 0 2738.99993896484
0

0101000
-129 0 +127 0 *
Ed
 1e-07 1 1 0
1  20 0 0 770
0

0101000
-127 0 +131 0 *
Wi

0101100
-130 0 -128 0 +126 0 +125 0 *
Fa
0  1e-07 8 0

0111000
+124 0 *
Ed
 1e-07 1 1 0
1  21 0 0 700
0

0101000
-131 0 +141 0 *
Ed
 1e-07 1 1 0
1  22 0 0 700
0

0101000
-132 0 +142 0 *
Wi

0101100
-122 0 -130 0 +121 0 +140 0 *
Fa
0  1e-07 9 0

0111000
+120 0 *
Ed
 1e-07 1 1 0
1  23 0 0 700
0

0101000
-127 0 +137 0 *
Ed
 1e-07 1 1 0
1  24 0 0 700
0

0101000
-129 0 +139 0 *
Wi

0101100
-118 0 -126 0 +117 0 +136 0 *
Fa
0  1e-07 10 0

0111000
+116 0 *
Wi

0101100
-135 0 -118 0 +125 0 +122 0 *
Fa
0  1e-07 11 0

0111000
+114 0 *
Wi

0101100
-138 0 -117 0 +128 0 +121 0 *
Fa
0  1e-07 12 0

0111000
+112 0 *
Sh

0101100
-133 0 +123 0 -119 0 +115 0 -113 0 +111 0 *
So

0100000
+110 0 *
Ve
1e-07
-300 -335 1319.49996948242
0 0

0101101
*
Ve
1e-07
-300 -335 -1319.49996948242
0 0

0101101
*
Ed
 1e-07 1 1 0
1  25 0 0 2638.99993896484
0

0101000
-108 0 +107 0 *
Ve
1e-07
-300 335 1319.49996948242
0 0

0101101
*
Ed
 1e-07 1 1 0
1  26 0 0 670
0

0101000
-105 0 +108 0 *
Ve
1e-07
-300 335 -1319.49996948242
0 0

0101101
*
Ed
 1e-07 1 1 0
1  27 0 0 2638.99993896484
0

0101000
-105 0 +103 0 *
Ed
 1e-07 1 1 0
1  28 0 0 670
0

0101000
-103 0 +107 0 *
Wi

0101100
-106 0 -104 0 +102 0 +101 0 *
Fa
0  1e-07 13 0

0111000
+100 0 *
Ve
1e-07
300 -335 1319.49996948242
0 0

0101101
*
Ve
1e-07
300 -335 -1319.49996948242
0 0

0101101
*
Ed
 1e-07 1 1 0
1  29 0 0 2638.99993896484
0

0101000
-98 0 +97 0 *
Ve
1e-07
300 335 1319.49996948242
0 0

0101101
*
Ed
 1e-07 1 1 0
1  30 0 0 670
0

0101000
-95 0 +98 0 *
Ve
1e-07
300 335 -1319.49996948242
0 0

0101101
*
Ed
 1e-07 1 1 0
1  31 0 0 2638.99993896484
0

0101000
-95 0 +93 0 *
Ed
 1e-07 1 1 0
1  32 0 0 670
0

0101000
-93 0 +97 0 *
Wi

0101100
-96 0 -94 0 +92 0 +91 0 *
Fa
0  1e-07 14 0

0111000
+90 0 *
Ed
 1e-07 1 1 0
1  33 0 0 600
0

0101000
-97 0 +107 0 *
Ed
 1e-07 1 1 0
1  34 0 0 600
0

0101000
-98 0 +108 0 *
Wi

0101100
-88 0 -96 0 +87 0 +106 0 *
Fa
0  1e-07 15 0

0111000
+86 0 *
Ed
 1e-07 1 1 0
1  35 0 0 600
0

0101000
-93 0 +103 0 *
Ed
 1e-07 1 1 0
1  36 0 0 600
0

0101000
-95 0 +105 0 *
Wi

0101100
-84 0 -92 0 +83 0 +102 0 *
Fa
0  1e-07 16 0

0111000
+82 0 *
Wi

0101100
-101 0 -84 0 +91 0 +88 0 *
Fa
0  1e-07 17 0

0111000
+80 0 *
Wi

0101100
-104 0 -83 0 +94 0 +87 0 *
Fa
0  1e-07 18 0

0111000
+78 0 *
Sh

0101100
-99 0 +89 0 -85 0 +81 0 -79 0 +77 0 *
So

0100000
+76 0 *
Co

0100000
+75 8 *
Co

0100000
+109 6 +74 7 *
Ve
1e-07
-10 -385 1200
0 0

0101101
*
Ve
1e-07
-10 -385 -1200
0 0

0101101
*
Ed
 1e-07 1 1 0
1  37 0 0 2400
0

0101000
-72 0 +71 0 *
Ve
1e-07
-10 385 1200
0 0

0101101
*
Ed
 1e-07 1 1 0
1  38 0 0 770
0

0101000
-69 0 +72 0 *
Ve
1e-07
-10 385 -1200
0 0

0101101
*
Ed
 1e-07 1 1 0
1  39 0 0 2400
0

0101000
-69 0 +67 0 *
Ed
 1e-07 1 1 0
1  40 0 0 770
0

0101000
-67 0 +71 0 *
Wi

0101100
-70 0 -68 0 +66 0 +65 0 *
Fa
0  1e-07 19 0

0111000
+64 0 *
Ve
1e-07
10 -385 1200
0 0

0101101
*
Ve
1e-07
10 -385 -1200
0 0

0101101
*
Ed
 1e-07 1 1 0
1  41 0 0 2400
0

0101000
-62 0 +61 0 *
Ve
1e-07
10 385 1200
0 0

0101101
*
Ed
 1e-07 1 1 0
1  42 0 0 770
0

0101000
-59 0 +62 0 *
Ve
1e-07
10 385 -1200
0 0

0101101
*
Ed
 1e-07 1 1 0
1  43 0 0 2400
0

0101000
-59 0 +57 0 *
Ed
 1e-07 1 1 0
1  44 0 0 770
0

0101000
-57 0 +61 0 *
Wi

0101100
-60 0 -58 0 +56 0 +55 0 *
Fa
0  1e-07 20 0

0111000
+54 0 *
Ed
 1e-07 1 1 0
1  45 0 0 20
0

0101000
-61 0 +71 0 *
Ed
 1e-07 1 1 0
1  46 0 0 20
0

0101000
-62 0 +72 0 *
Wi

0101100
-52 0 -60 0 +51 0 +70 0 *
Fa
0  1e-07 21 0

0111000
+50 0 *
Ed
 1e-07 1 1 0
1  47 0 0 20
0

0101000
-57 0 +67 0 *
Ed
 1e-07 1 1 0
1  48 0 0 20
0

0101000
-59 0 +69 0 *
Wi

0101100
-48 0 -56 0 +47 0 +66 0 *
Fa
0  1e-07 22 0

0111000
+46 0 *
Wi

0101100
-65 0 -48 0 +55 0 +52 0 *
Fa
0  1e-07 23 0

0111000
+44 0 *
Wi

0101100
-68 0 -47 0 +58 0 +51 0 *
Fa
0  1e-07 24 0

0111000
+42 0 *
Sh

0101100
-63 0 +53 0 -49 0 +45 0 -43 0 +41 0 *
So

0100000
+40 0 *
Co

0100000
+39 10 *
Ve
1e-07
-350 -10 1200
0 0

0101101
*
Ve
1e-07
-350 -10 -1200
0 0

0101101
*
Ed
 1e-07 1 1 0
1  49 0 0 2400
0

0101000
-37 0 +36 0 *
Ve
1e-07
-350 10 1200
0 0

0101101
*
Ed
 1e-07 1 1 0
1  50 0 0 20
0

0101000
-34 0 +37 0 *
Ve
1e-07
-350 10 -1200
0 0

0101101
*
Ed
 1e-07 1 1 0
1  51 0 0 2400
0

0101000
-34 0 +32 0 *
Ed
 1e-07 1 1 0
1  52 0 0 20
0

0101000
-32 0 +36 0 *
Wi

0101100
-35 0 -33 0 +31 0 +30 0 *
Fa
0  1e-07 25 0

0111000
+29 0 *
Ve
1e-07
350 -10 1200
0 0

0101101
*
Ve
1e-07
350 -10 -1200
0 0

0101101
*
Ed
 1e-07 1 1 0
1  53 0 0 2400
0

0101000
-27 0 +26 0 *
Ve
1e-07
350 10 1200
0 0

0101101
*
Ed
 1e-07 1 1 0
1  54 0 0 20
0

0101000
-24 0 +27 0 *
Ve
1e-07
350 10 -1200
0 0

0101101
*
Ed
 1e-07 1 1 0
1  55 0 0 2400
0

0101000
-24 0 +22 0 *
Ed
 1e-07 1 1 0
1  56 0 0 20
0

0101000
-22 0 +26 0 *
Wi

0101100
-25 0 -23 0 +21 0 +20 0 *
Fa
0  1e-07 26 0

0111000
+19 0 *
Ed
 1e-07 1 1 0
1  57 0 0 700
0

0101000
-26 0 +36 0 *
Ed
 1e-07 1 1 0
1  58 0 0 700
0

0101000
-27 0 +37 0 *
Wi

0101100
-17 0 -25 0 +16 0 +35 0 *
Fa
0  1e-07 27 0

0111000
+15 0 *
Ed
 1e-07 1 1 0
1  59 0 0 700
0

0101000
-22 0 +32 0 *
Ed
 1e-07 1 1 0
1  60 0 0 700
0

0101000
-24 0 +34 0 *
Wi

0101100
-13 0 -21 0 +12 0 +31 0 *
Fa
0  1e-07 28 0

0111000
+11 0 *
Wi

0101100
-30 0 -13 0 +20 0 +17 0 *
Fa
0  1e-07 29 0

0111000
+9 0 *
Wi

0101100
-33 0 -12 0 +23 0 +16 0 *
Fa
0  1e-07 30 0

0111000
+7 0 *
Sh

0101100
-28 0 +18 0 -14 0 +10 0 -8 0 +6 0 *
So

0100000
+5 0 *
Co

0100000
+4 15 *
Co

0100000
+143 4 +73 5 +38 9 +38 13 +3 14 +3 18 *
Co

1100000
+2 1 *

+1 0 