DBRep_DrawableShape

CASCADE Topology V1, (c) Matra-Datavision
Locations 8
1
              1               0               0               0 
              0               1               0               0 
              0               0               1               0 
1
              1               0               0               0 
              0               1               0               0 
              0               0               1               0 
1
              1               0               0               0 
              0               1               0               0 
              0               0               1               0 
2  2 1 3 1 0
1
0.933580426497202 -0.3583679495453               0               0 
0.3583679495453 0.933580426497202               0               0 
              0               0               1               0 
2  5 -1 0
1
0.999975630705395 -0.00698126029796153               0               0 
0.00698126029796153 0.999975630705395               0               0 
              0               0               1               0 
2  5 -1 7 -1 0
Curve2ds 8
1 0 916.52962990838432 1 0 
1 0.0069813170079772941 7544.4239632330027 0 -1 
1 0 0 1 0 
1 0 -0 0 1 
1 0 830.00000006024095 1 0 
7 0 0  4 5 2  0.0069813170079772932 0  0.0069813170079772932 207.50000001090865  0.0069813170079772949 415.00000001938486  0.0069813170079772932 622.50000004932929  0.0069813170079772932 830.00000006024095 
 0 5 1 5
1 0 0 1 0 
1 0 -0 0 1 
Curves 12
2 0 0 414.99999999999989 0 -0 1 0.93358042649720174 0.35836794954530027 0 -0.35836794954530027 0.93358042649720174 0 2811.25
1 0 0 6417.154340836013 0.39491134449492693 0.15476406357471328 -0.90558992629945456 
2 0 0 -415 0 -0 1 0.93358042649720174 0.35836794954530027 0 -0.35836794954530027 0.93358042649720174 0 3200
1 2987.4573647910461 1146.7774385449602 -415 -0.39598216899661537 -0.15200331319311661 0.90558992629945434 
1 2995.3905143647139 1125.8932748950463 415 -0.93605953573897327 -0.35184164840470206 0 
2 0 0 415 0 -0 1 0.93358042649720174 0.35836794954530027 0 -0.35836794954530027 0.93358042649720174 0 2791.25
1 2987.4573647910456 1146.7774385449611 415 -0.93358042649720174 -0.35836794954530032 0 
7 0 0  4 5 2  2598.8002354681239 1018.4586755145377 -414.9999999895482  2598.8025631076634 1018.4595877064984 -207.49999999369982  2598.804890747203 1018.4604998984591 4.5925503400212619e-09  2598.8072183867421 1018.4614120904199 207.49999998140038  2598.8095460262816 1018.4623242823806 414.99999997725183 
 0 5 1 5
1 0 0 -415 0.93358042649720174 0.35836794954530032 0 
1 0 0 -415 0.93605953573897327 0.35184164840470206 0 
2 0 0 -415 0 -0 1 0.93358042649720174 0.35836794954530027 0 -0.35836794954530027 0.93358042649720174 0 2791.2400000000002
1 2605.8470296560499 1000.2909554888233 -415 1.124795694466707e-05 4.3176861386845259e-06 0.9999999999274205 
Polygon3D 0
PolygonOnTriangulations 0
Surfaces 6
3 0 0 -415 0 0 1 0.93358042649720174 0.35836794954530027 0 -0.35836794954530027 0.93358042649720174 0 3200
-0.43802783451755584
1 0 0 414.99999999999989 0 0 1 0.93358042649720174 0.35836794954530027 0 -0.35836794954530027 0.93358042649720174 0 
3 0 0 -415 0 0 1 0.93358042649720174 0.35836794954530027 0 -0.35836794954530027 0.93358042649720174 0 2791.2400000000002
1.2048192770216469e-05
1 1493.7286823955228 573.38871927248056 0 0.35836794954530032 -0.93358042649720174 -0 0 0 -1 0.93358042649720174 0.35836794954530032 0 
1 0 0 -415 0 0 1 0.93358042649720174 0.35836794954530027 0 -0.35836794954530027 0.93358042649720174 0 
1 1497.695257182357 562.94663744752313 0 0.35184164840470206 -0.93605953573897327 -0 0 0 -1 0.93605953573897327 0.35184164840470206 0 
Triangulations 0

TShapes 37
Ve
1.00001297079249e-07
2089.16589062333 1881.09341712634 415
0 0

0101101
*
Ve
1.00054447240176e-07
2075.98257633455 1895.6325870947 415
0 0

0101101
*
Ed
 1e-07 1 1 0
1  1 0 0 0.00698131700795796
2  1 1 0 0 0.00698131700795796
0

0101000
+37 6 -36 6 *
Ve
1.50001e-07
2363.05709000283 2157.76764026791 -415
0 0

0101101
*
Ed
 1e-07 1 1 0
1  2 0 6627.89433332462 7544.423963233
2  2 1 0 6627.89433332462 7544.423963233
0

0101000
+36 6 -34 6 *
Ve
1.0000245315279e-07
2378.06344152766 2141.21794034835 -415
0 0

0101101
*
Ed
 1e-07 1 1 0
1  3 0 0 0.00698131700797729
2  3 1 0 0 0.00698131700797729
0

0101000
+32 6 -34 6 *
Ed
 1.00001297079249e-07 1 1 0
1  4 0 0 916.529629908384
2  4 1 0 0 916.529629908384
0

0101000
+32 6 -37 6 *
Wi

0101100
-35 0 -33 0 +31 0 -30 0 *
Fa
0  1e-07 1 0

0111000
+29 0 *
Ve
1.00001142876034e-07
2074.30299411378 1867.71080499916 415
0 0

0101101
*
Ed
 1.00000113686838e-07 1 1 0
1  5 0 388.75 408.75
0

0101000
+37 8 -27 8 *
Ve
1.22748220046147e-07
2061.21346952196 1882.1465393431 415
0 0

0101101
*
Ed
 1.00000113686838e-07 1 1 0
1  6 0 0 0.00698131700799476
2  5 3 0 0 0.00698131700799476
0

0101000
+27 6 -25 6 *
Ed
 1.00000113686838e-07 1 1 0
1  7 0 388.75 408.75
0

0101000
+36 8 -25 8 *
Wi

0101100
-26 7 -24 0 +23 7 +35 0 *
Fa
0  1e-07 2 0

0111000
+22 0 *
Ve
1.10451913257455e-07
2061.20608496856 1882.13979631923 -415
0 0

0101101
*
Ed
 1e-07 1 1 0
1  8 0 0 1
2  6 3 0 0 1
0

0101000
+20 6 -25 6 *
Ed
 1e-07 1 1 0
1  9 0 2791.24 3200
0

0101000
+20 8 -34 8 *
Wi

0101100
-19 0 +23 7 -33 0 +18 7 *
Fa
0  1e-07 4 7

0111000
+17 0 *
Ve
1.00001143649434e-07
2074.29556266552 1867.7041136931 -415
0 0

0101101
*
Ed
 1e-07 1 1 0
1  10 0 2791.24 3200
0

0101000
+15 8 -32 8 *
Ed
 1e-07 1 1 0
1  11 0 0 0.00698131700799477
2  7 3 0 0 0.00698131700799477
0

0101000
+15 6 -20 6 *
Wi

0101100
+14 7 -13 0 -18 7 +31 0 *
Fa
0  1e-07 5 0

0111000
+12 0 *
Ed
 1.00001142876034e-07 1 1 0
1  12 0 0 830.000000060241
2  8 3 0 0 830.000000060241
0

0101000
-27 6 +15 6 *
Wi

0101100
-10 0 +26 7 +30 0 +14 7 *
Fa
0  1e-07 6 7

0111000
+9 0 *
Wi

0101100
-24 0 +19 0 +13 0 -10 0 *
Fa
0  1e-07 3 0

0111000
+7 0 *
Sh

0101100
+28 0 +21 0 -16 0 -11 0 +8 0 -6 0 *
So

0100000
+5 0 *
Co

0100000
+4 0 *
Co

0100000
+3 4 *
Co

1100000
+2 1 *

+1 0 