DBRep_DrawableShape

CASCADE Topology V1, (c) Matra-Datavision
Locations 21
1
              1               0               0               0 
              0               1               0               0 
              0               0               1               0 
1
              1               0               0 -244.499959945679 
              0               1               0               0 
              0               0               1 -1326.00002288818 
1
              1               0               0               0 
              0               1               0               0 
              0               0               1               0 
1
              1               0               0               0 
              0               1               0               0 
              0               0               1               0 
1
              1               0               0 -162.999973297119 
              0               1               0               0 
              0               0               1 -884.000015258789 
2  4 1 5 1 0
1
              1               0               0               0 
              0               1               0               0 
              0               0               1               0 
1
              1               0               0 -81.4999866485596 
              0               1               0               0 
              0               0               1 -442.000007629395 
2  7 1 8 1 0
1
              1               0               0               0 
              0               1               0               0 
              0               0               1               0 
1
              1               0               0               0 
              0               1               0               0 
              0               0               1               0 
2  10 1 11 1 0
1
              1               0               0               0 
              0               1               0               0 
              0               0               1               0 
1
              1               0               0 81.4999866485596 
              0               1               0               0 
              0               0               1 442.000007629395 
2  13 1 14 1 0
1
              1               0               0               0 
              0               1               0               0 
              0               0               1               0 
1
              1               0               0 162.999973297119 
              0               1               0               0 
              0               0               1 884.000015258789 
2  16 1 17 1 0
1
              1               0               0               0 
              0               1               0               0 
              0               0               1               0 
1
              1               0               0 244.499959945679 
              0               1               0               0 
              0               0               1 1326.00002288818 
2  19 1 20 1 0
Curve2ds 0
Curves 12
1 -727.24998474121094 -3045.4998779296875 -221.00000381469727 0 0 1 
1 -727.24998474121094 -3045.4998779296875 221.00000381469727 0 1 0 
1 -727.24998474121094 3045.4998779296875 -221.00000381469727 0 0 1 
1 -727.24998474121094 -3045.4998779296875 -221.00000381469727 0 1 0 
1 727.24998474121094 -3045.4998779296875 -221.00000381469727 0 0 1 
1 727.24998474121094 -3045.4998779296875 221.00000381469727 0 1 0 
1 727.24998474121094 3045.4998779296875 -221.00000381469727 0 0 1 
1 727.24998474121094 -3045.4998779296875 -221.00000381469727 0 1 0 
1 -727.24998474121094 -3045.4998779296875 -221.00000381469727 1 0 0 
1 -727.24998474121094 -3045.4998779296875 221.00000381469727 1 0 0 
1 -727.24998474121094 3045.4998779296875 -221.00000381469727 1 0 0 
1 -727.24998474121094 3045.4998779296875 221.00000381469727 1 0 0 
Polygon3D 0
PolygonOnTriangulations 0
Surfaces 6
1 -727.24998474121094 -3045.4998779296875 -221.00000381469727 1 0 0 0 0 1 0 -1 0 
1 727.24998474121094 -3045.4998779296875 -221.00000381469727 1 0 0 0 0 1 0 -1 0 
1 -727.24998474121094 -3045.4998779296875 -221.00000381469727 0 1 0 0 0 1 1 0 0 
1 -727.24998474121094 3045.4998779296875 -221.00000381469727 0 1 0 0 0 1 1 0 0 
1 -727.24998474121094 -3045.4998779296875 -221.00000381469727 0 0 1 1 0 0 0 1 0 
1 -727.24998474121094 -3045.4998779296875 221.00000381469727 0 0 1 1 0 0 0 1 0 
Triangulations 0

TShapes 37
Ve
1e-07
-727.249984741211 -3045.49987792969 221.000003814697
0 0

0101101
*
Ve
1e-07
-727.249984741211 -3045.49987792969 -221.000003814697
0 0

0101101
*
Ed
 1e-07 1 1 0
1  1 0 0 442.000007629395
0

0101000
-37 0 +36 0 *
Ve
1e-07
-727.249984741211 3045.49987792969 221.000003814697
0 0

0101101
*
Ed
 1e-07 1 1 0
1  2 0 0 6090.99975585938
0

0101000
-34 0 +37 0 *
Ve
1e-07
-727.249984741211 3045.49987792969 -221.000003814697
0 0

0101101
*
Ed
 1e-07 1 1 0
1  3 0 0 442.000007629395
0

0101000
-34 0 +32 0 *
Ed
 1e-07 1 1 0
1  4 0 0 6090.99975585938
0

0101000
-32 0 +36 0 *
Wi

0101100
-35 0 -33 0 +31 0 +30 0 *
Fa
0  1e-07 1 0

0111000
+29 0 *
Ve
1e-07
727.249984741211 -3045.49987792969 221.000003814697
0 0

0101101
*
Ve
1e-07
727.249984741211 -3045.49987792969 -221.000003814697
0 0

0101101
*
Ed
 1e-07 1 1 0
1  5 0 0 442.000007629395
0

0101000
-27 0 +26 0 *
Ve
1e-07
727.249984741211 3045.49987792969 221.000003814697
0 0

0101101
*
Ed
 1e-07 1 1 0
1  6 0 0 6090.99975585938
0

0101000
-24 0 +27 0 *
Ve
1e-07
727.249984741211 3045.49987792969 -221.000003814697
0 0

0101101
*
Ed
 1e-07 1 1 0
1  7 0 0 442.000007629395
0

0101000
-24 0 +22 0 *
Ed
 1e-07 1 1 0
1  8 0 0 6090.99975585938
0

0101000
-22 0 +26 0 *
Wi

0101100
-25 0 -23 0 +21 0 +20 0 *
Fa
0  1e-07 2 0

0111000
+19 0 *
Ed
 1e-07 1 1 0
1  9 0 0 1454.49996948242
0

0101000
-26 0 +36 0 *
Ed
 1e-07 1 1 0
1  10 0 0 1454.49996948242
0

0101000
-27 0 +37 0 *
Wi

0101100
-17 0 -25 0 +16 0 +35 0 *
Fa
0  1e-07 3 0

0111000
+15 0 *
Ed
 1e-07 1 1 0
1  11 0 0 1454.49996948242
0

0101000
-22 0 +32 0 *
Ed
 1e-07 1 1 0
1  12 0 0 1454.49996948242
0

0101000
-24 0 +34 0 *
Wi

0101100
-13 0 -21 0 +12 0 +31 0 *
Fa
0  1e-07 4 0

0111000
+11 0 *
Wi

0101100
-30 0 -13 0 +20 0 +17 0 *
Fa
0  1e-07 5 0

0111000
+9 0 *
Wi

0101100
-33 0 -12 0 +23 0 +16 0 *
Fa
0  1e-07 6 0

0111000
+7 0 *
Sh

0101100
-28 0 +18 0 -14 0 +10 0 -8 0 +6 0 *
So

0100000
+5 0 *
Co

0100000
+4 3 *
Co

0100000
+3 2 +3 6 +3 9 +3 12 +3 15 +3 18 +3 21 *
Co

1100000
+2 1 *

+1 0 