DBRep_DrawableShape

CASCADE Topology V1, (c) Matra-Datavision
Locations 14
1
              1               0               0               0 
              0               1               0               0 
              0               0               1               0 
1
              1               0               0               0 
              0               1               0               0 
              0               0               1               0 
1
              1               0               0               0 
              0               1               0 -1449.48394775391 
              0               0               1 1595.50018310547 
2  2 1 3 1 0
1
              1               0               0               0 
              0               1               0               0 
              0               0               1               0 
1
              1               0               0               0 
              0               1               0             140 
              0               0               1               0 
2  5 1 6 1 0
1
              1               0               0               0 
              0               1               0               0 
              0               0               1               0 
1
              1               0               0               0 
              0               1               0               0 
              0               0               1               0 
2  8 1 9 1 6 -1 5 -1 0
2  8 1 9 1 0
2  5 1 6 1 9 -1 8 -1 0
1
              1               0               0               0 
              0               1               0             140 
              0               0               1               0 
2  5 1 13 1 9 -1 8 -1 0
Curve2ds 52
1 0 0 1 0 
1 0 0 1 0 
1 0 0 0 1 
1 3441.0003662109375 0 0 -1 
1 0 -30 1 0 
1 0 0 1 0 
1 0 0 0 1 
1 0 0 0 -1 
1 0 0 0 1 
1 0 0 1 0 
1 0 -250 1 0 
1 0 0 1 0 
1 0 110 1 0 
1 0 110 1 0 
1 3441.0003662109375 0 0 1 
1 0 0 1 0 
1 0 30 1 0 
1 3441.0003662109375 0 0 1 
1 250 0 0 1 
1 3441.0003662109375 0 0 -1 
1 3441.0003662109375 0 0 1 
1 0 250 1 0 
1 3441.0003662109375 110 0 1 
1 3441.0003662109375 110 0 1 
1 0 30 1 0 
1 0 0 0 1 
1 0 -30 1 0 
1 0 250 1 0 
1 250 0 0 1 
1 0 0 0 -1 
1 0 0 0 1 
1 0 250 1 0 
1 0 110 0 1 
1 0 110 0 1 
1 0 0 1 0 
1 3441.0003662109375 0 0 -1 
1 0 0 0 1 
1 0 0 0 -1 
1 0 0 0 1 
1 0 250 1 0 
1 0 0 1 0 
1 3441.0003662109375 0 0 -1 
1 30 0 0 1 
1 0 0 1 0 
1 0 -250 1 0 
1 0 30 1 0 
1 0 140 1 0 
1 0 140 1 0 
1 0 0 0 -1 
1 30 0 0 1 
1 0 0 1 0 
1 0 0 1 0 
Curves 36
1 -17.5 -1294.4839477539062 -125 0 0 1 
1 -17.5 -1294.4839477539062 125 0 1 0 
1 -17.5 1294.4839477539062 -125 0 0 1 
1 -17.5 -1294.4839477539062 -125 0 1 0 
1 17.5 -1294.4839477539062 -125 0 0 1 
1 17.5 -1294.4839477539062 125 0 1 0 
1 17.5 1294.4839477539062 -125 0 0 1 
1 17.5 -1294.4839477539062 -125 0 1 0 
1 -17.5 -1294.4839477539062 -125 1 0 0 
1 -17.5 -1294.4839477539062 125 1 0 0 
1 -17.5 1294.4839477539062 -125 1 0 0 
1 -17.5 1294.4839477539062 125 1 0 0 
1 -125 -15 -1720.5001831054688 0 0 1 
1 -125 -15 1720.5001831054688 0 1 0 
1 -125 15 -1720.5001831054688 0 0 1 
1 -125 -15 -1720.5001831054688 0 1 0 
1 -125 -15 -1720.5001831054688 1 0 0 
1 -15 125 -1720.5001831054688 0 0 1 
1 -125 -15 1720.5001831054688 1 0 0 
1 -125 15 1720.5001831054688 1 0 0 
1 125 -15 1720.5001831054688 0 1 0 
1 -15 125 1720.5001831054688 1 0 0 
1 -125 15 -1720.5001831054688 1 0 0 
1 125 15 -1720.5001831054688 0 0 1 
1 125 -15 -1720.5001831054688 0 1 0 
1 -15 125 -1720.5001831054688 1 0 0 
1 -15 -125 -1720.5001831054688 0 0 1 
1 -15 -125 1720.5001831054688 0 1 0 
1 -15 -125 -1720.5001831054688 0 1 0 
1 125 -15 -1720.5001831054688 0 0 1 
1 15 -125 1720.5001831054688 0 1 0 
1 -15 -125 1720.5001831054688 1 0 0 
1 15 125 -1720.5001831054688 0 0 1 
1 15 -125 -1720.5001831054688 0 1 0 
1 -15 -125 -1720.5001831054688 1 0 0 
1 15 -125 -1720.5001831054688 0 0 1 
Polygon3D 0
PolygonOnTriangulations 0
Surfaces 18
1 -17.5 -1294.4839477539062 -125 1 0 0 0 0 1 0 -1 0 
1 17.5 -1294.4839477539062 -125 1 0 0 0 0 1 0 -1 0 
1 -17.5 -1294.4839477539062 -125 0 1 0 0 0 1 1 0 0 
1 -17.5 1294.4839477539062 -125 0 1 0 0 0 1 1 0 0 
1 -17.5 -1294.4839477539062 -125 0 0 1 1 0 0 0 1 0 
1 -17.5 -1294.4839477539062 125 0 0 1 1 0 0 0 1 0 
1 -125 -15 -1720.5001831054688 1 0 0 0 0 1 0 -1 0 
1 -125 -15 -1720.5001831054688 0 1 0 0 0 1 1 0 0 
1 -125 -15 1720.5001831054688 0 0 1 1 0 0 0 1 0 
1 -125 15 -1720.5001831054688 0 1 0 0 0 1 1 0 0 
1 -125 -15 -1720.5001831054688 0 0 1 1 0 0 0 1 0 
1 -15 -125 -1720.5001831054688 1 0 0 0 0 1 0 -1 0 
1 -15 125 -1720.5001831054688 0 1 0 0 0 1 1 0 0 
1 125 -15 -1720.5001831054688 1 0 0 0 0 1 0 -1 0 
1 -15 -125 1720.5001831054688 0 0 1 1 0 0 0 1 0 
1 -15 -125 -1720.5001831054688 0 0 1 1 0 0 0 1 0 
1 15 -125 -1720.5001831054688 1 0 0 0 0 1 0 -1 0 
1 -15 -125 -1720.5001831054688 0 1 0 0 0 1 1 0 0 
Triangulations 0

TShapes 104
Ve
1e-07
-17.5 -1294.48394775391 125
0 0

0101101
*
Ve
1e-07
-17.5 -1294.48394775391 -125
0 0

0101101
*
Ed
 1e-07 1 1 0
1  1 0 0 250
0

0101000
-104 0 +103 0 *
Ve
1e-07
-17.5 1294.48394775391 125
0 0

0101101
*
Ed
 1e-07 1 1 0
1  2 0 0 2588.96789550781
0

0101000
-101 0 +104 0 *
Ve
1e-07
-17.5 1294.48394775391 -125
0 0

0101101
*
Ed
 1e-07 1 1 0
1  3 0 0 250
0

0101000
-101 0 +99 0 *
Ed
 1e-07 1 1 0
1  4 0 0 2588.96789550781
0

0101000
-99 0 +103 0 *
Wi

0101100
-102 0 -100 0 +98 0 +97 0 *
Fa
0  1e-07 1 0

0111000
+96 0 *
Ve
1e-07
17.5 -1294.48394775391 125
0 0

0101101
*
Ve
1e-07
17.5 -1294.48394775391 -125
0 0

0101101
*
Ed
 1e-07 1 1 0
1  5 0 0 250
0

0101000
-94 0 +93 0 *
Ve
1e-07
17.5 1294.48394775391 125
0 0

0101101
*
Ed
 1e-07 1 1 0
1  6 0 0 2588.96789550781
0

0101000
-91 0 +94 0 *
Ve
1e-07
17.5 1294.48394775391 -125
0 0

0101101
*
Ed
 1e-07 1 1 0
1  7 0 0 250
0

0101000
-91 0 +89 0 *
Ed
 1e-07 1 1 0
1  8 0 0 2588.96789550781
0

0101000
-89 0 +93 0 *
Wi

0101100
-92 0 -90 0 +88 0 +87 0 *
Fa
0  1e-07 2 0

0111000
+86 0 *
Ed
 1e-07 1 1 0
1  9 0 0 35
0

0101000
-93 0 +103 0 *
Ed
 1e-07 1 1 0
1  10 0 0 35
0

0101000
-94 0 +104 0 *
Wi

0101100
-84 0 -92 0 +83 0 +102 0 *
Fa
0  1e-07 3 0

0111000
+82 0 *
Ed
 1e-07 1 1 0
1  11 0 0 35
0

0101000
-89 0 +99 0 *
Ed
 1e-07 1 1 0
1  12 0 0 35
0

0101000
-91 0 +101 0 *
Wi

0101100
-80 0 -88 0 +79 0 +98 0 *
Fa
0  1e-07 4 0

0111000
+78 0 *
Wi

0101100
-97 0 -80 0 +87 0 +84 0 *
Fa
0  1e-07 5 0

0111000
+76 0 *
Wi

0101100
-100 0 -79 0 +90 0 +83 0 *
Fa
0  1e-07 6 0

0111000
+74 0 *
Sh

0101100
-95 0 +85 0 -81 0 +77 0 -75 0 +73 0 *
So

0100000
+72 0 *
Ve
1e-07
-125 -15 1720.50018310547
0 0

0101101
*
Ve
1e-07
-125 -15 -1720.50018310547
0 0

0101101
*
Ed
 1e-07 1 1 0
1  13 0 0 3441.00036621094
2  1 8 0 0 3441.00036621094
2  2 7 0 0 3441.00036621094
0

0101000
-70 0 +69 0 *
Ve
1e-07
-125 15 1720.50018310547
0 0

0101101
*
Ed
 1e-07 1 1 0
1  14 0 0 30
2  3 9 0 0 30
2  4 7 0 0 30
0

0101000
-67 0 +70 0 *
Ve
1e-07
-125 15 -1720.50018310547
0 0

0101101
*
Ed
 1e-07 1 1 0
1  15 0 0 3441.00036621094
2  5 7 0 0 3441.00036621094
2  6 10 0 0 3441.00036621094
0

0101000
-67 0 +65 0 *
Ed
 1e-07 1 1 0
1  16 0 0 30
2  7 11 0 0 30
2  8 7 0 0 30
0

0101000
-65 0 +69 0 *
Wi

0101100
-68 0 -66 0 +64 0 +63 0 *
Fa
0  1e-07 7 0

0111000
+62 0 *
Ve
1e-07
-15 125 -1720.50018310547
0 0

0101101
*
Ed
 1e-07 1 1 0
1  17 0 0 110
2  9 8 0 0 110
2  10 11 0 0 110
0

0101000
+69 0 -60 10 *
Ve
1e-07
-15 125 1720.50018310547
0 0

0101101
*
Ed
 1e-07 1 1 0
1  18 0 0 3441.00036621094
2  11 12 0 0 3441.00036621094
2  12 13 0 0 3441.00036621094
2  13 8 12 0 3441.00036621094
2  14 8 14 0 3441.00036621094
0

0101000
-58 0 +60 0 *
Ed
 1e-07 1 1 0
1  19 0 0 110
2  15 8 0 0 110
2  16 9 0 0 110
0

0101000
+70 0 -58 10 *
Wi

0101100
-59 7 -57 11 +56 7 +68 7 *
Fa
0  1e-07 8 7

0111000
+55 0 *
Ve
1e-07
125 15 1720.50018310547
0 0

0101101
*
Ed
 1e-07 1 1 0
1  20 0 0 250
2  17 9 0 0 250
2  18 10 0 0 250
0

0101000
-53 0 +67 0 *
Ve
1e-07
125 -15 1720.50018310547
0 0

0101101
*
Ed
 1e-07 1 1 0
1  21 0 0 30
2  19 9 0 0 30
2  20 14 0 0 30
0

0101000
-53 0 +51 0 *
Ve
1e-07
15 125 1720.50018310547
0 0

0101101
*
Ed
 1e-07 1 1 0
1  22 0 0 30
2  21 13 0 0 30
2  22 15 0 0 30
2  23 8 12 0 30
2  24 8 14 0 30
0

0101000
-49 0 +58 0 *
Ed
 1e-07 1 1 0
1  19 0 140 250
2  15 8 0 140 250
2  16 9 0 140 250
0

0101000
+49 10 -51 0 *
Wi

0101100
-66 7 -52 7 +50 7 +56 7 +48 11 +47 7 *
Fa
0  1e-07 9 7

0111000
+46 0 *
Ve
1e-07
125 15 -1720.50018310547
0 0

0101101
*
Ed
 1e-07 1 1 0
1  23 0 0 250
2  25 11 0 0 250
2  26 10 0 0 250
0

0101000
-44 0 +65 0 *
Ed
 1e-07 1 1 0
1  24 0 0 3441.00036621094
2  27 14 0 0 3441.00036621094
2  28 10 0 0 3441.00036621094
0

0101000
-53 0 +44 0 *
Wi

0101100
-43 0 -42 0 +52 0 +64 0 *
Fa
0  1e-07 10 0

0111000
+41 0 *
Ve
1e-07
125 -15 -1720.50018310547
0 0

0101101
*
Ed
 1e-07 1 1 0
1  25 0 0 30
2  29 11 0 0 30
2  30 14 0 0 30
0

0101000
-44 0 +39 0 *
Ve
1e-07
15 125 -1720.50018310547
0 0

0101101
*
Ed
 1e-07 1 1 0
1  26 0 0 30
2  31 13 0 0 30
2  32 16 0 0 30
2  33 8 12 0 30
2  34 8 14 0 30
0

0101000
-37 0 +60 0 *
Ed
 1e-07 1 1 0
1  17 0 140 250
2  9 8 0 140 250
2  10 11 0 140 250
0

0101000
+37 10 -39 0 *
Wi

0101100
-63 7 -43 7 +38 7 +59 7 +36 11 +35 7 *
Fa
0  1e-07 11 7

0111000
+34 0 *
Ve
1e-07
-15 -125 1720.50018310547
0 0

0101101
*
Ve
1e-07
-15 -125 -1720.50018310547
0 0

0101101
*
Ed
 1e-07 1 1 0
1  27 0 0 3441.00036621094
2  35 12 0 0 3441.00036621094
0

0101000
-32 0 +31 0 *
Ed
 1e-07 1 1 0
1  28 0 0 250
2  36 12 0 0 250
2  37 15 0 0 250
0

0101000
-58 0 +32 0 *
Ed
 1e-07 1 1 0
1  29 0 0 250
2  38 12 0 0 250
2  39 16 0 0 250
0

0101000
-60 0 +31 0 *
Wi

0101100
-30 0 -29 0 +57 0 +28 0 *
Fa
0  1e-07 12 0

0111000
+27 0 *
Ed
 1e-07 1 1 0
1  30 0 0 3441.00036621094
2  40 8 0 0 3441.00036621094
2  41 14 0 0 3441.00036621094
0

0101000
-51 0 +39 0 *
Wi

0101100
-25 0 -50 0 +42 0 +38 0 *
Fa
0  1e-07 14 0

0111000
+24 0 *
Ve
1e-07
15 -125 1720.50018310547
0 0

0101101
*
Ed
 1e-07 1 1 0
1  31 0 0 250
2  42 17 0 0 250
2  43 15 0 0 250
0

0101000
-49 0 +22 0 *
Ed
 1e-07 1 1 0
1  32 0 0 30
2  44 15 0 0 30
0

0101000
-22 0 +32 0 *
Wi

0101100
-29 0 -48 0 +21 0 +20 0 *
Fa
0  1e-07 15 0

0111000
+19 0 *
Ed
 1e-07 1 1 0
1  33 0 0 3441.00036621094
2  45 17 0 0 3441.00036621094
2  46 13 0 0 3441.00036621094
2  47 8 12 0 3441.00036621094
2  48 8 14 0 3441.00036621094
0

0101000
-49 0 +37 0 *
Wi

0101100
-35 7 -25 7 +47 7 +17 11 *
Fa
0  1e-07 8 7

0111000
+16 0 *
Ve
1e-07
15 -125 -1720.50018310547
0 0

0101101
*
Ed
 1e-07 1 1 0
1  34 0 0 250
2  49 17 0 0 250
2  50 16 0 0 250
0

0101000
-37 0 +14 0 *
Ed
 1e-07 1 1 0
1  35 0 0 30
2  51 16 0 0 30
0

0101000
-14 0 +31 0 *
Wi

0101100
-28 0 -36 0 +13 0 +12 0 *
Fa
0  1e-07 16 0

0111000
+11 0 *
Ed
 1e-07 1 1 0
1  36 0 0 3441.00036621094
2  52 17 0 0 3441.00036621094
0

0101000
-22 0 +14 0 *
Wi

0101100
-12 0 -9 0 +20 0 +30 0 *
Fa
0  1e-07 18 0

0111000
+8 0 *
Wi

0101100
-9 0 -21 0 +17 0 +13 0 *
Fa
0  1e-07 17 0

0111000
+6 0 *
Sh

0101100
-61 7 -54 0 +45 0 +40 7 -33 0 -26 11 +23 7 +18 11 -15 0 -10 11 
-7 11 +5 11 *
So

0100000
+4 0 *
Co

0100000
+71 4 +3 0 *
Co

1100000
+2 1 *

+1 0 