DBRep_DrawableShape

CASCADE Topology V1, (c) Matra-Datavision
Locations 29
1
              1               0               0               0 
              0               1               0               0 
              0               0               1               0 
1
              1               0               0               0 
              0               1               0               0 
              0               0               1               0 
1
              1               0               0               0 
              0               1               0               0 
              0               0               1               0 
1
              1               0               0               0 
              0               1               0               0 
              0               0               1               0 
1
              1               0               0               0 
              0               1               0               0 
              0               0               1               0 
2  2 1 3 1 4 1 5 1 0
1
              1               0               0               0 
              0               1               0               0 
              0               0               1               0 
1
              1               0               0               0 
              0               1               0            -395 
              0               0               1               0 
2  7 1 8 1 0
2  8 -1 7 -1 0
1
              1               0               0               0 
              0               1               0               0 
              0               0               1               0 
1
              1               0               0            -360 
              0               1               0               0 
              0               0               1               0 
2  11 1 12 1 0
1
              1               0               0               0 
              0               1               0               0 
              0               0               1               0 
1
              1               0               0               0 
              0               1               0               0 
              0               0               1               0 
2  14 1 15 1 12 -1 11 -1 0
1
              1               0               0            -360 
              0               1               0               0 
              0               0               1               0 
2  14 1 15 1 17 -1 11 -1 0
2  12 -1 11 -1 0
2  7 1 8 1 2 1 3 1 4 1 5 1 0
2  14 1 15 1 8 -1 7 -1 0
1
              1               0               0               0 
              0               1               0            -395 
              0               0               1               0 
2  14 1 15 1 22 -1 7 -1 0
2  14 1 15 1 0
2  7 1 8 1 15 -1 14 -1 0
2  15 -1 14 -1 0
2  11 1 12 1 2 1 3 1 4 1 5 1 0
2  14 1 15 1 2 1 3 1 4 1 5 1 0
2  11 1 12 1 15 -1 14 -1 0
Curve2ds 77
1 0 0 1 0 
1 0 0 1 0 
1 2400 0 0 -1 
1 0 0 0 1 
1 0 0 1 0 
1 0 20 1 0 
1 169.49996948242188 0 1 0 
1 169.49996948242188 0 1 0 
1 169.49996948242188 0 1 0 
1 0 0 0 -1 
1 0 0 0 1 
1 0 0 1 0 
1 0 0 0 1 
1 0 0 1 0 
1 0 700 1 0 
1 0 0 1 0 
1 2400 0 0 1 
1 2400 0 0 1 
1 0 20 1 0 
1 2569.4999694824219 0 0 1 
1 2569.4999694824219 0 0 1 
1 700 0 0 1 
1 2400 0 0 -1 
1 0 0 0 1 
1 0 0 1 0 
1 2400 0 0 1 
1 0 0 1 0 
1 0 0 1 0 
1 0 0 1 0 
1 0 0 0 1 
1 0 20 1 0 
1 169.49996948242188 0 0 1 
1 169.49996948242188 0 0 1 
1 700 0 0 1 
1 0 0 0 -1 
1 0 700 1 0 
1 0 -20 1 0 
1 169.49996948242188 700 1 0 
1 169.49996948242188 700 1 0 
1 0 700 1 0 
1 0 0 1 0 
1 2738.9999389648438 0 0 1 
1 0 0 1 0 
1 0 0 1 0 
1 0 0 0 1 
1 0 0 0 -1 
1 0 770 1 0 
1 0 0 0 1 
1 0 0 0 -1 
1 20 0 0 1 
1 169.49996948242188 0 0 -1 
1 169.49996948242188 0 0 -1 
1 0 0 0 1 
1 2400 0 0 -1 
1 0 770 1 0 
1 2400 0 0 1 
1 2400 0 0 -1 
1 20 0 0 1 
1 2569.4999694824219 0 0 -1 
1 2569.4999694824219 0 0 -1 
1 0 0 1 0 
1 0 -770 1 0 
1 0 0 0 1 
1 2738.9999389648438 0 0 -1 
1 0 700 1 0 
1 0 -770 1 0 
1 0 0 0 -1 
1 2738.9999389648438 0 0 -1 
1 2738.9999389648438 0 0 1 
1 0 -770 1 0 
1 0 0 1 0 
1 0 -770 1 0 
1 0 20 1 0 
1 169.49996948242188 -770 1 0 
1 169.49996948242188 -770 1 0 
1 0 0 0 -1 
1 0 0 0 1 
Curves 35
1 -350 -10 -1200 0 0 1 
1 -350 -10 1200 0 1 0 
1 10 -385 -1200 0 0 1 
1 -350 -10 -1200 0 1 0 
1 -350 -10 -1200 1 0 0 
1 350 -10 -1200 0 0 1 
1 -350 -10 1200 1 0 0 
1 -350 10 1200 1 0 0 
1 350 -10 1200 0 1 0 
1 -10 -385 -1200 1 0 0 
1 -10 -385 1200 1 0 0 
1 -10 -385 -1200 0 0 1 
1 -350 10 -1200 1 0 0 
1 350 -10 -1200 0 1 0 
1 350 10 -1200 0 0 1 
1 350 -385 -1369.4999694824219 0 0 1 
1 -350 -385 1369.4999694824219 1 0 0 
1 -350 -385 -1369.4999694824219 0 0 1 
1 -10 -385 -1200 0 1 0 
1 -10 385 -1200 1 0 0 
1 10 -385 -1200 0 1 0 
1 -10 -385 1200 0 1 0 
1 -10 385 1200 1 0 0 
1 10 -385 1200 0 1 0 
1 -10 385 -1200 0 0 1 
1 -350 -385 -1369.4999694824219 1 0 0 
1 350 -385 1369.4999694824219 0 1 0 
1 350 385 -1369.4999694824219 0 0 1 
1 350 -385 -1369.4999694824219 0 1 0 
1 -350 -385 1369.4999694824219 0 1 0 
1 -350 385 1369.4999694824219 1 0 0 
1 -350 385 -1369.4999694824219 0 0 1 
1 10 385 -1200 0 0 1 
1 -350 -385 -1369.4999694824219 0 1 0 
1 -350 385 -1369.4999694824219 1 0 0 
Polygon3D 0
PolygonOnTriangulations 0
Surfaces 18
1 -350 -10 -1200 1 0 0 0 0 1 0 -1 0 
1 -350 -10 -1200 0 1 0 0 -0 1 1 0 -0 
1 -350 -10 1200 0 0 1 1 0 -0 -0 1 0 
1 10 -385 -1200 1 0 0 0 0 1 0 -1 0 
1 -10 -385 -1200 0 1 0 0 -0 1 1 0 -0 
1 -350 -385 -1369.4999694824219 1 0 0 0 0 1 0 -1 0 
1 -350 -385 -1369.4999694824219 0 1 0 0 -0 1 1 0 -0 
1 -350 -10 -1200 0 0 1 1 0 -0 -0 1 0 
1 350 -10 -1200 1 0 0 0 0 1 0 -1 0 
1 -350 10 -1200 0 1 0 0 -0 1 1 0 -0 
1 -10 -385 -1200 0 0 1 1 0 -0 -0 1 0 
1 -10 -385 1200 0 0 1 1 0 -0 -0 1 0 
1 -10 -385 -1200 1 0 0 0 0 1 0 -1 0 
1 350 -385 -1369.4999694824219 1 0 0 0 0 1 0 -1 0 
1 -10 385 -1200 0 1 0 0 -0 1 1 0 -0 
1 -350 385 -1369.4999694824219 0 1 0 0 -0 1 1 0 -0 
1 -350 -385 1369.4999694824219 0 0 1 1 0 -0 -0 1 0 
1 -350 -385 -1369.4999694824219 0 0 1 1 0 -0 -0 1 0 
Triangulations 0

TShapes 100
Ve
1e-07
-350 -10 1200
0 0

0101101
*
Ve
1e-07
-350 -10 -1200
0 0

0101101
*
Ed
 1e-07 1 1 0
1  1 0 0 2400
2  1 1 0 0 2400
2  2 2 0 0 2400
0

0101000
-100 0 +99 0 *
Ve
1e-07
-350 -385 1200
0 0

0101101
*
Ed
 1e-07 1 1 0
1  2 0 0 20
2  3 1 0 0 20
2  4 3 0 0 20
0

0101000
+100 0 -97 10 *
Ve
1e-07
-350 -385 -1200
0 0

0101101
*
Ed
 1e-07 1 1 0
1  3 0 0 2400
2  5 4 0 0 2400
2  6 5 0 0 2400
2  7 6 16 0 2400
2  8 6 18 0 2400
2  9 7 16 0 2400
0

0101000
+95 19 -97 19 *
Ed
 1e-07 1 1 0
1  4 0 0 20
2  10 1 0 0 20
2  11 8 0 0 20
0

0101000
+99 0 -95 10 *
Wi

0101100
-98 9 -96 9 +94 13 +93 9 *
Fa
0  1e-07 1 9

0111000
+92 0 *
Ve
1e-07
350 -10 -1200
0 0

0101101
*
Ed
 1e-07 1 1 0
1  5 0 0 700
2  12 8 0 0 700
2  13 2 0 0 700
0

0101000
-90 0 +99 0 *
Ve
1e-07
350 -10 1200
0 0

0101101
*
Ed
 1e-07 1 1 0
1  6 0 0 2400
2  14 9 0 0 2400
2  15 2 0 0 2400
0

0101000
-88 0 +90 0 *
Ed
 1e-07 1 1 0
1  7 0 0 700
2  16 3 0 0 700
2  17 2 0 0 700
0

0101000
-88 0 +100 0 *
Wi

0101100
-89 0 -87 0 +86 0 +98 0 *
Fa
0  1e-07 2 0

0111000
+85 0 *
Ve
1e-07
350 10 1200
0 0

0101101
*
Ed
 1e-07 1 1 0
1  8 0 0 700
2  18 10 0 0 700
2  19 3 0 0 700
2  20 7 21 0 700
2  21 7 23 0 700
0

0101000
+97 10 -83 0 *
Ed
 1e-07 1 1 0
1  9 0 0 20
2  22 3 0 0 20
2  23 9 0 0 20
0

0101000
-83 0 +88 0 *
Wi

0101100
-96 9 -82 9 +81 9 +86 9 *
Fa
0  1e-07 3 9

0111000
+80 0 *
Ve
1e-07
-10 -385 -1200
0 0

0101101
*
Ed
 1e-07 1 1 0
1  10 0 0 20
2  24 5 0 0 20
2  25 11 0 0 20
0

0101000
+78 0 -95 19 *
Ve
1e-07
-10 -385 1200
0 0

0101101
*
Ed
 1e-07 1 1 0
1  11 0 0 20
2  26 5 0 0 20
2  27 12 0 0 20
0

0101000
+76 0 -97 19 *
Ed
 1e-07 1 1 0
1  12 0 0 2400
2  28 5 0 0 2400
2  29 13 0 0 2400
0

0101000
-76 0 +78 0 *
Wi

0101100
-77 13 -94 13 +75 13 +74 13 *
Fa
0  1e-07 5 13

0111000
+73 0 *
Ve
1e-07
350 10 -1200
0 0

0101101
*
Ed
 1e-07 1 1 0
1  13 0 0 700
2  30 10 0 0 700
2  31 8 0 0 700
2  32 7 21 0 700
2  33 7 23 0 700
0

0101000
+95 10 -71 0 *
Ed
 1e-07 1 1 0
1  14 0 0 20
2  34 8 0 0 20
2  35 9 0 0 20
0

0101000
-71 0 +90 0 *
Wi

0101100
-93 9 -70 9 +69 9 +89 9 *
Fa
0  1e-07 8 9

0111000
+68 0 *
Ed
 1e-07 1 1 0
1  15 0 0 2400
2  36 10 0 0 2400
2  37 9 0 0 2400
2  38 7 21 0 2400
2  39 7 23 0 2400
0

0101000
-83 0 +71 0 *
Wi

0101100
-87 0 -81 0 +66 0 +69 0 *
Fa
0  1e-07 9 0

0111000
+65 0 *
Ve
1e-07
350 -385 1369.49996948242
0 0

0101101
*
Ed
 1e-07 1 1 0
1  16 0 2569.49996948242 2738.99993896484
2  40 7 0 2569.49996948242 2738.99993896484
2  41 14 0 2569.49996948242 2738.99993896484
0

0101000
+83 25 -63 0 *
Ve
1e-07
-350 -385 1369.49996948242
0 0

0101101
*
Ed
 1e-07 1 1 0
1  17 0 0 700
2  42 7 0 0 700
0

0101000
-63 0 +61 0 *
Ed
 1e-07 1 1 0
1  18 0 2569.49996948242 2738.99993896484
2  43 6 0 2569.49996948242 2738.99993896484
2  44 7 0 2569.49996948242 2738.99993896484
0

0101000
+97 26 -61 0 *
Wi

0101100
-62 24 +60 24 +59 24 -82 9 *
Fa
0  1e-07 7 24

0111000
+58 0 *
Ve
1e-07
-10 385 -1200
0 0

0101101
*
Ed
 1e-07 1 1 0
1  19 0 0 770
2  45 11 0 0 770
2  46 13 0 0 770
0

0101000
-56 0 +78 0 *
Ve
1e-07
10 385 -1200
0 0

0101101
*
Ed
 1e-07 1 1 0
1  20 0 0 20
2  47 11 0 0 20
2  48 15 0 0 20
0

0101000
-54 0 +56 0 *
Ed
 1e-07 1 1 0
1  21 0 0 770
2  49 4 0 0 770
2  50 11 0 0 770
2  51 6 16 0 770
2  52 6 18 0 770
0

0101000
+95 19 -54 0 *
Wi

0101100
-55 13 -53 13 +52 13 +77 13 *
Fa
0  1e-07 11 13

0111000
+51 0 *
Ve
1e-07
-10 385 1200
0 0

0101101
*
Ed
 1e-07 1 1 0
1  22 0 0 770
2  53 12 0 0 770
2  54 13 0 0 770
0

0101000
-49 0 +76 0 *
Ve
1e-07
10 385 1200
0 0

0101101
*
Ed
 1e-07 1 1 0
1  23 0 0 20
2  55 12 0 0 20
2  56 15 0 0 20
0

0101000
-47 0 +49 0 *
Ed
 1e-07 1 1 0
1  24 0 0 770
2  57 4 0 0 770
2  58 12 0 0 770
2  59 6 16 0 770
2  60 6 18 0 770
0

0101000
+97 19 -47 0 *
Wi

0101100
-48 13 -46 13 +45 13 +75 13 *
Fa
0  1e-07 12 13

0111000
+44 0 *
Ed
 1e-07 1 1 0
1  25 0 0 2400
2  61 15 0 0 2400
2  62 13 0 0 2400
0

0101000
-49 0 +56 0 *
Wi

0101100
-74 0 -48 0 +42 0 +55 0 *
Fa
0  1e-07 13 0

0111000
+41 0 *
Ve
1e-07
350 -385 -1369.49996948242
0 0

0101101
*
Ed
 1e-07 1 1 0
1  16 0 0 169.499969482422
2  40 7 0 0 169.499969482422
2  41 14 0 0 169.499969482422
0

0101000
+39 0 -71 25 *
Ve
1e-07
-350 -385 -1369.49996948242
0 0

0101101
*
Ed
 1e-07 1 1 0
1  18 0 0 169.499969482422
2  43 6 0 0 169.499969482422
2  44 7 0 0 169.499969482422
0

0101000
+37 0 -95 26 *
Ed
 1e-07 1 1 0
1  26 0 0 700
2  63 7 0 0 700
0

0101000
-39 0 +37 0 *
Wi

0101100
-38 24 +70 9 +36 24 -35 24 *
Fa
0  1e-07 7 24

0111000
+34 0 *
Ve
1e-07
350 385 1369.49996948242
0 0

0101101
*
Ed
 1e-07 1 1 0
1  27 0 0 770
2  64 14 0 0 770
0

0101000
-32 0 +63 0 *
Ve
1e-07
350 385 -1369.49996948242
0 0

0101101
*
Ed
 1e-07 1 1 0
1  28 0 0 2738.99993896484
2  65 16 0 0 2738.99993896484
2  66 14 0 0 2738.99993896484
0

0101000
-32 0 +30 0 *
Ed
 1e-07 1 1 0
1  29 0 0 770
2  67 14 0 0 770
0

0101000
-30 0 +39 0 *
Wi

0101100
-38 24 -66 9 -62 24 -31 24 +29 24 +28 24 *
Fa
0  1e-07 14 24

0111000
+27 0 *
Ve
1e-07
-350 385 1369.49996948242
0 0

0101101
*
Ed
 1e-07 1 1 0
1  30 0 0 770
2  68 6 0 0 770
0

0101000
-25 0 +61 0 *
Ed
 1e-07 1 1 0
1  31 0 0 700
2  69 16 0 0 700
0

0101000
-32 0 +25 0 *
Wi

0101100
-24 0 -23 0 +31 0 +60 0 *
Fa
0  1e-07 17 0

0111000
+22 0 *
Ed
 1e-07 1 1 0
1  32 0 2569.49996948242 2738.99993896484
2  70 6 0 2569.49996948242 2738.99993896484
2  71 16 0 2569.49996948242 2738.99993896484
0

0101000
+47 29 -25 0 *
Wi

0101100
-59 24 -24 24 +20 24 +45 13 *
Fa
0  1e-07 6 24

0111000
+19 0 *
Ed
 1e-07 1 1 0
1  33 0 0 2400
2  72 4 0 0 2400
2  73 15 0 0 2400
2  74 6 16 0 2400
2  75 6 18 0 2400
0

0101000
-47 0 +54 0 *
Wi

0101100
-53 0 -17 0 +46 0 +42 0 *
Fa
0  1e-07 15 0

0111000
+16 0 *
Ve
1e-07
-350 385 -1369.49996948242
0 0

0101101
*
Ed
 1e-07 1 1 0
1  32 0 0 169.499969482422
2  70 6 0 0 169.499969482422
2  71 16 0 0 169.499969482422
0

0101000
+14 0 -54 29 *
Ed
 1e-07 1 1 0
1  34 0 0 770
2  76 6 0 0 770
0

0101000
-14 0 +37 0 *
Wi

0101100
-36 24 -52 13 +13 24 +12 24 *
Fa
0  1e-07 6 24

0111000
+11 0 *
Ed
 1e-07 1 1 0
1  35 0 0 700
2  77 16 0 0 700
0

0101000
-30 0 +14 0 *
Wi

0101100
-12 0 -9 0 +28 0 +35 0 *
Fa
0  1e-07 18 0

0111000
+8 0 *
Wi

0101100
-9 24 -29 24 +23 24 +13 24 +17 13 +20 24 *
Fa
0  1e-07 16 24

0111000
+6 0 *
Sh

0101100
-91 6 -84 20 +79 6 -72 6 -67 6 +64 20 -57 6 -50 6 +43 6 -40 27 
-33 6 +26 6 +21 28 -18 6 +15 27 -10 6 -7 28 +5 6 *
So

0100000
+4 0 *
Co

0100000
+3 0 *
Co

1100000
+2 1 *

+1 0 