DBRep_DrawableShape

CASCADE Topology V1, (c) Matra-Datavision
Locations 34
1
              1               0               0               0 
              0               1               0               0 
              0               0               1               0 
1
              1               0               0               0 
              0               1               0               0 
              0               0               1               0 
1
              1               0               0               0 
              0               1               0               0 
              0               0               1 -1326.00002288818 
2  2 1 3 1 0
1
              1               0               0               0 
              0               1               0               0 
              0               0               1               0 
1
              1               0               0               0 
              0               1               0               0 
              0               0               1 -884.000015258789 
2  5 1 6 1 3 -1 2 -1 0
2  5 1 6 1 0
2  2 1 3 1 6 -1 5 -1 0
1
              1               0               0               0 
              0               1               0               0 
              0               0               1               0 
1
              1               0               0               0 
              0               1               0               0 
              0               0               1 -442.000007629395 
2  10 1 11 1 6 -1 5 -1 0
2  10 1 11 1 0
2  5 1 6 1 11 -1 10 -1 0
1
              1               0               0               0 
              0               1               0               0 
              0               0               1               0 
1
              1               0               0               0 
              0               1               0               0 
              0               0               1               0 
2  15 1 16 1 11 -1 10 -1 0
2  15 1 16 1 0
2  10 1 11 1 16 -1 15 -1 0
1
              1               0               0               0 
              0               1               0               0 
              0               0               1               0 
1
              1               0               0               0 
              0               1               0               0 
              0               0               1 442.000007629395 
2  20 1 21 1 16 -1 15 -1 0
2  20 1 21 1 0
2  15 1 16 1 21 -1 20 -1 0
1
              1               0               0               0 
              0               1               0               0 
              0               0               1               0 
1
              1               0               0               0 
              0               1               0               0 
              0               0               1 884.000015258789 
2  25 1 26 1 21 -1 20 -1 0
2  25 1 26 1 0
2  20 1 21 1 26 -1 25 -1 0
1
              1               0               0               0 
              0               1               0               0 
              0               0               1               0 
1
              1               0               0               0 
              0               1               0               0 
              0               0               1 1326.00002288818 
2  30 1 31 1 26 -1 25 -1 0
2  30 1 31 1 0
2  25 1 26 1 31 -1 30 -1 0
Curve2ds 176
1 0 0 1 0 
1 0 0 1 0 
1 442.00000762939453 0 0 -1 
1 0 0 0 1 
1 81.49993896484375 0 0 1 
1 0 -1454.4999694824219 1 0 
1 0 0 1 0 
1 0 0 0 -1 
1 0 0 0 1 
1 0 0 1 0 
1 0 5885 1 0 
1 442.00000762939453 0 0 1 
1 0 0 1 0 
1 81.49993896484375 0 1 0 
1 0 0 0 1 
1 0 1454.4999694824219 1 0 
1 0 0 0 1 
1 0 0 1 0 
1 0 0 0 -1 
1 0 0 0 1 
1 0 0 0 1 
1 0 -1454.4999694824219 1 0 
1 0 5885 1 0 
1 0 1454.4999694824219 1 0 
1 442.00000762939453 0 0 1 
1 81.49993896484375 1454.4999694824219 1 0 
1 0 0 0 -1 
1 442.00000762939453 0 0 -1 
1 5885 0 0 1 
1 5966.4999389648438 0 0 1 
1 0 0 1 0 
1 0 6047.9998779296875 1 0 
1 442.00000762939453 0 0 1 
1 0 0 1 0 
1 81.49993896484375 0 1 0 
1 0 0 1 0 
1 0 0 1 0 
1 0 -1454.4999694824219 1 0 
1 0 6047.9998779296875 1 0 
1 0 1454.4999694824219 1 0 
1 442.00000762939453 0 0 1 
1 81.49993896484375 1454.4999694824219 1 0 
1 0 -1454.4999694824219 1 0 
1 0 0 1 0 
1 442.00000762939453 0 0 -1 
1 0 0 0 1 
1 81.49993896484375 0 0 1 
1 0 0 0 -1 
1 6047.9998779296875 0 0 1 
1 442.00000762939453 0 0 -1 
1 6047.9998779296875 0 0 1 
1 6129.4998168945312 0 0 1 
1 0 0 0 1 
1 0 0 1 0 
1 0 0 1 0 
1 0 6210.999755859375 1 0 
1 442.00000762939453 0 0 1 
1 0 0 1 0 
1 81.49993896484375 0 1 0 
1 0 0 1 0 
1 0 0 1 0 
1 0 0 0 1 
1 0 1454.4999694824219 1 0 
1 0 -1454.4999694824219 1 0 
1 0 6210.999755859375 1 0 
1 0 1454.4999694824219 1 0 
1 442.00000762939453 0 0 1 
1 81.49993896484375 1454.4999694824219 1 0 
1 0 -1454.4999694824219 1 0 
1 0 0 1 0 
1 0 0 0 -1 
1 0 0 0 1 
1 0 0 0 -1 
1 6210.999755859375 0 0 1 
1 442.00000762939453 0 0 -1 
1 6210.999755859375 0 0 1 
1 6292.4996948242188 0 0 1 
1 0 0 0 1 
1 0 0 1 0 
1 0 0 1 0 
1 0 6373.9996337890625 1 0 
1 442.00000762939453 0 0 1 
1 0 0 1 0 
1 81.49993896484375 0 1 0 
1 0 0 1 0 
1 0 0 1 0 
1 442.00000762939453 0 0 -1 
1 0 0 0 1 
1 81.49993896484375 0 0 1 
1 0 0 0 1 
1 0 1454.4999694824219 1 0 
1 0 -1454.4999694824219 1 0 
1 0 6373.9996337890625 1 0 
1 0 1454.4999694824219 1 0 
1 442.00000762939453 0 0 1 
1 81.49993896484375 1454.4999694824219 1 0 
1 0 -1454.4999694824219 1 0 
1 0 0 1 0 
1 0 0 0 -1 
1 6373.9996337890625 0 0 1 
1 0 0 0 -1 
1 0 0 0 1 
1 442.00000762939453 0 0 -1 
1 6373.9996337890625 0 0 1 
1 6455.4995727539062 0 0 1 
1 0 0 0 1 
1 0 0 1 0 
1 0 0 1 0 
1 0 6536.99951171875 1 0 
1 442.00000762939453 0 0 1 
1 0 0 1 0 
1 81.49993896484375 0 1 0 
1 0 0 1 0 
1 0 0 1 0 
1 442.00000762939453 0 0 -1 
1 0 0 0 1 
1 81.49993896484375 0 0 1 
1 0 0 0 1 
1 0 1454.4999694824219 1 0 
1 0 -1454.4999694824219 1 0 
1 0 6536.99951171875 1 0 
1 0 1454.4999694824219 1 0 
1 442.00000762939453 0 0 1 
1 81.49993896484375 1454.4999694824219 1 0 
1 0 -1454.4999694824219 1 0 
1 0 0 1 0 
1 0 0 0 -1 
1 6536.99951171875 0 0 1 
1 0 0 0 -1 
1 0 0 0 1 
1 442.00000762939453 0 0 -1 
1 6536.99951171875 0 0 1 
1 6618.4994506835938 0 0 1 
1 0 0 0 1 
1 0 0 1 0 
1 0 0 1 0 
1 0 6699.9993896484375 1 0 
1 442.00000762939453 0 0 1 
1 0 0 1 0 
1 81.49993896484375 0 1 0 
1 0 0 1 0 
1 0 0 1 0 
1 442.00000762939453 0 0 -1 
1 0 0 0 1 
1 81.49993896484375 0 0 1 
1 0 0 0 1 
1 0 1454.4999694824219 1 0 
1 0 -1454.4999694824219 1 0 
1 0 6699.9993896484375 1 0 
1 0 1454.4999694824219 1 0 
1 442.00000762939453 0 0 1 
1 81.49993896484375 1454.4999694824219 1 0 
1 0 -1454.4999694824219 1 0 
1 0 0 1 0 
1 0 0 0 -1 
1 6699.9993896484375 0 0 1 
1 0 0 0 -1 
1 0 0 0 1 
1 442.00000762939453 0 0 -1 
1 6699.9993896484375 0 0 1 
1 6781.4993286132812 0 0 1 
1 0 0 0 1 
1 0 0 1 0 
1 0 6862.999267578125 1 0 
1 442.00000762939453 0 0 1 
1 0 0 1 0 
1 442.00000762939453 0 0 -1 
1 0 0 0 1 
1 81.49993896484375 0 0 1 
1 0 0 0 1 
1 0 1454.4999694824219 1 0 
1 0 6862.999267578125 1 0 
1 442.00000762939453 0 0 1 
1 0 0 1 0 
1 6862.999267578125 0 0 1 
1 0 0 0 1 
Curves 84
1 -2942.5 -727.24998474121094 -221.00000381469727 0 0 1 
1 -2942.5 -727.24998474121094 221.00000381469727 0 1 0 
1 -2942.5 727.24998474121094 -221.00000381469727 0 0 1 
1 -2942.5 -727.24998474121094 -221.00000381469727 0 1 0 
1 -2942.5 -727.24998474121094 -221.00000381469727 1 0 0 
1 2942.5 -727.24998474121094 -221.00000381469727 0 0 1 
1 -2942.5 -727.24998474121094 221.00000381469727 1 0 0 
1 -3023.9999389648438 727.24998474121094 -221.00000381469727 1 0 0 
1 -3023.9999389648438 -727.24998474121094 -221.00000381469727 1 0 0 
1 -3023.9999389648438 -727.24998474121094 -221.00000381469727 0 1 0 
1 -2942.5 727.24998474121094 -221.00000381469727 1 0 0 
1 2942.5 727.24998474121094 -221.00000381469727 0 0 1 
1 -2942.5 727.24998474121094 221.00000381469727 1 0 0 
1 2942.5 -727.24998474121094 -221.00000381469727 0 1 0 
1 2942.5 -727.24998474121094 221.00000381469727 0 1 0 
1 3023.9999389648438 -727.24998474121094 -221.00000381469727 0 0 1 
1 -3023.9999389648438 -727.24998474121094 221.00000381469727 1 0 0 
1 -3023.9999389648438 -727.24998474121094 -221.00000381469727 0 0 1 
1 3023.9999389648438 727.24998474121094 -221.00000381469727 0 0 1 
1 -3023.9999389648438 727.24998474121094 221.00000381469727 1 0 0 
1 -3023.9999389648438 727.24998474121094 -221.00000381469727 0 0 1 
1 -3023.9999389648438 -727.24998474121094 221.00000381469727 0 1 0 
1 3023.9999389648438 -727.24998474121094 -221.00000381469727 0 1 0 
1 3023.9999389648438 -727.24998474121094 221.00000381469727 0 1 0 
1 -3105.4998779296875 -727.24998474121094 -221.00000381469727 1 0 0 
1 3105.4998779296875 -727.24998474121094 -221.00000381469727 0 0 1 
1 -3105.4998779296875 -727.24998474121094 221.00000381469727 1 0 0 
1 -3105.4998779296875 -727.24998474121094 -221.00000381469727 0 0 1 
1 -3105.4998779296875 727.24998474121094 -221.00000381469727 1 0 0 
1 3105.4998779296875 727.24998474121094 -221.00000381469727 0 0 1 
1 -3105.4998779296875 727.24998474121094 221.00000381469727 1 0 0 
1 -3105.4998779296875 727.24998474121094 -221.00000381469727 0 0 1 
1 -3105.4998779296875 -727.24998474121094 -221.00000381469727 0 1 0 
1 3105.4998779296875 -727.24998474121094 -221.00000381469727 0 1 0 
1 3105.4998779296875 -727.24998474121094 221.00000381469727 0 1 0 
1 -3186.9998168945312 -727.24998474121094 -221.00000381469727 1 0 0 
1 3186.9998168945312 -727.24998474121094 -221.00000381469727 0 0 1 
1 -3186.9998168945312 -727.24998474121094 221.00000381469727 1 0 0 
1 -3186.9998168945312 -727.24998474121094 -221.00000381469727 0 0 1 
1 -3105.4998779296875 -727.24998474121094 221.00000381469727 0 1 0 
1 -3186.9998168945312 727.24998474121094 -221.00000381469727 1 0 0 
1 3186.9998168945312 727.24998474121094 -221.00000381469727 0 0 1 
1 -3186.9998168945312 727.24998474121094 221.00000381469727 1 0 0 
1 -3186.9998168945312 727.24998474121094 -221.00000381469727 0 0 1 
1 3186.9998168945312 -727.24998474121094 -221.00000381469727 0 1 0 
1 -3186.9998168945312 -727.24998474121094 -221.00000381469727 0 1 0 
1 3186.9998168945312 -727.24998474121094 221.00000381469727 0 1 0 
1 -3268.499755859375 -727.24998474121094 -221.00000381469727 1 0 0 
1 3268.499755859375 -727.24998474121094 -221.00000381469727 0 0 1 
1 -3268.499755859375 -727.24998474121094 221.00000381469727 1 0 0 
1 -3268.499755859375 -727.24998474121094 -221.00000381469727 0 0 1 
1 -3186.9998168945312 -727.24998474121094 221.00000381469727 0 1 0 
1 -3268.499755859375 727.24998474121094 -221.00000381469727 1 0 0 
1 3268.499755859375 727.24998474121094 -221.00000381469727 0 0 1 
1 -3268.499755859375 727.24998474121094 221.00000381469727 1 0 0 
1 -3268.499755859375 727.24998474121094 -221.00000381469727 0 0 1 
1 3268.499755859375 -727.24998474121094 -221.00000381469727 0 1 0 
1 -3268.499755859375 -727.24998474121094 -221.00000381469727 0 1 0 
1 3268.499755859375 -727.24998474121094 221.00000381469727 0 1 0 
1 -3349.9996948242188 -727.24998474121094 -221.00000381469727 1 0 0 
1 3349.9996948242188 -727.24998474121094 -221.00000381469727 0 0 1 
1 -3349.9996948242188 -727.24998474121094 221.00000381469727 1 0 0 
1 -3349.9996948242188 -727.24998474121094 -221.00000381469727 0 0 1 
1 -3268.499755859375 -727.24998474121094 221.00000381469727 0 1 0 
1 -3349.9996948242188 727.24998474121094 -221.00000381469727 1 0 0 
1 3349.9996948242188 727.24998474121094 -221.00000381469727 0 0 1 
1 -3349.9996948242188 727.24998474121094 221.00000381469727 1 0 0 
1 -3349.9996948242188 727.24998474121094 -221.00000381469727 0 0 1 
1 3349.9996948242188 -727.24998474121094 -221.00000381469727 0 1 0 
1 -3349.9996948242188 -727.24998474121094 -221.00000381469727 0 1 0 
1 3349.9996948242188 -727.24998474121094 221.00000381469727 0 1 0 
1 -3431.4996337890625 -727.24998474121094 -221.00000381469727 1 0 0 
1 3431.4996337890625 -727.24998474121094 -221.00000381469727 0 0 1 
1 -3431.4996337890625 -727.24998474121094 221.00000381469727 1 0 0 
1 -3431.4996337890625 -727.24998474121094 -221.00000381469727 0 0 1 
1 -3349.9996948242188 -727.24998474121094 221.00000381469727 0 1 0 
1 -3431.4996337890625 727.24998474121094 -221.00000381469727 1 0 0 
1 3431.4996337890625 727.24998474121094 -221.00000381469727 0 0 1 
1 -3431.4996337890625 727.24998474121094 221.00000381469727 1 0 0 
1 -3431.4996337890625 727.24998474121094 -221.00000381469727 0 0 1 
1 3431.4996337890625 -727.24998474121094 -221.00000381469727 0 1 0 
1 -3431.4996337890625 -727.24998474121094 -221.00000381469727 0 1 0 
1 3431.4996337890625 -727.24998474121094 221.00000381469727 0 1 0 
1 -3431.4996337890625 -727.24998474121094 221.00000381469727 0 1 0 
Polygon3D 0
PolygonOnTriangulations 0
Surfaces 42
1 -2942.5 -727.24998474121094 -221.00000381469727 1 0 0 0 0 1 0 -1 0 
1 -2942.5 -727.24998474121094 -221.00000381469727 0 1 0 0 0 1 1 0 0 
1 -2942.5 -727.24998474121094 221.00000381469727 0 0 1 1 0 0 0 1 0 
1 -3023.9999389648438 -727.24998474121094 -221.00000381469727 0 0 1 1 0 0 0 1 0 
1 -2942.5 727.24998474121094 -221.00000381469727 0 1 0 0 0 1 1 0 0 
1 2942.5 -727.24998474121094 -221.00000381469727 1 0 0 0 0 1 0 -1 0 
1 -3023.9999389648438 727.24998474121094 -221.00000381469727 0 1 0 0 0 1 1 0 0 
1 -3023.9999389648438 -727.24998474121094 -221.00000381469727 0 1 0 0 0 1 1 0 0 
1 -3023.9999389648438 -727.24998474121094 -221.00000381469727 1 0 0 0 0 1 0 -1 0 
1 -2942.5 -727.24998474121094 -221.00000381469727 0 0 1 1 0 0 0 1 0 
1 3023.9999389648438 -727.24998474121094 -221.00000381469727 1 0 0 0 0 1 0 -1 0 
1 -3023.9999389648438 -727.24998474121094 221.00000381469727 0 0 1 1 0 0 0 1 0 
1 -3105.4998779296875 -727.24998474121094 -221.00000381469727 0 0 1 1 0 0 0 1 0 
1 -3105.4998779296875 -727.24998474121094 -221.00000381469727 0 1 0 0 0 1 1 0 0 
1 3105.4998779296875 -727.24998474121094 -221.00000381469727 1 0 0 0 0 1 0 -1 0 
1 -3105.4998779296875 -727.24998474121094 221.00000381469727 0 0 1 1 0 0 0 1 0 
1 -3186.9998168945312 -727.24998474121094 -221.00000381469727 0 0 1 1 0 0 0 1 0 
1 -3105.4998779296875 -727.24998474121094 -221.00000381469727 1 0 0 0 0 1 0 -1 0 
1 -3105.4998779296875 727.24998474121094 -221.00000381469727 0 1 0 0 0 1 1 0 0 
1 -3186.9998168945312 -727.24998474121094 -221.00000381469727 0 1 0 0 0 1 1 0 0 
1 3186.9998168945312 -727.24998474121094 -221.00000381469727 1 0 0 0 0 1 0 -1 0 
1 -3186.9998168945312 -727.24998474121094 221.00000381469727 0 0 1 1 0 0 0 1 0 
1 -3268.499755859375 -727.24998474121094 -221.00000381469727 0 0 1 1 0 0 0 1 0 
1 -3186.9998168945312 -727.24998474121094 -221.00000381469727 1 0 0 0 0 1 0 -1 0 
1 -3186.9998168945312 727.24998474121094 -221.00000381469727 0 1 0 0 0 1 1 0 0 
1 -3268.499755859375 -727.24998474121094 -221.00000381469727 0 1 0 0 0 1 1 0 0 
1 3268.499755859375 -727.24998474121094 -221.00000381469727 1 0 0 0 0 1 0 -1 0 
1 -3268.499755859375 -727.24998474121094 221.00000381469727 0 0 1 1 0 0 0 1 0 
1 -3349.9996948242188 -727.24998474121094 -221.00000381469727 0 0 1 1 0 0 0 1 0 
1 -3268.499755859375 -727.24998474121094 -221.00000381469727 1 0 0 0 0 1 0 -1 0 
1 -3268.499755859375 727.24998474121094 -221.00000381469727 0 1 0 0 0 1 1 0 0 
1 -3349.9996948242188 -727.24998474121094 -221.00000381469727 0 1 0 0 0 1 1 0 0 
1 3349.9996948242188 -727.24998474121094 -221.00000381469727 1 0 0 0 0 1 0 -1 0 
1 -3349.9996948242188 -727.24998474121094 221.00000381469727 0 0 1 1 0 0 0 1 0 
1 -3431.4996337890625 -727.24998474121094 -221.00000381469727 0 0 1 1 0 0 0 1 0 
1 -3349.9996948242188 -727.24998474121094 -221.00000381469727 1 0 0 0 0 1 0 -1 0 
1 -3349.9996948242188 727.24998474121094 -221.00000381469727 0 1 0 0 0 1 1 0 0 
1 -3431.4996337890625 -727.24998474121094 -221.00000381469727 0 1 0 0 0 1 1 0 0 
1 -3431.4996337890625 727.24998474121094 -221.00000381469727 0 1 0 0 0 1 1 0 0 
1 3431.4996337890625 -727.24998474121094 -221.00000381469727 1 0 0 0 0 1 0 -1 0 
1 -3431.4996337890625 -727.24998474121094 221.00000381469727 0 0 1 1 0 0 0 1 0 
1 -3431.4996337890625 -727.24998474121094 -221.00000381469727 1 0 0 0 0 1 0 -1 0 
Triangulations 0

TShapes 240
Ve
1e-07
-2942.5 -727.249984741211 221.000003814697
0 0

0101101
*
Ve
1e-07
-2942.5 -727.249984741211 -221.000003814697
0 0

0101101
*
Ed
 1e-07 1 1 0
1  1 0 0 442.000007629395
2  1 1 0 0 442.000007629395
2  2 2 0 0 442.000007629395
0

0101000
-240 0 +239 0 *
Ve
1e-07
-2942.5 727.249984741211 221.000003814697
0 0

0101101
*
Ed
 1e-07 1 1 0
1  2 0 0 1454.49996948242
2  3 1 0 0 1454.49996948242
2  4 3 0 0 1454.49996948242
2  5 4 7 0 1454.49996948242
0

0101000
-237 0 +240 0 *
Ve
1e-07
-2942.5 727.249984741211 -221.000003814697
0 0

0101101
*
Ed
 1e-07 1 1 0
1  3 0 0 442.000007629395
2  6 1 0 0 442.000007629395
2  7 5 0 0 442.000007629395
0

0101000
-237 0 +235 0 *
Ed
 1e-07 1 1 0
1  4 0 0 1454.49996948242
2  8 1 0 0 1454.49996948242
0

0101000
-235 0 +239 0 *
Wi

0101100
-238 0 -236 0 +234 0 +233 0 *
Fa
0  1e-07 1 0

0111000
+232 0 *
Ve
1e-07
2942.5 -727.249984741211 -221.000003814697
0 0

0101101
*
Ed
 1e-07 1 1 0
1  5 0 0 5885
2  9 2 0 0 5885
0

0101000
-230 0 +239 0 *
Ve
1e-07
2942.5 -727.249984741211 221.000003814697
0 0

0101101
*
Ed
 1e-07 1 1 0
1  6 0 0 442.000007629395
2  10 6 0 0 442.000007629395
2  11 2 0 0 442.000007629395
0

0101000
-228 0 +230 0 *
Ed
 1e-07 1 1 0
1  7 0 0 5885
2  12 2 0 0 5885
2  13 3 0 0 5885
2  14 4 7 0 5885
0

0101000
-228 0 +240 0 *
Wi

0101100
-229 0 -227 0 +226 0 +238 0 *
Fa
0  1e-07 2 0

0111000
+225 0 *
Ve
1e-07
-3023.99993896484 727.249984741211 -221.000003814697
0 0

0101101
*
Ed
 1e-07 1 1 0
1  8 0 0 81.4999389648438
2  15 7 0 0 81.4999389648438
2  16 4 0 0 81.4999389648438
0

0101000
+223 0 -237 9 *
Ve
1e-07
-3023.99993896484 -727.249984741211 -221.000003814697
0 0

0101101
*
Ed
 1e-07 1 1 0
1  9 0 0 81.4999389648438
2  17 8 0 0 81.4999389648438
2  18 4 0 0 81.4999389648438
0

0101000
+221 0 -240 9 *
Ed
 1e-07 1 1 0
1  10 0 0 1454.49996948242
2  19 9 0 0 1454.49996948242
2  20 4 0 0 1454.49996948242
0

0101000
-223 0 +221 0 *
Wi

0101100
-222 8 +236 4 +220 8 -219 8 *
Fa
0  1e-07 4 8

0111000
+218 0 *
Ve
1e-07
2942.5 727.249984741211 -221.000003814697
0 0

0101101
*
Ed
 1e-07 1 1 0
1  11 0 0 5885
2  21 5 0 0 5885
0

0101000
-216 0 +235 0 *
Ve
1e-07
2942.5 727.249984741211 221.000003814697
0 0

0101101
*
Ed
 1e-07 1 1 0
1  12 0 0 442.000007629395
2  22 6 0 0 442.000007629395
2  23 5 0 0 442.000007629395
0

0101000
-214 0 +216 0 *
Ed
 1e-07 1 1 0
1  13 0 0 5885
2  24 3 0 0 5885
2  25 5 0 0 5885
2  26 4 7 0 5885
0

0101000
-214 0 +237 0 *
Wi

0101100
-215 0 -213 0 +212 0 +234 0 *
Fa
0  1e-07 5 0

0111000
+211 0 *
Ed
 1e-07 1 1 0
1  14 0 0 1454.49996948242
2  27 6 0 0 1454.49996948242
0

0101000
-216 0 +230 0 *
Wi

0101100
-233 0 -215 0 +209 0 +229 0 *
Fa
0  1e-07 10 0

0111000
+208 0 *
Ed
 1e-07 1 1 0
1  15 0 0 1454.49996948242
2  28 6 0 0 1454.49996948242
2  29 3 0 0 1454.49996948242
2  30 4 7 0 1454.49996948242
0

0101000
-214 0 +228 0 *
Wi

0101100
-227 0 -206 0 +213 0 +209 0 *
Fa
0  1e-07 6 0

0111000
+205 0 *
Ve
1e-07
3023.99993896484 -727.249984741211 -221.000003814697
0 0

0101101
*
Ed
 1e-07 1 1 0
1  9 0 5966.49993896484 6047.99987792969
2  17 8 0 5966.49993896484 6047.99987792969
2  18 4 0 5966.49993896484 6047.99987792969
0

0101000
+228 9 -203 0 *
Ve
1.00000227373675e-07
3023.99993896484 -727.249984741211 221.000003814697
0 0

0101101
*
Ed
 1e-07 1 1 0
1  16 0 0 442.000007629395
2  31 11 0 0 442.000007629395
2  32 8 0 0 442.000007629395
0

0101000
-201 0 +203 0 *
Ve
1.00000227373675e-07
-3023.99993896484 -727.249984741211 221.000003814697
0 0

0101101
*
Ed
 1.00000227373675e-07 1 1 0
1  17 0 0 6047.99987792969
2  33 8 0 0 6047.99987792969
2  34 12 0 0 6047.99987792969
2  35 13 12 0 6047.99987792969
0

0101000
-201 0 +199 0 *
Ed
 1e-07 1 1 0
1  18 0 0 442.000007629395
2  36 9 0 0 442.000007629395
2  37 8 0 0 442.000007629395
0

0101000
-199 0 +221 0 *
Wi

0101100
-220 8 -226 4 -202 8 -200 8 +198 8 +197 8 *
Fa
0  1e-07 8 8

0111000
+196 0 *
Ve
1e-07
3023.99993896484 727.249984741211 -221.000003814697
0 0

0101101
*
Ed
 1e-07 1 1 0
1  8 0 5966.49993896484 6047.99987792969
2  15 7 0 5966.49993896484 6047.99987792969
2  16 4 0 5966.49993896484 6047.99987792969
0

0101000
+214 9 -194 0 *
Ve
1.00000227373675e-07
3023.99993896484 727.249984741211 221.000003814697
0 0

0101101
*
Ed
 1e-07 1 1 0
1  19 0 0 442.000007629395
2  38 11 0 0 442.000007629395
2  39 7 0 0 442.000007629395
0

0101000
-192 0 +194 0 *
Ve
1.00000227373675e-07
-3023.99993896484 727.249984741211 221.000003814697
0 0

0101101
*
Ed
 1.00000227373675e-07 1 1 0
1  20 0 0 6047.99987792969
2  40 12 0 0 6047.99987792969
2  41 7 0 0 6047.99987792969
2  42 13 12 0 6047.99987792969
0

0101000
-192 0 +190 0 *
Ed
 1e-07 1 1 0
1  21 0 0 442.000007629395
2  43 9 0 0 442.000007629395
2  44 7 0 0 442.000007629395
0

0101000
-190 0 +223 0 *
Wi

0101100
-222 8 -212 4 -193 8 -191 8 +189 8 +188 8 *
Fa
0  1e-07 7 8

0111000
+187 0 *
Ed
 1e-07 1 1 0
1  22 0 0 1454.49996948242
2  45 9 0 0 1454.49996948242
2  46 12 0 0 1454.49996948242
2  47 13 12 0 1454.49996948242
0

0101000
-190 0 +199 0 *
Wi

0101100
-197 0 -185 0 +188 0 +219 0 *
Fa
0  1e-07 9 0

0111000
+184 0 *
Ed
 1e-07 1 1 0
1  23 0 0 1454.49996948242
2  48 11 0 0 1454.49996948242
2  49 4 0 0 1454.49996948242
0

0101000
-194 0 +203 0 *
Wi

0101100
-193 8 +182 8 +202 8 -206 4 *
Fa
0  1e-07 4 8

0111000
+181 0 *
Ed
 1e-07 1 1 0
1  24 0 0 1454.49996948242
2  50 11 0 0 1454.49996948242
2  51 12 0 0 1454.49996948242
2  52 13 12 0 1454.49996948242
0

0101000
-192 0 +201 0 *
Wi

0101100
-200 0 -179 0 +191 0 +182 0 *
Fa
0  1e-07 11 0

0111000
+178 0 *
Ve
1e-07
-3105.49987792969 -727.249984741211 -221.000003814697
0 0

0101101
*
Ed
 1e-07 1 1 0
1  25 0 0 81.4999389648438
2  53 14 0 0 81.4999389648438
2  54 13 0 0 81.4999389648438
0

0101000
+176 0 -199 14 *
Ve
1e-07
3105.49987792969 -727.249984741211 -221.000003814697
0 0

0101101
*
Ed
 1e-07 1 1 0
1  25 0 6129.49981689453 6210.99975585938
2  53 14 0 6129.49981689453 6210.99975585938
2  54 13 0 6129.49981689453 6210.99975585938
0

0101000
+201 14 -174 0 *
Ve
1e-07
3105.49987792969 -727.249984741211 221.000003814697
0 0

0101101
*
Ed
 1e-07 1 1 0
1  26 0 0 442.000007629395
2  55 15 0 0 442.000007629395
2  56 14 0 0 442.000007629395
0

0101000
-172 0 +174 0 *
Ve
1e-07
-3105.49987792969 -727.249984741211 221.000003814697
0 0

0101101
*
Ed
 1e-07 1 1 0
1  27 0 0 6210.99975585938
2  57 14 0 0 6210.99975585938
2  58 16 0 0 6210.99975585938
2  59 17 17 0 6210.99975585938
0

0101000
-172 0 +170 0 *
Ed
 1e-07 1 1 0
1  28 0 0 442.000007629395
2  60 18 0 0 442.000007629395
2  61 14 0 0 442.000007629395
0

0101000
-170 0 +176 0 *
Wi

0101100
-175 13 -198 8 -173 13 -171 13 +169 13 +168 13 *
Fa
0  1e-07 14 13

0111000
+167 0 *
Ve
1e-07
-3105.49987792969 727.249984741211 -221.000003814697
0 0

0101101
*
Ed
 1e-07 1 1 0
1  29 0 0 81.4999389648438
2  62 19 0 0 81.4999389648438
2  63 13 0 0 81.4999389648438
0

0101000
+165 0 -190 14 *
Ve
1e-07
3105.49987792969 727.249984741211 -221.000003814697
0 0

0101101
*
Ed
 1e-07 1 1 0
1  29 0 6129.49981689453 6210.99975585938
2  62 19 0 6129.49981689453 6210.99975585938
2  63 13 0 6129.49981689453 6210.99975585938
0

0101000
+192 14 -163 0 *
Ve
1e-07
3105.49987792969 727.249984741211 221.000003814697
0 0

0101101
*
Ed
 1e-07 1 1 0
1  30 0 0 442.000007629395
2  64 15 0 0 442.000007629395
2  65 19 0 0 442.000007629395
0

0101000
-161 0 +163 0 *
Ve
1e-07
-3105.49987792969 727.249984741211 221.000003814697
0 0

0101101
*
Ed
 1e-07 1 1 0
1  31 0 0 6210.99975585938
2  66 16 0 0 6210.99975585938
2  67 19 0 0 6210.99975585938
2  68 17 17 0 6210.99975585938
0

0101000
-161 0 +159 0 *
Ed
 1e-07 1 1 0
1  32 0 0 442.000007629395
2  69 18 0 0 442.000007629395
2  70 19 0 0 442.000007629395
0

0101000
-159 0 +165 0 *
Wi

0101100
-164 13 -189 8 -162 13 -160 13 +158 13 +157 13 *
Fa
0  1e-07 19 13

0111000
+156 0 *
Ed
 1e-07 1 1 0
1  33 0 0 1454.49996948242
2  71 18 0 0 1454.49996948242
2  72 13 0 0 1454.49996948242
0

0101000
-165 0 +176 0 *
Wi

0101100
-164 13 +185 8 +175 13 -154 13 *
Fa
0  1e-07 13 13

0111000
+153 0 *
Ed
 1e-07 1 1 0
1  34 0 0 1454.49996948242
2  73 15 0 0 1454.49996948242
2  74 13 0 0 1454.49996948242
0

0101000
-163 0 +174 0 *
Wi

0101100
-162 13 +151 13 +173 13 -179 8 *
Fa
0  1e-07 13 13

0111000
+150 0 *
Ed
 1e-07 1 1 0
1  35 0 0 1454.49996948242
2  75 15 0 0 1454.49996948242
2  76 16 0 0 1454.49996948242
2  77 17 17 0 1454.49996948242
0

0101000
-161 0 +172 0 *
Wi

0101100
-171 0 -148 0 +160 0 +151 0 *
Fa
0  1e-07 15 0

0111000
+147 0 *
Ve
1e-07
-3186.99981689453 -727.249984741211 -221.000003814697
0 0

0101101
*
Ed
 1e-07 1 1 0
1  36 0 0 81.4999389648438
2  78 20 0 0 81.4999389648438
2  79 17 0 0 81.4999389648438
0

0101000
+145 0 -170 19 *
Ve
1e-07
3186.99981689453 -727.249984741211 -221.000003814697
0 0

0101101
*
Ed
 1e-07 1 1 0
1  36 0 6292.49969482422 6373.99963378906
2  78 20 0 6292.49969482422 6373.99963378906
2  79 17 0 6292.49969482422 6373.99963378906
0

0101000
+172 19 -143 0 *
Ve
1e-07
3186.99981689453 -727.249984741211 221.000003814697
0 0

0101101
*
Ed
 1e-07 1 1 0
1  37 0 0 442.000007629395
2  80 21 0 0 442.000007629395
2  81 20 0 0 442.000007629395
0

0101000
-141 0 +143 0 *
Ve
1e-07
-3186.99981689453 -727.249984741211 221.000003814697
0 0

0101101
*
Ed
 1e-07 1 1 0
1  38 0 0 6373.99963378906
2  82 20 0 0 6373.99963378906
2  83 22 0 0 6373.99963378906
2  84 23 22 0 6373.99963378906
0

0101000
-141 0 +139 0 *
Ed
 1e-07 1 1 0
1  39 0 0 442.000007629395
2  85 24 0 0 442.000007629395
2  86 20 0 0 442.000007629395
0

0101000
-139 0 +145 0 *
Wi

0101100
-144 18 -169 13 -142 18 -140 18 +138 18 +137 18 *
Fa
0  1e-07 20 18

0111000
+136 0 *
Ed
 1e-07 1 1 0
1  40 0 0 1454.49996948242
2  87 18 0 0 1454.49996948242
2  88 16 0 0 1454.49996948242
2  89 17 17 0 1454.49996948242
0

0101000
-159 0 +170 0 *
Wi

0101100
-168 0 -134 0 +157 0 +154 0 *
Fa
0  1e-07 18 0

0111000
+133 0 *
Ve
1e-07
-3186.99981689453 727.249984741211 -221.000003814697
0 0

0101101
*
Ed
 1e-07 1 1 0
1  41 0 0 81.4999389648438
2  90 25 0 0 81.4999389648438
2  91 17 0 0 81.4999389648438
0

0101000
+131 0 -159 19 *
Ve
1e-07
3186.99981689453 727.249984741211 -221.000003814697
0 0

0101101
*
Ed
 1e-07 1 1 0
1  41 0 6292.49969482422 6373.99963378906
2  90 25 0 6292.49969482422 6373.99963378906
2  91 17 0 6292.49969482422 6373.99963378906
0

0101000
+161 19 -129 0 *
Ve
1e-07
3186.99981689453 727.249984741211 221.000003814697
0 0

0101101
*
Ed
 1e-07 1 1 0
1  42 0 0 442.000007629395
2  92 21 0 0 442.000007629395
2  93 25 0 0 442.000007629395
0

0101000
-127 0 +129 0 *
Ve
1e-07
-3186.99981689453 727.249984741211 221.000003814697
0 0

0101101
*
Ed
 1e-07 1 1 0
1  43 0 0 6373.99963378906
2  94 22 0 0 6373.99963378906
2  95 25 0 0 6373.99963378906
2  96 23 22 0 6373.99963378906
0

0101000
-127 0 +125 0 *
Ed
 1e-07 1 1 0
1  44 0 0 442.000007629395
2  97 24 0 0 442.000007629395
2  98 25 0 0 442.000007629395
0

0101000
-125 0 +131 0 *
Wi

0101100
-130 18 -158 13 -128 18 -126 18 +124 18 +123 18 *
Fa
0  1e-07 25 18

0111000
+122 0 *
Ed
 1e-07 1 1 0
1  45 0 0 1454.49996948242
2  99 21 0 0 1454.49996948242
2  100 17 0 0 1454.49996948242
0

0101000
-129 0 +143 0 *
Wi

0101100
-128 18 +120 18 +142 18 -148 13 *
Fa
0  1e-07 17 18

0111000
+119 0 *
Ed
 1e-07 1 1 0
1  46 0 0 1454.49996948242
2  101 24 0 0 1454.49996948242
2  102 17 0 0 1454.49996948242
0

0101000
-131 0 +145 0 *
Wi

0101100
-130 18 +134 13 +144 18 -117 18 *
Fa
0  1e-07 17 18

0111000
+116 0 *
Ed
 1e-07 1 1 0
1  47 0 0 1454.49996948242
2  103 21 0 0 1454.49996948242
2  104 22 0 0 1454.49996948242
2  105 23 22 0 1454.49996948242
0

0101000
-127 0 +141 0 *
Wi

0101100
-140 0 -114 0 +126 0 +120 0 *
Fa
0  1e-07 21 0

0111000
+113 0 *
Ve
1e-07
-3268.49975585938 -727.249984741211 -221.000003814697
0 0

0101101
*
Ed
 1e-07 1 1 0
1  48 0 0 81.4999389648438
2  106 26 0 0 81.4999389648438
2  107 23 0 0 81.4999389648438
0

0101000
+111 0 -139 24 *
Ve
1e-07
3268.49975585938 -727.249984741211 -221.000003814697
0 0

0101101
*
Ed
 1e-07 1 1 0
1  48 0 6455.49957275391 6536.99951171875
2  106 26 0 6455.49957275391 6536.99951171875
2  107 23 0 6455.49957275391 6536.99951171875
0

0101000
+141 24 -109 0 *
Ve
1e-07
3268.49975585938 -727.249984741211 221.000003814697
0 0

0101101
*
Ed
 1e-07 1 1 0
1  49 0 0 442.000007629395
2  108 27 0 0 442.000007629395
2  109 26 0 0 442.000007629395
0

0101000
-107 0 +109 0 *
Ve
1e-07
-3268.49975585938 -727.249984741211 221.000003814697
0 0

0101101
*
Ed
 1e-07 1 1 0
1  50 0 0 6536.99951171875
2  110 26 0 0 6536.99951171875
2  111 28 0 0 6536.99951171875
2  112 29 27 0 6536.99951171875
0

0101000
-107 0 +105 0 *
Ed
 1e-07 1 1 0
1  51 0 0 442.000007629395
2  113 30 0 0 442.000007629395
2  114 26 0 0 442.000007629395
0

0101000
-105 0 +111 0 *
Wi

0101100
-110 23 -138 18 -108 23 -106 23 +104 23 +103 23 *
Fa
0  1e-07 26 23

0111000
+102 0 *
Ed
 1e-07 1 1 0
1  52 0 0 1454.49996948242
2  115 24 0 0 1454.49996948242
2  116 22 0 0 1454.49996948242
2  117 23 22 0 1454.49996948242
0

0101000
-125 0 +139 0 *
Wi

0101100
-137 0 -100 0 +123 0 +117 0 *
Fa
0  1e-07 24 0

0111000
+99 0 *
Ve
1e-07
-3268.49975585938 727.249984741211 -221.000003814697
0 0

0101101
*
Ed
 1e-07 1 1 0
1  53 0 0 81.4999389648438
2  118 31 0 0 81.4999389648438
2  119 23 0 0 81.4999389648438
0

0101000
+97 0 -125 24 *
Ve
1e-07
3268.49975585938 727.249984741211 -221.000003814697
0 0

0101101
*
Ed
 1e-07 1 1 0
1  53 0 6455.49957275391 6536.99951171875
2  118 31 0 6455.49957275391 6536.99951171875
2  119 23 0 6455.49957275391 6536.99951171875
0

0101000
+127 24 -95 0 *
Ve
1e-07
3268.49975585938 727.249984741211 221.000003814697
0 0

0101101
*
Ed
 1e-07 1 1 0
1  54 0 0 442.000007629395
2  120 27 0 0 442.000007629395
2  121 31 0 0 442.000007629395
0

0101000
-93 0 +95 0 *
Ve
1e-07
-3268.49975585938 727.249984741211 221.000003814697
0 0

0101101
*
Ed
 1e-07 1 1 0
1  55 0 0 6536.99951171875
2  122 28 0 0 6536.99951171875
2  123 31 0 0 6536.99951171875
2  124 29 27 0 6536.99951171875
0

0101000
-93 0 +91 0 *
Ed
 1e-07 1 1 0
1  56 0 0 442.000007629395
2  125 30 0 0 442.000007629395
2  126 31 0 0 442.000007629395
0

0101000
-91 0 +97 0 *
Wi

0101100
-96 23 -124 18 -94 23 -92 23 +90 23 +89 23 *
Fa
0  1e-07 31 23

0111000
+88 0 *
Ed
 1e-07 1 1 0
1  57 0 0 1454.49996948242
2  127 27 0 0 1454.49996948242
2  128 23 0 0 1454.49996948242
0

0101000
-95 0 +109 0 *
Wi

0101100
-94 23 +86 23 +108 23 -114 18 *
Fa
0  1e-07 23 23

0111000
+85 0 *
Ed
 1e-07 1 1 0
1  58 0 0 1454.49996948242
2  129 30 0 0 1454.49996948242
2  130 23 0 0 1454.49996948242
0

0101000
-97 0 +111 0 *
Wi

0101100
-96 23 +100 18 +110 23 -83 23 *
Fa
0  1e-07 23 23

0111000
+82 0 *
Ed
 1e-07 1 1 0
1  59 0 0 1454.49996948242
2  131 27 0 0 1454.49996948242
2  132 28 0 0 1454.49996948242
2  133 29 27 0 1454.49996948242
0

0101000
-93 0 +107 0 *
Wi

0101100
-106 0 -80 0 +92 0 +86 0 *
Fa
0  1e-07 27 0

0111000
+79 0 *
Ve
1e-07
-3349.99969482422 -727.249984741211 -221.000003814697
0 0

0101101
*
Ed
 1e-07 1 1 0
1  60 0 0 81.4999389648438
2  134 32 0 0 81.4999389648438
2  135 29 0 0 81.4999389648438
0

0101000
+77 0 -105 29 *
Ve
1e-07
3349.99969482422 -727.249984741211 -221.000003814697
0 0

0101101
*
Ed
 1e-07 1 1 0
1  60 0 6618.49945068359 6699.99938964844
2  134 32 0 6618.49945068359 6699.99938964844
2  135 29 0 6618.49945068359 6699.99938964844
0

0101000
+107 29 -75 0 *
Ve
1e-07
3349.99969482422 -727.249984741211 221.000003814697
0 0

0101101
*
Ed
 1e-07 1 1 0
1  61 0 0 442.000007629395
2  136 33 0 0 442.000007629395
2  137 32 0 0 442.000007629395
0

0101000
-73 0 +75 0 *
Ve
1e-07
-3349.99969482422 -727.249984741211 221.000003814697
0 0

0101101
*
Ed
 1e-07 1 1 0
1  62 0 0 6699.99938964844
2  138 32 0 0 6699.99938964844
2  139 34 0 0 6699.99938964844
2  140 35 32 0 6699.99938964844
0

0101000
-73 0 +71 0 *
Ed
 1e-07 1 1 0
1  63 0 0 442.000007629395
2  141 36 0 0 442.000007629395
2  142 32 0 0 442.000007629395
0

0101000
-71 0 +77 0 *
Wi

0101100
-76 28 -104 23 -74 28 -72 28 +70 28 +69 28 *
Fa
0  1e-07 32 28

0111000
+68 0 *
Ed
 1e-07 1 1 0
1  64 0 0 1454.49996948242
2  143 30 0 0 1454.49996948242
2  144 28 0 0 1454.49996948242
2  145 29 27 0 1454.49996948242
0

0101000
-91 0 +105 0 *
Wi

0101100
-103 0 -66 0 +89 0 +83 0 *
Fa
0  1e-07 30 0

0111000
+65 0 *
Ve
1e-07
-3349.99969482422 727.249984741211 -221.000003814697
0 0

0101101
*
Ed
 1e-07 1 1 0
1  65 0 0 81.4999389648438
2  146 37 0 0 81.4999389648438
2  147 29 0 0 81.4999389648438
0

0101000
+63 0 -91 29 *
Ve
1e-07
3349.99969482422 727.249984741211 -221.000003814697
0 0

0101101
*
Ed
 1e-07 1 1 0
1  65 0 6618.49945068359 6699.99938964844
2  146 37 0 6618.49945068359 6699.99938964844
2  147 29 0 6618.49945068359 6699.99938964844
0

0101000
+93 29 -61 0 *
Ve
1e-07
3349.99969482422 727.249984741211 221.000003814697
0 0

0101101
*
Ed
 1e-07 1 1 0
1  66 0 0 442.000007629395
2  148 33 0 0 442.000007629395
2  149 37 0 0 442.000007629395
0

0101000
-59 0 +61 0 *
Ve
1e-07
-3349.99969482422 727.249984741211 221.000003814697
0 0

0101101
*
Ed
 1e-07 1 1 0
1  67 0 0 6699.99938964844
2  150 34 0 0 6699.99938964844
2  151 37 0 0 6699.99938964844
2  152 35 32 0 6699.99938964844
0

0101000
-59 0 +57 0 *
Ed
 1e-07 1 1 0
1  68 0 0 442.000007629395
2  153 36 0 0 442.000007629395
2  154 37 0 0 442.000007629395
0

0101000
-57 0 +63 0 *
Wi

0101100
-62 28 -90 23 -60 28 -58 28 +56 28 +55 28 *
Fa
0  1e-07 37 28

0111000
+54 0 *
Ed
 1e-07 1 1 0
1  69 0 0 1454.49996948242
2  155 33 0 0 1454.49996948242
2  156 29 0 0 1454.49996948242
0

0101000
-61 0 +75 0 *
Wi

0101100
-60 28 +52 28 +74 28 -80 23 *
Fa
0  1e-07 29 28

0111000
+51 0 *
Ed
 1e-07 1 1 0
1  70 0 0 1454.49996948242
2  157 36 0 0 1454.49996948242
2  158 29 0 0 1454.49996948242
0

0101000
-63 0 +77 0 *
Wi

0101100
-62 28 +66 23 +76 28 -49 28 *
Fa
0  1e-07 29 28

0111000
+48 0 *
Ed
 1e-07 1 1 0
1  71 0 0 1454.49996948242
2  159 33 0 0 1454.49996948242
2  160 34 0 0 1454.49996948242
2  161 35 32 0 1454.49996948242
0

0101000
-59 0 +73 0 *
Wi

0101100
-72 0 -46 0 +58 0 +52 0 *
Fa
0  1e-07 33 0

0111000
+45 0 *
Ve
1e-07
-3431.49963378906 -727.249984741211 -221.000003814697
0 0

0101101
*
Ed
 1e-07 1 1 0
1  72 0 0 81.4999389648438
2  162 38 0 0 81.4999389648438
2  163 35 0 0 81.4999389648438
0

0101000
+43 0 -71 34 *
Ve
1e-07
3431.49963378906 -727.249984741211 -221.000003814697
0 0

0101101
*
Ed
 1e-07 1 1 0
1  72 0 6781.49932861328 6862.99926757812
2  162 38 0 6781.49932861328 6862.99926757812
2  163 35 0 6781.49932861328 6862.99926757812
0

0101000
+73 34 -41 0 *
Ve
1e-07
3431.49963378906 -727.249984741211 221.000003814697
0 0

0101101
*
Ed
 1e-07 1 1 0
1  73 0 0 442.000007629395
2  164 38 0 0 442.000007629395
0

0101000
-39 0 +41 0 *
Ve
1e-07
-3431.49963378906 -727.249984741211 221.000003814697
0 0

0101101
*
Ed
 1e-07 1 1 0
1  74 0 0 6862.99926757812
2  165 38 0 0 6862.99926757812
0

0101000
-39 0 +37 0 *
Ed
 1e-07 1 1 0
1  75 0 0 442.000007629395
2  166 38 0 0 442.000007629395
0

0101000
-37 0 +43 0 *
Wi

0101100
-42 33 -70 28 -40 33 -38 33 +36 33 +35 33 *
Fa
0  1e-07 38 33

0111000
+34 0 *
Ed
 1e-07 1 1 0
1  76 0 0 1454.49996948242
2  167 36 0 0 1454.49996948242
2  168 34 0 0 1454.49996948242
2  169 35 32 0 1454.49996948242
0

0101000
-57 0 +71 0 *
Wi

0101100
-69 0 -32 0 +55 0 +49 0 *
Fa
0  1e-07 36 0

0111000
+31 0 *
Ve
1e-07
-3431.49963378906 727.249984741211 -221.000003814697
0 0

0101101
*
Ed
 1e-07 1 1 0
1  77 0 0 81.4999389648438
2  170 39 0 0 81.4999389648438
2  171 35 0 0 81.4999389648438
0

0101000
+29 0 -57 34 *
Ve
1e-07
3431.49963378906 727.249984741211 -221.000003814697
0 0

0101101
*
Ed
 1e-07 1 1 0
1  77 0 6781.49932861328 6862.99926757812
2  170 39 0 6781.49932861328 6862.99926757812
2  171 35 0 6781.49932861328 6862.99926757812
0

0101000
+59 34 -27 0 *
Ve
1e-07
3431.49963378906 727.249984741211 221.000003814697
0 0

0101101
*
Ed
 1e-07 1 1 0
1  78 0 0 442.000007629395
2  172 39 0 0 442.000007629395
0

0101000
-25 0 +27 0 *
Ve
1e-07
-3431.49963378906 727.249984741211 221.000003814697
0 0

0101101
*
Ed
 1e-07 1 1 0
1  79 0 0 6862.99926757812
2  173 39 0 0 6862.99926757812
0

0101000
-25 0 +23 0 *
Ed
 1e-07 1 1 0
1  80 0 0 442.000007629395
2  174 39 0 0 442.000007629395
0

0101000
-23 0 +29 0 *
Wi

0101100
-28 33 -56 28 -26 33 -24 33 +22 33 +21 33 *
Fa
0  1e-07 39 33

0111000
+20 0 *
Ed
 1e-07 1 1 0
1  81 0 0 1454.49996948242
2  175 35 0 0 1454.49996948242
0

0101000
-27 0 +41 0 *
Wi

0101100
-26 33 +18 33 +40 33 -46 28 *
Fa
0  1e-07 35 33

0111000
+17 0 *
Ed
 1e-07 1 1 0
1  82 0 0 1454.49996948242
2  176 35 0 0 1454.49996948242
0

0101000
-29 0 +43 0 *
Wi

0101100
-28 33 +32 28 +42 33 -15 33 *
Fa
0  1e-07 35 33

0111000
+14 0 *
Ed
 1e-07 1 1 0
1  83 0 0 1454.49996948242
0

0101000
-25 0 +39 0 *
Wi

0101100
-38 0 -12 0 +24 0 +18 0 *
Fa
0  1e-07 40 0

0111000
+11 0 *
Ed
 1e-07 1 1 0
1  84 0 0 1454.49996948242
0

0101000
-23 0 +37 0 *
Wi

0101100
-9 0 -22 0 +12 0 +36 0 *
Fa
0  1e-07 41 0

0111000
+8 0 *
Wi

0101100
-35 0 -9 0 +21 0 +15 0 *
Fa
0  1e-07 42 0

0111000
+6 0 *
Sh

0101100
-231 4 -224 4 -217 0 +210 4 -207 4 +204 4 -195 0 +186 0 -183 8 -180 0 
+177 8 -166 0 +155 0 -152 0 -149 0 +146 13 -135 0 -132 13 +121 0 -118 0 
-115 0 +112 18 -101 0 -98 18 +87 0 -84 0 -81 0 +78 23 -67 0 -64 23 
+53 0 -50 0 -47 0 +44 28 -33 0 -30 28 +19 0 -16 0 -13 0 +10 33 
+7 33 -5 33 *
So

0100000
+4 0 *
Co

0100000
+3 0 *
Co

1100000
+2 1 *

+1 0 