DBRep_DrawableShape

CASCADE Topology V1, (c) Matra-Datavision
Locations 134
1
              1               0               0               0 
              0               1               0               0 
              0               0               1               0 
1
              1               0               0             730 
              0               1               0            7960 
              0               0               1            4500 
1
              1               0               0               0 
              0               1               0               0 
              0               0               1               0 
1
              1               0               0               0 
              0               1               0               0 
              0               0               1               0 
1
              1               0               0            -730 
              0               1               0            7960 
              0               0               1            4500 
2  4 1 5 1 0
1
              1               0               0               0 
              0               1               0               0 
              0               0               1               0 
1
              1               0               0            2330 
              0               1               0            7960 
              0               0               1            4500 
2  7 1 8 1 0
1
              1               0               0               0 
              0               1               0               0 
              0               0               1               0 
1
              1               0               0           -2330 
              0               1               0            7960 
              0               0               1            4500 
2  10 1 11 1 0
1
              1               0               0               0 
              0               1               0               0 
              0               0               1               0 
1
              1               0               0             730 
              0               1               0            7960 
              0               0               1            2500 
2  13 1 14 1 0
1
              1               0               0               0 
              0               1               0               0 
              0               0               1               0 
1
              1               0               0            -730 
              0               1               0            7960 
              0               0               1            2500 
2  16 1 17 1 0
1
              1               0               0               0 
              0               1               0               0 
              0               0               1               0 
1
              1               0               0            2330 
              0               1               0            7960 
              0               0               1            2500 
2  19 1 20 1 0
1
              1               0               0               0 
              0               1               0               0 
              0               0               1               0 
1
              1               0               0           -2330 
              0               1               0            7960 
              0               0               1            2500 
2  22 1 23 1 0
1
              1               0               0               0 
              0               1               0               0 
              0               0               1               0 
1
              1               0               0             730 
              0               1               0            7960 
              0               0               1             500 
2  25 1 26 1 0
1
              1               0               0               0 
              0               1               0               0 
              0               0               1               0 
1
              1               0               0            -730 
              0               1               0            7960 
              0               0               1             500 
2  28 1 29 1 0
1
              1               0               0               0 
              0               1               0               0 
              0               0               1               0 
1
              1               0               0            2330 
              0               1               0            7960 
              0               0               1             500 
2  31 1 32 1 0
1
              1               0               0               0 
              0               1               0               0 
              0               0               1               0 
1
              1               0               0           -2330 
              0               1               0            7960 
              0               0               1             500 
2  34 1 35 1 0
1
              1               0               0               0 
              0               1               0               0 
              0               0               1               0 
1
              1               0               0             730 
              0               1               0            7960 
              0               0               1            -500 
2  37 1 38 1 0
1
              1               0               0               0 
              0               1               0               0 
              0               0               1               0 
1
              1               0               0            -730 
              0               1               0            7960 
              0               0               1            -500 
2  40 1 41 1 0
1
              1               0               0               0 
              0               1               0               0 
              0               0               1               0 
1
              1               0               0            2330 
              0               1               0            7960 
              0               0               1            -500 
2  43 1 44 1 0
1
              1               0               0               0 
              0               1               0               0 
              0               0               1               0 
1
              1               0               0           -2330 
              0               1               0            7960 
              0               0               1            -500 
2  46 1 47 1 0
1
              1               0               0               0 
              0               1               0               0 
              0               0               1               0 
1
              1               0               0             730 
              0               1               0            7960 
              0               0               1           -2500 
2  49 1 50 1 0
1
              1               0               0               0 
              0               1               0               0 
              0               0               1               0 
1
              1               0               0            -730 
              0               1               0            7960 
              0               0               1           -2500 
2  52 1 53 1 0
1
              1               0               0               0 
              0               1               0               0 
              0               0               1               0 
1
              1               0               0            2330 
              0               1               0            7960 
              0               0               1           -2500 
2  55 1 56 1 0
1
              1               0               0               0 
              0               1               0               0 
              0               0               1               0 
1
              1               0               0           -2330 
              0               1               0            7960 
              0               0               1           -2500 
2  58 1 59 1 0
1
              1               0               0               0 
              0               1               0               0 
              0               0               1               0 
1
              1               0               0             730 
              0               1               0            7960 
              0               0               1           -4500 
2  61 1 62 1 0
1
              1               0               0               0 
              0               1               0               0 
              0               0               1               0 
1
              1               0               0            -730 
              0               1               0            7960 
              0               0               1           -4500 
2  64 1 65 1 0
1
              1               0               0               0 
              0               1               0               0 
              0               0               1               0 
1
              1               0               0            2330 
              0               1               0            7960 
              0               0               1           -4500 
2  67 1 68 1 0
1
              1               0               0               0 
              0               1               0               0 
              0               0               1               0 
1
              1               0               0           -2330 
              0               1               0            7960 
              0               0               1           -4500 
2  70 1 71 1 0
1
              1               0               0               0 
              0               1               0               0 
              0               0               1               0 
1
              1               0               0              65 
              0               1               0            7960 
              0               0               1            4100 
2  73 1 74 1 0
1
              1               0               0               0 
              0               1               0               0 
              0               0               1               0 
1
              1               0               0              65 
              0               1               0            7960 
              0               0               1            1100 
2  76 1 77 1 0
1
              1               0               0               0 
              0               1               0               0 
              0               0               1               0 
1
              1               0               0              65 
              0               1               0            7960 
              0               0               1            -900 
2  79 1 80 1 0
1
              1               0               0               0 
              0               1               0               0 
              0               0               1               0 
1
              1               0               0              65 
              0               1               0            7960 
              0               0               1           -3900 
2  82 1 83 1 0
1
              1               0               0               0 
              0               1               0               0 
              0               0               1               0 
1
              1               0               0            2895 
              0               1               0            7960 
              0               0               1            4100 
2  85 1 86 1 0
1
              1               0               0               0 
              0               1               0               0 
              0               0               1               0 
1
              1               0               0            2895 
              0               1               0            7960 
              0               0               1            1100 
2  88 1 89 1 0
1
              1               0               0               0 
              0               1               0               0 
              0               0               1               0 
1
              1               0               0            2895 
              0               1               0            7960 
              0               0               1            -900 
2  91 1 92 1 0
1
              1               0               0               0 
              0               1               0               0 
              0               0               1               0 
1
              1               0               0            2895 
              0               1               0            7960 
              0               0               1           -3900 
2  94 1 95 1 0
1
              1               0               0               0 
              0               1               0               0 
              0               0               1               0 
1
              1               0               0           -2895 
              0               1               0            7960 
              0               0               1            4100 
2  97 1 98 1 0
1
              1               0               0               0 
              0               1               0               0 
              0               0               1               0 
1
              1               0               0           -2895 
              0               1               0            7960 
              0               0               1            1100 
2  100 1 101 1 0
1
              1               0               0               0 
              0               1               0               0 
              0               0               1               0 
1
              1               0               0           -2895 
              0               1               0            7960 
              0               0               1            -900 
2  103 1 104 1 0
1
              1               0               0               0 
              0               1               0               0 
              0               0               1               0 
1
              1               0               0           -2895 
              0               1               0            7960 
              0               0               1           -3900 
2  106 1 107 1 0
1
              1               0               0              65 
              0               1               0            8495 
              0               0               1               0 
1
              1               0               0               0 
              0               1               0             -50 
              0               0               1               0 
1
              1               0               0               0 
              0               1               0               0 
              0               0               1               0 
1
              1               0               0               0 
              0               1               0               0 
              0               0               1               0 
1
              1               0               0               0 
              0               1               0            -200 
              0               0               1               0 
2  112 1 113 1 0
1
              1               0               0               0 
              0               1               0            -125 
              0               0               1               0 
1
              1               0               0               0 
              0               1               0               0 
              0               0               1               0 
1
              1               0               0               0 
              0               1               0               0 
              0               0               1               0 
1
              1               0               0            2895 
              0               1               0            8495 
              0               0               1               0 
2  117 1 118 1 0
1
              1               0               0               0 
              0               1               0               0 
              0               0               1               0 
1
              1               0               0             730 
              0               1               0            8495 
              0               0               1               0 
2  120 1 121 1 0
1
              1               0               0               0 
              0               1               0               0 
              0               0               1               0 
1
              1               0               0            2330 
              0               1               0            8495 
              0               0               1               0 
2  123 1 124 1 0
1
              1               0               0               0 
              0               1               0               0 
              0               0               1               0 
1
              1               0               0           -2895 
              0               1               0            8495 
              0               0               1               0 
2  126 1 127 1 0
1
              1               0               0               0 
              0               1               0               0 
              0               0               1               0 
1
              1               0               0            -730 
              0               1               0            8495 
              0               0               1               0 
2  129 1 130 1 0
1
              1               0               0               0 
              0               1               0               0 
              0               0               1               0 
1
              1               0               0           -2330 
              0               1               0            8495 
              0               0               1               0 
2  132 1 133 1 0
Curve2ds 0
Curves 36
1 -50 -330 -50 0 0 1 
1 -50 -330 50 0 1 0 
1 -50 330 -50 0 0 1 
1 -50 -330 -50 0 1 0 
1 50 -330 -50 0 0 1 
1 50 -330 50 0 1 0 
1 50 330 -50 0 0 1 
1 50 -330 -50 0 1 0 
1 -50 -330 -50 1 0 0 
1 -50 -330 50 1 0 0 
1 -50 330 -50 1 0 0 
1 -50 330 50 1 0 0 
1 -100 -5 -5000 0 0 1 
1 -100 -5 5000 0 1 0 
1 -100 5 -5000 0 0 1 
1 -100 -5 -5000 0 1 0 
1 100 -5 -5000 0 0 1 
1 100 -5 5000 0 1 0 
1 100 5 -5000 0 0 1 
1 100 -5 -5000 0 1 0 
1 -100 -5 -5000 1 0 0 
1 -100 -5 5000 1 0 0 
1 -100 5 -5000 1 0 0 
1 -100 5 5000 1 0 0 
1 -10 -70 -5000 0 0 1 
1 -10 -70 5000 0 1 0 
1 -10 70 -5000 0 0 1 
1 -10 -70 -5000 0 1 0 
1 10 -70 -5000 0 0 1 
1 10 -70 5000 0 1 0 
1 10 70 -5000 0 0 1 
1 10 -70 -5000 0 1 0 
1 -10 -70 -5000 1 0 0 
1 -10 -70 5000 1 0 0 
1 -10 70 -5000 1 0 0 
1 -10 70 5000 1 0 0 
Polygon3D 0
PolygonOnTriangulations 0
Surfaces 18
1 -50 -330 -50 1 0 0 0 0 1 0 -1 0 
1 50 -330 -50 1 0 0 0 0 1 0 -1 0 
1 -50 -330 -50 0 1 0 0 0 1 1 0 0 
1 -50 330 -50 0 1 0 0 0 1 1 0 0 
1 -50 -330 -50 0 0 1 1 0 0 0 1 0 
1 -50 -330 50 0 0 1 1 0 0 0 1 0 
1 -100 -5 -5000 1 0 0 0 0 1 0 -1 0 
1 100 -5 -5000 1 0 0 0 0 1 0 -1 0 
1 -100 -5 -5000 0 1 0 0 0 1 1 0 0 
1 -100 5 -5000 0 1 0 0 0 1 1 0 0 
1 -100 -5 -5000 0 0 1 1 0 0 0 1 0 
1 -100 -5 5000 0 0 1 1 0 0 0 1 0 
1 -10 -70 -5000 1 0 0 0 0 1 0 -1 0 
1 10 -70 -5000 1 0 0 0 0 1 0 -1 0 
1 -10 -70 -5000 0 1 0 0 0 1 1 0 0 
1 -10 70 -5000 0 1 0 0 0 1 1 0 0 
1 -10 -70 -5000 0 0 1 1 0 0 0 1 0 
1 -10 -70 5000 0 0 1 1 0 0 0 1 0 
Triangulations 0

TShapes 108
Ve
1e-07
-50 -330 50
0 0

0101101
*
Ve
1e-07
-50 -330 -50
0 0

0101101
*
Ed
 1e-07 1 1 0
1  1 0 0 100
0

0101000
-108 0 +107 0 *
Ve
1e-07
-50 330 50
0 0

0101101
*
Ed
 1e-07 1 1 0
1  2 0 0 660
0

0101000
-105 0 +108 0 *
Ve
1e-07
-50 330 -50
0 0

0101101
*
Ed
 1e-07 1 1 0
1  3 0 0 100
0

0101000
-105 0 +103 0 *
Ed
 1e-07 1 1 0
1  4 0 0 660
0

0101000
-103 0 +107 0 *
Wi

0101100
-106 0 -104 0 +102 0 +101 0 *
Fa
0  1e-07 1 0

0111000
+100 0 *
Ve
1e-07
50 -330 50
0 0

0101101
*
Ve
1e-07
50 -330 -50
0 0

0101101
*
Ed
 1e-07 1 1 0
1  5 0 0 100
0

0101000
-98 0 +97 0 *
Ve
1e-07
50 330 50
0 0

0101101
*
Ed
 1e-07 1 1 0
1  6 0 0 660
0

0101000
-95 0 +98 0 *
Ve
1e-07
50 330 -50
0 0

0101101
*
Ed
 1e-07 1 1 0
1  7 0 0 100
0

0101000
-95 0 +93 0 *
Ed
 1e-07 1 1 0
1  8 0 0 660
0

0101000
-93 0 +97 0 *
Wi

0101100
-96 0 -94 0 +92 0 +91 0 *
Fa
0  1e-07 2 0

0111000
+90 0 *
Ed
 1e-07 1 1 0
1  9 0 0 100
0

0101000
-97 0 +107 0 *
Ed
 1e-07 1 1 0
1  10 0 0 100
0

0101000
-98 0 +108 0 *
Wi

0101100
-88 0 -96 0 +87 0 +106 0 *
Fa
0  1e-07 3 0

0111000
+86 0 *
Ed
 1e-07 1 1 0
1  11 0 0 100
0

0101000
-93 0 +103 0 *
Ed
 1e-07 1 1 0
1  12 0 0 100
0

0101000
-95 0 +105 0 *
Wi

0101100
-84 0 -92 0 +83 0 +102 0 *
Fa
0  1e-07 4 0

0111000
+82 0 *
Wi

0101100
-101 0 -84 0 +91 0 +88 0 *
Fa
0  1e-07 5 0

0111000
+80 0 *
Wi

0101100
-104 0 -83 0 +94 0 +87 0 *
Fa
0  1e-07 6 0

0111000
+78 0 *
Sh

0101100
-99 0 +89 0 -85 0 +81 0 -79 0 +77 0 *
So

0100000
+76 0 *
Co

0100000
+75 3 *
Ve
1e-07
-100 -5 5000
0 0

0101101
*
Ve
1e-07
-100 -5 -5000
0 0

0101101
*
Ed
 1e-07 1 1 0
1  13 0 0 10000
0

0101000
-73 0 +72 0 *
Ve
1e-07
-100 5 5000
0 0

0101101
*
Ed
 1e-07 1 1 0
1  14 0 0 10
0

0101000
-70 0 +73 0 *
Ve
1e-07
-100 5 -5000
0 0

0101101
*
Ed
 1e-07 1 1 0
1  15 0 0 10000
0

0101000
-70 0 +68 0 *
Ed
 1e-07 1 1 0
1  16 0 0 10
0

0101000
-68 0 +72 0 *
Wi

0101100
-71 0 -69 0 +67 0 +66 0 *
Fa
0  1e-07 7 0

0111000
+65 0 *
Ve
1e-07
100 -5 5000
0 0

0101101
*
Ve
1e-07
100 -5 -5000
0 0

0101101
*
Ed
 1e-07 1 1 0
1  17 0 0 10000
0

0101000
-63 0 +62 0 *
Ve
1e-07
100 5 5000
0 0

0101101
*
Ed
 1e-07 1 1 0
1  18 0 0 10
0

0101000
-60 0 +63 0 *
Ve
1e-07
100 5 -5000
0 0

0101101
*
Ed
 1e-07 1 1 0
1  19 0 0 10000
0

0101000
-60 0 +58 0 *
Ed
 1e-07 1 1 0
1  20 0 0 10
0

0101000
-58 0 +62 0 *
Wi

0101100
-61 0 -59 0 +57 0 +56 0 *
Fa
0  1e-07 8 0

0111000
+55 0 *
Ed
 1e-07 1 1 0
1  21 0 0 200
0

0101000
-62 0 +72 0 *
Ed
 1e-07 1 1 0
1  22 0 0 200
0

0101000
-63 0 +73 0 *
Wi

0101100
-53 0 -61 0 +52 0 +71 0 *
Fa
0  1e-07 9 0

0111000
+51 0 *
Ed
 1e-07 1 1 0
1  23 0 0 200
0

0101000
-58 0 +68 0 *
Ed
 1e-07 1 1 0
1  24 0 0 200
0

0101000
-60 0 +70 0 *
Wi

0101100
-49 0 -57 0 +48 0 +67 0 *
Fa
0  1e-07 10 0

0111000
+47 0 *
Wi

0101100
-66 0 -49 0 +56 0 +53 0 *
Fa
0  1e-07 11 0

0111000
+45 0 *
Wi

0101100
-69 0 -48 0 +59 0 +52 0 *
Fa
0  1e-07 12 0

0111000
+43 0 *
Sh

0101100
-64 0 +54 0 -50 0 +46 0 -44 0 +42 0 *
So

0100000
+41 0 *
Co

0100000
+40 111 *
Ve
1e-07
-10 -70 5000
0 0

0101101
*
Ve
1e-07
-10 -70 -5000
0 0

0101101
*
Ed
 1e-07 1 1 0
1  25 0 0 10000
0

0101000
-38 0 +37 0 *
Ve
1e-07
-10 70 5000
0 0

0101101
*
Ed
 1e-07 1 1 0
1  26 0 0 140
0

0101000
-35 0 +38 0 *
Ve
1e-07
-10 70 -5000
0 0

0101101
*
Ed
 1e-07 1 1 0
1  27 0 0 10000
0

0101000
-35 0 +33 0 *
Ed
 1e-07 1 1 0
1  28 0 0 140
0

0101000
-33 0 +37 0 *
Wi

0101100
-36 0 -34 0 +32 0 +31 0 *
Fa
0  1e-07 13 0

0111000
+30 0 *
Ve
1e-07
10 -70 5000
0 0

0101101
*
Ve
1e-07
10 -70 -5000
0 0

0101101
*
Ed
 1e-07 1 1 0
1  29 0 0 10000
0

0101000
-28 0 +27 0 *
Ve
1e-07
10 70 5000
0 0

0101101
*
Ed
 1e-07 1 1 0
1  30 0 0 140
0

0101000
-25 0 +28 0 *
Ve
1e-07
10 70 -5000
0 0

0101101
*
Ed
 1e-07 1 1 0
1  31 0 0 10000
0

0101000
-25 0 +23 0 *
Ed
 1e-07 1 1 0
1  32 0 0 140
0

0101000
-23 0 +27 0 *
Wi

0101100
-26 0 -24 0 +22 0 +21 0 *
Fa
0  1e-07 14 0

0111000
+20 0 *
Ed
 1e-07 1 1 0
1  33 0 0 20
0

0101000
-27 0 +37 0 *
Ed
 1e-07 1 1 0
1  34 0 0 20
0

0101000
-28 0 +38 0 *
Wi

0101100
-18 0 -26 0 +17 0 +36 0 *
Fa
0  1e-07 15 0

0111000
+16 0 *
Ed
 1e-07 1 1 0
1  35 0 0 20
0

0101000
-23 0 +33 0 *
Ed
 1e-07 1 1 0
1  36 0 0 20
0

0101000
-25 0 +35 0 *
Wi

0101100
-14 0 -22 0 +13 0 +32 0 *
Fa
0  1e-07 16 0

0111000
+12 0 *
Wi

0101100
-31 0 -14 0 +21 0 +18 0 *
Fa
0  1e-07 17 0

0111000
+10 0 *
Wi

0101100
-34 0 -13 0 +24 0 +17 0 *
Fa
0  1e-07 18 0

0111000
+8 0 *
Sh

0101100
-29 0 +19 0 -15 0 +11 0 -9 0 +7 0 *
So

0100000
+6 0 *
Co

0100000
+5 116 *
Co

0100000
+39 110 +39 114 +4 115 *
Co

0100000
+74 2 +74 6 +74 9 +74 12 +74 15 +74 18 +74 21 +74 24 +74 27 +74 30 
+74 33 +74 36 +74 39 +74 42 +74 45 +74 48 +74 51 +74 54 +74 57 +74 60 
+74 63 +74 66 +74 69 +74 72 +74 75 +74 78 +74 81 +74 84 +74 87 +74 90 
+74 93 +74 96 +74 99 +74 102 +74 105 +74 108 +3 109 +3 119 +3 122 +3 125 
+3 128 +3 131 +3 134 *
Co

1100000
+2 1 *

+1 0 